<?xml version="1.0" encoding="utf-8"?>
<!-- Generator: Adobe Illustrator 16.0.0, SVG Export Plug-In . SVG Version: 6.00 Build 0)  -->
<!DOCTYPE svg PUBLIC "-//W3C//DTD SVG 1.0//EN" "http://www.w3.org/TR/2001/REC-SVG-20010904/DTD/svg10.dtd">
<svg version="1.0" id="Layer_1" xmlns="http://www.w3.org/2000/svg" xmlns:xlink="http://www.w3.org/1999/xlink" x="0px" y="0px"
	 width="200px" height="200px" viewBox="0 0 200 200" enable-background="new 0 0 200 200" xml:space="preserve">
<rect y="0.001" fill-rule="evenodd" clip-rule="evenodd" fill="none" width="200" height="199.999"/>
<g>
	<path fill-rule="evenodd" clip-rule="evenodd" fill="#FFFFFF" d="M192.096,185.685c-58.215-0.004-116.432-0.003-174.647-0.003
		c-0.955,0-1.91,0-3.163,0c0-1.264,0-2.22,0-3.177c0-57.77,0-115.54-0.002-173.31c0-0.892,0.046-1.789-0.034-2.675
		c-0.296-3.299-2.961-6.104-6.09-6.464C4.574-0.356,1.313,1.554,0.324,4.888c-0.391,1.317-0.367,2.786-0.367,4.186
		C-0.06,69.67-0.058,130.265-0.055,190.859c0,0.893-0.197,1.871,0.101,2.657c0.611,1.616,1.245,3.338,2.328,4.635
		c1.542,1.848,3.896,1.85,6.179,1.85c60.967-0.02,121.935-0.016,182.901-0.018c0.743,0,1.489,0.009,2.229-0.053
		c3.271-0.271,5.972-2.953,6.276-6.205C200.405,188.967,197.212,185.685,192.096,185.685z"/>
	<path fill-rule="evenodd" clip-rule="evenodd" fill="#FFFFFF" d="M40.702,137.252c3.221-2.867,6.374-5.812,9.555-8.722
		c9.212-8.429,18.422-16.857,27.833-25.468c0.626,0.705,1.206,1.371,1.799,2.024c9.299,10.237,18.607,20.465,27.894,30.713
		c4.236,4.675,8.073,4.818,12.527,0.364c22.506-22.505,45.006-45.015,67.506-67.524c3.364-3.366,6.767-6.695,10.065-10.125
		c2.271-2.361,2.633-5.437,1.19-8.232c-1.379-2.673-4.194-4.428-7.183-3.711c-1.885,0.452-3.817,1.665-5.214,3.054
		c-23.513,23.39-46.947,46.859-70.383,70.326c-0.571,0.571-0.957,1.329-1.539,2.157c-1.017-1.095-1.622-1.734-2.214-2.386
		c-9.4-10.347-18.788-20.704-28.202-31.037c-3.404-3.735-7.475-3.99-11.146-0.636c-14.052,12.842-28.08,25.708-42.092,38.593
		c-3.201,2.944-3.471,7.335-0.762,10.337C33.035,139.968,37.479,140.121,40.702,137.252z"/>
</g>
</svg>
