<?xml version="1.0" encoding="utf-8"?>
<!-- Generator: Adobe Illustrator 16.0.0, SVG Export Plug-In . SVG Version: 6.00 Build 0)  -->
<!DOCTYPE svg PUBLIC "-//W3C//DTD SVG 1.0//EN" "http://www.w3.org/TR/2001/REC-SVG-20010904/DTD/svg10.dtd">
<svg version="1.0" id="Layer_1" xmlns="http://www.w3.org/2000/svg" xmlns:xlink="http://www.w3.org/1999/xlink" x="0px" y="0px"
	 width="200px" height="200px" viewBox="0 0 200 200" enable-background="new 0 0 200 200" xml:space="preserve">
<rect y="0.001" fill-rule="evenodd" clip-rule="evenodd" fill="none" width="200" height="199.999"/>
<g>
	<path fill-rule="evenodd" clip-rule="evenodd" fill="#FFFFFF" d="M136.838,62.322c-12.832-12.186-28.133-16.986-45.69-14.258
		C77.3,50.217,66.113,57,57.795,68.162c-15.623,20.965-13.895,49.356,4.163,68.271c5.99,6.273,8.727,13.559,8.727,22.022
		c0,4.939,1.643,9.121,4.976,12.73c0.506,0.548,0.844,1.455,0.868,2.209c0.098,3.056,0.004,6.117,0.052,9.175
		c0.065,4.1,1.396,7.745,3.972,10.962c2.914,3.637,6.853,5.43,11.243,6.469c5.47,0,10.938,0,16.407,0
		c0.236-0.099,0.465-0.236,0.713-0.291c9.008-1.966,14.479-8.713,14.512-17.92c0.012-2.799-0.047-5.599,0.037-8.396
		c0.021-0.701,0.283-1.564,0.748-2.059c3.57-3.8,5.141-8.245,5.125-13.466c-0.021-6.669,1.842-12.854,5.969-18.187
		c1.828-2.361,4.043-4.422,5.881-6.775c9.734-12.463,13.33-26.543,10.697-42.13C150.008,79.667,144.988,70.059,136.838,62.322z
		 M111.691,182.478c-0.191,3.357-2.543,5.688-5.933,5.778c-3.837,0.102-7.681,0.102-11.519,0c-3.392-0.09-5.741-2.423-5.932-5.78
		c-0.105-1.875-0.019-3.761-0.019-5.78c7.79,0,15.492,0,23.419,0C111.709,178.717,111.797,180.603,111.691,182.478z
		 M129.729,128.078c-6.693,7.126-10.844,15.316-11.895,25.038c-0.193,1.805-0.184,3.633-0.248,5.452
		c-0.133,3.783-2.496,6.206-6.275,6.268c-3.773,0.062-7.55,0.014-11.325,0.014c-3.579,0.002-7.16,0.016-10.739-0.002
		c-4.438-0.021-6.816-2.322-6.823-6.698c-0.019-11.203-3.461-21.044-11.371-29.175c-6.101-6.272-10.086-13.662-11.392-22.369
		c-1.795-11.963,0.69-22.924,8.348-32.396c8.089-10.006,18.82-15.068,31.615-15.145c20.725-0.123,37.422,14.636,40.641,33.776
		C142.523,106.288,139.053,118.148,129.729,128.078z"/>
	<path fill-rule="evenodd" clip-rule="evenodd" fill="#FFFFFF" d="M94.15,29.077c0.006,3.844,2.311,6.417,5.753,6.458
		c3.551,0.044,5.94-2.536,5.947-6.458c0.01-7.146-0.13-14.294,0.057-21.435c0.096-3.591-1.011-6.164-4.343-7.642
		c-1.043,0-2.084,0-3.125,0c-3.334,1.478-4.441,4.051-4.346,7.642C94.28,14.783,94.141,21.931,94.15,29.077z"/>
	<path fill-rule="evenodd" clip-rule="evenodd" fill="#FFFFFF" d="M29.076,94.151c-7.145-0.01-14.294,0.13-21.435-0.059
		C4.05,93.998,1.478,95.105,0,98.438c0,1.042,0,2.083,0,3.125c1.478,3.333,4.05,4.44,7.642,4.345
		c7.14-0.188,14.289-0.049,21.434-0.059c3.844-0.005,6.417-2.311,6.458-5.752C35.578,96.546,32.999,94.156,29.076,94.151z"/>
	<path fill-rule="evenodd" clip-rule="evenodd" fill="#FFFFFF" d="M192.357,94.093c-7.139,0.188-14.289,0.049-21.434,0.059
		c-3.844,0.005-6.416,2.311-6.459,5.752c-0.043,3.552,2.535,5.941,6.459,5.946c7.145,0.011,14.295-0.13,21.434,0.059
		c3.592,0.096,6.164-1.012,7.643-4.345c0-1.042,0-2.083,0-3.125C198.521,95.105,195.949,93.998,192.357,94.093z"/>
	<path fill-rule="evenodd" clip-rule="evenodd" fill="#FFFFFF" d="M54.412,54.429c2.422-2.413,2.409-5.871-0.191-8.513
		c-5.335-5.419-10.692-10.819-16.156-16.109c-1.099-1.063-2.709-1.598-3.423-2.001c-3.094-0.045-5.376,1.421-6.283,3.503
		c-1.123,2.579-0.511,4.849,1.398,6.773c5.357,5.399,10.724,10.788,16.142,16.125C48.544,56.813,51.992,56.841,54.412,54.429z"/>
	<path fill-rule="evenodd" clip-rule="evenodd" fill="#FFFFFF" d="M172.066,32.646c-0.496-2.267-1.84-3.806-4.082-4.538
		c-2.385-0.777-4.371-0.004-6.047,1.639c-3.713,3.641-7.367,7.341-11.041,11.021c-1.838,1.84-3.732,3.628-5.477,5.551
		c-1.725,1.898-2.129,4.127-0.975,6.493c1.066,2.188,2.92,3.216,5.961,3.451c0.799-0.412,2.346-0.819,3.348-1.789
		c5.652-5.469,11.193-11.052,16.721-16.646C171.861,36.424,172.508,34.652,172.066,32.646z"/>
	<path fill-rule="evenodd" clip-rule="evenodd" fill="#FFFFFF" d="M99.774,70.715c-13.044-0.068-24.465,8.579-28.015,21.209
		c-0.903,3.212,0.679,6.262,3.791,7.307c2.976,0.999,6.065-0.479,7.278-3.51c0.434-1.082,0.699-2.24,1.218-3.275
		c3.278-6.539,8.677-9.738,15.918-10.032c3.53-0.145,5.923-2.609,5.884-5.945C105.807,73.163,103.242,70.732,99.774,70.715z"/>
</g>
</svg>
