<?xml version="1.0" encoding="utf-8"?>
<!-- Generator: Adobe Illustrator 16.0.0, SVG Export Plug-In . SVG Version: 6.00 Build 0)  -->
<!DOCTYPE svg PUBLIC "-//W3C//DTD SVG 1.0//EN" "http://www.w3.org/TR/2001/REC-SVG-20010904/DTD/svg10.dtd">
<svg version="1.0" id="Layer_1" xmlns="http://www.w3.org/2000/svg" xmlns:xlink="http://www.w3.org/1999/xlink" x="0px" y="0px"
	 width="200px" height="200px" viewBox="0 0 200 200" enable-background="new 0 0 200 200" xml:space="preserve">
<rect y="0.001" fill-rule="evenodd" clip-rule="evenodd" fill="none" width="200" height="199.999"/>
<g>
	<path fill-rule="evenodd" clip-rule="evenodd" fill="#FFFFFF" d="M194.443,78.135c-4.189-0.891-8.385-1.761-12.596-2.545
		c-1.092-0.203-1.597-0.636-2.01-1.7c-1.641-4.231-3.39-8.424-5.217-12.579c-0.46-1.047-0.376-1.739,0.252-2.65
		c2.359-3.427,4.646-6.905,6.934-10.383c2.15-3.268,1.919-5.825-0.814-8.57c-6.981-7.01-13.979-14.005-20.985-20.99
		c-2.854-2.845-5.368-3.094-8.713-0.89c-3.529,2.327-7.012,4.727-10.583,6.984c-0.568,0.359-1.601,0.408-2.243,0.155
		c-4.342-1.715-8.649-3.519-12.932-5.379c-0.58-0.252-1.24-0.917-1.373-1.501c-0.857-3.798-1.671-7.611-2.316-11.45
		c-0.507-3.014-1.688-5.419-4.659-6.637c-11.459,0-22.917,0-34.375,0c-2.96,1.226-4.157,3.618-4.662,6.637
		c-0.642,3.839-1.459,7.652-2.316,11.449c-0.133,0.591-0.785,1.271-1.365,1.522c-4.283,1.857-8.593,3.656-12.938,5.364
		c-0.638,0.251-1.668,0.185-2.236-0.177c-3.622-2.298-7.148-4.745-10.74-7.092c-3.154-2.06-5.732-1.793-8.417,0.88
		C33.081,25.61,26.04,32.653,19.011,39.708c-2.741,2.751-2.975,5.295-0.823,8.565c2.287,3.477,4.564,6.962,6.941,10.378
		c0.703,1.008,0.629,1.757,0.159,2.826c-1.747,3.977-3.445,7.98-4.977,12.044c-0.5,1.328-1.179,1.951-2.521,2.2
		c-4.085,0.756-8.155,1.593-12.229,2.412c-3.412,0.688-5.156,2.795-5.159,6.28c-0.011,10.09-0.009,20.179-0.001,30.267
		c0.002,3.639,1.688,5.689,5.237,6.41c4.135,0.842,8.267,1.703,12.411,2.494c1.122,0.213,1.711,0.672,2.15,1.818
		c1.598,4.178,3.328,8.309,5.134,12.4c0.488,1.105,0.42,1.857-0.248,2.826c-2.399,3.479-4.736,7.002-7.047,10.541
		c-1.947,2.982-1.716,5.623,0.758,8.111c7.158,7.203,14.338,14.383,21.541,21.541c2.438,2.422,5.067,2.701,7.943,0.826
		c4.955-3.23,9.86-6.537,14.785-9.814c2.065-1.375,2.973-3.277,2.958-5.781c-0.055-8.854-0.135-17.707,0.038-26.557
		c0.064-3.281-0.916-5.773-3.051-8.266c-9.391-10.961-13.202-23.758-11.373-38.043c3.408-26.616,28.2-45.522,54.776-41.979
		c23.646,3.153,41.747,23.142,42.357,47.017c0.332,12.976-3.961,24.371-12.629,34.058c-1.471,1.643-2.187,3.404-2.171,5.635
		c0.064,9.371,0.063,18.746,0.004,28.117c-0.016,2.594,0.976,4.488,3.108,5.896c4.828,3.191,9.62,6.439,14.454,9.621
		c3.02,1.988,5.686,1.715,8.264-0.852c7.106-7.07,14.194-14.156,21.266-21.262c2.633-2.646,2.866-5.27,0.795-8.426
		c-2.318-3.535-4.728-7.012-6.979-10.588c-0.389-0.617-0.482-1.719-0.215-2.402c1.671-4.289,3.44-8.543,5.296-12.758
		c0.294-0.668,1.111-1.389,1.811-1.547c4.238-0.969,8.519-1.748,12.771-2.652c3.346-0.711,5.047-2.813,5.052-6.182
		c0.014-10.154,0.012-20.308,0.001-30.463C199.594,80.916,197.938,78.877,194.443,78.135z M187.749,110.404
		c-4.021,0.818-8.114,1.746-12.246,2.459c-3.118,0.539-5.002,2.164-5.79,5.236c-1.622,6.328-4.13,12.303-7.441,17.936
		c-1.475,2.506-1.337,4.902,0.3,7.303c2.409,3.535,4.748,7.117,7.018,10.529c-5.147,5.152-10.152,10.16-15.324,15.338
		c-2.529-1.686-5.239-3.447-7.887-5.301c-0.376-0.264-0.625-0.963-0.628-1.463c-0.039-7.42-0.057-14.842,0.021-22.264
		c0.008-0.729,0.555-1.547,1.051-2.164c9.933-12.342,14.488-26.438,13.649-42.227c-1.382-26.007-20.723-49.041-46.108-55.055
		c-32.5-7.697-64.856,11.637-73.008,43.986c-4.866,19.309-0.828,36.977,11.43,52.692c1.067,1.367,1.554,2.662,1.529,4.395
		c-0.091,6.703-0.068,13.41-0.007,20.113c0.011,1.184-0.338,1.904-1.335,2.527c-2.475,1.549-4.886,3.199-7.209,4.732
		c-5.222-5.205-10.235-10.203-15.352-15.305c2.227-3.35,4.469-6.852,6.848-10.258c1.858-2.66,1.895-5.205,0.252-7.988
		c-3.186-5.395-5.6-11.137-7.125-17.225c-0.798-3.188-2.634-5.016-5.96-5.561c-4.032-0.662-8.019-1.598-12.174-2.447
		c0-7.148,0-14.33,0-21.578c4.177-0.843,8.295-1.722,12.434-2.491c2.924-0.543,4.771-2.095,5.532-5.026
		c1.673-6.448,4.225-12.54,7.598-18.293c1.381-2.355,1.249-4.683-0.29-6.964c-2.397-3.555-4.753-7.139-6.999-10.519
		c5.134-5.109,10.184-10.135,15.433-15.358c2.961,1.968,6.378,4.087,9.626,6.439c2.884,2.089,5.608,2.223,8.665,0.391
		c5.32-3.189,11.034-5.502,17.049-7.025c3.106-0.787,4.901-2.607,5.449-5.841c0.691-4.088,1.614-8.137,2.458-12.304
		c7.178,0,14.31,0,21.584,0c0.836,4.136,1.737,8.242,2.479,12.377c0.542,3.021,2.133,4.884,5.137,5.656
		c6.391,1.644,12.424,4.171,18.113,7.522c2.429,1.431,4.796,1.287,7.135-0.298c3.549-2.403,7.133-4.753,10.568-7.037
		c5.14,5.149,10.18,10.197,15.331,15.358c-2.19,3.294-4.431,6.798-6.811,10.201c-1.861,2.661-1.899,5.201-0.255,7.983
		c3.188,5.394,5.601,11.138,7.122,17.225c0.821,3.288,2.763,5.059,6.157,5.591c3.972,0.622,7.894,1.568,11.982,2.403
		C187.749,95.919,187.749,103.047,187.749,110.404z"/>
	<path fill-rule="evenodd" clip-rule="evenodd" fill="#FFFFFF" d="M119.165,67.844c-4.286-2.578-8.676-0.539-9.411,4.393
		c-1.062,7.121-2.102,14.245-3.16,21.436c-4.428,0-8.767,0-13.188,0c-1.06-7.195-2.099-14.321-3.162-21.443
		c-0.723-4.848-5.072-6.945-9.257-4.488c-23.117,13.577-24.296,47.212-2.15,62.302c1.222,0.832,1.68,1.656,1.676,3.137
		c-0.054,19.785,0.023,39.572-0.091,59.359c-0.021,3.545,1.118,6.008,4.344,7.461c10.157,0,20.313,0,30.469,0
		c3.363-1.469,4.363-4.08,4.343-7.656c-0.111-19.723-0.035-39.443-0.09-59.166c-0.004-1.484,0.47-2.295,1.682-3.131
		C143.255,114.809,142.168,81.679,119.165,67.844z M111.518,122.137c-2.559,1.393-3.731,3.348-3.724,6.281
		c0.05,19.07,0.025,38.143,0.025,57.215c0,0.779,0,1.559,0,2.496c-5.161,0-10.261,0-15.64,0c0-0.695,0-1.445,0-2.197
		c0-18.941-0.053-37.883,0.049-56.824c0.02-3.488-1.269-5.658-4.33-7.318c-12.971-7.029-17.145-23.154-9.35-35.617
		c0.369-0.591,0.811-1.137,1.504-2.099c0.838,5.662,1.589,10.801,2.363,15.937c0.532,3.523,2.703,5.439,6.209,5.445
		c7.615,0.018,15.231,0.02,22.846,0c3.388-0.01,5.59-1.957,6.101-5.349c0.782-5.193,1.539-10.39,2.364-15.977
		c2.88,3.617,4.516,7.385,5.062,11.548C126.502,107.17,121.678,116.604,111.518,122.137z"/>
</g>
</svg>
