<?xml version="1.0" encoding="utf-8"?>
<!-- Generator: Adobe Illustrator 16.0.0, SVG Export Plug-In . SVG Version: 6.00 Build 0)  -->
<!DOCTYPE svg PUBLIC "-//W3C//DTD SVG 1.0//EN" "http://www.w3.org/TR/2001/REC-SVG-20010904/DTD/svg10.dtd">
<svg version="1.0" id="Layer_1" xmlns="http://www.w3.org/2000/svg" xmlns:xlink="http://www.w3.org/1999/xlink" x="0px" y="0px"
	 width="200px" height="200px" viewBox="0 0 200 200" enable-background="new 0 0 200 200" xml:space="preserve">
<rect y="0.001" fill-rule="evenodd" clip-rule="evenodd" fill="none" width="200" height="199.999"/>
<g>
	<path fill-rule="evenodd" clip-rule="evenodd" fill="#FFFFFF" d="M184.769,195.291c-0.66-11.492-1.24-22.99-1.835-34.484
		c-0.445-8.574-0.865-17.148-1.305-25.721c-0.604-11.758-1.23-23.512-1.822-35.269c-0.583-11.562-1.121-23.125-1.732-34.686
		c-0.054-0.99-0.327-2.07-0.824-2.918c-2.951-5.049-6.081-9.992-8.975-15.071c-1.28-2.245-2.872-3.386-5.487-3.099
		c-1.215,0.133-2.456,0.021-4.043,0.021c0.639-2.864,1.228-5.545,1.835-8.222c1.009-4.438,0.402-5.449-3.927-6.46
		c-8.968-2.097-17.942-4.164-26.895-6.33c-0.699-0.168-1.593-0.893-1.798-1.545C124.285,9.755,116.488,2.652,104.373,0.32
		c-0.168-0.032-0.308-0.21-0.46-0.32c-2.474,0-4.949,0-7.423,0c-3.417,1.168-6.943,2.095-10.228,3.567
		c-3.724,1.671-6.629,4.518-9.193,7.706c-0.498,0.619-1.376,1.199-2.142,1.297c-9.541,1.212-19.095,2.336-28.645,3.473
		c-2.516,0.3-5.042,0.521-7.552,0.864c-2.71,0.371-3.763,2.019-3.404,4.861c0.887,7.026,1.712,14.062,2.553,21.095
		c0.037,0.313-0.023,0.638-0.052,1.209c-0.67,0-1.38-0.188-1.914,0.039c-1.188,0.503-2.729,0.93-3.346,1.889
		c-3.507,5.468-6.796,11.076-10.121,16.658c-0.316,0.533-0.487,1.22-0.519,1.844c-0.686,13.71-1.312,27.423-2.01,41.131
		c-0.835,16.375-1.744,32.742-2.59,49.115c-0.591,11.436-1.126,22.873-1.694,34.309c-0.105,2.145-0.176,4.295-0.386,6.428
		c-0.205,2.063,0.549,3.533,2.336,4.516c54.948,0,109.896,0,164.844,0C184.323,198.982,184.889,197.4,184.769,195.291z
		 M157.108,50.825c1.537,0,2.964-0.082,4.371,0.042c0.526,0.047,1.199,0.458,1.481,0.907c1.824,2.899,3.561,5.854,5.502,9.089
		c-4.688,0-9.064,0-13.688,0C155.557,57.505,156.319,54.221,157.108,50.825z M153.593,35.75c-1.989,8.494-3.938,16.809-5.89,25.138
		c-6.552,0-12.922,0-19.563,0c-0.781-3.193-1.584-6.439-2.365-9.69c-1.213-5.047-2.396-10.102-3.62-15.146
		c-0.739-3.041-2.193-3.915-5.253-3.228c-1.385,0.312-2.769,0.634-4.57,1.046c0.638-2.677,1.188-4.977,1.759-7.374
		C127.354,29.603,140.403,32.659,153.593,35.75z M121.054,60.878c-16.953,0-33.738,0-50.697,0c-0.729-3.004-1.457-6.011-2.249-9.271
		c15.976-3.842,31.84-7.657,47.936-11.528C117.73,47.084,119.379,53.929,121.054,60.878z M120.345,20.874
		c-2.341-0.524-4.516-0.987-6.679-1.498c-3.676-0.867-4.99-0.054-5.83,3.62c-0.778,3.412-1.584,6.819-2.368,10.23
		c-0.646,2.809-0.664,2.828-3.955,3.071c-0.372-2.924-0.767-5.863-1.115-8.808c-0.552-4.642-1.052-9.289-1.615-13.931
		c-0.278-2.285-1.967-3.527-4.254-3.249c-2.244,0.273-4.492,0.533-6.738,0.799C97.986,2.545,116.021,7.987,120.345,20.874z
		 M92.337,17.496c0.817,6.925,1.612,13.675,2.434,20.633c-4.65,1.124-9.17,2.214-13.688,3.307c-5.74,1.388-11.486,2.759-17.22,4.172
		c-2.889,0.714-3.701,2.118-3.017,5.01c0.791,3.343,1.581,6.686,2.429,10.269c-5.499,0-10.822,0-16.385,0
		c-1.473-12.435-2.941-24.845-4.438-37.478C59.142,21.43,75.626,19.477,92.337,17.496z M37.248,51.407
		c0.169-0.274,0.718-0.601,0.908-0.513c0.328,0.153,0.685,0.59,0.732,0.947c0.389,2.95,0.709,5.909,1.066,8.993
		c-2.813,0-5.446,0-8.368,0C33.525,57.592,35.366,54.486,37.248,51.407z M22.261,193.074c2.14-41.703,4.272-83.314,6.412-125.028
		c47.593,0,95.016,0,142.661,0c2.138,41.655,4.272,83.278,6.414,125.028C125.897,193.074,74.182,193.074,22.261,193.074z"/>
	<path fill-rule="evenodd" clip-rule="evenodd" fill="#FFFFFF" d="M122.371,75.041c-4.072,1.358-6.551,4.263-7.045,8.512
		c-0.515,4.428,1.403,7.799,5.189,10.151c0.574,0.356,1.376,1.016,1.373,1.532c-0.031,5.262,0.298,10.596-0.447,15.77
		c-1.463,10.152-10.97,17.756-21.406,17.785c-10.387,0.029-19.94-7.592-21.468-17.723c-0.72-4.783-0.339-9.729-0.536-14.598
		c-0.057-1.438,0.296-2.267,1.698-3.02c3.86-2.074,5.794-6.688,4.829-10.801c-1.021-4.354-4.656-7.684-8.756-8.019
		c-4.745-0.39-8.773,1.925-10.569,6.072c-1.767,4.08-0.978,9.256,2.763,11.584c3.178,1.975,3.358,4.389,3.147,7.388
		c-0.056,0.778-0.009,1.562-0.009,2.343c-0.076,0.007-0.152,0.012-0.229,0.019c0.261,3.43,0.163,6.934,0.846,10.277
		c3.233,15.83,17.833,25.6,33.752,22.797c11.729-2.066,21.745-12.48,22.962-24.271c0.484-4.705,0.358-9.482,0.372-14.227
		c0.005-1.501,0.308-2.378,1.759-3.18c4.551-2.516,6.252-8.137,4.133-12.854C132.611,75.865,127.257,73.411,122.371,75.041z
		 M77.66,86.057c-2.801-1.767-3.557-1.753-6.047,0.03c-0.706-1.504-0.366-2.813,0.813-3.854c1.134-1.001,2.497-1.097,3.794-0.36
		C77.796,82.767,78.111,84.212,77.66,86.057z M128.374,86.214c-1.913-1.959-3.903-1.883-6.01-0.332
		c-0.485-1.728-0.11-3.056,1.322-3.945c1.274-0.79,2.626-0.725,3.792,0.213C128.785,83.198,129.061,84.567,128.374,86.214z"/>
</g>
</svg>
