<?xml version="1.0" encoding="utf-8"?>
<!-- Generator: Adobe Illustrator 16.0.0, SVG Export Plug-In . SVG Version: 6.00 Build 0)  -->
<!DOCTYPE svg PUBLIC "-//W3C//DTD SVG 1.0//EN" "http://www.w3.org/TR/2001/REC-SVG-20010904/DTD/svg10.dtd">
<svg version="1.0" id="Layer_1" xmlns="http://www.w3.org/2000/svg" xmlns:xlink="http://www.w3.org/1999/xlink" x="0px" y="0px"
	 width="200px" height="200px" viewBox="0 0 200 200" enable-background="new 0 0 200 200" xml:space="preserve">
<rect y="0.001" fill-rule="evenodd" clip-rule="evenodd" fill="none" width="200" height="199.999"/>
<g>
	<path fill-rule="evenodd" clip-rule="evenodd" fill="#FFFFFF" d="M177.514,88.916c2.75-4.022,5.583-7.99,8.466-11.919
		c0.431-0.587,1.247-1.174,1.937-1.241c5.859-0.577,10.044-3.236,11.813-9.09c0.032-0.104,0.178-0.174,0.271-0.259
		c0-4.168,0-8.334,0-12.5c-1.022-0.761-1.974-1.649-3.077-2.263c-29.507-16.386-59.021-32.755-88.562-49.079
		c-1.898-1.05-4.007-1.719-6.018-2.564c-1.563,0-3.125,0-4.688,0c-7.917,4.134-15.862,8.216-23.742,12.42
		c-5.79,3.089-11.488,6.348-17.24,9.506c-1.286,0.707-2.24,1.6-2.135,3.185c0.153,2.33,2.513,3.369,4.857,2.083
		c6.606-3.625,13.189-7.293,19.781-10.945c5.341-2.959,10.701-5.883,16.013-8.894c3.239-1.837,6.376-1.813,9.615-0.015
		c26.302,14.601,52.616,29.18,78.925,43.768c0.316,0.175,0.613,0.384,1.354,0.852c-56.866,0-113.227,0-170.174,0
		c0.961-0.57,1.509-0.914,2.072-1.228c9.54-5.301,19.084-10.595,28.619-15.902c0.676-0.376,1.396-0.757,1.918-1.305
		c1.013-1.064,1.137-2.342,0.262-3.556c-0.831-1.154-1.964-1.714-3.394-1.12c-0.717,0.297-1.402,0.677-2.082,1.053
		C29.063,37.241,15.819,44.577,2.596,51.947c-0.938,0.522-1.734,1.3-2.596,1.96c0,4.166,0,8.332,0,12.5
		c0.235,0.514,0.498,1.017,0.701,1.543c1.771,4.581,6.03,7.668,10.934,7.752c1.185,0.021,1.856,0.404,2.519,1.365
		c2.729,3.961,5.598,7.826,8.303,11.803c0.572,0.84,0.945,2.001,0.948,3.015c0.052,22.837,0.049,45.673,0.006,68.509
		c-0.002,0.9-0.3,1.938-0.805,2.677c-2.788,4.077-5.718,8.058-8.518,12.128c-0.717,1.041-1.508,1.469-2.74,1.341
		c-0.9-0.094-1.827,0.056-2.729-0.031c-4.146-0.402-7.024,1.275-8.618,5.133c0,4.428,0,8.854,0,13.281
		c1.01,2.376,2.753,4.018,5.078,5.079c63.28,0,126.563,0,189.843,0c2.323-1.063,4.058-2.715,5.079-5.079c0-4.427,0-8.854,0-13.281
		c-1.593-3.854-4.487-5.666-8.606-5.084c-3.393,0.479-5.478-0.792-7.196-3.723c-1.965-3.35-4.502-6.359-6.682-9.591
		c-0.538-0.798-0.919-1.88-0.922-2.832c-0.05-22.89-0.05-45.779,0-68.669C176.596,90.792,176.974,89.707,177.514,88.916z
		 M13.481,69.701c-0.651,0-1.304,0.011-1.952-0.033c-3.203-0.216-5.47-2.418-5.647-5.617c-0.105-1.873-0.02-3.757-0.02-5.776
		c62.757,0,125.398,0,188.272,0c0,2.032,0.09,3.918-0.021,5.79c-0.188,3.202-2.454,5.392-5.66,5.605
		c-0.648,0.043-1.302,0.032-1.952,0.032C128.828,69.702,71.154,69.702,13.481,69.701z M149.33,128.472
		c2.123,0.576,3.741-0.92,3.748-3.474c0.021-7.682,0.008-15.363,0.009-23.044c0-3.18,0-6.358,0-9.715c5.985,0,11.69,0,17.509,0
		c0,22.564,0,45.048,0,67.629c-5.834,0-11.594,0-17.509,0c0-6.169,0-12.215-0.001-18.261c0-0.716,0.035-1.435-0.012-2.147
		c-0.127-1.898-1.407-3.158-3.093-3.088c-1.597,0.067-2.777,1.286-2.791,3.142c-0.047,6.379-0.125,12.761,0.022,19.137
		c0.055,2.354-0.55,4.231-1.954,6.084c-2.593,3.419-4.944,7.021-7.534,10.442c-0.52,0.687-1.653,1.286-2.506,1.289
		c-23.5,0.068-46.999,0.066-70.499,0.004c-0.804-0.002-1.882-0.546-2.361-1.188c-2.953-3.964-5.812-8-8.599-12.082
		c-0.54-0.792-0.879-1.895-0.882-2.855c-0.048-22.849-0.048-45.697,0.001-68.546c0.002-0.96,0.353-2.061,0.895-2.854
		c2.748-4.029,5.571-8.012,8.48-11.926c0.482-0.65,1.521-1.254,2.305-1.256c23.631-0.066,47.26-0.066,70.891,0
		c0.782,0.002,1.819,0.607,2.302,1.257c2.871,3.861,5.665,7.784,8.36,11.771c0.605,0.896,0.999,2.125,1.006,3.204
		c0.072,10.936,0.054,21.872,0.035,32.809C147.15,126.495,147.47,127.966,149.33,128.472z M20.521,75.838
		c11.851,0,23.352,0,35.212,0c-2.45,3.462-4.696,6.688-7.027,9.854c-0.268,0.364-1.005,0.534-1.526,0.537
		c-6.044,0.037-12.087,0.033-18.132,0.005c-0.47-0.002-1.143-0.124-1.378-0.444C25.296,82.575,22.996,79.308,20.521,75.838z
		 M46.813,92.271c0,22.524,0,44.959,0,67.559c-5.766,0-11.513,0-17.439,0c0-22.569,0-45.009,0-67.559
		C35.211,92.271,40.962,92.271,46.813,92.271z M25.341,169.42c1.552-2.717,3.511-3.756,6.717-3.545
		c4.921,0.325,9.88,0.031,14.819,0.141c0.804,0.017,1.855,0.556,2.343,1.195c2.229,2.92,4.297,5.963,6.593,9.201
		c-11.884,0-23.407,0-35.343,0C22.216,173.939,23.982,171.796,25.341,169.42z M191.396,182.402c2.745,0.001,2.747,0.003,2.75,2.658
		c0.003,2.345-0.063,4.689,0.022,7.03c0.057,1.562-0.607,2.149-2.09,2.012c-0.322-0.03-0.65-0.004-0.976-0.004
		c-60.736,0-121.473,0.001-182.209,0c-3.042,0-3.042-0.002-3.043-2.983c-0.001-2.083-0.004-4.166,0.001-6.249
		c0.007-2.43,0.039-2.461,2.554-2.463c5.013-0.003,10.025-0.001,15.038-0.001c25.519,0,51.036,0,76.555,0
		C130.465,182.402,160.931,182.402,191.396,182.402z M179.573,176.453c-11.962,0-23.456,0-35.407,0
		c0.984-1.393,1.804-2.575,2.648-3.741c1.598-2.207,2.773-5.244,4.939-6.37c2.162-1.126,5.321-0.357,8.042-0.375
		c3.643-0.024,7.286-0.069,10.925,0.046c0.75,0.023,1.725,0.522,2.177,1.119C175.121,170.069,177.205,173.114,179.573,176.453z
		 M174.754,82.601c-1.632,3.013-3.85,3.953-7.215,3.732c-4.724-0.311-9.482-0.111-14.226-0.056
		c-1.143,0.014-1.906-0.259-2.581-1.259c-2.023-3.003-4.162-5.927-6.501-9.226c11.91,0,23.386,0,35.255,0
		C177.796,78.187,176.023,80.258,174.754,82.601z"/>
	<path fill-rule="evenodd" clip-rule="evenodd" fill="#FFFFFF" d="M113.539,31.326c0.105-7.333-6.08-13.609-13.468-13.665
		c-7.354-0.056-13.584,6.133-13.612,13.522c-0.027,7.379,6.17,13.561,13.566,13.53C107.382,44.686,113.434,38.69,113.539,31.326z
		 M92.482,31.281c-0.024-4.285,3.191-7.567,7.446-7.602c4.258-0.035,7.561,3.214,7.588,7.462c0.025,4.27-3.212,7.57-7.448,7.592
		C95.789,38.756,92.506,35.53,92.482,31.281z"/>
	<path fill-rule="evenodd" clip-rule="evenodd" fill="#FFFFFF" d="M100,92.512c-18.514-0.001-33.558,14.971-33.579,33.416
		c-0.021,18.607,14.973,33.736,33.479,33.782c18.51,0.045,33.668-15.07,33.678-33.586C133.588,107.519,118.598,92.513,100,92.512z
		 M99.929,153.738c-15.268-0.08-27.696-12.552-27.644-27.739c0.054-15.398,12.596-27.68,28.17-27.584
		c14.918,0.091,27.291,12.674,27.258,27.719C127.68,141.331,115.111,153.818,99.929,153.738z"/>
	<path fill-rule="evenodd" clip-rule="evenodd" fill="#FFFFFF" d="M103.191,122.977c0-3.396,0-6.654,0-10.027
		c1.98,0.347,2.575,1.509,2.749,3.177c0.187,1.799,1.556,2.986,3.085,2.908c1.663-0.085,2.985-1.488,2.728-3.354
		c-0.226-1.629-0.669-3.334-1.465-4.755c-1.511-2.7-4.18-3.734-7.129-3.979c-0.395-3.208-1.307-4.424-3.221-4.386
		c-1.872,0.038-2.771,1.288-3.049,4.331c-6.007,0.91-8.702,4.039-8.733,10.058c-0.008,1.56-0.07,3.143,0.162,4.673
		c0.532,3.508,2.547,5.908,5.912,7.079c0.834,0.29,1.751,0.339,2.625,0.497c0,3.344,0,6.563,0,9.794
		c-2.081-0.237-2.326-0.52-2.78-3.066c-0.327-1.835-1.501-2.834-3.202-2.727c-1.671,0.106-2.781,1.317-2.652,3.188
		c0.084,1.206,0.325,2.466,0.803,3.569c1.454,3.359,4.169,5.015,7.749,5.199c0.598,3.407,1.358,4.432,3.228,4.43
		c1.875-0.002,2.633-1.026,3.229-4.464c2.904-0.141,5.343-1.313,7.045-3.79c2.32-3.377,2.227-11.398-0.147-14.729
		C108.42,124.21,105.963,123.225,103.191,122.977z M96.842,123.09c-2.084-0.227-2.695-1.44-2.751-3.184
		c-0.178-5.528,0.108-6.304,2.751-6.849C96.842,116.338,96.842,119.592,96.842,123.09z M105.883,136.301
		c-0.145,1.559-0.806,2.698-2.739,2.772c0-3.363,0-6.639,0-10.051C105.908,129.782,106.369,131.089,105.883,136.301z"/>
</g>
</svg>
