<?xml version="1.0" encoding="utf-8"?>
<!-- Generator: Adobe Illustrator 16.0.0, SVG Export Plug-In . SVG Version: 6.00 Build 0)  -->
<!DOCTYPE svg PUBLIC "-//W3C//DTD SVG 1.0//EN" "http://www.w3.org/TR/2001/REC-SVG-20010904/DTD/svg10.dtd">
<svg version="1.0" id="Layer_1" xmlns="http://www.w3.org/2000/svg" xmlns:xlink="http://www.w3.org/1999/xlink" x="0px" y="0px"
	 width="200px" height="200px" viewBox="0 0 200 200" enable-background="new 0 0 200 200" xml:space="preserve">
<rect y="0.001" fill-rule="evenodd" clip-rule="evenodd" fill="none" width="200" height="199.999"/>
<path fill-rule="evenodd" clip-rule="evenodd" fill="#FFFFFF" d="M133.243,86.31c-16.797-5.732-22.332-20.963-19.876-32.655
	c2.822-13.436,14.007-22.749,27.099-22.828c13.664-0.083,24.969,8.725,28.093,21.95c2.749,11.636-2.423,27.646-19.514,33.489
	c-0.321,3.953-0.272,7.919-1.021,11.728c-2.328,11.866-12.16,20.699-24.109,22.166c-15.383,1.888-30.76,3.824-46.136,5.776
	c-6.067,0.771-10.787,6.03-10.938,12.112c-0.051,2.076-0.008,4.155-0.008,6.396c0.867,0.36,1.724,0.729,2.59,1.074
	c12.229,4.875,19.402,17.305,17.558,30.431c-1.732,12.32-12.221,22.422-24.783,23.87c-14.137,1.629-27.429-7.854-30.713-21.913
	c-3.166-13.547,4.529-27.771,17.777-32.595c1.7-0.618,2.084-1.431,2.082-3.074c-0.042-28.179-0.046-56.358,0.006-84.538
	c0.003-1.698-0.499-2.432-2.135-3.04C36.947,50.1,29.297,37.498,30.976,24.858C32.708,11.813,43.2,1.455,56.004,0.149
	C70.148-1.293,83.178,7.927,86.5,21.728c3.291,13.675-4.106,27.692-17.34,32.855c-0.736,0.287-1.476,0.567-2.263,0.869
	c0,19.182,0,38.299,0,57.314c3.737-0.814,7.39-1.865,11.116-2.377c10.845-1.489,21.718-2.765,32.579-4.123
	c4.044-0.506,8.108-0.888,12.127-1.548c6.107-1.004,10.42-6.221,10.519-12.48C133.271,90.243,133.243,88.249,133.243,86.31z
	 M71.749,28.187c-0.018-7.07-5.817-12.831-12.833-12.744c-6.885,0.084-12.645,5.868-12.688,12.741
	c-0.044,7.021,5.72,12.775,12.805,12.78C66.164,40.967,71.768,35.337,71.749,28.187z M141.064,71.709
	c7.079-0.012,12.843-5.794,12.771-12.811c-0.07-6.88-5.839-12.646-12.718-12.712c-7.017-0.067-12.787,5.693-12.798,12.778
	C128.31,66.109,133.921,71.721,141.064,71.709z M59.13,159.021c-7.116-0.022-12.872,5.634-12.898,12.677
	c-0.026,6.947,5.874,12.855,12.826,12.842c6.939-0.012,12.646-5.701,12.69-12.651C71.793,164.697,66.25,159.044,59.13,159.021z"/>
</svg>
