<?xml version="1.0" encoding="UTF-8"?>
<!DOCTYPE svg PUBLIC "-//W3C//DTD SVG 1.1//EN" "http://www.w3.org/Graphics/SVG/1.1/DTD/svg11.dtd">
<!-- Creator: CorelDRAW -->
<svg xmlns="http://www.w3.org/2000/svg" xml:space="preserve" width="12.7mm" height="12.7mm" version="1.1" style="shape-rendering:geometricPrecision; text-rendering:geometricPrecision; image-rendering:optimizeQuality; fill-rule:evenodd; clip-rule:evenodd"
viewBox="0 0 86.98 86.98"
 xmlns:xlink="http://www.w3.org/1999/xlink"
 xmlns:xodm="http://www.corel.com/coreldraw/odm/2003">
 <defs>
  <style type="text/css">
   <![CDATA[
    .fil0 {fill:none}
    .fil1 {fill:#FEFEFE}
    .fil2 {fill:#2D6B91}
   ]]>
  </style>
 </defs>
 <g id="Layer_x0020_1">
  <metadata id="CorelCorpID_0Corel-Layer"/>
  <rect class="fil0" width="86.98" height="86.98"/>
  <g id="_2048798780400">
   <path class="fil1" d="M15.98 39.03c2.24,0 4.06,-0.19 5.47,-0.58 1.41,-0.39 2.5,-0.91 3.28,-1.55 0.77,-0.65 1.3,-1.4 1.6,-2.25 0.29,-0.85 0.44,-1.75 0.44,-2.68 0,-2.59 -0.55,-4.55 -1.64,-5.9 -1.09,-1.35 -2.84,-2.02 -5.23,-2.02 -2.02,0 -3.7,0.74 -5.03,2.21 -1.33,1.48 -2,3.56 -2,6.25l-9.66 0c0,-2.48 0.41,-4.74 1.24,-6.75 0.83,-2.02 2,-3.75 3.51,-5.2 1.52,-1.45 3.33,-2.57 5.43,-3.38 1.95,-0.74 4.07,-1.14 6.35,-1.2l-0 -0 0.09 0c0.15,-0 0.31,-0 0.47,-0 0.16,0 0.31,0 0.46,0l36.52 0 0 0.03 9.6 0 0 12.62 5.93 0 0 12.62 5.93 0 0 12.62 5.93 0 0 17.04 -27.38 0 0 0.06 -35.8 0c-0.57,0.03 -1.15,0.05 -1.74,0.05 -5.54,0 -9.83,-1.5 -12.86,-4.5 -3.04,-3 -4.55,-7.14 -4.55,-12.42l9.99 0c0,3 0.67,5.19 2,6.56 1.33,1.37 3.3,2.06 5.91,2.06 2.18,0 3.99,-0.74 5.43,-2.21 1.44,-1.47 2.16,-3.58 2.16,-6.33 0,-3 -0.89,-5.1 -2.68,-6.29 -1.78,-1.19 -4.83,-1.79 -9.15,-1.79l0 -7.06z"/>
   <rect class="fil2" x="28.03" y="20.5" width="34.35" height="8.06"/>
   <rect class="fil2" x="33.96" y="33.12" width="34.35" height="8.06"/>
   <rect class="fil2" x="39.89" y="45.74" width="34.35" height="8.06"/>
   <rect class="fil2" x="45.82" y="58.35" width="34.35" height="8.06"/>
  </g>
 </g>
</svg>
