<?xml version="1.0" encoding="UTF-8"?>
<!DOCTYPE svg PUBLIC "-//W3C//DTD SVG 1.1//EN" "http://www.w3.org/Graphics/SVG/1.1/DTD/svg11.dtd">
<!-- Creator: CorelDRAW -->
<svg xmlns="http://www.w3.org/2000/svg" xml:space="preserve" width="18px" height="18px" version="1.1" style="shape-rendering:geometricPrecision; text-rendering:geometricPrecision; image-rendering:optimizeQuality; fill-rule:evenodd; clip-rule:evenodd"
viewBox="0 0 3.96 3.96"
 xmlns:xlink="http://www.w3.org/1999/xlink"
 xmlns:xodm="http://www.corel.com/coreldraw/odm/2003">
 <defs>
  <style type="text/css">
   <![CDATA[
    .str0 {stroke:#C5CED5;stroke-width:0.18;stroke-miterlimit:22.9256}
    .fil0 {fill:none}
    .fil2 {fill:#F7941D}
    .fil1 {fill:white}
   ]]>
  </style>
 </defs>
 <g id="Layer_x0020_1">
  <metadata id="CorelCorpID_0Corel-Layer"/>
  <rect class="fil0" width="3.96" height="3.96"/>
  <circle class="fil1 str0" cx="1.98" cy="1.98" r="1.87"/>
  <path class="fil2" d="M1.22 1.2c0,0.05 0.06,0.09 0.1,0.14l0.09 0.09c0.01,0.01 0.01,0.02 0.02,0.03 0.01,0.01 0.03,0.03 0.04,0.04 0.02,0.02 0.03,0.03 0.05,0.05l0.17 0.19c0.02,0.02 0.03,0.03 0.05,0.05l0.09 0.1c0.01,0.01 0.02,0.03 0.04,0.05 0.01,0.01 0.04,0.03 0.04,0.05l0 0.93 -0.31 0c-0.09,0 -0.1,0.15 0.02,0.15l0.72 0c0.12,0 0.11,-0.15 0.02,-0.15l-0.31 0 0 -0.93c0,-0.02 0.02,-0.04 0.04,-0.05l0.31 -0.34c0.06,-0.07 0.16,-0.18 0.22,-0.24l0.04 -0.05c0.04,-0.04 0.13,-0.1 0.03,-0.18 -0.02,-0.02 -0.05,-0.02 -0.09,-0.02l-1.24 0c-0.07,0 -0.14,0.03 -0.14,0.09z"/>
 </g>
</svg>
