<?xml version="1.0" encoding="UTF-8"?>
<!DOCTYPE svg PUBLIC "-//W3C//DTD SVG 1.1//EN" "http://www.w3.org/Graphics/SVG/1.1/DTD/svg11.dtd">
<!-- Creator: CorelDRAW -->
<svg xmlns="http://www.w3.org/2000/svg" xml:space="preserve" width="18px" height="18px" version="1.1" style="shape-rendering:geometricPrecision; text-rendering:geometricPrecision; image-rendering:optimizeQuality; fill-rule:evenodd; clip-rule:evenodd"
viewBox="0 0 18 18"
 xmlns:xlink="http://www.w3.org/1999/xlink"
 xmlns:xodm="http://www.corel.com/coreldraw/odm/2003">
 <defs>
  <style type="text/css">
   <![CDATA[
    .str0 {stroke:#C5CED5;stroke-width:0.83;stroke-miterlimit:22.9256}
    .fil0 {fill:none}
    .fil2 {fill:#F7941D}
    .fil1 {fill:white}
   ]]>
  </style>
 </defs>
 <g id="Layer_x0020_1">
  <metadata id="CorelCorpID_0Corel-Layer"/>
  <rect class="fil0" width="18" height="18"/>
  <circle class="fil1 str0" cx="9" cy="9" r="8.5"/>
  <g id="_2611090256336">
   <path class="fil2" d="M10.2 6.54c0,-0.16 0.14,-0.21 0.27,-0.21 0.16,0 0.77,0.38 0.9,0.48 0.69,0.5 1.2,1.18 1.47,2 0.06,0.18 0.17,0.38 0.01,0.51 -0.32,0.27 -0.42,-0.33 -0.56,-0.68 -0.3,-0.72 -1,-1.42 -1.7,-1.77 -0.16,-0.07 -0.39,-0.1 -0.39,-0.33zm-1.44 -0.27c0,-0.26 0.31,-0.23 0.46,-0.21 0.11,0.01 0.23,-0.01 0.33,0.02 0.2,0.08 0.22,0.34 0.02,0.44 -0.06,0.02 -0.61,-0.01 -0.64,-0.03 -0.08,-0.02 -0.17,-0.13 -0.17,-0.22zm-0.48 -1.49c0,0.3 0.08,0.52 0.34,0.67 0.05,0.03 0.05,0.03 0.1,0.05l0.1 0.06c-0.84,0 -1.82,0.37 -2.43,0.8l-0.6 0.5c-0.74,0.74 -1.34,1.96 -1.34,3.01l9.1 0c0,-0.68 -0.32,-1.57 -0.62,-2.07 -0.2,-0.33 -0.57,-0.83 -0.86,-1.06 -0.51,-0.39 -0.41,-0.39 -1.14,-0.76 -0.43,-0.21 -1.12,-0.42 -1.75,-0.42 0,-0.01 0.01,-0.02 0.02,-0.02 0,0 0.25,-0.11 0.34,-0.22 0.35,-0.42 0.2,-1.2 -0.6,-1.2 -0.33,0 -0.66,0.33 -0.66,0.66z"/>
   <path class="fil2" d="M4.84 12.26l8.32 0c0.01,-0.17 0.24,-0.71 0.3,-0.96l-8.92 0c0.06,0.25 0.28,0.79 0.3,0.96z"/>
   <path class="fil2" d="M3.73 10.59c0,0.14 0.09,0.24 0.24,0.24l10.06 0c0.32,0 0.32,-0.48 0,-0.48l-10.06 0c-0.15,0 -0.24,0.09 -0.24,0.24z"/>
  </g>
 </g>
</svg>
