<?xml version="1.0" encoding="utf-8"?>
<!-- Generator: Adobe Illustrator 16.0.0, SVG Export Plug-In . SVG Version: 6.00 Build 0)  -->
<!DOCTYPE svg PUBLIC "-//W3C//DTD SVG 1.1//EN" "http://www.w3.org/Graphics/SVG/1.1/DTD/svg11.dtd">
<svg version="1.1" id="Layer_1" xmlns="http://www.w3.org/2000/svg" xmlns:xlink="http://www.w3.org/1999/xlink" x="0px" y="0px"
	 width="100px" height="100px" viewBox="0 0 100 100" enable-background="new 0 0 100 100" xml:space="preserve">
<g>
	<defs>
		<filter id="Adobe_OpacityMaskFilter" filterUnits="userSpaceOnUse" x="-0.002" y="0" width="100.002" height="99.999">
			<feColorMatrix  type="matrix" values="1 0 0 0 0  0 1 0 0 0  0 0 1 0 0  0 0 0 1 0"/>
		</filter>
	</defs>
	<mask maskUnits="userSpaceOnUse" x="-0.002" y="0" width="100.002" height="99.999" id="SVGID_1_">
		<g filter="url(#Adobe_OpacityMaskFilter)">
			<g>
				<g>
					<rect x="-11.021" y="-10.73" fill="#FFFFFF" width="132.351" height="122.941"/>
					<path d="M5.439,74.877c0.239-0.164,0.437-0.299,0.786-0.539c-0.665-0.104-1.088-0.318-1.104-1.021
						c0.299-0.116,0.635-0.25,1.057-0.414c0.07,0.617,0.068,0.886,0.197,0.9c0.338,0.045,0.535,0.205,0.724,0.521
						c0.134,0.223,0.72,0.235,0.771,0.432c0.188,0.718,0.396,0.646,0.508,0.84c-0.156,1.109-1.079,0.117-1.434,0.851
						C6.966,76.424,7.053,76.536,5.439,74.877z M7.345,74.993c-0.307-0.129-0.209-0.123-0.367,0.075
						C7.267,75.23,7.186,75.258,7.345,74.993z"/>
					<path d="M0.889,48.411c0.232,0.354,0.449,0.685,0.661,1.009c0.275-0.051,0.487-0.09,0.785-0.145
						c-0.109,0.325-0.189,0.563-0.269,0.796c0.314,0.358,0.63,0.718,0.971,1.106c-0.235,0.257-0.474,0.419-0.808,0.14
						c-1.373-1.149-1.182-0.886-2.5-1.048c0.156-0.257,0.283-0.466,0.447-0.737C-1.032,49.229-1.134,49.346,0.889,48.411z"/>
					<path d="M21.559,82.116c0.138-0.087,0.366-0.23,0.727-0.459c-0.046,0.366-0.073,0.573-0.104,0.825
						c0.395,0.05,0.891,0.123,0.803,0.648c-0.08,0.473-0.539,0.557-0.888,0.523c0.401,0.672,0.435,0.338,0.063,1.32
						c-0.397,0.03-0.761,0.063-1.171,0.094c0.107-0.521-0.041-0.996,0.422-1.455C21.665,83.361,21.517,82.7,21.559,82.116z"/>
					<path d="M24.089,100.954c-0.23,0.022-0.537,0.237-0.599-0.197c-0.042-0.299-0.223-0.403-0.474-0.375
						c-0.271,0.031-0.512,0.129-0.445,0.502c0.015,0.084-0.086,0.189-0.173,0.365c-0.868-0.774-0.38-0.502-0.946,0.062
						c-0.131,0.129-0.32,0.198-0.533,0.323c-0.426-1.059,1.133-1.098,1.354-1.911c0.034-0.123,0.453-0.173,0.701-0.197
						c0.195-0.021,0.398,0.067,0.6,0.076c0.732,0.022,0.777,0.071,0.646,0.801C24.112,100.986,24.156,100.885,24.089,100.954z"/>
					<path d="M11.022,75.773c-0.676-0.088-0.676-0.088-0.664-1c-0.195,0.064-0.371,0.123-0.553,0.183
						c0.344,0.785,0.329,0.646,0.178,0.817c-1.369-0.805-0.985-0.51-1.307-1.246c0.232-0.307,0.421-0.553,0.615-0.809
						C10.733,74.023,10.733,74.023,11.022,75.773z"/>
					<path d="M9.321,78.208c0.563-0.51,0.563-0.51,1.072-0.422c0.18-0.304,0.352-0.595,0.597-1.004
						c0.265,1.116-0.383,1.817-0.644,2.61c-0.15,0.457-0.659,0.262-1.082,0.203c0.319-0.354,0.592-0.656,0.895-0.99
						c-0.56-0.395-0.885-0.088-1.16,0.193c-0.381-0.174-0.744-0.34-1.105-0.504C8.205,77.713,8.205,77.713,9.321,78.208z"/>
					<path d="M27.199,60.643c0,0.957-0.051,0.849,0.151,0.646c0.271,0.369,0.543,0.737,0.82,1.114
						c-0.766,0.304,0.182,0.449,0.068,0.699c-0.594,0.404-1.258,0.068-1.424-0.76c-0.645-0.176-0.394-0.105-0.999-0.283
						C26.345,61.639,26.353,60.877,27.199,60.643z"/>
					<path d="M8.005,82.375c0.104,0.123,0.209,0.244,0.354,0.41c-0.562,0.299-1.362,0.088-1.446,0.93
						c-0.375-0.018-0.689-0.033-0.971-0.047c-0.135-0.273-0.381-0.693-0.347-0.719c0.476-0.336,0.14-1.188,0.933-1.352
						c-0.018,0.252-0.033,0.487-0.057,0.84C6.493,82.439,8.216,82.529,8.005,82.375z"/>
					<path d="M34.266,70.859c-0.663-0.069-0.663-0.069-1.6,0.66c-0.525-0.34-0.124-0.758-0.108-1.188
						c0.246-0.051,0.487-0.102,0.777-0.16c-0.225-0.32,0.066-0.232-1.102-0.344c0.157-0.865,0.213-0.896,0.803-0.525
						C33.293,69.465,34.177,69.461,34.266,70.859z"/>
					<path d="M29.74,100.695c-0.519-0.508-0.302-0.875-0.133-1.237c-0.171-0.222-0.325-0.422-0.471-0.608
						c0.169-0.438,0.45-0.814-0.026-1.265c-0.129-0.119,0.08-0.601,0.168-1.11c0.719,0.881,0.51,1.817,0.734,2.633
						C31.915,100.23,29.878,98.907,29.74,100.695z"/>
					<path d="M31.008,67.538c1.356-0.647,1.499-0.634,1.028-1.345c-0.066-0.102-0.01-0.284-0.01-0.51
						c0.686,0.469,1.686,0.57,1.281,1.822c-0.729,0.023-1.479,0.264-2.25,0.313C31.041,67.725,31.024,67.631,31.008,67.538z"/>
					<path d="M48.231,86.014c0.691,0.101,0.289,0.902,0.818,1.191c-0.532,0.324-1.082,0.637-0.814,1.43
						c-0.658-0.063-0.504,0.014-0.953-1.615C47.987,86.393,47.749,86.622,48.231,86.014z"/>
					<path d="M59.064,97.014c-0.549,0.078-0.06,0.383-1.965-1.203c0.244-0.336,0.5-0.686,0.692-0.951
						c-0.21-0.35-0.39-0.647-0.597-0.995c0.666-0.058,0.666-0.058,1.25,1.014c-0.434,0.317-0.303,0.215-0.51,0.433
						c-0.22,0.627,0.643,0.282,0.603,0.821C58.521,96.387,58.85,96.67,59.064,97.014z"/>
					<path d="M29.529,76.168c0.235,0.256,0.398,0.436,0.675,0.736c0.157-0.297,0.288-0.543,0.419-0.791
						c0.331,0.176,0.272-0.055,0.195,1.43c-0.653-0.295-0.948,0.785-1.627,0.195C28.998,77.223,29.155,76.732,29.529,76.168z"/>
					<path d="M7.487,81.958c0.061-0.188,0.139-0.438,0.276-0.875c0.331-0.281,1.21-0.324,1.15-1.283
						c0.528,0.123,0.499,0.515,0.574,0.767c-0.164,0.252-0.276,0.479-0.438,0.662c-0.18,0.201-0.449,0.334-0.594,0.553
						c-0.14,0.211-0.015,0.605-0.452,0.596C8.026,82.387,8.13,82.475,7.487,81.958z"/>
					<path d="M52.952,88.775c0.222,0.031,0.438,0.063,0.646,0.093c0.155,0.737-0.56,0.637-0.787,1.018
						c-0.4-0.383-0.761-0.725-1.156-1.102c0.916-0.798,0.518-0.722,1.816-0.427C53.531,88.844,53.124,88.646,52.952,88.775z"/>
					<path d="M37.956,95.338c-0.312-0.094-0.596-0.281-0.997-0.48c0.177-0.27,0.38-0.575,0.612-0.932
						c0.527,0.439,0.939,0.877,1.591,0.711C39.064,94.538,39.65,95.854,37.956,95.338z"/>
					<path d="M29.036,56.202c0.113,0.612-0.391,1.092,0.423,1.448c-0.382,0.089-0.535,0.179-0.647,0.142
						c-0.583-0.188-1.155-0.41-1.721-0.705c0.482-0.065,0.838-0.262,1.172-0.567C28.44,56.355,28.731,56.32,29.036,56.202z"/>
					<path d="M52.339,71.303c-0.728,0.426-0.838,0.365-0.955-0.496c-0.063-0.473-0.444-1.141,0.019-1.307
						c0.123-0.043,0.412,0.039,0.447,0.133C52.042,70.152,52.637,70.538,52.339,71.303z"/>
					<path d="M37.688,92.87c-0.389,0.733-0.18,0.506-1.035,0.719c0.357-0.858,0.634-1.524,0.928-2.233
						c0.301,0.397,0.82,0.576,0.647,1.143C38.53,92.786,38.626,92.695,37.688,92.87z"/>
					<path d="M49.237,63.771c0.466,0.072,0.832,0.131,1.277,0.201c-0.333,0.574-0.641,1.101-0.963,1.654
						c-0.27-0.07-0.508-0.135-0.865-0.229C49.531,64.202,49.431,64.563,49.237,63.771z"/>
					<path d="M7.486,91.975c-0.05-0.422-0.082-0.701-0.114-0.977c0.709-1.113,1.879,0.238,1.189,0.582
						C8.243,91.739,7.894,91.831,7.486,91.975z"/>
					<path d="M29.246,64.273c-0.052-0.256-0.101-0.496-0.167-0.815c0.21-0.013,0.416-0.021,0.672-0.035
						c-0.135,0.363-0.435,0.656,0.105,0.892c0.339,0.146,0.599,0.473,0.869,0.699c-0.489,0.2-1.01,0.332-1.465-0.242
						c-0.115-0.146-0.395-0.158-0.599-0.23C28.708,64.301,28.587,64.368,29.246,64.273z"/>
					<path d="M12.843,85.584c-0.424-0.943-0.283-1.639,0.413-2.309c0.097,0.131,0.293,0.383,0.286,0.389
						c-0.58,0.48-0.182,0.988,0,1.553C13.323,85.333,13.116,85.441,12.843,85.584z"/>
					<path d="M28.916,94.631c-0.254,0.371-0.512,0.314-0.847,0.191c-0.439-0.162-0.666-0.008-0.639,0.473
						c0.02,0.375-0.053,0.473-0.449,0.406c0-0.42-0.094-0.023,0.318-1.447C27.878,94.25,28.441,94.193,28.916,94.631z"/>
					<path d="M66.714,86.872c0.123-0.138,0.207-0.229,0.332-0.369c-0.101-0.06-0.245-0.096-0.269-0.17
						c-0.19-0.604,0.307-0.597,0.354-0.563c0.434,0.312,0.842,0.656,1.396,1.103C67.833,86.872,67.318,86.872,66.714,86.872z"/>
					<path d="M25.808,79.473c0.557-0.244,1.029-0.453,1.567-0.69c0.03,0.467,0.161,0.87-0.267,1.131
						C26.705,80.157,26.414,80.057,25.808,79.473z"/>
					<path d="M11.287,96.191c-0.173-0.606-0.299-1.053-0.46-1.616c0.133-0.177,0.349-0.354,0.67-0.033
						C11.979,95.023,11.964,95.352,11.287,96.191z"/>
					<path d="M38.165,91.234c-0.174-0.313-0.326-0.588-0.521-0.938c0.347-0.252,0.703-0.51,1.071-0.776
						c0.309,0.621,0.309,0.621-0.355,0.961C38.382,90.734,38.737,91.079,38.165,91.234z"/>
					<path d="M13.644,82.143c0.266-0.313,0.504-0.594,0.838-0.985c0.148,0.444,0.313,0.811,0.383,1.194
						c0.041,0.226-0.37,0.39-0.602,0.248C14.066,82.48,13.892,82.329,13.644,82.143z"/>
					<path d="M18.899,77.691c0.977-0.436,1.486,0.146,1.338,0.685c-0.035,0.125-0.251,0.306-0.35,0.283
						C19.671,78.614,19.36,78.215,18.899,77.691z"/>
					<path d="M36.478,76.239c0.69-0.388,1.229-0.688,1.846-1.035c0,0.274,0.072,0.545-0.02,0.739
						C37.966,76.665,37.442,76.387,36.478,76.239z"/>
					<path d="M31.118,62.954c0.77,0.155,0.77,0.155,0.896,1.185c-0.408-0.064-0.785-0.123-1.266-0.197
						C30.891,63.561,31.007,63.252,31.118,62.954z"/>
					<path d="M39.162,94.637c0.484-0.625-0.041-1.053-0.451-1.582c0.729,0.078,1.286,0.148,1.604,0.889
						C39.019,94.7,39.142,94.616,39.162,94.637z"/>
					<path d="M27.933,99.146c0.085-0.381,0.158-0.709,0.242-1.084c0.791,0.234,0.539,0.994,0.92,1.433
						C28.524,99.729,28.321,99.245,27.933,99.146z"/>
					<path d="M34.63,90c-0.19,0.229-0.365,0.438-0.615,0.736c-0.338-0.756-0.109-0.609-1.059-0.566
						c0.141-0.266,0.186-0.502,0.303-0.547C33.76,89.432,34.2,89.584,34.63,90z"/>
					<path d="M28.655,96.215c0.135-0.52,0.219-0.844,0.33-1.27c0.428,0.33,0.732,0.563,1.217,0.936
						C29.608,96.01,29.229,96.09,28.655,96.215z"/>
					<path d="M18.575,44.302c0.291-0.03,0.312-0.867,0.892-0.328c-0.237,0.505-0.514,0.878-1.155,0.819
						c-0.363-0.034-0.693-0.034-0.74-0.492C17.917,43.937,18.224,44.384,18.575,44.302z"/>
					<path d="M34.312,58.271c-0.167-0.021-0.4-0.028-0.617-0.094c-0.074-0.021-0.175-0.215-0.146-0.273
						c0.628-1.288,0.619-1.002,1.031-1.104C34.493,57.275,34.414,57.708,34.312,58.271z"/>
					<path d="M41.694,91.975c0.435-0.043,0.842-0.053,1.152-0.447c0.226-0.286,0.443-0.198,0.816,0.152
						C42.246,92.538,42.044,92.573,41.694,91.975z"/>
					<path d="M47.724,91.411c-1.508,0.168-1.955-0.738-1.732-1.035C46.194,90.105,46.317,90.295,47.724,91.411z"/>
					<path d="M2.247,74.779c0.895,0.115,0.932,0.257,0.355,1.347C2.007,75.779,2.24,75.258,2.247,74.779z"/>
					<path d="M6.058,78.948c0.289-0.771,0.493-0.771,1.517,0.006C7.509,79.534,7.308,79.35,6.058,78.948z"/>
					<path d="M18.718,86.734c-0.581,0.107-1.129,0.209-1.666,0.31c-0.051-0.065-0.119-0.117-0.112-0.151
						c0.126-0.646,0.819-0.371,1.167-0.701C18.264,86.042,18.385,86.159,18.718,86.734z"/>
					<path d="M28.804,79.773c0-1.479-0.171-1.129,0.66-1.631c0.375,0.347-0.304,0.576-0.016,0.957
						C29.568,79.258,29.321,79.745,28.804,79.773z"/>
					<path d="M43.397,96.055c0.603,0.07,1.146,0.135,1.705,0.199c-0.023,0.533-0.461,0.592-0.619,0.521
						C44.11,96.607,43.562,96.629,43.397,96.055z"/>
					<path d="M39.067,5.805c-0.346,0.664-0.619,0.77-1.41,0.543C37.933,5.739,38.231,5.625,39.067,5.805z"/>
					<path d="M15.325,36.94c1.043,0.255,1.09,0.283,1.73,0.941c-0.071,0.19,0.067,0.086-0.486,0.397
						c-0.226-0.549-0.138-0.336-0.318-0.766C15.458,37.43,15.719,37.532,15.325,36.94z"/>
					<path d="M-0.001,46.982c-0.444-0.057-0.838-0.104-0.828-0.62c0.005-0.313,0.325-0.431,0.938-0.36
						C0.073,46.322,0.037,46.642-0.001,46.982z"/>
					<path d="M36.685,85.124c-0.404,0.039-0.738,0.071-1.203,0.117c0.039-0.322,0.072-0.601,0.107-0.886
						C36.55,84.561,36.55,84.561,36.685,85.124z"/>
					<path d="M48.968,63.206c0.578-0.799,0.518-0.461,0.211-1.556c1.033-0.014,0.652,1.267-0.049,1.688
						C49.076,63.293,49.022,63.25,48.968,63.206z"/>
					<path d="M30.724,56.575c-0.488-0.144-0.736-0.632-0.602-1.101c0.074-0.262,0.074-0.262,0.602-0.174
						C30.724,55.719,30.724,56.141,30.724,56.575z"/>
					<path d="M66.752,89.665c0.402-0.308,0.402-0.308,1.042-0.238c-0.213,0.466-0.213,0.466,0.06,0.966
						C67.137,90.625,67.139,89.895,66.752,89.665z"/>
					<path d="M0.477,47.735c0.709-0.398,1.219-0.834,1.464-0.029C0.7,48.418,0.591,47.596,0.477,47.735z"/>
					<path d="M30.262,67.299c-0.032-0.521-0.056-0.93-0.081-1.336c0.846-0.244,0.444,0.684,0.941,0.902
						C30.815,67.02,30.582,67.139,30.262,67.299z"/>
					<path d="M4.923,77.564c0.461-0.188,0.813-0.471,1.232-0.098C5.62,78.118,5.487,78.135,4.923,77.564z"/>
					<path d="M7.968,77.393c0.002,0.021-0.297,0.078-0.456,0.117c-0.155-0.213,0.431-0.568-0.56-1.078
						c-0.021,0.021-0.11,0.014,1.554-0.035C8.739,76.68,7.897,76.82,7.968,77.393z"/>
					<path d="M47.121,61.127c0.771-0.539,0.555-0.461,0.979-0.301c0.027,0.012-0.387,0.896-0.418,0.885
						C47.145,61.502,47.264,61.491,47.121,61.127z"/>
					<path d="M73.818,58.607c0.52-0.352,0.121-0.387,1.425-0.03c-0.043,0.077-0.083,0.26-0.158,0.272
						C74.68,58.932,74.249,59.057,73.818,58.607z"/>
					<path d="M5.741,79.563c0.236-0.076,0.471-0.151,0.778-0.25c0.097,0.342,0.171,0.601,0.276,0.976
						C5.351,79.779,5.537,79.95,5.741,79.563z"/>
					<path d="M50.938,88.555c-0.184-0.287-0.364-0.574-0.565-0.889c0.38-0.064,0.674-0.113,1.044-0.176
						C51.127,88.629,51.225,88.459,50.938,88.555z"/>
					<path d="M60.628,69.549c0.576-0.475,0.806-0.971,1.321,0.203C61.563,69.693,61.217,69.641,60.628,69.549z"/>
					<path d="M-0.314,5.312C-0.514,4.977-0.715,4.79-0.7,4.623c0.049-0.55,0.82-0.75,0.73,0.08C0.013,4.859-0.132,5.001-0.314,5.312
						z"/>
					<path d="M38.877,90.809c0.389,0.486,0.257,0.344,0.508,0.562c-0.145,0.252-0.276,0.479-0.43,0.75
						C38.327,91.715,38.901,91.354,38.877,90.809z"/>
					<path d="M4.835,83.219c-0.408-1.049-0.45-0.783,0.084-1.227C5.369,82.413,5.368,82.786,4.835,83.219z"/>
					<path d="M28.86,48.043c-0.871,0.094-0.871,0.094-0.814-0.759C28.724,47.116,28.429,47.804,28.86,48.043z"/>
					<path d="M18.457,97.875c0.527,0.213,0.858,0.346,1.216,0.49c-0.167,0.203-0.323,0.396-0.568,0.697
						C18.905,98.698,18.73,98.377,18.457,97.875z"/>
					<path d="M17.354,33.874c-0.117,0.742-0.117,0.742-0.771,0.847C16.567,34.227,16.843,34.018,17.354,33.874z"/>
					<path d="M6.585,45.986c-0.498,0.329-0.184,1.015-0.873,1.04C5.667,46.25,5.69,46.217,6.585,45.986z"/>
					<path d="M4.362,81.663c-0.377-0.158-0.571-0.24-0.818-0.345c0.216-0.481,0.027-0.379,0.641-0.528
						C4.233,81.029,4.283,81.271,4.362,81.663z"/>
					<path d="M7.515,73.135c-0.088-0.434-0.137-0.676-0.204-1.01c0.613,0.279,0.413,0.084,0.858,0.688
						C7.986,72.902,7.804,72.993,7.515,73.135z"/>
					<path d="M-0.184,48.289c0.048-0.642,0.308-0.99,0.718-1.287C0.462,47.919,0.646,47.587-0.184,48.289z"/>
					<path d="M7.512,77.51c-0.063,0.303-0.104,0.627-0.653,0.664c0.057-0.35,0.106-0.65,0.174-1.063
						C7.542,77.489,7.425,77.391,7.512,77.51z"/>
					<path d="M25.353,91.1c-0.881-0.115-0.881-0.115-0.799-0.822C25.062,90.277,25.192,90.637,25.353,91.1z"/>
					<path d="M54.118,89.247c0.606-0.271,0.688-0.19,0.798,0.694C54.331,90.1,54.395,89.52,54.118,89.247z"/>
					<path d="M0.424,68.915c0.423-1.056,0.354-1.099,0.728,0.192C0.858,69.029,0.671,68.98,0.424,68.915z"/>
					<path d="M90.199,98.668c-0.104,0.42-0.206,0.705-0.606,0.537c-0.108-0.045-0.265-0.229-0.241-0.297
						C89.496,98.465,89.833,98.643,90.199,98.668z"/>
					<path d="M17.642,39.563c-0.077,0.237-0.127,0.387-0.189,0.579C16.259,39.477,16.406,39.563,17.642,39.563z"/>
					<path d="M5.229,49.049c-0.047-0.479-0.315-0.288-0.711-0.138c0.668-1.135,0.564-1.061,0.922,0.058
						C5.37,48.996,5.3,49.023,5.229,49.049z"/>
					<path d="M2.181,77.137c0.139,0.152,0.088-0.031,0.211,0.658C2.259,77.84,2.1,77.952,2.008,77.911
						C1.537,77.706,1.661,77.034,2.181,77.137z"/>
					<path d="M68.439,89.885c0.264-0.217,0.504-0.414,0.77-0.633C69.68,89.993,68.844,90.375,68.439,89.885z"/>
					<path d="M33.06,73.471c0.418,0.084,0.709,0.144,1.025,0.207C33.512,74.249,33.4,74.234,33.06,73.471z"/>
					<path d="M21.702,66.154c-0.284,0.046-0.488,0.078-0.773,0.123c0.047-0.225,0.025-0.442,0.117-0.512
						C21.359,65.534,21.552,65.704,21.702,66.154z"/>
					<path d="M1.211,67.665c-0.31-0.422-0.43-0.672-0.063-0.978C1.456,66.952,1.322,67.215,1.211,67.665z"/>
					<path d="M33.72,72.154c0,0.359,0.113,0.484-0.32,0.813c-0.025,0.021-0.244-0.122-0.239-0.178
						C33.199,72.313,33.521,72.26,33.72,72.154z"/>
					<path d="M20.753,38.483c-0.303-0.095-0.605-0.189-0.973-0.304C20.37,37.748,20.37,37.748,20.753,38.483z"/>
					<path d="M59.055,98.266c0.575-0.631,0.575-0.631,1.022,0C59.745,98.266,59.473,98.266,59.055,98.266z"/>
					<path d="M53.214,84.747c0.231,0.129,0.463,0.256,0.783,0.437C53.314,85.471,53.314,85.471,53.214,84.747z"/>
					<path d="M67.454,88.811c-0.724-0.047-0.735-0.071-0.354-0.771C67.227,88.314,67.334,88.549,67.454,88.811z"/>
					<path d="M35.909,88.864c-0.696-0.121-0.73-0.433-0.598-0.822C35.646,87.922,35.501,87.779,35.909,88.864z"/>
					<path d="M15.374,40.365c-1.006,0.761-0.824,0.695-1.021,0.554C14.753,40.33,14.882,39.926,15.374,40.365z"/>
					<path d="M2.368,49.053c-0.4-0.374-0.186-0.655,0.057-1.029C2.677,48.552,2.677,48.552,2.368,49.053z"/>
					<path d="M50.771,72.682c-1.195,0.346-1.019,0.367-1.1,0.094c0.278-0.327,0.709-0.145,1.049-0.266
						C50.736,72.566,50.754,72.625,50.771,72.682z"/>
					<path d="M56.988,92.629c0.675-0.455,0.814,0.301,0.486,0.402C57.137,93.137,57.021,92.926,56.988,92.629z"/>
					<path d="M65.784,75.782c0.307-0.152,0.61-0.298,0.78,0.26C65.643,75.958,65.782,76.034,65.784,75.782z"/>
					<path d="M26.296,96.202c-0.241-0.367-0.241-0.367-0.019-0.914C26.519,95.771,26.519,95.771,26.296,96.202z"/>
					<path d="M38.229,92.497c0.8-0.248,0.829-0.244,1.204,0.229C38.274,92.725,38.53,92.786,38.229,92.497z"/>
					<path d="M-0.546,30.646c0.269-0.051,0.494-0.094,0.785-0.149C-0.1,31.168-0.138,31.175-0.546,30.646z"/>
					<path d="M16.128,35.62c-0.277-0.276-0.33-0.116,0.145-0.691C16.601,35.178,16.614,35.028,16.128,35.62z"/>
					<path d="M49.436,79.063c0.423,0.691,0.528,0.467-0.13,0.933C49.11,79.827,49.109,79.986,49.436,79.063z"/>
					<path d="M49.946,71.668c0.137,0.055,0.176,0.061,0.182,0.076c0.074,0.234,0.183,0.492-0.133,0.631
						c-0.065,0.027-0.273-0.098-0.271-0.107C49.786,72.063,49.868,71.866,49.946,71.668z"/>
					<path d="M50.295,90.18c-0.058-0.627,0.229-0.766,0.547-0.877C51.104,89.563,51.177,89.375,50.295,90.18z"/>
					<path d="M20.568,34.819c-0.252,0.15-0.504,0.301-0.778,0.465C19.847,34.805,19.847,34.805,20.568,34.819z"/>
					<path d="M58.727,89.654c0.075,0.597,0.075,0.597-0.463,0.642C58.43,90.064,58.549,89.898,58.727,89.654z"/>
					<path d="M3.966,42.74c-0.232,0.513-0.457,0.529-0.699,0.35c-0.047-0.035-0.014-0.289,0.012-0.293
						C3.466,42.759,3.661,42.759,3.966,42.74z"/>
					<path d="M3.26,81.131c-0.327-0.293-0.461-0.537-0.224-0.943C3.436,80.432,3.428,80.711,3.26,81.131z"/>
					<path d="M59.593,92.855c-0.213,0.136-0.354,0.252-0.516,0.308c-0.037,0.012-0.233-0.246-0.209-0.285
						c0.092-0.142,0.231-0.264,0.383-0.342C59.286,92.516,59.425,92.695,59.593,92.855z"/>
					<path d="M4.094,75.104c0.231-0.18,0.396-0.309,0.639-0.496c0,0.332,0,0.566,0,0.886C4.532,75.372,4.346,75.258,4.094,75.104z"
						/>
					<path d="M42.87,95.348c0.274-0.1,0.477-0.174,0.754-0.274C43.456,95.747,43.456,95.747,42.87,95.348z"/>
					<path d="M23.706,59.273c0.443,0.295,0.162,0.604,0.236,0.937C23.468,59.913,23.468,59.913,23.706,59.273z"/>
					<path d="M19.124,60.971c-0.233,0.104-0.525,0.41-0.707-0.16c-0.016-0.049,0.168-0.223,0.266-0.227
						C18.771,60.581,18.864,60.732,19.124,60.971z"/>
					<path d="M11.207,69.279c-0.396,0.283-0.21,0.33-0.691-0.053C10.784,68.963,10.599,68.924,11.207,69.279z"/>
					<path d="M60.741,97.525c0.401,0.554,0.479,0.361-0.076,0.781C60.447,98.09,60.441,98.258,60.741,97.525z"/>
					<path d="M4.327,74.323c-0.26,0.399-0.619,0.456-1.162,0.319C3.724,74.063,4.514,74.514,4.327,74.323z"/>
					<path d="M40.342,63.422c0-0.201,0-0.404,0-0.713c0.157,0.117,0.343,0.184,0.36,0.283
						C40.746,63.225,40.707,63.469,40.342,63.422z"/>
					<path d="M37.063,64.17c-0.58-0.014-0.58-0.014-0.801-0.467C36.878,63.6,36.998,64.23,37.063,64.17z"/>
					<path d="M3.652,42.228c-0.367,0.355-0.606,0.208-0.782-0.187C3.131,42.103,3.392,42.166,3.652,42.228z"/>
					<path d="M37.052,64.182c0.266,0.051,0.531,0.103,0.842,0.16c-0.557,0.451-0.588,0.443-0.83-0.172L37.052,64.182z"/>
					<path d="M60.354,58.163c-0.326-0.358-0.269-0.229-0.078-0.549C60.688,57.98,60.688,57.857,60.354,58.163z"/>
					<path d="M34.685,89.491c0.346-0.062,0.567-0.101,0.903-0.158C35.344,89.846,35.134,89.945,34.685,89.491z"/>
					<path d="M39.727,78.18c0.577-0.887,0.422-0.818,0.495-0.25C40.267,78.27,40.103,78.303,39.727,78.18z"/>
					<path d="M36.562,57.484c0.512-0.077,0.512-0.077,0.488,0.486C36.864,57.788,36.733,57.657,36.562,57.484z"/>
					<path d="M24.68,82.989c0.152-0.16,0.279-0.294,0.47-0.492c0.063,0.188,0.141,0.295,0.119,0.373
						C25.19,83.139,25.069,83.375,24.68,82.989z"/>
					<path d="M17.317,43.248c-0.209-0.103-0.418-0.207-0.668-0.33C17.031,42.657,17.031,42.657,17.317,43.248z"/>
					<path d="M27.517,43.634c0.305,0.371,0.33,0.202,0.063,0.643C27.293,44.035,27.284,44.208,27.517,43.634z"/>
					<path d="M25.237,80.814c0.156,0.527,0.156,0.527-0.287,0.884C25.058,81.366,25.147,81.09,25.237,80.814z"/>
					<path d="M31.04,76.038c-0.498-0.481-0.021-0.543,0.086-0.729C31.351,75.391,31.353,75.249,31.04,76.038z"/>
					<path d="M10.47,86.012c-0.332,0.08-0.506,0.121-0.706,0.17C9.866,85.627,9.866,85.627,10.47,86.012z"/>
					<path d="M5.741,79.563c-0.198,0.377-0.04,0.326-0.741,0.16C5.284,79.35,5.503,79.379,5.741,79.563z"/>
					<path d="M36.776,89.663c0.523,0.383,0.174,0.631,0.11,0.881C36.646,90.493,36.692,90.659,36.776,89.663z"/>
					<path d="M39.604,64.549c-0.166-0.141-0.294-0.25-0.459-0.391C39.653,64.014,39.653,64.014,39.604,64.549z"/>
					<path d="M26.847,60.391c-0.729,0.055-0.606,0.121-0.646-0.186C26.948,60.09,26.818,60.036,26.847,60.391z"/>
					<path d="M25.435,47.865c-0.102-0.144-0.203-0.288-0.32-0.453C25.462,47.436,25.462,47.436,25.435,47.865z"/>
					<path d="M13.511,32.858c-0.344-0.228-0.318-0.435-0.003-0.674C13.811,32.418,13.778,32.625,13.511,32.858z"/>
					<path d="M18.672,35.826c0.815-0.04,0.68-0.085,0.731,0.119c-0.366,0.167-0.184,0.164-0.717,0.088
						C18.682,35.964,18.677,35.896,18.672,35.826z"/>
					<path d="M18.907,45.133c-0.171,0.059-0.342,0.118-0.537,0.185C18.417,44.94,18.417,44.94,18.907,45.133z"/>
					<path d="M57.898,83.081c0.724,0.185,0.629,0.084,0.553,0.377C57.729,83.26,57.825,83.355,57.898,83.081z"/>
					<path d="M56.034,84.342c-0.109,0.453-0.304,0.541-0.744,0.355C55.768,84.37,55.57,84.471,56.034,84.342z"/>
					<path d="M47.389,89.314c0.093-0.135,0.183-0.271,0.283-0.397c0.007-0.01,0.14,0.06,0.138,0.065
						c-0.047,0.154-0.105,0.306-0.162,0.455C47.562,89.396,47.476,89.355,47.389,89.314z"/>
					<path d="M66.975,91.014c-0.752-0.147-0.636-0.061-0.594-0.365C67.118,90.734,67.001,90.645,66.975,91.014z"/>
					<path d="M89.895,95.542c0.567-0.09,0.684,0.037,0.549,0.479C90.271,95.872,90.146,95.762,89.895,95.542z"/>
					<path d="M81.339,99.502c0.425,0.777,0.399,0.572,0.081,0.811C81.064,99.809,81.128,100.018,81.339,99.502z"/>
					<path d="M6.01,71.654c-0.235,0.148-0.397,0.248-0.608,0.382C5.452,71.568,5.452,71.568,6.01,71.654z"/>
					<path d="M55.464,69.788c0.834,0,0.705-0.047,0.704,0.142C55.357,69.928,55.488,69.975,55.464,69.788z"/>
					<path d="M3.112,49.215c0.276-0.058,0.432-0.09,0.778-0.163C3.6,49.397,3.464,49.528,3.112,49.215z"/>
					<path d="M4.341,74.336c0.138-0.486,0.138-0.486,0.715-0.08C4.235,74.331,4.319,74.314,4.341,74.336z"/>
					<path d="M4.604,37.939c-0.131,0.433-0.347,0.377-0.753,0.207C4.386,37.825,4.185,37.885,4.604,37.939z"/>
					<path d="M18.927,2.113c0.346-0.039,0.52-0.059,0.784-0.088C19.526,2.407,19.356,2.456,18.927,2.113z"/>
					<path d="M34.946,93.936c-0.162,0.07-0.324,0.144-0.523,0.23C34.493,93.754,34.493,93.754,34.946,93.936z"/>
					<path d="M18.686,37.585c-0.149-0.441-0.149-0.355-0.049-0.491c0.427,0.331,0.437,0.222,0.035,0.479L18.686,37.585z"/>
					<path d="M26.493,46.923c0.467,0.573,0.43,0.449,0.282,0.591C26.22,47.038,26.267,47.168,26.493,46.923z"/>
					<path d="M45.353,91.35c0.188-0.067,0.334-0.121,0.498-0.182C45.769,91.654,45.769,91.654,45.353,91.35z"/>
					<path d="M39.73,90.852c0.293,0.111,0.472,0.181,0.805,0.31C40.065,91.407,39.857,91.415,39.73,90.852z"/>
					<path d="M5.804,47.971c-0.484-0.428-0.445-0.313-0.303-0.511C6.067,47.786,6.017,47.669,5.804,47.971z"/>
					<path d="M23.677,58.529c-0.575,0.277-0.457,0.298-0.58,0.046C23.681,58.292,23.559,58.29,23.677,58.529z"/>
					<path d="M13.902,83.243c-0.261-0.461-0.235-0.357-0.085-0.472C14.132,83.2,14.124,83.1,13.902,83.243z"/>
					<path d="M83.498,94.961c-0.441,0.225-0.293,0.256-0.604-0.006C83.225,94.723,83.077,94.754,83.498,94.961z"/>
					<path d="M32.345,94.643c-0.691-0.072-0.586-0.014-0.566-0.215C32.462,94.512,32.359,94.452,32.345,94.643z"/>
					<path d="M52.073,75.159c-0.595,0-0.496,0.043-0.523-0.134C52.148,74.883,52.042,74.844,52.073,75.159z"/>
					<path d="M59.882,93.752c-0.549,0.225-0.396,0.213-0.577,0.018C59.631,93.52,59.484,93.557,59.882,93.752z"/>
					<path d="M32.534,93.063c0.234,0.199,0.357,0.306,0.531,0.453C32.665,93.654,32.532,93.542,32.534,93.063z"/>
					<path d="M72.591,84.438c-0.116,0.154-0.161,0.215-0.207,0.275c-0.059-0.072-0.139-0.135-0.168-0.217
						c-0.01-0.031,0.093-0.139,0.15-0.146C72.436,84.34,72.512,84.404,72.591,84.438z"/>
					<path d="M48.854,83.986c0.127,0.154,0.215,0.24,0.269,0.343c0.012,0.024-0.105,0.166-0.131,0.155
						C48.527,84.329,48.694,84.273,48.854,83.986z"/>
					<path d="M29.336,38.852c-0.235-0.287-0.259-0.167,0.002-0.45C29.472,38.527,29.478,38.405,29.336,38.852z"/>
					<path d="M29.212,37.965c0.577-0.187,0.467-0.205,0.536,0.036C29.167,38.145,29.271,38.174,29.212,37.965z"/>
					<path d="M17.907,35.506c0.569-0.106,0.472-0.138,0.502,0.073C17.833,35.623,17.926,35.653,17.907,35.506z"/>
					<path d="M75.581,59.124c0.078,0.065,0.14,0.117,0.198,0.168c-0.077,0.058-0.149,0.131-0.237,0.16
						c-0.028,0.008-0.144-0.109-0.138-0.156C75.415,59.234,75.509,59.189,75.581,59.124z"/>
					<path d="M23.576,57.872c-0.464-0.156-0.388-0.104-0.335-0.283C23.705,57.747,23.641,57.68,23.576,57.872z"/>
					<path d="M25.347,56.51c0.279-0.148,0.362-0.213,0.453-0.229c0.029-0.006,0.129,0.16,0.111,0.182
						C25.709,56.715,25.569,56.583,25.347,56.51z"/>
					<path d="M31.603,74.545c-0.354,0.016-0.262,0.068-0.356-0.195C31.556,74.292,31.455,74.27,31.603,74.545z"/>
					<path d="M92.396,99.875c-0.119-0.025-0.235-0.049-0.354-0.074c0.018-0.051,0.041-0.148,0.049-0.146
						C92.516,99.73,92.438,99.734,92.396,99.875z"/>
					<path d="M81.547,98.77c0.195,0.291,0.23,0.179-0.052,0.438C81.325,99.006,81.294,99.122,81.547,98.77z"/>
					<path d="M38.464,81.665c-0.176,0.373-0.11,0.33-0.284,0.242C38.37,81.542,38.306,81.586,38.464,81.665z"/>
					<path d="M81.438,80.932c0.104,0.221,0.27,0.326-0.094,0.494c-0.029,0.014-0.171-0.107-0.162-0.129
						C81.218,81.209,81.289,81.133,81.438,80.932z"/>
					<path d="M7.741,71.325c-0.336,0.135-0.22,0.172-0.471-0.037C7.446,71.1,7.32,71.079,7.741,71.325z"/>
					<path d="M33.985,56.154c-0.256,0.197-0.166,0.169-0.359,0.023C33.915,56.014,33.815,56.038,33.985,56.154z"/>
					<path d="M37.975,63.09c0.087,0.168,0.131,0.098-0.089,0.291C37.77,63.167,37.741,63.232,37.975,63.09z"/>
					<path d="M42.696,64.402c-0.003,0.002-0.107-0.092-0.102-0.102c0.072-0.115,0.155-0.223,0.235-0.33
						C43.025,64.141,43.077,64.077,42.696,64.402z"/>
					<path d="M11.04,70.293c-0.482-0.049-0.408,0.016-0.374-0.258C11.144,70.168,11.076,70.102,11.04,70.293z"/>
					<path d="M4.19,54.245c-0.113,0.18-0.044,0.182-0.28,0.041C4.004,54.131,3.927,54.133,4.19,54.245z"/>
					<path d="M54.404,83.241c-0.176-0.125-0.168-0.039-0.063-0.308C54.484,83.034,54.486,82.945,54.404,83.241z"/>
					<path d="M57.979,80.782c0.142,0.442,0.125,0.305-0.014,0.52C57.702,81.124,57.549,81.116,57.979,80.782z"/>
					<path d="M16.263,36.667c0.117,0.064,0.236,0.125,0.347,0.199c0.011,0.007-0.044,0.138-0.048,0.137
						C16.073,36.862,16.146,36.902,16.263,36.667z"/>
					<path d="M9.767,24.615c0.447,0.257,0.403,0.174,0.303,0.349C9.61,24.707,9.667,24.785,9.767,24.615z"/>
					<path d="M33.474,58.993c-0.117-0.084-0.236-0.146-0.229-0.166c0.033-0.097,0.091-0.188,0.163-0.261
						c0.014-0.014,0.184,0.072,0.182,0.107C33.585,58.768,33.526,58.859,33.474,58.993z"/>
					<path d="M56.788,85.592c0.33,0.305,0.291,0.205,0.119,0.424C56.604,85.674,56.619,85.766,56.788,85.592z"/>
					<path d="M52.296,86.211c-0.485,0.195-0.394,0.205-0.463,0.027C52.318,86.043,52.225,86.034,52.296,86.211z"/>
					<path d="M58.135,87.458c0.237,0.254,0.211,0.16,0.051,0.377C57.913,87.609,57.916,87.7,58.135,87.458z"/>
					<path d="M20.39,32.854c0.087,0.242,0.17,0.171-0.32,0.356C19.97,32.963,19.911,33.047,20.39,32.854z"/>
					<path d="M32.368,32.641c0.406,0.242,0.355,0.17,0.272,0.327C32.232,32.786,32.284,32.862,32.368,32.641z"/>
					<path d="M8.506,76.396c0.769-0.289,0.626-0.301,0.706-0.045C8.472,76.493,8.592,76.5,8.506,76.396z"/>
					<path d="M18.672,37.573c0.077,0.532,0.197,0.498-0.464,0.132c0.034-0.16-0.055-0.12,0.478-0.12L18.672,37.573z"/>
					<path d="M46.007,93.532c0.248,0.34,0.266,0.241-0.027,0.436C45.755,93.629,45.766,93.749,46.007,93.532z"/>
					<path d="M9.905,56.938c-0.263,0.355-0.191,0.314-0.315,0.25C9.774,56.782,9.701,56.829,9.905,56.938z"/>
					<path d="M21.774,32.702c0.207,0.246,0.201,0.149,0.037,0.368C21.608,32.882,21.632,32.97,21.774,32.702z"/>
				</g>
				<g>
					<rect x="-11.021" y="-10.73" fill="#FFFFFF" width="132.351" height="91.199"/>
					<path d="M24.53,78.23c-0.334-0.27-0.53-0.58-0.279-1.084c0.324,0.314,0.592,0.604,0.453,1.084
						C24.646,78.23,24.589,78.23,24.53,78.23z"/>
					<path d="M92.262,77.79c0.672-0.125,0.672-0.125,0.866,0.44C92.495,78.23,92.688,78.338,92.262,77.79z"/>
					<path d="M99.195,77.68c0.447,0.057,0.457,0.285,0.406,0.551C99.382,78.23,99.463,78.314,99.195,77.68z"/>
					<path d="M79.292,19.617c0-0.145,0-0.29,0-0.434c-0.785-0.029-0.785-0.029-1.235,0.735c-0.371,0.037-0.734,0.073-1.176,0.117
						c0.092-0.217,0.128-0.456,0.264-0.605c0.698-0.768,0.703-1.107-0.066-1.708c2.465-0.752,2.686,1.859,2.334,0.2
						c0.227-0.015,0.434-0.029,0.663-0.044c0.071,0.463,0.134,0.877,0.196,1.292c0.85-0.229,1.172-0.052,1.586,0.883
						c-0.732,0.61-1.336,1.452-2.479,1.354c-0.229-0.021-0.483,0.042-0.538-0.365c0.334,0.014,0.611-0.392,0.992-0.025
						c0.049,0.046,0.355-0.064,0.41-0.17c0.048-0.095-0.047-0.349-0.151-0.415c-0.166-0.104-0.397-0.107-1.36-0.19
						c0.004-0.505,0.261-0.6,0.57-0.634c0.119,0.107,0.238,0.214,0.408,0.366c0.119-0.237,0.203-0.405,0.343-0.684
						C79.698,19.441,79.495,19.529,79.292,19.617z"/>
					<path d="M93.316,41.224c0.024-0.174,0.045-0.308,0.078-0.549c0.361,0.145,0.683,0.274,1.07,0.43
						c-0.309,0.484-0.551,0.865-0.828,1.301c0.451,0.489,0.227,1.013-0.045,1.642c-0.309-0.577-0.074-0.497-1.017-0.107
						c-0.94,0.388-1.496-0.643-1.101-1.013c1.037-0.967,1.385-0.779,1.196-1.387C92.518,41.037,93.076,41.284,93.316,41.224z"/>
					<path d="M22.987,31.991c-0.814,0.418-1.643,0.74-2.541-0.07c0.076-0.235,0.168-0.514,0.281-0.859
						c0.41,0.198,0.701,0.393,1.096,0.145c0.183-0.114,0.545,0.059,0.838,0.104c0.4-0.42-0.188-0.63-0.237-0.976
						c0.172-0.464,0.347-0.938,0.594-1.604c0.296,0.786,0.22,1.449,0.548,2.013c0.31,0.531,0.512,1.125,0.761,1.691
						C23.671,32.593,23.671,32.593,22.987,31.991z"/>
					<path d="M31.007,28.877c-0.328,0.236-0.863,0.312-0.652,0.934c-0.473,0.138-0.884,0.199-1.29-0.036
						c0.688-0.827,0.952-0.946,0.415-1.219c-0.109,0.428-0.867,0.554-0.403,1.21c-0.031,0.667-0.646,0.436-0.927,0.661
						c-0.373-0.215-0.694-0.4-1.07-0.617c0.424-0.343,0.826-0.656,0.955-1.249c0.063-0.286,0.516-0.487,0.85-0.777
						c0.335,0.581,1.205,0.248,1.4,1.06c0.178-0.158,0.199-0.047-0.029-0.631c-0.156-0.403-0.158-0.402,0.44-0.583
						c0.192,0.246-0.087,0.72,0.36,0.869C31.087,28.51,30.97,28.917,31.007,28.877z"/>
					<path d="M-0.075,17.383c0.984-1.031,0.803,0.839,1.67,0.155c-0.136-0.225-0.261-0.433-0.417-0.691
						c0.199-0.062,0.379-0.118,0.571-0.179c0.55,0.716,1.213,1.312,1.467,2.202c0.123,0.428,0.162,0.416-0.178,0.948
						C1.537,19.629,0.944,18.301-0.075,17.383z"/>
					<path d="M76.398,14.84c-0.543-0.592,0.025-1.078-0.123-1.567c0.312-0.212,0.593-0.404,0.873-0.596
						c-0.196-0.837-0.191-0.842,1.093-1.251c0.186,0.295,0.142,0.942-0.152,2.268C77.521,14.078,76.956,14.462,76.398,14.84z"/>
					<path d="M101.613-0.465c-0.143-0.228-0.231-0.511-0.426-0.654c-0.496-0.367-0.771-0.834-0.903-1.426
						c-0.048-0.212-0.224-0.394-0.304-0.603c-0.043-0.112-0.008-0.254-0.008-0.441c0.973,0.237,2.109,1.443,1.855,2.263
						c-0.153,0.496,0.635,1.483-0.105,1.879c-0.505,0.27-0.974,0.18-1.412-0.303C100.698,0.037,101.066-0.166,101.613-0.465z"/>
					<path d="M24.228,28.276c1.291,0.276,1.429,1.017,0.352,2.257c-0.377-0.196-0.938-0.182-1.012-0.76
						C23.445,28.836,24.062,28.457,24.228,28.276z"/>
					<path d="M84.563,1.053c-0.392,0.814-1.176,0.661-1.256,0.733c-0.599,0.544-1.111,0.117-1.719-0.099
						c0.174-0.388,0.321-0.724,0.475-1.068c0.299,0.2,0.574,0.504,0.895,0.563c0.303,0.055,0.654-0.146,0.962-0.229
						c0.046-0.336,0.086-0.622,0.13-0.937c0.355,0.07,0.607,0.12,0.859,0.169c0,0.022,0.044-0.219-0.189,0.757
						C84.665,0.98,84.613,1.017,84.563,1.053z"/>
					<path d="M91.311,5.062c-0.074-1.366,1.012-0.191,1.359-1.208c-1.893-0.604-1.529-0.348-1.764-1.11
						c0.425-0.279,0.384,0.135,0.505,0.303c0.187-0.062,0.373-0.124,0.543-0.181c0.34,0.316,0.819,0.567,0.942,0.937
						c0.107,0.319-0.086,0.884-0.346,1.136C92.066,5.411,93.309,5.968,91.311,5.062z"/>
					<path d="M80.184,14.709c0.067-1.072-1.574-0.521-1.222-1.441c0.284-0.74,1.708-0.043,2.437,1.618l0.012-0.011
						c-0.484,0.448-0.814-0.194-1.238-0.177L80.184,14.709z"/>
					<path d="M66.568,61.417c-0.422-0.237-0.746-0.701-1.392-0.104c0.093-0.416,0.071-0.658,0.177-0.744
						c0.414-0.336,0.793-0.686,0.933-1.237c0.489,0.336,0.909,0.623,1.422,0.976C66.723,60.743,67.021,60.448,66.568,61.417z"/>
					<path d="M65.384,54.292c0.099-0.326,0.187-0.618,0.281-0.935c0.524,0.199,0.956,0.435,1.414,0.517
						c0.446,0.079,0.899,0.047,1.258,0.567c-0.354,0.111-0.635,0.199-0.969,0.304c-0.045-0.578,0.093-0.451-0.673-0.504
						c-0.118,0.262-0.229,0.504-0.377,0.832C65.977,54.786,65.723,54.573,65.384,54.292z"/>
					<path d="M37.521,0.565c0.651,0.222,1.545-0.335,1.942,0.708c-0.414,0.258-0.646,0.821-1.219,0.665
						C37.621,1.768,37.538,1.197,37.521,0.565z"/>
					<path d="M90.339,38.847c-0.317,0.428-0.709,0.24-1.08,0.15c-0.346-0.526,0.011-0.874,0.232-1.186
						c-0.249-0.877-0.261-0.698-0.005-0.856c1.117,1.029,0.955,0.599,0.837,1.904L90.339,38.847z"/>
					<path d="M76.766,24.404c-0.195-0.981-0.25-0.648,0.312-1.434c-0.157-0.174-0.021-0.177-0.765,0.125
						c-0.39-1.149,0.514-1.704,0.549-1.111c0.031,0.524-0.648,0.334,0.848,0.401C77.495,23.119,77.507,23.86,76.766,24.404z"/>
					<path d="M82.736,17.136c0.002-0.023-0.271-0.066-0.471-0.112c0.226-0.31,0.438-0.604,0.73-1.012
						c0.477,0.661,0.922,1.282,1.377,1.916c-0.26,0.482-0.525-0.002-0.791-0.013C83.073,17.484,82.703,17.632,82.736,17.136z"/>
					<path d="M98.331,50.277c-0.207,0.296-0.272,0.464-0.397,0.553c-0.313,0.225-0.783,0.279-0.781,0.818
						c0,0.047-0.258,0.158-0.351,0.123c-0.096-0.037-0.213-0.242-0.184-0.328c0.317-0.93,0.644-0.325-0.123-1.279
						C96.622,49.918,96.327,49.935,98.331,50.277z"/>
					<path d="M90.212,22.064c-0.188-0.395-0.918-0.165-0.767-0.817c0.404,0.087,0.789,0.162,1.168,0.256
						c0.908,0.226,0.515,2.087-0.904,0.727C89.87,22.177,90.029,22.124,90.212,22.064z"/>
					<path d="M28.029,26.763c0.425,0.211,0.718,0.369,0.54,0.783c-0.26,0.606-0.705,0.769-1.656,0.583
						C27.295,27.662,27.653,27.223,28.029,26.763z"/>
					<path d="M82.665,5.554c-0.075-1.059-0.53-1.233,0.537-2.098c0.217-0.176,0.481-0.165,0.577,0.079
						c0.068,0.168-0.037,0.588-0.108,0.598c-0.692,0.1-0.58,0.684-0.729,1.111C82.917,5.316,82.835,5.368,82.665,5.554z"/>
					<path d="M90.323,38.858c0.239-0.013,0.477-0.026,0.778-0.043c0.474,1.356,0.39,0.95,0.189,1.463
						c-0.506-0.347-0.357-0.229-0.518-0.467c-0.271,0.105-0.49,0.519-0.75,0.173C90.375,38.712,90.346,38.84,90.323,38.858z"/>
					<path d="M14.642,23.337c0.612-1.278,0.612-1.278,0.272-2.216c0.304,0.105,0.515,0.179,0.777,0.271
						c0.13-0.148,0.284-0.325,0.545-0.623c-0.065,0.55-0.038,0.926-0.466,1.192C15.403,22.192,15.538,23.36,14.642,23.337z"/>
					<path d="M34.616,18.739c0.385,0.433,1.109,0.478,1.317,1.212c-0.118,0.058-0.265,0.193-0.354,0.163
						C34.67,19.811,33.808,19.442,34.616,18.739z"/>
					<path d="M53.964,54.85c-0.092-0.293-0.183-0.582-0.265-0.844c0.514-0.41,0.626,0.127,0.914,0.275
						c0.197-0.553,0.631-0.393,1.113-0.4C55.329,54.65,54.596,54.6,53.964,54.85z"/>
					<path d="M76.256,73.75c0.34-0.277,0.678-0.557,1.028-0.844c0.303,0.371,0.506,0.746,0.271,1.225
						C76.99,74.549,76.743,73.68,76.256,73.75z"/>
					<path d="M90.936,77.282c-0.359,0.528-0.738,0.575-1.563,0.192C89.917,76.652,89.927,76.577,90.936,77.282z"/>
					<path d="M58.986,59.874c-0.163,0.502-0.715,0.229-0.979,0.549c-0.52-0.481-0.178-0.916-0.066-1.426
						C59.139,59.932,59.031,59.823,58.986,59.874z"/>
					<path d="M68.206,64.561c0.396,0,0.681,0,1.039,0c0.094,0.357,0.185,0.697,0.3,1.138C68.813,65.534,68.346,65.288,68.206,64.561
						z"/>
					<path d="M65.577,76.368c0.46-0.188,0.862-0.357,1.342-0.558c0.043,0.246,0.114,0.437,0.103,0.619
						c-0.049,0.688-0.562,0.42-1.275,0.156C65.723,76.579,65.71,76.543,65.577,76.368z"/>
					<path d="M64.744,12.51c0.236,0.271,1.384,1.284,0.449,1.373c-0.274,0.027-0.555,0.006-0.783,0.006
						C64.52,13.443,64.609,13.064,64.744,12.51z"/>
					<path d="M75.6,42.899c-0.488-0.191-0.968-0.244-0.988-0.86c0.436-0.122,0.869-0.286,1.35,0.143
						C75.85,42.402,75.729,42.637,75.6,42.899z"/>
					<path d="M31.249,22.167c-0.463-0.896-0.492-1.267-0.203-1.484c0.254-0.191,0.512-0.068,0.982,0.506
						C31.622,21.33,31.157,21.423,31.249,22.167z"/>
					<path d="M91.143,24.694c0.28-0.02,0.604-0.042,1.187-0.084c-0.695,0.458-0.188,0.94-0.375,1.425
						C91.009,25.469,91.216,25.764,91.143,24.694z"/>
					<path d="M86.686,27.787c-0.787,0.568-1.004-0.249-1.648-0.062C87.014,24.97,85.009,27.404,86.686,27.787z"/>
					<path d="M95.579,6.507c-0.427,0.083-0.849,0.164-1.332,0.258c-0.021-0.376-0.041-0.775-0.067-1.258
						C94.712,5.887,95.152,6.204,95.579,6.507z"/>
					<path d="M62.773,54.997c-0.819-0.705-0.858-1.358-0.16-1.942C62.665,53.686,62.714,54.256,62.773,54.997z"/>
					<path d="M17.421,58.777c1.291,0.343,1.139,1.234,0.842,1.359C17.87,60.301,17.792,59.782,17.421,58.777z"/>
					<path d="M57.218,4.229c0.123-0.583,0.287-1.136-0.011-1.685c-0.042-0.077,0.173-0.294,0.27-0.446
						c0.1,0.14,0.274,0.276,0.282,0.422c0.021,0.395-0.059,0.795-0.043,1.192C57.729,4.04,57.604,4.183,57.218,4.229z"/>
					<path d="M60.57,59.314c0.019,0.373,0.035,0.693,0.052,1.017c-0.481-0.513-1.181-0.072-1.636-0.459
						C58.967,59.895,58.796,59.913,60.57,59.314z"/>
					<path d="M40.936,27.504c-0.297,0.624-0.522,1.101-0.751,1.582C39.618,28.277,39.788,27.81,40.936,27.504z"/>
					<path d="M88.939,35.213c0.176-0.044,0.362-0.092,0.551-0.14c0.21,0.975,0.195,1.045-0.393,1.572
						C89.073,35.633,89.105,36.007,88.939,35.213z"/>
					<path d="M54.579,50.535c0.801,0.07,0.446,0.947,0.26,1.818C54.18,52.284,54.363,52.033,54.579,50.535z"/>
					<path d="M80.116,43.001c-0.272,0.431-0.507,0.799-0.748,1.183c-0.354-0.414-0.349-0.634-0.022-1.131
						C79.516,42.797,79.516,42.797,80.116,43.001z"/>
					<path d="M84.563,1.053c0.297-0.209,0.525-0.352,0.34-0.879c0.01,0.021-0.033,0.034,0.35-0.186
						c0.178,0.444,0.329,0.828,0.538,1.354C85.281,1.207,84.876,1.405,84.563,1.053z"/>
					<path d="M82.693,21.442c0.113,0.327,0.201,0.585,0.281,0.823c-0.576,0.649-0.576,0.649-1.024,0.285
						C82.173,22.219,82.396,21.888,82.693,21.442z"/>
					<path d="M80.001,45.496c-0.205-0.314-0.336-0.516-0.478-0.733c0.373-0.353,0.685-0.431,1.113-0.044
						C80.459,44.936,80.288,45.145,80.001,45.496z"/>
					<path d="M28.216,66.625c0.131,1.025,0.061,1.102-0.975,1.051c0.184-0.201,0.439-0.354,0.447-0.516
						C27.702,66.809,27.892,66.739,28.216,66.625z"/>
					<path d="M20.771,30.506c0.113-0.885,1.402-0.697,0.93,0.286C21.393,30.698,21.091,30.605,20.771,30.506z"/>
					<path d="M77.835,21.488c0.701,0.249,0.701,0.249,0.662,0.948C77.863,22.27,77.854,22.255,77.835,21.488z"/>
					<path d="M61.964,55.665c0.53,0.479,1.337-0.004,1.563,0.992c-0.396-0.242-0.666-0.517-1.1-0.261
						C62.218,56.523,62.012,56.208,61.964,55.665z"/>
					<path d="M91.355,37.274c0.416,0.071,0.955-0.342,1.355,0.384C92.126,37.658,91.641,37.865,91.355,37.274z"/>
					<path d="M22.774,27.334c-0.069-0.94,0.145-1.143,1.053-1.079C23.813,26.233,23.934,26.12,22.774,27.334z"/>
					<path d="M62.427,70.491c0.659-0.228,0.909,0.104,0.878,1.004C63.066,71.618,63.232,71.754,62.427,70.491z"/>
					<path d="M83.714,20.893c-0.289,0.254,0.048,0.227-1.241,0.143c-0.02-0.032-0.035-0.064-0.052-0.098
						c0.226-0.536,0.433-0.68,0.899-0.624c0.021-0.011,0.062-0.117-0.205,0.427C83.553,20.634,83.419,20.59,83.714,20.893z"/>
					<path d="M78.646,10.506c-0.228,0.073-0.438,0.14-0.641,0.206c-0.24-0.494-0.24-0.494,0.061-1.013
						C78.253,9.958,78.421,10.191,78.646,10.506z"/>
					<path d="M55.134,61.68c-0.147-0.748,0.505-0.598,0.806-0.815C55.922,61.336,55.82,61.73,55.134,61.68z"/>
					<path d="M92.259,21.854c0.293,0.102,0.517,0.18,0.771,0.27c-0.174,0.475-0.526,0.425-0.924,0.487
						C92.161,22.342,92.201,22.14,92.259,21.854z"/>
					<path d="M57.188,52.945c0.141-0.2,0.254-0.43,0.431-0.59c0.08-0.071,0.356-0.062,0.414,0.013c0.071,0.096,0.069,0.385,0,0.427
						c-0.228,0.139-0.498,0.2-0.753,0.292C57.25,53.04,57.221,52.993,57.188,52.945z"/>
					<path d="M88.376,27.701c-0.479,0-0.719,0-1.097,0c0.171-0.295,0.273-0.473,0.437-0.755
						C87.938,27.2,88.093,27.376,88.376,27.701z"/>
					<path d="M88.46,1.363c-0.042,0.416-0.071,0.702-0.103,1.004c-0.346-0.088-0.16,0.093-0.698-0.697
						C87.893,1.581,88.107,1.498,88.46,1.363z"/>
					<path d="M94.206,8.22c0.297,0.438,0.688,0.679,0.262,1.187C94.089,9.104,94.087,8.762,94.206,8.22z"/>
					<path d="M88.396,19.366c0.151,0.205,0.305,0.409,0.5,0.673c-0.285,0.131-0.482,0.221-0.754,0.344
						C88.193,19.329,88.133,19.494,88.396,19.366z"/>
					<path d="M61.523,13.507c-0.352,0.205-0.703,0.411-1.119,0.654C60.454,13.567,60.641,13.446,61.523,13.507z"/>
					<path d="M94.982,35.289c-0.269-0.232-0.393-0.339-0.563-0.488c0.115-0.177,0.226-0.346,0.347-0.532
						C95.18,34.534,94.999,34.836,94.982,35.289z"/>
					<path d="M90.509,27.931c-0.159-0.297-0.321-0.595-0.485-0.898C90.598,26.96,90.716,27.107,90.509,27.931z"/>
					<path d="M93.25,6.017c0.102-0.263,0.186-0.485,0.331-0.867c0.229,0.325,0.377,0.532,0.614,0.867
						C93.786,6.017,93.555,6.017,93.25,6.017z"/>
					<path d="M34.731,10.988c-0.055-0.489-0.073-0.813,0.396-0.987C35.305,10.443,35.255,10.746,34.731,10.988z"/>
					<path d="M79.677,12.026c-0.313,0.111-0.547,0.193-0.766,0.271c-0.263-0.237-0.237-0.441-0.005-0.59
						C79.203,11.517,79.438,11.624,79.677,12.026z"/>
					<path d="M33.251,21.589c-0.494,0.128-0.494,0.128-0.785-0.479C32.991,21.047,32.991,21.047,33.251,21.589z"/>
					<path d="M92.337,76.042c-0.687-0.276-0.647,0.451-1.146,0.806c0.078-0.484,0.119-0.742,0.164-1.031
						C92.404,75.814,92.249,75.754,92.337,76.042z"/>
					<path d="M75.938,22.832c-0.347-0.145-0.643-0.27-0.975-0.409C75.146,21.898,76.032,22.017,75.938,22.832z"/>
					<path d="M77.012,71.561c-0.373,0.513-0.074,0.33-1.031,0.795c-0.064-0.082-0.133-0.168-0.271-0.342
						C77.124,71.54,77.027,71.583,77.012,71.561z"/>
					<path d="M19.626,65.43c0.104,0.805-0.074,1.016-0.766,0.99C19.374,65.797,19.161,66.068,19.626,65.43z"/>
					<path d="M79.484,3.52c0.19,0.28,0.339,0.498,0.488,0.718c-0.174,0.259-0.365,0.3-0.561,0.099
						C79.188,4.102,79.205,3.854,79.484,3.52z"/>
					<path d="M74.232,74.305c-0.188-0.779-0.149-0.828,0.722-0.932C74.707,73.691,74.48,73.984,74.232,74.305z"/>
					<path d="M29.758,24.938c0.726-0.263,0.743-0.25,0.673,0.468C30.17,25.225,29.964,25.082,29.758,24.938z"/>
					<path d="M82.825,18.724c-0.552,0.004-0.688-0.383-0.854-0.889C83.055,18.083,82.698,18.776,82.825,18.724z"/>
					<path d="M89.445,34.332c0.382-0.103,0.675-0.183,1.056-0.286c-0.071,0.184-0.086,0.394-0.187,0.447
						C90.044,34.64,89.741,34.701,89.445,34.332z"/>
					<path d="M74.504,75.35c-0.329,0-0.595,0-0.951,0c0.252-0.354,0.48-0.57,0.864-0.404C74.48,74.973,74.471,75.178,74.504,75.35z"
						/>
					<path d="M70.264,63.527c0.344-0.612,0.344-0.612,0.85-0.358C70.844,63.359,70.751,63.829,70.264,63.527z"/>
					<path d="M70.9,56.213c-0.157-0.092-0.314-0.186-0.459-0.27c0.022-0.33,0.175-0.488,0.443-0.373
						C71.221,55.711,71.145,55.943,70.9,56.213z"/>
					<path d="M81.859,23.636c-0.316-0.259-0.616-0.386-0.68-0.588c-0.074-0.229,0.158-0.391,0.453-0.327
						C81.691,22.961,81.751,23.201,81.859,23.636z"/>
					<path d="M83.146,19.436c-0.252-0.047-0.504-0.094-0.963-0.179c0.328-0.272,0.484-0.403,0.643-0.534l-0.018,0.007
						C83.168,19.514,83.128,19.458,83.146,19.436z"/>
					<path d="M98.909,31.57c-0.117,0.275-0.201,0.47-0.285,0.665c-0.247-0.103-0.188,0.072-0.231-0.698
						C98.54,31.546,98.688,31.556,98.909,31.57z"/>
					<path d="M92.962,26.576c0.304,0.255,0.53,0.542,0.228,1.052C92.695,26.535,92.698,26.719,92.962,26.576z"/>
					<path d="M12.845,49.726c-0.717-0.402-0.05-0.946,0.155-0.749C13.306,49.271,13.06,49.47,12.845,49.726z"/>
					<path d="M79.087,22.559c0.683-0.389,0.683-0.389,1.033,0.367C79.768,22.8,79.479,22.698,79.087,22.559z"/>
					<path d="M89.057,4.192c0.524-0.514,0.524-0.514,0.905,0.081C89.632,4.244,89.387,4.222,89.057,4.192z"/>
					<path d="M79.947,41.651c0.611,0.157,0.611,0.157,0.185,0.91C80.061,42.204,80.007,41.943,79.947,41.651z"/>
					<path d="M67.73,12.797c-0.322-0.298-0.412-0.527-0.063-0.816C67.954,12.203,68.052,12.424,67.73,12.797z"/>
					<path d="M31.237,23.523c0.123-0.177,0.246-0.354,0.408-0.585c0.107,0.128,0.226,0.203,0.237,0.292
						C31.941,23.68,31.619,23.633,31.237,23.523z"/>
					<path d="M31.005,23.071c-0.391,0.696-0.243,0.635-0.645,0.368C30.821,22.804,30.677,22.868,31.005,23.071z"/>
					<path d="M69.003,42.844c-0.382-0.686-0.058-0.924,0.259-1.166C69.464,41.822,69.482,41.632,69.003,42.844z"/>
					<path d="M76.102,53.184c-0.201,0.467-0.386,0.695-0.832,0.479C75.3,53.16,75.591,53.118,76.102,53.184z"/>
					<path d="M59.177,46.376c-0.233-0.468,0.244-0.607,0.359-0.974C60.107,46.281,59.053,46.276,59.177,46.376z"/>
					<path d="M91.657,32.615c0.157,0.29,0.313,0.58,0.521,0.96C91.611,33.44,91.611,33.44,91.657,32.615z"/>
					<path d="M78.323,73.096c-0.513-0.688-0.513-0.688-0.046-0.975C78.577,72.383,78.404,72.659,78.323,73.096z"/>
					<path d="M94.721,24.813c0.074,0.478,0.07,0.79-0.433,0.955C94.275,25.387,94.221,25.064,94.721,24.813z"/>
					<path d="M75.667,74.37c-0.159,0.555-0.399,0.516-0.722,0.213C75.154,74.52,75.361,74.459,75.667,74.37z"/>
					<path d="M93.134,39.268c0.306-0.148,0.505-0.245,0.688-0.333c0.059,0.054,0.132,0.095,0.127,0.12
						C93.863,39.479,93.68,39.684,93.134,39.268z"/>
					<path d="M33.403,74.521c0.26,0.31,0.438,0.521,0.671,0.795C33.427,75.314,33.427,75.314,33.403,74.521z"/>
					<path d="M65.766,59.266c-0.232-0.297-0.363-0.401-0.395-0.531c-0.016-0.059,0.206-0.25,0.268-0.229
						c0.133,0.045,0.286,0.172,0.329,0.299C65.999,58.898,65.868,59.047,65.766,59.266z"/>
					<path d="M93.374,34.637c-0.502-0.596-0.502-0.596,0.19-0.865C93.496,34.081,93.443,34.316,93.374,34.637z"/>
					<path d="M86.208,33.936c0.338,0.56,0.417,0.379-0.06,0.774C85.88,34.354,85.826,34.558,86.208,33.936z"/>
					<path d="M28.506,61.934c0.12,0.205,0.218,0.371,0.314,0.535c-0.175,0.113,0.009,0.162-0.825-0.24
						C28.181,62.122,28.326,62.038,28.506,61.934z"/>
					<path d="M25.897,27.262c0.057,0.336,0.093,0.545,0.159,0.933c-0.267-0.216-0.44-0.299-0.527-0.438
						C25.325,27.433,25.616,27.41,25.897,27.262z"/>
					<path d="M29.812,12.999c-0.753,0.19-0.753,0.19-0.725-0.517C29.323,12.65,29.497,12.775,29.812,12.999z"/>
					<path d="M23.827,26.255c0.381-0.259,0.384-0.375,0.813-0.193c0.034,0.014,0.043,0.208,0.018,0.22
						c-0.142,0.065-0.3,0.14-0.448,0.134C24.057,26.409,23.792,26.202,23.827,26.255z"/>
					<path d="M93.104,17.266c-0.168,0.596-0.516,0.44-0.809,0.432C92.2,17.439,92.048,17.541,93.104,17.266z"/>
					<path d="M78.197,74.014c0.626-0.146,0.646,0.174,0.644,0.693C78.592,74.439,78.428,74.262,78.197,74.014z"/>
					<path d="M73.682,72.159c-0.068,0.291-0.101,0.633-0.693,0.35C73.639,71.909,73.49,71.956,73.682,72.159z"/>
					<path d="M86.055,21.635c0.092,0.308,0.143,0.481,0.198,0.673C85.741,22.268,85.741,22.268,86.055,21.635z"/>
					<path d="M92.363,19.038c-0.395,0.318-0.704,0.356-0.881-0.187C91.805,18.92,92.083,18.979,92.363,19.038z"/>
					<path d="M28.1,25.441c0.214,0.193,0.345,0.312,0.549,0.497c-0.277,0.123-0.466,0.206-0.82,0.361
						C27.939,25.947,28.005,25.74,28.1,25.441z"/>
					<path d="M15.821,59.51c0.346-0.539,0.59-0.279,0.833,0C16.409,59.51,16.165,59.51,15.821,59.51z"/>
					<path d="M80.171,14.697c0,0.963,0.134,0.909-0.401,0.331C80.229,14.673,80.191,14.717,80.171,14.697z"/>
					<path d="M81.396,14.886c0.418,0.135,0.405,0.399,0.234,0.779C81.199,15.407,81.529,14.764,81.396,14.886z"/>
					<path d="M70.615,18.861c0.216,0.539-0.157,0.62-0.307,0.83C70.04,19.498,70.016,19.67,70.615,18.861z"/>
					<path d="M94.878,67.82c0.177-0.336,0.265-0.504,0.36-0.688C95.468,67.506,95.468,67.506,94.878,67.82z"/>
					<path d="M95.907,19.215c-0.205-0.239-0.341-0.396-0.478-0.554C95.751,18.656,96.127,18.585,95.907,19.215z"/>
					<path d="M67.166,75.059c-0.116-0.557-0.189-0.455,0.268-0.488C67.372,75.15,67.438,75.053,67.166,75.059z"/>
					<path d="M21.431,29.189c-0.623,0.162-0.662-0.464-0.447-0.484C21.303,28.676,21.419,28.861,21.431,29.189z"/>
					<path d="M90.166,2.787c0.232,0.337,0.338,0.489,0.498,0.721c-0.271-0.019-0.436-0.031-0.666-0.047
						C90.042,3.286,90.078,3.141,90.166,2.787z"/>
					<path d="M62.37,13.243c-0.08-0.322-0.119-0.481-0.188-0.761c0.264,0.086,0.424,0.138,0.655,0.214
						C62.675,12.886,62.568,13.01,62.37,13.243z"/>
					<path d="M83.764,23.639c0.524-0.059,0.572,0.142,0.543,0.461C83.966,24.069,84.105,24.211,83.764,23.639z"/>
					<path d="M31.678,31.491c-0.401,0.252-0.255,0.257-0.563,0.019C31.47,31.177,31.326,31.222,31.678,31.491z"/>
					<path d="M79.159,33.041c-0.136-0.146-0.253-0.217-0.255-0.29c-0.004-0.09,0.072-0.226,0.15-0.259
						c0.063-0.026,0.254,0.072,0.252,0.114C79.309,32.721,79.236,32.835,79.159,33.041z"/>
					<path d="M73.113,45.524c-0.494,0.195-0.301,0.271-0.77-0.125C72.628,45.146,72.425,45.098,73.113,45.524z"/>
					<path d="M53.893,45.832c-0.148-0.103-0.297-0.205-0.518-0.355C53.795,45.273,53.932,45.411,53.893,45.832z"/>
					<path d="M21.831,46.13c-0.113,0.267-0.187,0.44-0.279,0.658c-0.092-0.068-0.178-0.098-0.199-0.153
						C21.224,46.307,21.373,46.162,21.831,46.13z"/>
					<path d="M57.084,47.613c0.384-0.489,0.384-0.489,0.773-0.119C57.486,47.858,56.902,47.487,57.084,47.613z"/>
					<path d="M51.016,55.73c-0.195,0.172-0.293,0.433-0.552,0.009c-0.016-0.029,0.129-0.222,0.185-0.214
						C50.759,55.54,50.859,55.639,51.016,55.73z"/>
					<path d="M61.6,59.314c-0.213,0.48-0.433,0.453-0.664,0.394C60.848,59.395,60.734,59.5,61.6,59.314z"/>
					<path d="M29.878,62.165c-0.479,0.151-0.332,0.242-0.617-0.19C29.591,61.829,29.435,61.758,29.878,62.165z"/>
					<path d="M73.49,62.734c0.398-0.233,0.562-0.182,0.66,0.31C73.895,62.924,73.738,62.852,73.49,62.734z"/>
					<path d="M27.114,63.489c-0.283,0-0.521,0-0.822,0C26.616,63.021,26.844,63.243,27.114,63.489z"/>
					<path d="M73.154,74.387c0,0.598,0.082,0.5-0.318,0.488C72.863,74.277,72.782,74.375,73.154,74.387z"/>
					<path d="M67.659,75.54c0.235,0.178,0.448,0.336,0.68,0.51C67.788,76.172,67.788,76.172,67.659,75.54z"/>
					<path d="M5.782,76.715c0.247,0.068,0.557-0.006,0.771,0.498C5.583,76.842,5.718,76.961,5.782,76.715z"/>
					<path d="M90.52,1.773c-0.569-0.118-0.529-0.326-0.297-0.696C90.325,1.321,90.396,1.484,90.52,1.773z"/>
					<path d="M79.359,10.373c0.363,0.4,0.146,0.525-0.256,0.645C79.104,10.432,79.057,10.608,79.359,10.373z"/>
					<path d="M64.208,11.161c-0.597,0.21-0.658-0.017-0.692-0.481C63.771,10.858,63.928,10.966,64.208,11.161z"/>
					<path d="M79.527,16.266c-0.176,0.116-0.352,0.232-0.653,0.433C78.949,16.16,79.188,16.135,79.527,16.266z"/>
					<path d="M64.9,60.104c0.146-0.155,0.293-0.313,0.472-0.502C65.4,60.063,65.4,60.063,64.9,60.104z"/>
					<path d="M34.606,22.177c-0.408,0.058-0.561-0.063-0.572-0.418C34.396,21.671,34.517,21.852,34.606,22.177z"/>
					<path d="M82.975,23.319c-0.41,0.199-0.41,0.199-0.533-0.253C82.656,23.168,82.814,23.244,82.975,23.319z"/>
					<path d="M65.044,27.713c-0.155,0.026-0.312,0.059-0.469,0.068c-0.017,0.001-0.066-0.197-0.058-0.201
						c0.146-0.062,0.299-0.108,0.451-0.157C64.995,27.521,65.02,27.617,65.044,27.713z"/>
					<path d="M99.779,73.448c-0.213,0-0.424,0-0.813,0C99.38,73.068,99.575,73.311,99.779,73.448z"/>
					<path d="M71.586,22.363c0.221-0.346,0.033-0.307,0.693-0.162C72.229,22.488,72.37,22.442,71.586,22.363z"/>
					<path d="M74.255,14.521c-0.53-0.066-0.517,0.063-0.057-0.497c0.151,0.07,0.127-0.029,0.042,0.504L74.255,14.521z"/>
					<path d="M37.557,15.286c-0.132-0.52-0.144-0.407,0.118-0.485C37.796,15.342,37.832,15.243,37.557,15.286z"/>
					<path d="M98.495,70.404c-0.515,0.181-0.347,0.244-0.708-0.094C98.093,70.038,97.917,70.053,98.495,70.404z"/>
					<path d="M83.714,20.893c-0.289-0.296-0.205-0.17-0.381-0.594c-0.019,0.021-0.097,0.004,0.538,0.087
						C83.818,20.555,83.768,20.724,83.714,20.893z"/>
					<path d="M76.346,16.13c0.639-0.079,0.528-0.12,0.569,0.109C76.29,16.397,76.407,16.434,76.346,16.13z"/>
					<path d="M84.113,22.897c0.449,0.504,0.396,0.382,0.3,0.567C83.811,23.334,83.873,23.478,84.113,22.897z"/>
					<path d="M81.932,12.017c0.248-0.506,0.137-0.459,0.479-0.27C82.063,12.216,82.171,12.169,81.932,12.017z"/>
					<path d="M6.31,38.537c0.088,0.128,0.199,0.26,0.186,0.276c-0.34,0.367-0.353,0.174-0.506,0.021
						C6.079,38.75,6.169,38.666,6.31,38.537z"/>
					<path d="M23.125,67.395c-0.146,0.08-0.269,0.188-0.31,0.162c-0.098-0.061-0.193-0.176-0.215-0.283
						c-0.011-0.057,0.139-0.143,0.216-0.217C22.901,67.15,22.986,67.243,23.125,67.395z"/>
					<path d="M80.236,23.915c-0.1,0.592-0.019,0.417-0.358,0.628C79.673,24.14,79.835,24.016,80.236,23.915z"/>
					<path d="M72.688,60.389c0.312,0.34,0.334,0.201-0.014,0.523C72.447,60.618,72.45,60.754,72.688,60.389z"/>
					<path d="M62.439,59.717c0.608-0.285,0.479-0.297,0.613-0.008C62.439,59.982,62.568,59.995,62.439,59.717z"/>
					<path d="M73.52,43.521c-0.146-0.073-0.338-0.111-0.42-0.228c-0.099-0.14,0.144-0.254,0.346-0.143
						C73.723,43.302,73.693,43.22,73.52,43.521z"/>
					<path d="M89.273,6.123c-0.347,0.449-0.347,0.449-0.801,0.081C89.378,6.128,89.296,6.145,89.273,6.123z"/>
					<path d="M79.677,5.944c-0.249,0.24-0.418,0.403-0.714,0.688C78.995,6.087,79.15,5.913,79.677,5.944z"/>
					<path d="M89.75,6.136c-0.129,0.138-0.027,0.134-0.477-0.013C89.458,5.756,89.178,5.524,89.75,6.136z"/>
					<path d="M82.841,5.808c0.14,0.237,0.21,0.139-0.267,0.472C82.417,6.06,82.371,6.164,82.841,5.808z"/>
					<path d="M79.813,5.661c0.136-0.441,0.049-0.376,0.396-0.235C79.939,5.813,80.029,5.771,79.813,5.661z"/>
					<path d="M85.639,13.102c0.19,0.536,0.15,0.306,0.069,0.884C85.249,13.234,85.245,13.428,85.639,13.102z"/>
					<path d="M9.309,48.155c-0.366,0.256-0.22,0.299-0.577-0.014C9.063,47.907,8.922,47.937,9.309,48.155z"/>
					<path d="M21.687,27.957c-0.012,0.282,0.092,0.241-0.412,0.241C21.265,27.926,21.183,27.987,21.687,27.957z"/>
					<path d="M17.98,57.364c-0.509,0.391-0.344,0.342-0.628,0.102C17.663,57.145,17.515,57.208,17.98,57.364z"/>
					<path d="M83.954,22.228c0.129,0.111,0.248,0.167,0.269,0.248c0.014,0.057-0.1,0.2-0.168,0.208
						c-0.076,0.01-0.209-0.075-0.234-0.148C83.796,22.472,83.889,22.368,83.954,22.228z"/>
					<path d="M59.4,17.461c-0.407,0.184-0.28,0.239-0.551-0.076C59.173,17.155,59.027,17.145,59.4,17.461z"/>
					<path d="M62.688,49.494c0.401-0.637,0.289-0.574,0.494-0.43C62.729,49.667,62.833,49.601,62.688,49.494z"/>
					<path d="M54.452,75.9c-0.265-0.375-0.32-0.571-0.093-0.743C54.646,75.252,54.613,75.1,54.452,75.9z"/>
					<path d="M33.63,29.175c-0.152,0.166-0.27,0.293-0.392,0.426c-0.065-0.08-0.124-0.118-0.126-0.158
						C33.102,29.115,33.219,28.974,33.63,29.175z"/>
					<path d="M21.042,65.545c0.152-0.02,0.303-0.043,0.454-0.053c0.011,0,0.051,0.133,0.04,0.139
						c-0.133,0.074-0.271,0.139-0.408,0.205C21.099,65.739,21.071,65.641,21.042,65.545z"/>
					<path d="M56.925,59.928c0.357,0.457,0.337,0.354,0.152,0.486C56.747,59.938,56.771,60.042,56.925,59.928z"/>
					<path d="M32.167,70.885c0.13-0.074,0.258-0.15,0.393-0.215c0.01-0.004,0.093,0.109,0.09,0.113
						C32.245,71.17,32.323,71.124,32.167,70.885z"/>
					<path d="M66.747,75.133c0.342,0.275,0.349,0.137,0.063,0.508C66.497,75.366,66.552,75.484,66.747,75.133z"/>
					<path d="M64.938,75.594c0.097-0.104,0.189-0.209,0.293-0.305c0.01-0.008,0.127,0.082,0.125,0.086
						C65.085,75.834,65.145,75.768,64.938,75.594z"/>
					<path d="M36.38,13.413c0.061-0.047,0.12-0.132,0.18-0.132c0.168,0.001,0.336,0.038,0.501,0.166
						C36.298,13.568,36.427,13.595,36.38,13.413z"/>
					<path d="M66.835,7.719c-0.099-0.1-0.198-0.199-0.289-0.306c-0.006-0.007,0.091-0.115,0.093-0.112
						C67.068,7.609,67.007,7.548,66.835,7.719z"/>
					<path d="M80.385,7.04c0.266-0.101,0.19-0.174,0.364,0.261C80.514,7.434,80.598,7.48,80.385,7.04z"/>
					<path d="M76.009,76.316c-0.483,0.175-0.391,0.185-0.457-0.002C76.029,76.145,75.939,76.124,76.009,76.316z"/>
					<path d="M77.88,6.268c0.045-0.15,0.082-0.277,0.136-0.451C78.191,6.112,78.191,6.112,77.88,6.268z"/>
					<path d="M63.811,4.656c-0.354,0.221-0.224,0.264-0.541-0.014C63.543,4.396,63.402,4.388,63.811,4.656z"/>
					<path d="M65.156,19.12c0.123,0.222,0.14,0.085-0.008,0.497C64.759,19.319,64.927,19.283,65.156,19.12z"/>
					<path d="M79.678,28.943c0.021,0.147,0.043,0.295,0.064,0.442c-0.053,0.005-0.148,0.025-0.151,0.015
						C79.423,28.88,79.456,28.966,79.678,28.943z"/>
					<path d="M32.456,29.805c-0.409,0.137-0.283,0.141-0.48-0.046C32.37,29.504,32.254,29.513,32.456,29.805z"/>
					<path d="M83.137,19.447c0.262-0.027,0.521-0.053,0.939-0.096C83.459,19.972,83.195,19.374,83.137,19.447z"/>
					<path d="M97.479,34.199c-0.379-0.494-0.348-0.322-0.158-0.665C97.521,33.579,97.479,33.463,97.479,34.199z"/>
					<path d="M95.992,34.188c-0.107-0.121-0.219-0.192-0.217-0.259c0.002-0.078,0.1-0.208,0.166-0.215
						c0.072-0.008,0.213,0.087,0.226,0.156C96.182,33.942,96.081,34.037,95.992,34.188z"/>
					<path d="M93.175,36.367c0.476,0,0.394-0.032,0.406,0.125C93.113,36.545,93.195,36.581,93.175,36.367z"/>
					<path d="M59.743,37.115c-0.066-0.084-0.154-0.15-0.146-0.193c0.016-0.068,0.092-0.159,0.152-0.167
						c0.051-0.007,0.16,0.09,0.162,0.144C59.915,36.958,59.823,37.02,59.743,37.115z"/>
					<path d="M85.408,36.979c-0.161,0.085-0.27,0.157-0.387,0.194c-0.026,0.008-0.137-0.156-0.131-0.163
						C85.232,36.669,85.178,36.777,85.408,36.979z"/>
					<path d="M100.025,37.305c-0.1,0.608-0.027,0.515-0.297,0.474C99.814,37.143,99.743,37.234,100.025,37.305z"/>
					<path d="M81.177,37.8c-0.104-0.096-0.157-0.148-0.213-0.2c0.072-0.07,0.142-0.148,0.224-0.206
						c0.018-0.013,0.129,0.062,0.125,0.074C81.284,37.567,81.236,37.66,81.177,37.8z"/>
					<path d="M61.032,15.98c-0.109,0.081-0.179,0.158-0.265,0.186c-0.022,0.007-0.305-0.155,0.037-0.365
						C60.827,15.788,60.92,15.889,61.032,15.98z"/>
					<path d="M82.032,21.332c0.014-0.264,0.022-0.417,0.036-0.663C82.602,21.077,82.577,20.965,82.032,21.332z"/>
					<path d="M83.583,17.914c-0.008,0.312-0.181,0.367-0.539,0.255C83.518,17.726,83.398,17.758,83.583,17.914z"/>
					<path d="M52.146,45.689c-0.476,0.292-0.369,0.287-0.498,0.074C52.132,45.483,52.025,45.488,52.146,45.689z"/>
					<path d="M13.379,46.605c-0.327-0.35-0.343-0.215-0.085-0.542C13.606,46.325,13.548,46.2,13.379,46.605z"/>
					<path d="M75.411,21.433c-0.384,0.27-0.255,0.313-0.541,0.017C75.081,21.252,74.938,21.248,75.411,21.433z"/>
					<path d="M74.24,14.528c0.477,0.348,0.076,0.585-0.077,0.459C73.836,14.722,74.38,14.458,74.24,14.528z"/>
					<path d="M27.628,15.125c0.107-0.637,0.047-0.534,0.254-0.518C27.882,15.261,27.947,15.159,27.628,15.125z"/>
					<path d="M63.957,57.208c0.575-0.041,0.479-0.086,0.507,0.138C63.85,57.438,63.95,57.477,63.957,57.208z"/>
					<path d="M0.858,14.705c0.174-0.087,0.424-0.341,0.465,0.096c0.005,0.045-0.128,0.155-0.166,0.142
						C1.069,14.912,1,14.824,0.858,14.705z"/>
					<path d="M54.488,63.064c-0.672,0.345-0.555,0.332-0.684,0.187C54.082,62.879,53.925,62.963,54.488,63.064z"/>
					<path d="M82.688,8.78c-0.106,0.072-0.19,0.129-0.275,0.187c-0.114-0.194-0.266-0.227,0.128-0.4
						C82.553,8.561,82.62,8.68,82.688,8.78z"/>
					<path d="M86.066,25.156c0.281-0.049,0.453-0.079,0.658-0.114C86.532,25.365,86.532,25.365,86.066,25.156z"/>
					<path d="M93.066,7.266c-0.012,0.12-0.021,0.24-0.041,0.359c-0.002,0.005-0.129,0.002-0.129-0.005
						C92.846,7.201,92.854,7.271,93.066,7.266z"/>
					<path d="M65.04,6.603c0.09,0.105,0.14,0.164,0.188,0.221c-0.08,0.063-0.154,0.144-0.244,0.177
						c-0.032,0.012-0.162-0.121-0.153-0.14C64.872,6.775,64.95,6.707,65.04,6.603z"/>
					<path d="M68.73,25.917c-0.377,0.174-0.295,0.166-0.377,0.001C68.732,25.753,68.652,25.746,68.73,25.917z"/>
					<path d="M26.687,27.303c-0.294,0.132-0.188,0.194-0.43-0.141C26.593,27.084,26.478,27.074,26.687,27.303z"/>
					<path d="M15.673,54.525c0.074,0.103,0.146,0.175,0.174,0.261c0.008,0.026-0.133,0.146-0.158,0.131
						c-0.084-0.045-0.146-0.129-0.217-0.199C15.524,54.667,15.579,54.616,15.673,54.525z"/>
					<path d="M59.164,46.366c0.035,0.216,0.122,0.455-0.268,0.524C58.783,46.493,59.225,46.414,59.164,46.366z"/>
					<path d="M54.425,55.364c-0.419,0.172-0.292,0.196-0.487-0.107C54.33,55.114,54.193,55.114,54.425,55.364z"/>
					<path d="M50.021,55.818c-0.09,0.074-0.152,0.166-0.208,0.16c-0.059-0.004-0.146-0.096-0.151-0.158
						c-0.006-0.047,0.094-0.141,0.151-0.146C49.868,55.67,49.933,55.754,50.021,55.818z"/>
					<path d="M30.177,58.7c0.076,0.079,0.127,0.137,0.18,0.19c-0.055,0.047-0.113,0.139-0.16,0.131
						c-0.062-0.008-0.139-0.084-0.158-0.146C30.027,58.838,30.116,58.771,30.177,58.7z"/>
					<path d="M64.035,60.823c-0.11,0.418-0.042,0.364-0.284,0.282C63.938,60.713,63.866,60.76,64.035,60.823z"/>
					<path d="M19.282,47.241c0.535,0.029,0.447-0.012,0.439,0.165C19.194,47.406,19.272,47.46,19.282,47.241z"/>
					<path d="M57.064,47.6c0.105,0.159,0.154,0.316-0.092,0.373c-0.065,0.015-0.156-0.073-0.234-0.113
						C57.137,47.575,57.091,47.617,57.064,47.6z"/>
					<path d="M60.001,44.206c-0.179,0.247-0.076,0.257-0.379,0.061C59.813,44.06,59.714,44.078,60.001,44.206z"/>
					<path d="M21.029,33.814c-0.261-0.189-0.269-0.104-0.021-0.365C21.227,33.673,21.192,33.586,21.029,33.814z"/>
					<path d="M32.281,65.359c-0.294-0.325-0.274-0.207-0.038-0.467C32.507,65.204,32.472,65.081,32.281,65.359z"/>
					<path d="M67.587,64.975c0.078-0.067,0.151-0.139,0.236-0.197c0.009-0.006,0.11,0.093,0.104,0.101
						C67.734,65.178,67.757,65.12,67.587,64.975z"/>
					<path d="M95.548,66.148c-0.251,0.396-0.173,0.357-0.332,0.267C95.425,66.02,95.35,66.07,95.548,66.148z"/>
					<path d="M73.092,22.164c-0.354,0.173-0.262,0.175-0.381-0.052C73.061,21.944,72.979,21.922,73.092,22.164z"/>
					<path d="M68.839,67.443c-0.295-0.354-0.243-0.239-0.147-0.42C68.999,67.415,68.988,67.325,68.839,67.443z"/>
					<path d="M91.154,68.762c0.063,0.152,0.104,0.244,0.144,0.336C91.008,68.967,91.063,69.043,91.154,68.762z"/>
					<path d="M95.077,22.091c0.112-0.039,0.224-0.082,0.338-0.111c0.008-0.002,0.065,0.134,0.06,0.138
						C95.104,22.355,95.161,22.311,95.077,22.091z"/>
					<path d="M97.085,69.848c0.004,0.002-0.065,0.123-0.078,0.119c-0.129-0.043-0.254-0.102-0.379-0.154
						C96.781,69.588,96.709,69.555,97.085,69.848z"/>
					<path d="M94.007,69.989c0.277,0.319,0.291,0.225-0.007,0.42C93.782,70.073,93.798,70.188,94.007,69.989z"/>
					<path d="M9.579,50.975c-0.196-0.218-0.22-0.125-0.027-0.369C9.757,50.792,9.746,50.695,9.579,50.975z"/>
					<path d="M91.302,20.774c0.031,0.434,0.06,0.358-0.103,0.373C91.154,20.721,91.116,20.791,91.302,20.774z"/>
					<path d="M35.156,70.874c0.503-0.049,0.413-0.088,0.454,0.117C35.104,71.105,35.196,71.143,35.156,70.874z"/>
					<path d="M71.454,30.648c-0.052-0.082-0.093-0.145-0.134-0.208c0.087-0.043,0.168-0.1,0.259-0.119
						c0.021-0.004,0.11,0.141,0.093,0.189C71.65,30.567,71.548,30.594,71.454,30.648z"/>
					<path d="M77.021,71.573c0.451-0.188,0.371-0.209,0.41-0.007C76.965,71.561,77.005,71.551,77.021,71.573z"/>
					<path d="M42.788,21.479c-0.035-0.275-0.133-0.208,0.383-0.321C43.231,21.448,43.306,21.37,42.788,21.479z"/>
					<path d="M1.853,29.985C1.276,30.17,1.389,30.19,1.31,29.946C1.886,29.758,1.773,29.738,1.853,29.985z"/>
					<path d="M36.525,0.635c0.103,0.131,0.186,0.221,0.239,0.325c0.01,0.019-0.141,0.153-0.151,0.144
						C36.232,0.827,36.362,0.842,36.525,0.635z"/>
					<path d="M66.87,73.725c-0.091,0.084-0.144,0.162-0.216,0.188c-0.028,0.01-0.146-0.104-0.141-0.146
						c0.014-0.069,0.084-0.16,0.148-0.182C66.708,73.573,66.784,73.665,66.87,73.725z"/>
					<path d="M26.892,74.045c0.125,0.037,0.25,0.072,0.376,0.107c-0.022,0.047-0.052,0.139-0.066,0.137
						C26.768,74.217,26.849,74.2,26.892,74.045z"/>
					<path d="M41.874,29.218c0.239,0.221,0.254,0.103,0.047,0.439C41.714,29.389,41.751,29.495,41.874,29.218z"/>
					<path d="M26.589,28.982c0.06,0.139,0.146,0.256,0.119,0.294c-0.053,0.075-0.17,0.146-0.256,0.141
						c-0.06-0.003-0.17-0.16-0.152-0.209C26.327,29.131,26.445,29.087,26.589,28.982z"/>
					<path d="M28.726,74.7c0.158,0.221,0.232,0.295,0.26,0.383c0.009,0.026-0.135,0.147-0.162,0.135
						C28.479,75.042,28.647,74.9,28.726,74.7z"/>
					<path d="M30.994,28.891c0.141,0.015,0.281,0.031,0.479,0.053c-0.059,0.161-0.104,0.284-0.205,0.561
						C30.978,28.808,31.015,28.869,30.994,28.891z"/>
					<path d="M72.977,75.334c-0.121,0.242-0.041,0.223-0.375,0.037C72.698,75.209,72.604,75.213,72.977,75.334z"/>
					<path d="M62.313,2.75c0.185,0.208,0.215,0.117,0.004,0.363C62.061,2.872,62.072,2.956,62.313,2.75z"/>
					<path d="M24.519,27.815c-0.275,0.225-0.146,0.246-0.482,0.035C24.204,27.646,24.069,27.63,24.519,27.815z"/>
					<path d="M27.587,38.052c0.146,0.513,0.158,0.35-0.088,0.617C27.219,38.365,27.229,38.527,27.587,38.052z"/>
					<path d="M35.942,54.139c-0.262,0.146-0.18,0.131-0.301-0.004C35.858,53.953,35.784,53.963,35.942,54.139z"/>
				</g>
			</g>
		</g>
	</mask>
	<g mask="url(#SVGID_1_)">
		<g>
			<g>
				<path fill="#FCFCFC" d="M38.831,9.957C16.753,16.113,3.794,39.087,9.952,61.17c6.157,22.078,29.135,35.035,51.214,28.879
					c22.083-6.16,35.036-29.135,28.879-51.214C83.887,16.752,60.915,3.798,38.831,9.957z M60.225,86.67
					c-20.251,5.648-41.247-6.191-46.895-26.443c-5.649-20.254,6.19-41.25,26.442-46.897c20.251-5.647,41.251,6.19,46.899,26.447
					C92.318,60.027,80.477,81.023,60.225,86.67z"/>
				<path fill="#FCFCFC" d="M98.456,36.49c-0.521-1.864-1.683-3.55-3.394-4.703c-1.678-1.126-2.862-2.805-3.391-4.698
					c-0.232-0.832-0.338-1.709-0.301-2.602c0.037-0.897-0.068-1.77-0.299-2.597c-0.826-2.963-3.254-5.326-6.408-5.963
					c-1.43-0.289-2.727-0.936-3.797-1.853c-1.072-0.921-1.906-2.108-2.41-3.475c-0.703-1.936-2.064-3.468-3.749-4.418
					c-1.685-0.95-3.704-1.319-5.722-0.926c-1.43,0.28-2.877,0.177-4.219-0.259c-1.345-0.44-2.569-1.216-3.557-2.289
					c-2.178-2.371-5.451-3.227-8.414-2.4c-0.826,0.231-1.634,0.594-2.382,1.09c-2.427,1.61-5.514,1.845-8.156,0.619
					c-1.867-0.868-3.912-0.996-5.776-0.476c-1.864,0.52-3.548,1.687-4.696,3.396c-1.131,1.679-2.805,2.863-4.697,3.391
					c-0.838,0.233-1.711,0.338-2.603,0.3c-0.897-0.037-1.774,0.069-2.603,0.3c-2.963,0.826-5.32,3.252-5.958,6.408
					c-0.288,1.428-0.937,2.727-1.856,3.798c-0.923,1.067-2.109,1.905-3.477,2.404c-1.93,0.708-3.463,2.068-4.412,3.752
					c-0.955,1.686-1.322,3.7-0.927,5.722c0.28,1.429,0.177,2.877-0.259,4.219c-0.441,1.338-1.223,2.565-2.291,3.55
					c-2.369,2.178-3.226,5.451-2.399,8.414c0.231,0.828,0.595,1.634,1.09,2.382c0.495,0.744,0.856,1.545,1.09,2.382
					c0.528,1.894,0.382,3.942-0.476,5.776c-0.867,1.871-0.989,3.914-0.47,5.779c0.521,1.862,1.683,3.549,3.392,4.696
					c1.682,1.125,2.867,2.804,3.396,4.694c0.233,0.839,0.339,1.712,0.3,2.604c-0.037,0.896,0.07,1.773,0.301,2.603
					c0.826,2.963,3.252,5.32,6.408,5.957c1.422,0.285,2.727,0.938,3.797,1.854c1.065,0.918,1.905,2.107,2.404,3.477
					c0.709,1.935,2.064,3.47,3.754,4.416c1.686,0.955,3.699,1.322,5.717,0.929c1.43-0.279,2.878-0.177,4.219,0.26
					c1.344,0.438,2.57,1.222,3.555,2.289c2.18,2.369,5.452,3.226,8.415,2.399c0.827-0.231,1.634-0.596,2.382-1.09
					c0.744-0.494,1.545-0.856,2.382-1.09c1.895-0.529,3.938-0.381,5.773,0.471c1.867,0.867,3.91,0.99,5.775,0.472
					c1.863-0.521,3.549-1.683,4.697-3.394c1.131-1.678,2.805-2.862,4.697-3.391c0.838-0.232,1.711-0.338,2.603-0.301
					c0.897,0.037,1.774-0.068,2.603-0.299c2.963-0.826,5.32-3.252,5.957-6.408c0.291-1.424,0.938-2.727,1.857-3.799
					c0.924-1.066,2.109-1.904,3.477-2.404c1.931-0.707,3.47-2.064,4.418-3.754c0.949-1.684,1.32-3.699,0.922-5.721
					c-0.276-1.43-0.18-2.883,0.264-4.221c0.441-1.339,1.217-2.568,2.29-3.55c2.371-2.18,3.226-5.457,2.397-8.419
					c-0.229-0.827-0.592-1.629-1.088-2.377c-0.494-0.744-0.856-1.55-1.09-2.382c-0.527-1.893-0.382-3.943,0.471-5.775
					C98.854,40.397,98.977,38.354,98.456,36.49z M61.773,92.229c-23.285,6.494-47.51-7.172-54.002-30.451
					C1.278,38.494,14.938,14.269,38.224,7.775c23.284-6.493,47.51,7.167,54.002,30.452C98.718,61.506,85.061,85.736,61.773,92.229z"
					/>
			</g>
			<g>
				<polygon fill="#FCFCFC" points="42.665,21.417 45.175,24.295 48.955,23.759 46.993,27.035 48.672,30.464 44.95,29.611 
					42.207,32.267 41.868,28.464 38.495,26.676 42.007,25.178 				"/>
				<polygon fill="#FCFCFC" points="54.087,20.823 55.867,22.864 58.55,22.484 57.158,24.809 58.35,27.242 55.708,26.637 
					53.762,28.521 53.521,25.822 51.128,24.554 53.62,23.491 				"/>
				<polygon fill="#FCFCFC" points="32.584,26.819 34.364,28.861 37.047,28.48 35.655,30.805 36.846,33.238 34.206,32.633 
					32.259,34.517 32.019,31.819 29.626,30.55 32.117,29.488 				"/>
			</g>
			<g>
				<polygon fill="#FCFCFC" points="58.966,78.631 56.456,75.754 52.676,76.29 54.637,73.014 52.959,69.584 56.682,70.436 
					59.424,67.782 59.764,71.584 63.137,73.374 59.624,74.87 				"/>
				<polygon fill="#FCFCFC" points="47.544,79.225 45.764,77.184 43.081,77.564 44.473,75.241 43.282,72.807 45.923,73.413 
					47.869,71.527 48.109,74.225 50.503,75.495 48.011,76.557 				"/>
				<polygon fill="#FCFCFC" points="69.046,73.229 67.268,71.188 64.584,71.566 65.977,69.243 64.784,66.811 67.425,67.415 
					69.372,65.532 69.611,68.229 72.005,69.499 69.514,70.561 				"/>
			</g>
			
				<rect x="17.669" y="36.448" transform="matrix(-0.9632 0.2686 -0.2686 -0.9632 101.166 60.7338)" fill="#FCFCFC" width="57.519" height="1.68"/>
			
				<rect x="25.713" y="61.697" transform="matrix(-0.9632 0.2686 -0.2686 -0.9632 123.7402 108.1428)" fill="#FCFCFC" width="57.518" height="1.679"/>
		</g>
	</g>
	
		<text transform="matrix(0.9094 -0.2441 0.2593 0.9658 16.8701 66.8125)" fill="#FCFCFC" font-family="'321impact'" font-size="18.2239">OCCUPIED</text>
</g>
</svg>
