<?xml version="1.0" encoding="utf-8"?>
<!-- Generator: Adobe Illustrator 16.0.0, SVG Export Plug-In . SVG Version: 6.00 Build 0)  -->
<!DOCTYPE svg PUBLIC "-//W3C//DTD SVG 1.1//EN" "http://www.w3.org/Graphics/SVG/1.1/DTD/svg11.dtd">
<svg version="1.1" id="Layer_1" xmlns="http://www.w3.org/2000/svg" xmlns:xlink="http://www.w3.org/1999/xlink" x="0px" y="0px"
	 width="300px" height="216.189px" viewBox="757.846 174.5 300 216.189" enable-background="new 757.846 174.5 300 216.189"
	 xml:space="preserve">
<linearGradient id="SVGID_1_" gradientUnits="userSpaceOnUse" x1="928.4414" y1="297.4482" x2="928.4414" y2="183.3443" gradientTransform="matrix(1 0 0 -1 -20.96 453.3398)">
	<stop  offset="0" style="stop-color:#FFFFFF"/>
	<stop  offset="1" style="stop-color:#B8EBF4"/>
</linearGradient>
<path fill="url(#SVGID_1_)" d="M811.787,365.354c-20.112-14.55-73.76-52.803-45.927-82.24c6.353-6.718,19.412-6.486,26.315-12.813
	c8.682-7.956,4.296-20.437,0.976-30.846c-4.042-12.679-5.623-26.453-0.069-38.724c5.556-12.273,19.679-22.478,35.354-22.009
	c9.227,0.277,17.71,4.016,26.12,7.201c13.673,5.179,28.476,9.128,43.451,8.277c19.493-1.107,37.188-10.177,56.536-12.463
	c24.879-2.939,50.546,6.042,68.204,20.997c17.658,14.954,27.852,35.269,32.019,55.999c4.183,20.805,2.548,42.633-6.641,62.28
	c-9.189,19.648-26.205,36.962-48.473,46.867L811.787,365.354z"/>
<path fill="#CDDBE0" d="M802.762,369.663c-7.609-0.113-25.272,1.854-24.537,4.93c0.692,2.9,13.091,4.188,17.857,4.442
	c20.977,1.12,38.61,2.076,59.276,2.629c2.524,0.066,3.537,2.4,1.543,3.558c-1.719,0.999-3.294,2.791-1.294,3.456
	c9.703,3.224,54.269,1.854,76.887,0.805c27.398-1.271,91.626-4.486,96.482-13.065c1.617-2.854-2.866-4.975-6.63-5.784
	c-8.907-1.913-18.271-2.723-27.577-2.387L802.762,369.663z"/>
<rect x="778.202" y="368.171" fill="none" width="251.115" height="22.519"/>
<linearGradient id="SVGID_2_" gradientUnits="userSpaceOnUse" x1="925.1797" y1="81.1909" x2="925.1797" y2="264.7816" gradientTransform="matrix(1 0 0 -1 -20.96 453.3398)">
	<stop  offset="0" style="stop-color:#FFBE60"/>
	<stop  offset="1" style="stop-color:#F9F183"/>
</linearGradient>
<rect x="824.072" y="215.563" fill="url(#SVGID_2_)" width="160.292" height="152.609"/>
<rect x="824.072" y="357.114" fill="#FFE2BB" width="160.292" height="11.058"/>
<rect x="824.072" y="215.562" fill="#F29D2C" width="160.292" height="47.138"/>
<path fill="#DFDFDF" d="M814.184,241.55c-0.486,8.091,6.719,14.676,15.009,14.676c8.288,0,15.007-6.569,15.007-14.676
	c0-8.105-6.719-14.676-15.007-14.676C820.902,226.874,814.676,233.378,814.184,241.55"/>
<path fill="#E33B38" d="M844.199,241.55c0,8.106,6.72,14.676,15.009,14.676c8.287,0,15.007-6.569,15.007-14.676
	c0-8.105-6.72-14.676-15.007-14.676C850.919,226.874,844.199,233.444,844.199,241.55"/>
<path fill="#DFDFDF" d="M874.215,241.55c0,8.106,6.72,14.676,15.008,14.676s15.009-6.569,15.009-14.676
	c0-8.105-6.721-14.676-15.009-14.676C880.934,226.874,874.215,233.444,874.215,241.55"/>
<path fill="#E33B38" d="M904.231,241.55c0,8.106,6.718,14.676,15.006,14.676s15.008-6.569,15.008-14.676
	c0-8.105-6.72-14.676-15.008-14.676S904.231,233.444,904.231,241.55"/>
<path fill="#DFDFDF" d="M934.245,241.55c0,8.106,6.721,14.676,15.008,14.676c8.288,0,15.008-6.569,15.008-14.676
	c0-8.105-6.72-14.676-15.008-14.676C940.966,226.874,934.245,233.444,934.245,241.55"/>
<path fill="#E33B38" d="M964.262,241.55c0,8.106,6.718,14.676,15.007,14.676c8.288,0,15.008-6.569,15.008-14.676
	c0-8.105-6.72-14.676-15.008-14.676C970.979,226.874,964.262,233.444,964.262,241.55"/>
<polygon fill="#F25757" points="994.276,241.55 814.184,241.55 818.544,214.732 991.125,214.732 "/>
<polygon fill="#FFFFFF" points="814.184,241.55 818.544,214.732 848.301,214.732 844.199,241.55 "/>
<polygon fill="#FFFFFF" points="904.231,241.55 904.231,214.732 877.007,214.732 874.215,241.55 "/>
<polygon fill="#FFFFFF" points="934.245,241.55 934.245,214.732 961.468,214.732 964.262,241.55 "/>
<rect x="818.212" y="207.545" fill="#E33B38" width="173.063" height="8.754"/>
<rect x="818.212" y="207.546" fill="#F95D5D" width="173.063" height="2.229"/>
<rect x="818.212" y="207.546" fill="#FFFFFF" width="173.063" height="0.557"/>
<rect x="896.96" y="274.173" fill="#FFFFFF" width="87.404" height="67.051"/>
<rect x="837.87" y="274.173" fill="#FFFFFF" width="48.511" height="90.405"/>
<rect x="841.602" y="278.028" fill="#054651" width="40.736" height="86.551"/>
<rect x="901.106" y="278.596" fill="#054651" width="83.258" height="58.888"/>
<rect x="896.96" y="341.224" fill="#D87C0E" width="87.404" height="5.384"/>
<rect x="905.253" y="278.596" fill="#0E5768" width="79.111" height="53.083"/>
<rect x="846.228" y="278.028" fill="#0E5768" width="36.11" height="84.614"/>
<rect x="846.228" y="278.028" fill="none" width="36.11" height="84.615"/>
<rect x="905.254" y="278.596" fill="none" width="79.11" height="53.083"/>
<path fill="none" d="M996.629,312.589c-3.038,1.731-3.397,5.92-5.34,8.827c-2.508,3.75-7.44,5.057-10.587,8.291
	c-2.614,2.689-3.787,6.704-3.032,10.378c0.506,2.456,1.815,4.859,1.373,7.328c-0.837,4.682-7.266,6.52-8.521,11.106
	c-0.799,2.923,0.898,6.075,3.341,7.869c2.443,1.794,5.491,2.515,8.458,3.136c4.846,1.012,10.438,1.702,14.265-1.438
	c0,0,5.97-3.508,1.534-13.173c-1.531-3.333-3.143-6.734-3.567-10.379c-0.372-3.191,0.598-6.52,2.628-9.01
	c2.153-2.645,5.354-4.293,7.436-6.99c2.573-3.331,3.064-8.143,1.219-11.925c-1.26-2.582-4.068-4.653-6.779-4.654
	C998.221,311.956,997.397,312.151,996.629,312.589"/>
<path fill="none" d="M1013.289,329.885c-3.979,2.042-7.849,4.293-11.576,6.764c-1.718,1.138-3.427,2.342-4.764,3.911
	c-4.216,4.949-3.754,12.709-0.311,18.222c0,0,4.72,3.007,8.858,0.838c1.824-0.955,2.915-2.902,3.684-4.813
	c0.771-1.911,1.261-3.934,2.187-5.773c1.093-2.169,2.786-4.032,4.84-5.327c2.563-1.614,5.595-2.321,8.257-3.768
	c2.661-1.445,5.09-4.068,4.835-7.088c-0.271-3.216-3.607-5.488-6.832-5.66c-0.183-0.012-0.366-0.017-0.549-0.017
	C1018.894,327.173,1015.998,328.495,1013.289,329.885"/>
<g>
	<g>
		
			<linearGradient id="SVGID_3_" gradientUnits="userSpaceOnUse" x1="1008.4326" y1="89.4341" x2="1011.4817" y2="149.9806" gradientTransform="matrix(1 0 0 -1 -20.96 453.3398)">
			<stop  offset="0" style="stop-color:#B9B536"/>
			<stop  offset="1" style="stop-color:#F6F4B8"/>
		</linearGradient>
		<path fill="url(#SVGID_3_)" d="M998.121,354.914c-1.531-3.333-3.144-6.734-3.567-10.38c-0.372-3.19,0.598-6.519,2.627-9.01
			c2.153-2.644,5.354-4.292,7.437-6.989c2.573-3.332,3.063-8.143,1.218-11.925c-1.646-3.377-5.942-5.88-9.206-4.021
			c-3.038,1.731-3.397,5.92-5.34,8.827c-2.508,3.75-7.44,5.057-10.587,8.291c-2.614,2.689-3.787,6.704-3.032,10.378
			c0.506,2.456,1.815,4.86,1.373,7.328c-0.838,4.681-7.266,6.52-8.521,11.106c-0.8,2.923,0.898,6.075,3.341,7.869
			c2.443,1.794,5.491,2.515,8.458,3.136c4.846,1.012,10.438,1.702,14.265-1.438C996.587,368.087,1002.557,364.578,998.121,354.914"
			/>
		<path fill="#ADA028" d="M988.658,332.862c0.975-1.438,2.062-2.786,3.179-4.111c0.024-0.001,0.049,0.006,0.078,0
			c6.314-1.148,12.229-4.002,17.08-8.201c0.418-0.359-0.188-0.96-0.603-0.603c-4.482,3.879-9.9,6.549-15.688,7.778
			c1.283-1.5,2.586-2.985,3.792-4.549c2.714-3.518,5.009-7.509,5.227-12.047c0.026-0.55-0.826-0.548-0.853,0
			c-0.345,7.19-5.72,12.354-10.173,17.685c-0.674-3.479-0.191-7.124,1.391-10.309c0.242-0.49-0.492-0.923-0.736-0.431
			c-1.781,3.583-2.26,7.687-1.344,11.579c-0.743,0.914-1.448,1.837-2.088,2.779c-1.124,1.652-2.098,3.415-2.768,5.303
			c-0.752,2.116-1.008,4.331-0.973,6.569c0.037,2.401,0.34,4.791,0.364,7.192c0.023,2.426-0.193,4.853-0.652,7.236
			c-0.098,0.506-0.208,1.007-0.327,1.509c-0.437-2.315-1.511-4.49-2.587-6.593c-1.572-3.074-3.293-6.456-2.615-10.014
			c0.104-0.537-0.719-0.767-0.822-0.228c-1.356,7.112,5.563,12.313,5.37,19.235c0,0.003,0.002,0.003,0.002,0.006
			c-0.376,1.207-0.854,2.385-1.18,3.607c-0.545,2.032-0.549,4.282,0.898,5.95c0.361,0.415,0.962-0.191,0.604-0.605
			c-1.545-1.778-0.997-4.268-0.322-6.289c0.276-0.828,0.549-1.653,0.804-2.481c0.01-0.018,0.012-0.039,0.019-0.059
			c0.222-0.723,0.429-1.45,0.614-2.185c2.555-2.176,5.218-4.275,7.593-6.648c2.06-2.058,3.844-4.447,4.552-7.315
			c0.132-0.534-0.691-0.761-0.822-0.228c-0.71,2.879-2.558,5.216-4.646,7.247c-2.017,1.965-4.207,3.754-6.363,5.569
			c0.027-0.132,0.057-0.262,0.08-0.393c0.43-2.271,0.654-4.585,0.658-6.897c0.004-2.306-0.266-4.597-0.349-6.9
			c-0.081-2.323,0.094-4.618,0.845-6.831C986.542,336.29,987.531,334.521,988.658,332.862z"/>
	</g>
	<g>
		
			<linearGradient id="SVGID_4_" gradientUnits="userSpaceOnUse" x1="1026.1709" y1="104.8584" x2="1059.2747" y2="149.2871" gradientTransform="matrix(1 0 0 -1 -20.96 453.3398)">
			<stop  offset="0" style="stop-color:#AAC037"/>
			<stop  offset="1" style="stop-color:#FBEE3F"/>
		</linearGradient>
		<path fill="url(#SVGID_4_)" d="M1005.497,359.619c1.824-0.955,2.915-2.902,3.684-4.813c0.771-1.909,1.261-3.934,2.187-5.773
			c1.093-2.169,2.786-4.032,4.84-5.327c2.563-1.614,5.595-2.321,8.257-3.768c2.661-1.445,5.09-4.068,4.835-7.088
			c-0.271-3.216-3.607-5.488-6.832-5.661c-3.223-0.175-6.307,1.223-9.178,2.696c-3.979,2.043-7.849,4.293-11.575,6.764
			c-1.719,1.138-3.428,2.342-4.765,3.911c-4.216,4.949-3.754,12.709-0.311,18.222
			C996.639,358.781,1001.358,361.788,1005.497,359.619"/>
		<path fill="#8F9E1E" d="M1028.927,329.576c-8.011,2.061-15.597,5.768-21.503,11.642c-1.957,1.947-3.679,4.082-5.207,6.35
			c-0.022,0.022-0.048,0.038-0.066,0.067c-0.989,1.477-1.883,3.002-2.702,4.563c-0.658,1.243-1.271,2.511-1.841,3.799
			c0.188-4.858,0.935-9.679,2.971-14.14c2.061-4.514,5.019-8.534,7.429-12.854c0.133-0.241-0.234-0.456-0.37-0.216
			c-2.495,4.475-5.582,8.631-7.644,13.341c-2.063,4.718-2.731,9.821-2.848,14.932c-0.151,0.36-0.302,0.724-0.449,1.09
			c-1.059,2.634-1.959,5.326-2.799,8.038c-0.193,0.623-0.386,1.245-0.572,1.869c-0.02,0.065-0.024,0.128-0.017,0.184
			c0.045,0.334,0.528,0.466,0.752,0.207c0.038-0.044,0.068-0.097,0.088-0.163c1.097-3.657,2.296-7.292,3.769-10.806
			c1.422-0.954,2.59-2.21,3.763-3.456c1.432-1.52,2.947-2.873,4.749-3.945c3.876-2.31,8.319-3.342,12.671-4.351
			c0.267-0.061,0.153-0.474-0.114-0.41c-4.304,0.996-8.688,2.023-12.546,4.26c-1.734,1.006-3.256,2.252-4.639,3.697
			c-1.146,1.198-2.248,2.448-3.565,3.45c1.091-2.516,2.328-4.961,3.779-7.302c0.099-0.156,0.194-0.313,0.295-0.466
			c0.055-0.088,0.113-0.175,0.169-0.263c3.363-5.126,7.736-9.496,13.008-12.703c4.232-2.574,8.881-4.361,13.668-5.592
			C1029.684,330.264,1029.459,329.439,1028.927,329.576z"/>
	</g>
</g>
<g>
	<g>
		
			<linearGradient id="SVGID_5_" gradientUnits="userSpaceOnUse" x1="-384.4551" y1="89.4346" x2="-381.406" y2="149.9803" gradientTransform="matrix(-1 0 0 -1 430.5303 453.3398)">
			<stop  offset="0" style="stop-color:#B9B536"/>
			<stop  offset="1" style="stop-color:#F6F4B8"/>
		</linearGradient>
		<path fill="url(#SVGID_5_)" d="M804.338,354.914c1.531-3.333,3.145-6.734,3.568-10.38c0.372-3.19-0.599-6.519-2.629-9.01
			c-2.152-2.644-5.353-4.292-7.437-6.989c-2.572-3.332-3.063-8.143-1.217-11.925c1.646-3.377,5.941-5.88,9.207-4.021
			c3.037,1.731,3.396,5.92,5.339,8.827c2.508,3.75,7.441,5.057,10.587,8.291c2.615,2.689,3.788,6.704,3.032,10.378
			c-0.506,2.456-1.815,4.86-1.374,7.328c0.839,4.681,7.266,6.52,8.521,11.106c0.801,2.923-0.898,6.075-3.339,7.869
			c-2.443,1.794-5.493,2.515-8.458,3.136c-4.846,1.012-10.438,1.702-14.267-1.438C805.871,368.087,799.903,364.578,804.338,354.914"
			/>
		<path fill="#ADA028" d="M813.801,332.862c-0.976-1.438-2.061-2.786-3.178-4.111c-0.027-0.001-0.05,0.006-0.078,0
			c-6.316-1.148-12.23-4.002-17.083-8.201c-0.415-0.359,0.19-0.96,0.604-0.603c4.48,3.879,9.899,6.549,15.688,7.778
			c-1.285-1.5-2.587-2.985-3.792-4.549c-2.714-3.518-5.009-7.509-5.227-12.047c-0.026-0.55,0.826-0.548,0.853,0
			c0.345,7.19,5.72,12.354,10.172,17.685c0.675-3.479,0.192-7.124-1.389-10.309c-0.244-0.49,0.492-0.923,0.735-0.431
			c1.781,3.583,2.26,7.687,1.345,11.579c0.741,0.914,1.447,1.837,2.087,2.779c1.124,1.652,2.099,3.415,2.768,5.303
			c0.752,2.116,1.008,4.331,0.972,6.569c-0.037,2.401-0.339,4.791-0.363,7.192c-0.024,2.426,0.192,4.853,0.652,7.236
			c0.098,0.506,0.209,1.007,0.328,1.509c0.436-2.315,1.509-4.49,2.586-6.593c1.572-3.074,3.293-6.456,2.615-10.014
			c-0.104-0.537,0.719-0.767,0.821-0.228c1.357,7.112-5.562,12.313-5.368,19.235c0,0.003-0.002,0.003-0.002,0.006
			c0.376,1.207,0.853,2.385,1.18,3.607c0.545,2.032,0.548,4.282-0.9,5.95c-0.36,0.415-0.962-0.191-0.604-0.605
			c1.547-1.778,0.999-4.268,0.323-6.289c-0.276-0.828-0.55-1.653-0.805-2.481c-0.01-0.018-0.011-0.039-0.018-0.059
			c-0.222-0.723-0.43-1.45-0.614-2.185c-2.554-2.176-5.218-4.275-7.592-6.648c-2.062-2.058-3.845-4.447-4.553-7.315
			c-0.132-0.534,0.691-0.761,0.823-0.228c0.709,2.879,2.557,5.216,4.646,7.247c2.018,1.965,4.208,3.754,6.362,5.569
			c-0.026-0.132-0.055-0.262-0.079-0.393c-0.43-2.271-0.653-4.585-0.657-6.897c-0.004-2.306,0.264-4.597,0.347-6.9
			c0.082-2.323-0.093-4.618-0.844-6.831C815.916,336.29,814.927,334.521,813.801,332.862z"/>
	</g>
	<g>
		
			<linearGradient id="SVGID_6_" gradientUnits="userSpaceOnUse" x1="-366.7173" y1="104.8579" x2="-333.6129" y2="149.2875" gradientTransform="matrix(-1 0 0 -1 430.5303 453.3398)">
			<stop  offset="0" style="stop-color:#AAC037"/>
			<stop  offset="1" style="stop-color:#FBEE3F"/>
		</linearGradient>
		<path fill="url(#SVGID_6_)" d="M796.962,359.619c-1.824-0.955-2.916-2.902-3.685-4.813c-0.769-1.909-1.26-3.934-2.188-5.773
			c-1.092-2.169-2.784-4.032-4.838-5.327c-2.563-1.614-5.596-2.321-8.256-3.768c-2.662-1.445-5.091-4.068-4.836-7.088
			c0.271-3.216,3.607-5.488,6.83-5.661c3.226-0.175,6.308,1.223,9.18,2.696c3.978,2.043,7.85,4.293,11.575,6.764
			c1.719,1.138,3.427,2.342,4.764,3.911c4.216,4.949,3.755,12.709,0.312,18.222C805.82,358.781,801.101,361.788,796.962,359.619"/>
		<path fill="#8F9E1E" d="M773.532,329.576c8.012,2.061,15.597,5.768,21.503,11.642c1.957,1.947,3.679,4.082,5.207,6.35
			c0.023,0.022,0.048,0.038,0.066,0.067c0.99,1.477,1.881,3.002,2.702,4.563c0.658,1.243,1.271,2.511,1.842,3.799
			c-0.189-4.858-0.937-9.679-2.972-14.14c-2.061-4.514-5.019-8.534-7.429-12.854c-0.133-0.241,0.235-0.456,0.369-0.216
			c2.496,4.475,5.584,8.631,7.645,13.341c2.064,4.718,2.731,9.821,2.848,14.932c0.151,0.36,0.302,0.724,0.448,1.09
			c1.059,2.634,1.96,5.326,2.799,8.038c0.194,0.623,0.386,1.245,0.573,1.869c0.021,0.065,0.024,0.128,0.017,0.184
			c-0.046,0.334-0.528,0.466-0.753,0.207c-0.036-0.044-0.067-0.097-0.087-0.163c-1.098-3.657-2.296-7.292-3.768-10.806
			c-1.423-0.954-2.59-2.21-3.765-3.456c-1.43-1.52-2.947-2.873-4.748-3.945c-3.876-2.31-8.319-3.342-12.67-4.351
			c-0.267-0.061-0.155-0.474,0.113-0.41c4.304,0.996,8.688,2.023,12.547,4.26c1.733,1.006,3.255,2.252,4.638,3.697
			c1.146,1.198,2.248,2.448,3.564,3.45c-1.089-2.516-2.326-4.961-3.779-7.302c-0.097-0.156-0.194-0.313-0.294-0.466
			c-0.056-0.088-0.113-0.175-0.169-0.263c-3.362-5.126-7.736-9.496-13.008-12.703c-4.232-2.574-8.882-4.361-13.668-5.592
			C772.774,330.264,772.999,329.439,773.532,329.576z"/>
	</g>
</g>
<rect x="799.542" y="364.578" fill="#282F39" width="209.354" height="7.188"/>
<rect x="799.542" y="364.578" fill="#4D555E" width="209.354" height="2.304"/>
<path fill="#F1F9FB" d="M997.378,272.306c-1.619-0.808-3.288-1.655-4.432-3.056c-1.145-1.402-1.618-3.521-0.622-5.028
	c0.826-1.251,2.405-1.765,3.891-1.965c3.714-0.504,7.605,0.457,10.658,2.632c-0.743-6.204,1.953-12.711,6.867-16.57
	c2.343-1.839,5.236-3.112,8.212-3.04c2.978,0.074,5.998,1.671,7.296,4.352c0.822,1.699,0.912,3.656,0.831,5.542
	c-0.161,3.726-0.935,7.424-2.282,10.899c6.775-1.844,18.185-2.905,19.957,3.888c3.572,13.689-54.262,20.784-57.856,8.407
	C988.951,275.105,997.378,272.306,997.378,272.306"/>
<path fill="#F1F9FB" d="M785.62,297.315c-1.11-0.555-2.257-1.136-3.042-2.098c-0.787-0.962-1.112-2.415-0.426-3.452
	c0.566-0.859,1.65-1.211,2.67-1.35c2.55-0.346,5.221,0.314,7.315,1.808c-0.509-4.259,1.343-8.726,4.716-11.376
	c1.608-1.262,3.594-2.138,5.639-2.087c2.043,0.05,4.116,1.147,5.007,2.986c0.564,1.167,0.626,2.511,0.57,3.806
	c-0.109,2.558-0.641,5.096-1.565,7.483c4.649-1.267,12.483-1.996,13.702,2.669c2.45,9.397-37.254,14.268-39.72,5.771
	C779.834,299.238,785.62,297.315,785.62,297.315"/>
<path fill="#B8EBF4" d="M1002.037,273.777c-1.269-0.634-2.576-1.297-3.472-2.395c-0.897-1.098-1.269-2.757-0.487-3.938
	c0.646-0.979,1.885-1.382,3.048-1.539c2.907-0.394,5.957,0.358,8.349,2.062c-0.584-4.859,1.528-9.955,5.377-12.978
	c1.834-1.441,4.102-2.439,6.431-2.382c2.334,0.059,4.698,1.309,5.715,3.408c0.645,1.332,0.714,2.863,0.65,4.341
	c-0.124,2.918-0.731,5.815-1.787,8.538c5.306-1.445,14.244-2.276,15.632,3.044c2.798,10.723-42.499,16.279-45.315,6.587
	C995.436,275.97,1002.037,273.777,1002.037,273.777"/>
<rect x="959.857" y="265.019" fill="#F29D2C" width="19.411" height="6.804"/>
<rect x="827.474" y="265.241" fill="#F29D2C" width="19.411" height="6.805"/>
<rect x="942.253" y="266.431" fill="#F29D2C" width="9.862" height="4.425"/>
<rect x="890.553" y="349.649" fill="#D87C0E" width="9.863" height="4.423"/>
<rect x="918.361" y="349.649" fill="#D87C0E" width="9.864" height="4.423"/>
<polygon fill="#329BAD" points="846.228,340.75 846.228,347.206 882.338,295.251 882.338,288.795 "/>
<polygon fill="#329BAD" points="865.292,278.028 846.228,305.459 846.228,332.027 882.338,280.072 882.338,278.028 "/>
<polygon fill="#329BAD" points="939.013,331.679 975.905,278.596 971.418,278.596 934.525,331.679 "/>
<polygon fill="#329BAD" points="926.098,331.679 962.99,278.596 944.524,278.596 907.631,331.679 "/>
<g>
	<path fill="#FFFFFF" d="M961.644,299.299h-11.625l-5.342-4.28c0.082-0.168,0.132-0.354,0.132-0.554
		c0-0.706-0.573-1.279-1.279-1.279s-1.277,0.572-1.277,1.279c0,0.182,0.039,0.354,0.107,0.512l-5.85,4.323h-10.832
		c-1.024,0-1.854,0.831-1.854,1.854v18.04c0,1.025,0.829,1.854,1.854,1.854h35.965c1.022,0,1.854-0.829,1.854-1.854v-18.04
		C963.496,300.13,962.666,299.299,961.644,299.299z M942.7,295.431c0.225,0.191,0.513,0.313,0.829,0.313
		c0.301,0,0.572-0.107,0.791-0.281l4.789,3.838h-11.642L942.7,295.431z"/>
	<g>
		<g>
			<path fill="#054651" d="M934.904,302.846l0.455,1.747c0.101,0.386,0.191,0.739,0.255,1.095h0.023
				c0.077-0.348,0.191-0.717,0.305-1.088l0.562-1.754h0.525l0.534,1.719c0.127,0.414,0.227,0.775,0.306,1.123h0.021
				c0.058-0.348,0.149-0.709,0.263-1.115l0.49-1.727h0.619l-1.109,3.439h-0.567l-0.525-1.642c-0.121-0.384-0.222-0.725-0.307-1.131
				h-0.015c-0.085,0.413-0.192,0.769-0.313,1.138l-0.554,1.634h-0.568l-1.037-3.438H934.904L934.904,302.846z"/>
			<path fill="#054651" d="M940.234,304.679c0.015,0.845,0.554,1.193,1.18,1.193c0.447,0,0.719-0.079,0.952-0.177l0.105,0.446
				c-0.219,0.1-0.597,0.213-1.143,0.213c-1.06,0-1.692-0.696-1.692-1.732c0-1.038,0.612-1.854,1.613-1.854
				c1.123,0,1.421,0.987,1.421,1.62c0,0.128-0.013,0.228-0.021,0.291H940.234z M942.067,304.23c0.008-0.397-0.163-1.016-0.866-1.016
				c-0.633,0-0.91,0.583-0.959,1.016H942.067z"/>
			<path fill="#054651" d="M946.857,306.284l-0.05-0.434h-0.022c-0.191,0.27-0.562,0.512-1.051,0.512
				c-0.697,0-1.052-0.49-1.052-0.987c0-0.831,0.739-1.286,2.067-1.279v-0.071c0-0.284-0.078-0.796-0.781-0.796
				c-0.319,0-0.654,0.101-0.896,0.256l-0.142-0.412c0.284-0.185,0.697-0.305,1.13-0.305c1.052,0,1.309,0.717,1.309,1.406v1.285
				c0,0.299,0.014,0.591,0.056,0.825H946.857z M946.765,304.529c-0.682-0.014-1.457,0.106-1.457,0.774
				c0,0.405,0.271,0.597,0.59,0.597c0.447,0,0.732-0.284,0.831-0.575c0.021-0.063,0.036-0.136,0.036-0.199V304.529z"/>
			<path fill="#054651" d="M948.377,303.918c0-0.405-0.007-0.753-0.027-1.072h0.547l0.021,0.674h0.028
				c0.156-0.462,0.533-0.753,0.952-0.753c0.072,0,0.12,0.008,0.178,0.021v0.591c-0.064-0.014-0.128-0.021-0.214-0.021
				c-0.44,0-0.752,0.335-0.838,0.804c-0.014,0.084-0.027,0.184-0.027,0.291v1.833h-0.619L948.377,303.918L948.377,303.918z"/>
			<path fill="#054651" d="M951.05,304.679c0.014,0.845,0.554,1.193,1.179,1.193c0.448,0,0.718-0.079,0.952-0.177l0.106,0.446
				c-0.22,0.1-0.597,0.213-1.144,0.213c-1.06,0-1.691-0.696-1.691-1.732c0-1.038,0.611-1.854,1.613-1.854
				c1.122,0,1.421,0.987,1.421,1.62c0,0.128-0.014,0.228-0.021,0.291H951.05z M952.883,304.23c0.008-0.397-0.164-1.016-0.867-1.016
				c-0.632,0-0.91,0.583-0.959,1.016H952.883z"/>
		</g>
		<g>
			<path fill="#054651" d="M936.043,312.595c0,3.258-1.98,4.985-4.396,4.985c-2.498,0-4.254-1.938-4.254-4.803
				c0-3.006,1.868-4.971,4.395-4.971C934.372,307.807,936.043,309.786,936.043,312.595z M928.699,312.749
				c0,2.022,1.095,3.834,3.019,3.834c1.938,0,3.034-1.783,3.034-3.931c0-1.882-0.983-3.85-3.02-3.85
				C929.709,308.803,928.699,310.671,928.699,312.749z"/>
			<path fill="#054651" d="M937.896,308.073c0.59-0.099,1.361-0.184,2.346-0.184c1.207,0,2.092,0.282,2.654,0.787
				c0.519,0.449,0.828,1.138,0.828,1.98c0,0.856-0.253,1.531-0.73,2.022c-0.646,0.688-1.698,1.04-2.894,1.04
				c-0.365,0-0.702-0.015-0.983-0.084v3.791h-1.222L937.896,308.073L937.896,308.073z M939.117,312.637
				c0.267,0.07,0.604,0.099,1.012,0.099c1.474,0,2.372-0.717,2.372-2.022c0-1.25-0.885-1.854-2.232-1.854
				c-0.534,0-0.94,0.043-1.152,0.1L939.117,312.637L939.117,312.637z"/>
			<path fill="#054651" d="M950.548,312.987h-3.68v3.413h4.101v1.026h-5.323v-9.467h5.113v1.026h-3.891v2.991h3.68V312.987
				L950.548,312.987z"/>
			<path fill="#054651" d="M952.821,317.426v-9.466h1.334l3.033,4.789c0.703,1.109,1.251,2.107,1.7,3.076l0.028-0.015
				c-0.113-1.263-0.142-2.414-0.142-3.89v-3.961h1.152v9.466h-1.235l-3.006-4.803c-0.66-1.054-1.292-2.135-1.771-3.16l-0.042,0.015
				c0.071,1.193,0.1,2.33,0.1,3.904v4.044H952.821z"/>
		</g>
	</g>
</g>
</svg>
