<?xml version="1.0" encoding="utf-8"?>
<!-- Generator: Adobe Illustrator 16.0.0, SVG Export Plug-In . SVG Version: 6.00 Build 0)  -->
<!DOCTYPE svg PUBLIC "-//W3C//DTD SVG 1.0//EN" "http://www.w3.org/TR/2001/REC-SVG-20010904/DTD/svg10.dtd">
<svg version="1.0" id="Layer_1" xmlns="http://www.w3.org/2000/svg" xmlns:xlink="http://www.w3.org/1999/xlink" x="0px" y="0px"
	 width="200px" height="200px" viewBox="0 0 200 200" enable-background="new 0 0 200 200" xml:space="preserve">
<rect y="0.001" fill-rule="evenodd" clip-rule="evenodd" fill="none" width="200" height="199.999"/>
<g>
	<path fill-rule="evenodd" clip-rule="evenodd" fill="#FFFFFF" d="M153.623,15.557c-0.909-0.52-1.453-0.827-1.997-1.146
		C130.518,1.895,107.825-2.538,83.631,1.386c-18,2.907-34.133,10.283-47.973,22.185C12.445,43.544,0.709,69.039,0.106,99.625
		c-0.106,5.378,4.007,9.431,9.159,9.419c5.106-0.023,8.734-3.947,9.089-9.277c0.366-5.567,0.662-11.217,1.809-16.653
		c7.718-36.58,38.849-62.156,73.916-64.556c15.542-1.063,30.115,2.021,43.908,9.136c0.649,0.343,1.253,0.756,2.068,1.253
		c-3.499,3.475-6.796,6.701-10.034,9.975c-2.73,2.777-3.594,6.123-2.199,9.763c1.431,3.723,4.303,5.827,8.321,5.862
		c12.268,0.071,24.536,0.13,36.804-0.036c5.271-0.071,8.723-4.019,8.734-9.29c0.012-11.914,0.012-23.827-0.012-35.741
		c0-0.839-0.059-1.714-0.271-2.518c-1.832-6.891-9.916-9.207-15.141-4.219C161.944,6.847,157.891,11.208,153.623,15.557z
		 M60.028,171.072c0.674-0.709,1.135-1.229,1.62-1.715c2.942-2.979,5.98-5.861,8.816-8.934c2.459-2.672,3.014-5.934,1.678-9.303
		c-1.37-3.428-3.994-5.436-7.765-5.721c-1.335-0.094-2.683-0.094-4.03-0.094c-10.637,0-21.274-0.023-31.899,0.012
		c-6.571,0.012-10.129,3.594-10.129,10.105c0,11.488-0.012,22.965,0,34.453c0.012,0.98,0,2.008,0.236,2.953
		c1.749,6.986,9.94,9.338,15.247,4.314c3.912-3.711,7.705-7.541,11.452-11.416c1.04-1.076,1.737-1.111,3.025-0.344
		c23.922,14.207,49.534,18.283,76.422,11.229c31.723-8.32,54.12-28.047,67.333-58.031c5.378-12.197,7.777-25.104,7.859-38.413
		c0.036-5.259-3.982-9.266-9.064-9.302c-5.094-0.047-8.936,3.9-9.16,9.172c-0.165,3.958-0.283,7.955-0.91,11.855
		c-3.936,24.063-15.967,43.08-36.355,56.482c-17.137,11.252-36.095,15.199-56.376,12.352
		C78.206,179.357,68.952,176.154,60.028,171.072z"/>
	<path fill-rule="evenodd" clip-rule="evenodd" fill="#FFFFFF" d="M153.623,15.557c4.268-4.349,8.321-8.71,12.635-12.812
		c5.225-4.988,13.309-2.671,15.141,4.219c0.213,0.804,0.271,1.678,0.271,2.518c0.023,11.914,0.023,23.827,0.012,35.741
		c-0.012,5.271-3.463,9.219-8.734,9.29c-12.268,0.166-24.536,0.106-36.804,0.036c-4.019-0.036-6.891-2.14-8.321-5.862
		c-1.395-3.64-0.531-6.985,2.199-9.763c3.238-3.274,6.535-6.5,10.034-9.975c-0.815-0.497-1.419-0.91-2.068-1.253
		c-13.793-7.115-28.366-10.2-43.908-9.136c-35.067,2.399-66.198,27.976-73.916,64.556c-1.146,5.437-1.442,11.086-1.809,16.653
		c-0.354,5.33-3.982,9.253-9.089,9.277c-5.152,0.012-9.266-4.041-9.159-9.419c0.603-30.587,12.339-56.081,35.552-76.055
		C49.498,11.669,65.631,4.293,83.631,1.386c24.194-3.924,46.887,0.508,67.995,13.024C152.17,14.73,152.714,15.037,153.623,15.557z"
		/>
	<path fill-rule="evenodd" clip-rule="evenodd" fill="#FFFFFF" d="M60.028,171.072c8.924,5.082,18.178,8.285,28,9.656
		c20.281,2.848,39.239-1.1,56.376-12.352c20.389-13.402,32.42-32.42,36.355-56.482c0.627-3.9,0.745-7.896,0.91-11.855
		c0.225-5.271,4.066-9.219,9.16-9.172c5.082,0.036,9.101,4.043,9.064,9.302c-0.082,13.309-2.481,26.215-7.859,38.413
		c-13.213,29.984-35.61,49.711-67.333,58.031c-26.888,7.055-52.5,2.979-76.422-11.229c-1.288-0.768-1.985-0.732-3.025,0.344
		c-3.747,3.875-7.54,7.705-11.452,11.416c-5.307,5.023-13.498,2.672-15.247-4.314c-0.236-0.945-0.225-1.973-0.236-2.953
		c-0.012-11.488,0-22.965,0-34.453c0-6.512,3.558-10.094,10.129-10.105c10.625-0.035,21.263-0.012,31.899-0.012
		c1.348,0,2.695,0,4.03,0.094c3.771,0.285,6.395,2.293,7.765,5.721c1.336,3.369,0.781,6.631-1.678,9.303
		c-2.836,3.072-5.874,5.955-8.816,8.934C61.163,169.844,60.702,170.363,60.028,171.072z"/>
</g>
</svg>
