<?xml version="1.0" encoding="utf-8"?>
<!-- Generator: Adobe Illustrator 16.0.0, SVG Export Plug-In . SVG Version: 6.00 Build 0)  -->
<!DOCTYPE svg PUBLIC "-//W3C//DTD SVG 1.0//EN" "http://www.w3.org/TR/2001/REC-SVG-20010904/DTD/svg10.dtd">
<svg version="1.0" id="Layer_1" xmlns="http://www.w3.org/2000/svg" xmlns:xlink="http://www.w3.org/1999/xlink" x="0px" y="0px"
	 width="200px" height="200px" viewBox="0 0 200 200" enable-background="new 0 0 200 200" xml:space="preserve">
<rect y="0.001" fill-rule="evenodd" clip-rule="evenodd" fill="none" width="200" height="199.999"/>
<g>
	<path fill-rule="evenodd" clip-rule="evenodd" fill="#FFFFFF" d="M189.855,137.284c-0.004-1.821-1.232-2.954-2.934-2.939
		c-1.695,0.015-2.805,1.155-2.896,3.001c-0.025,0.52-0.006,1.041-0.006,1.563c0,10.285,0,20.571-0.002,30.856
		c-0.002,4.787-2.102,6.893-6.891,6.894c-27.016,0.003-54.033,0.002-81.049,0.002c-0.695,0-1.389,0-2.43,0c0-4.032,0-7.83,0-11.894
		c0.99-0.467,2.49-0.887,3.635-1.771c3.199-2.468,6.709-3.059,10.688-3.013c4.857,0.056,8.42-4.136,8.205-8.838
		c-0.215-4.71-3.867-8.139-8.703-8.168c-0.814-0.005-1.629-0.001-2.434-0.001c0-2.103,0-3.897,0-5.875
		c1.014,0,1.912,0.014,2.813-0.003c4.059-0.071,7.588-3.093,8.188-7c0.672-4.372-1.639-8.886-5.781-9.533
		c-4.098-0.641-8.387-0.292-12.568-0.024c-1.297,0.083-2.521,1.315-3.756,2.009c0-3.668,0-7.266,0-10.434
		c2.031,0.697,4.021,1.767,6.105,2.002c2.885,0.325,5.859,0.216,8.762-0.056c4.289-0.4,7.404-4.114,7.391-8.417
		c-0.014-4.378-3.26-7.979-7.631-8.433c-1.146-0.118-2.299-0.157-3.514-0.237c0-3.768,0-7.378,0-11.074
		c1.338-0.108,2.563-0.153,3.773-0.315c4.291-0.575,7.398-4.165,7.371-8.466c-0.027-4.381-3.281-8.076-7.65-8.384
		c-2.914-0.205-5.867-0.237-8.771,0.01c-1.539,0.132-3,1.064-4.521,1.559c-0.711,0.23-1.58,0.576-2.205,0.363
		c-7.947-2.715-16.154-3.934-24.498-4.208c-5.373-0.177-10.756-0.033-16.275-0.033c-0.023-0.465-0.086-1.099-0.088-1.731
		c-0.004-17.317-0.01-34.634,0-51.95c0.004-4.74,2.182-6.887,6.943-6.892c7.291-0.005,14.582-0.021,21.873,0.016
		c1.594,0.008,2.84-0.419,3.385-2.018c0.576-1.693-0.41-2.815-1.545-3.851c-9.113,0-18.229,0-27.344,0
		c-0.148,0.115-0.277,0.283-0.445,0.34c-5.967,2.001-8.859,5.965-8.861,12.234c-0.01,17.509-0.004,35.019-0.004,52.527
		c0,0.769,0,1.538,0,2.066c-4.535,1.226-8.93,2.144-13.117,3.639c-2.891,1.031-5.639,2.65-8.184,4.396
		c-2.59,1.773-3.84,4.457-3.748,7.734c0.102,3.642-0.025,7.29,0.049,10.934c0.025,1.195-0.277,1.827-1.457,2.316
		c-1.668,0.692-3.275,1.598-4.773,2.61c-3.215,2.172-5.025,5.045-4.828,9.171c0.221,4.676,0.145,9.373,0.018,14.056
		c-0.084,3.145,1.074,5.678,3.5,7.444c2.496,1.818,5.264,3.262,7.674,4.725c-0.053,3.716-0.148,7.518-0.146,11.319
		c0.002,3.75,0.105,7.5,0.166,11.437c-1.697,0.898-3.879,1.905-5.906,3.157c-3.561,2.201-5.547,5.242-5.307,9.692
		c0.238,4.414,0.219,8.858,0.004,13.273c-0.201,4.123,1.48,7.257,4.871,9.098c3.73,2.026,7.695,3.821,11.771,4.952
		c4.6,1.277,9.438,1.7,14.168,2.509c0.434,0.073,0.852,0.244,1.275,0.37c1.043,0,2.084,0,3.125,0
		c0.201-0.154,0.393-0.32,0.602-0.459c1.229-0.814,1.914-2.071,1.266-3.327c-0.482-0.93-1.645-1.917-2.645-2.099
		c-4.975-0.902-10.076-1.217-14.977-2.39c-3.793-0.909-7.406-2.667-11-4.268c-1.916-0.854-2.805-2.529-2.588-4.793
		c0.182-1.865,0.037-3.763,0.037-5.425c23.959,8.938,47.814,8.957,71.879-0.001c0,2.194,0.209,4.724-0.1,7.188
		c-0.129,1.023-1.191,2.153-2.125,2.814c-3.891,2.754-8.4,4.094-13.01,4.924c-4.658,0.838-9.379,1.35-14.086,1.893
		c-1.58,0.183-2.959,0.393-3.539,2.139c-0.586,1.763,0.504,2.778,1.613,3.803c1.693,0,3.387,0,5.078,0
		c0.684-0.139,1.361-0.33,2.051-0.408c7.186-0.813,14.299-1.98,20.93-5.027c5.004-2.3,9.531-5.1,9.123-11.85
		c0.998,0,1.826,0,2.656,0c26.561,0,53.121,0,79.682-0.002c0.781,0,1.566,0.018,2.342-0.043c6.244-0.486,11.207-4.957,11.281-10.624
		C189.957,160.462,189.877,148.873,189.855,137.284z M109.752,150.123c0.416,0.719,0.385,2.131-0.064,2.83
		c-1.092,1.698-2.926,1.144-4.67,1.072c0-1.753,0-3.353,0-5.065C106.785,148.809,108.678,148.268,109.752,150.123z M99.533,126.185
		c1.445-0.283,2.957-0.231,4.441-0.325c0.002,0.038,0.004,0.077,0.004,0.116c1.232,0,2.471-0.076,3.693,0.02
		c1.553,0.122,2.541,0.947,2.543,2.61c0.002,1.566-0.971,2.388-2.383,2.603c-3.533,0.539-6.762-0.105-9.426-2.695
		C97.625,127.752,98.121,126.46,99.533,126.185z M97.311,135.061c2.283,1.476,2.145,2.899-0.051,4.644
		c-3.338,2.651-7.355,3.814-11.395,4.82c-7.488,1.863-15.115,2.542-20.836,2.472c-11.455,0.005-20.826-0.789-29.807-4.045
		c-2.232-0.81-4.314-2.072-6.379-3.277c-0.672-0.391-1.301-1.185-1.527-1.924c-0.307-1.009-0.096-2.024,1.451-1.677
		c10.295,2.313,20.717,2.963,31.217,2.169c9.691-0.733,19.268-2.028,27.938-6.936c0.357-0.202,0.924-0.406,1.234-0.263
		C91.91,132.314,94.781,133.426,97.311,135.061z M107.6,74.586c1.605,0.034,2.574,0.896,2.605,2.524
		c0.029,1.623-0.885,2.485-2.5,2.637c-1.789,0.167-3.361,0.201-4.197-1.979c-0.43-1.121-1.582-1.966-2.625-3.192
		C103.322,74.575,105.461,74.541,107.6,74.586z M103.061,103.547c1.896-0.604,4.219-0.079,6.299,0.285
		c0.402,0.07,0.869,1.729,0.701,2.527c-0.148,0.703-1.109,1.704-1.768,1.749c-2.838,0.195-5.699,0.118-8.549,0.056
		c-0.438-0.01-0.865-0.463-1.318-0.723C100.031,106.021,101.326,104.099,103.061,103.547z M29.5,79.125
		c3.074-1.729,6.42-3.161,9.82-4.088c10.193-2.777,20.631-3.224,31.135-2.554c7.158,0.456,14.217,1.446,20.953,4.03
		c1.807,0.692,3.586,1.554,5.207,2.601c3.076,1.984,3.127,3.762-0.031,5.693c-2.354,1.439-4.949,2.602-7.578,3.451
		c-8.496,2.745-17.316,3.308-25.986,3.483c-9.697-0.222-19.145-0.909-28.168-4.262c-1.869-0.695-3.703-1.603-5.381-2.682
		C26.389,82.816,26.289,80.929,29.5,79.125z M27.088,91.063c24.033,8.939,47.834,8.939,71.813,0.04c0,2.205,0.275,4.76-0.121,7.206
		c-0.191,1.176-1.445,2.601-2.58,3.122c-3.516,1.613-7.102,3.313-10.844,4.149c-16.109,3.601-32.234,3.572-48.188-0.963
		c-2.883-0.82-5.557-2.44-8.248-3.841c-1.355-0.704-1.912-2.01-1.852-3.61C27.15,95.049,27.088,92.926,27.088,91.063z
		 M18.564,103.499c1.006-0.677,2.113-1.202,3.168-1.795c5.232,6.936,12.865,8.763,20.516,10.335c9.346,1.92,18.816,2.43,28.344,1.69
		c1.025-0.08,2.061-0.011,3.152,0.44c-4.33,0.58-8.645,1.396-12.994,1.692c-11.207,0.766-22.385,0.481-33.271-2.656
		c-3.084-0.889-6.107-2.231-8.904-3.816C15.199,107.48,15.309,105.694,18.564,103.499z M18.029,125.425
		c-1.484-0.756-2.131-2.132-2.023-3.907c0.123-2.054,0.027-4.12,0.027-5.948c24.008,9.014,47.826,8.933,71.877,0.037
		c0,2.211,0.256,4.752-0.115,7.196c-0.172,1.124-1.4,2.313-2.449,3.037c-3.926,2.703-8.469,3.929-13.076,4.791
		c-15.348,2.87-30.652,2.913-45.768-1.371C23.551,128.423,20.791,126.834,18.029,125.425z M87.436,169.149
		c-1.012,1.062-2.148,2.1-3.426,2.802c-5.439,2.986-11.443,4.189-17.504,4.956c-4.826,0.609-9.707,0.783-14.564,1.151
		c-9.418-0.231-18.721-1.024-27.635-4.243c-2.35-0.849-4.617-2.084-6.699-3.476c-2.08-1.392-2.158-3.006-0.086-4.327
		c2.594-1.656,5.5-2.834,8.311-4.134c0.348-0.161,0.998,0.095,1.406,0.331c6.311,3.655,13.283,5.127,20.379,6.108
		c10.23,1.416,20.48,1.407,30.715,0.008c2.568-0.352,5.105-0.925,7.668-1.331c0.496-0.079,1.41,0.02,1.486,0.251
		C87.682,167.831,87.775,168.792,87.436,169.149z M83.115,161.418c-15.242,3.023-30.5,2.931-45.545-1.326
		c-2.949-0.834-5.701-2.429-8.463-3.833c-1.488-0.757-2.137-2.141-2.043-3.906c0.105-2.01,0.023-4.027,0.023-6.435
		c11.51,5.809,23.629,7.04,35.881,7.044c12.26,0.005,24.389-1.207,35.889-6.981c0,2.801,0.291,5.468-0.133,8.017
		c-0.188,1.138-1.631,2.483-2.818,2.964C91.723,158.659,87.506,160.547,83.115,161.418z"/>
	<path fill-rule="evenodd" clip-rule="evenodd" fill="#FFFFFF" d="M95.762,5.851c26.939,0.003,53.877,0.001,80.814,0.002
		c5.379,0,7.443,2.053,7.443,7.402c0,36.567-0.002,73.137,0,109.704c0,2.457,1.018,3.837,2.844,3.903
		c1.842,0.068,3.01-1.35,3.01-3.725c0.004-37.154-0.002-74.309,0.004-111.462c0-3.849-1.523-6.99-4.566-9.247
		c-1.424-1.055-3.199-1.634-4.816-2.428c-28.906,0-57.813,0-86.719,0c-0.547,0.765-1.338,1.457-1.592,2.31
		C91.563,4.411,93.084,5.85,95.762,5.851z"/>
	<path fill-rule="evenodd" clip-rule="evenodd" fill="#FFFFFF" d="M173.049,25.465c-0.002-3.684-0.756-4.442-4.453-4.443
		c-16.861-0.003-33.721-0.002-50.582-0.001c-16.926,0-33.852-0.004-50.777,0.003c-3.295,0.001-4.162,0.867-4.166,4.173
		c-0.012,8.789-0.012,17.577,0,26.365c0.004,3.223,1.002,4.222,4.193,4.222c33.852,0.005,67.703,0.004,101.555,0.001
		c3.246,0,4.227-0.969,4.229-4.15C173.051,42.91,173.049,34.188,173.049,25.465z M167.061,49.617c-32.639,0-65.191,0-97.859,0
		c0-7.512,0-14.966,0-22.557c32.582,0,65.143,0,97.859,0C167.061,34.657,167.061,42.056,167.061,49.617z"/>
	<path fill-rule="evenodd" clip-rule="evenodd" fill="#FFFFFF" d="M127.455,85.602c1.545,0.188,3.115,0.157,4.676,0.228
		c1.559-0.07,3.129-0.041,4.672-0.23c4.502-0.553,7.635-4.262,7.475-8.731c-0.162-4.479-3.547-7.986-8.064-8.185
		c-2.727-0.12-5.467-0.117-8.193,0.003c-4.406,0.195-7.896,3.735-8.053,8C119.797,81.312,122.893,85.047,127.455,85.602z
		 M128.502,74.584c2.396-0.036,4.795-0.038,7.193,0.001c1.602,0.026,2.539,0.884,2.635,2.502c0.092,1.559-0.938,2.573-2.678,2.653
		c-1.164,0.054-2.334,0.01-3.5,0.01c0-0.002,0-0.004,0-0.006c-1.23,0-2.463,0.031-3.693-0.008c-1.65-0.054-2.574-1.074-2.561-2.593
		C125.91,75.626,126.859,74.609,128.502,74.584z"/>
	<path fill-rule="evenodd" clip-rule="evenodd" fill="#FFFFFF" d="M155.535,85.563c3.092,0.278,6.25,0.282,9.342,0.006
		c4.605-0.41,7.711-4.276,7.492-8.863c-0.213-4.452-3.643-7.834-8.205-8.046c-1.299-0.061-2.604-0.01-3.904-0.01
		c0,0.003,0,0.007,0,0.01c-1.365,0-2.734-0.062-4.096,0.012c-4.414,0.237-7.922,3.728-8.078,7.979
		C147.916,81.308,150.969,85.151,155.535,85.563z M156.631,74.58c1.23-0.029,2.463-0.006,3.695-0.006
		c1.166,0.001,2.334-0.032,3.5,0.009c1.605,0.057,2.576,0.913,2.609,2.524c0.033,1.608-0.883,2.572-2.498,2.617
		c-2.461,0.068-4.928,0.055-7.389,0.005c-1.646-0.033-2.568-1.079-2.541-2.605C154.035,75.602,154.988,74.62,156.631,74.58z"/>
	<path fill-rule="evenodd" clip-rule="evenodd" fill="#FFFFFF" d="M136.646,97.227c-1.482-0.137-2.988-0.021-4.482-0.021
		c0-0.004,0-0.007,0-0.011c-1.496,0-3-0.11-4.484,0.021c-4.402,0.39-7.676,3.968-7.717,8.319c-0.041,4.425,3.053,8.166,7.447,8.533
		c3.16,0.264,6.379,0.259,9.537-0.016c4.277-0.372,7.371-4.126,7.34-8.436C144.258,101.222,141.035,97.63,136.646,97.227z
		 M135.793,108.238c-1.229,0.055-2.463,0.012-3.693,0.012c-1.232-0.002-2.465,0.041-3.693-0.013
		c-1.65-0.073-2.535-1.117-2.508-2.639c0.027-1.427,0.918-2.453,2.463-2.491c2.525-0.063,5.057-0.086,7.58,0.009
		c1.504,0.057,2.383,1.012,2.383,2.532C138.322,107.263,137.41,108.167,135.793,108.238z"/>
	<path fill-rule="evenodd" clip-rule="evenodd" fill="#FFFFFF" d="M164.676,97.233c-2.91-0.203-5.857-0.203-8.77-0.014
		c-4.445,0.288-7.752,3.883-7.822,8.2c-0.074,4.539,3.027,8.173,7.516,8.695c1.545,0.179,3.113,0.159,4.727,0.232
		c1.508-0.074,3.076-0.06,4.621-0.245c4.396-0.528,7.502-4.15,7.438-8.566C172.32,101.137,169.104,97.541,164.676,97.233z
		 M163.947,108.234c-1.293,0.066-2.594,0.014-3.889,0.014c-1.168,0.001-2.336,0.033-3.502-0.007c-1.65-0.058-2.555-1.078-2.553-2.6
		c0.002-1.428,0.881-2.482,2.422-2.529c2.527-0.076,5.059-0.081,7.584-0.001c1.506,0.049,2.404,0.981,2.428,2.495
		C166.461,107.212,165.566,108.15,163.947,108.234z"/>
	<path fill-rule="evenodd" clip-rule="evenodd" fill="#FFFFFF" d="M164.109,120.006c-2.533-0.107-5.078-0.093-7.613-0.007
		c-4.912,0.166-8.516,4.023-8.412,8.902c0.098,4.616,3.844,8.161,8.668,8.199c1.172,0.01,2.344,0.002,3.514,0.002
		c1.172,0,2.344,0.009,3.516-0.002c4.811-0.042,8.475-3.565,8.6-8.263C172.51,124.067,168.949,120.21,164.109,120.006z
		 M163.719,131.231c-1.16,0.091-2.334,0.019-3.5,0.019c-1.168-0.001-2.338,0.06-3.5-0.017c-1.629-0.107-2.857-1.311-2.738-2.708
		c0.135-1.577,1.072-2.499,2.668-2.535c2.398-0.056,4.799-0.077,7.195,0.005c1.557,0.053,2.59,0.909,2.596,2.558
		C166.443,130.297,165.33,131.106,163.719,131.231z"/>
	<path fill-rule="evenodd" clip-rule="evenodd" fill="#FFFFFF" d="M135.41,142.977c-1.041-0.003-2.082,0-3.123,0
		c-1.172,0-2.344-0.004-3.516,0.001c-4.957,0.02-8.723,3.55-8.809,8.252c-0.086,4.843,3.541,8.666,8.488,8.848
		c2.404,0.088,4.816,0.076,7.223,0.008c4.998-0.145,8.688-3.917,8.613-8.726C144.213,146.518,140.48,142.994,135.41,142.977z
		 M135.697,154.076c-2.396,0.074-4.797,0.061-7.193-0.003c-1.602-0.042-2.516-0.995-2.631-2.567
		c-0.102-1.407,1.139-2.575,2.773-2.666c1.162-0.065,2.332-0.013,3.5-0.013c1.166,0.001,2.336-0.058,3.5,0.015
		c1.682,0.105,2.752,1.205,2.686,2.708C138.258,153.206,137.25,154.028,135.697,154.076z"/>
	<path fill-rule="evenodd" clip-rule="evenodd" fill="#FFFFFF" d="M163.619,142.978c-1.107-0.005-2.213-0.001-3.318-0.001
		c-1.172,0-2.344-0.005-3.516,0.001c-4.758,0.025-8.52,3.47-8.697,7.959c-0.193,4.903,3.264,8.842,8.18,9.118
		c2.66,0.15,5.344,0.159,8.002-0.006c4.877-0.305,8.309-4.201,8.104-8.981C172.17,146.388,168.506,143,163.619,142.978z
		 M163.871,154.067c-2.395,0.088-4.799,0.102-7.191,0.005c-1.707-0.069-2.867-1.268-2.697-2.691c0.195-1.65,1.24-2.507,2.9-2.55
		c1.168-0.03,2.334-0.006,3.502-0.006c1.102,0,2.209-0.06,3.305,0.014c1.623,0.108,2.734,0.908,2.748,2.646
		C166.451,153.128,165.436,154.012,163.871,154.067z"/>
	<path fill-rule="evenodd" clip-rule="evenodd" fill="#FFFFFF" d="M135.875,119.999c-2.537-0.084-5.08-0.101-7.615,0.007
		c-4.816,0.204-8.379,4.051-8.297,8.826c0.082,4.63,3.82,8.225,8.609,8.269c1.172,0.011,2.344,0.002,3.516,0.002
		c1.17,0,2.342,0.007,3.514-0.002c4.9-0.036,8.611-3.623,8.686-8.389C144.361,123.973,140.725,120.161,135.875,119.999z
		 M135.631,131.229c-1.16,0.095-2.334,0.018-3.5,0.018c-1.168,0.002-2.338,0.061-3.5-0.013c-1.643-0.104-2.867-1.28-2.758-2.687
		c0.121-1.574,1.043-2.516,2.645-2.555c2.396-0.059,4.797-0.079,7.193,0c1.549,0.052,2.596,0.878,2.613,2.538
		C138.342,130.282,137.242,131.098,135.631,131.229z"/>
	<path fill-rule="evenodd" clip-rule="evenodd" fill="#FFFFFF" d="M26.75,54.646c3.373,0.068,6.75,0.068,10.123-0.001
		c1.635-0.032,2.846-1.349,2.879-2.867c0.033-1.594-1.219-2.88-2.98-2.943c-1.619-0.059-3.244-0.013-4.867-0.013
		c-1.688,0-3.375-0.046-5.061,0.013c-1.756,0.061-2.986,1.341-2.951,2.949C23.924,53.327,25.098,54.612,26.75,54.646z"/>
	<path fill-rule="evenodd" clip-rule="evenodd" fill="#FFFFFF" d="M26.77,57.876c-1.74,0.042-2.941,1.444-2.875,3.054
		c0.064,1.525,1.24,2.703,2.93,2.778c1.619,0.072,3.244,0.016,4.865,0.018c1.688,0.002,3.377,0.059,5.061-0.014
		c1.795-0.077,3.021-1.337,3-2.932c-0.018-1.497-1.236-2.863-2.859-2.902C33.518,57.797,30.141,57.795,26.77,57.876z"/>
	<path fill-rule="evenodd" clip-rule="evenodd" fill="#FFFFFF" d="M36.82,44.549c1.672-0.026,3.002-1.394,2.924-3.009
		c-0.072-1.517-1.422-2.813-2.953-2.838c-1.605-0.025-3.027,1.367-3.02,2.958C33.779,43.297,35.131,44.576,36.82,44.549z"/>
</g>
</svg>
