<?xml version="1.0" encoding="utf-8"?>
<!-- Generator: Adobe Illustrator 16.0.0, SVG Export Plug-In . SVG Version: 6.00 Build 0)  -->
<!DOCTYPE svg PUBLIC "-//W3C//DTD SVG 1.0//EN" "http://www.w3.org/TR/2001/REC-SVG-20010904/DTD/svg10.dtd">
<svg version="1.0" id="Layer_1" xmlns="http://www.w3.org/2000/svg" xmlns:xlink="http://www.w3.org/1999/xlink" x="0px" y="0px"
	 width="200px" height="200px" viewBox="0 0 200 200" enable-background="new 0 0 200 200" xml:space="preserve">
<rect y="0.001" fill-rule="evenodd" clip-rule="evenodd" fill="none" width="200" height="199.999"/>
<g>
	<path fill-rule="evenodd" clip-rule="evenodd" fill="#FFFFFF" d="M191.74,191.56c0-1.039,0-1.879,0-2.718
		c0-38.864,0-77.729,0-116.593c-0.002-4.217-1.389-5.606-5.635-5.612c-7.355-0.01-14.711-0.008-22.068-0.001
		c-4.467,0.004-5.779,1.339-5.779,5.855c0,38.8,0,77.598,0,116.396c0,0.836,0,1.671,0,2.625c-5.549,0-10.92,0-16.518,0
		c0-0.847,0-1.609,0-2.372c0-22.329,0.002-44.658-0.002-66.986c0-4.079-1.428-5.51-5.531-5.517
		c-7.422-0.013-14.844-0.01-22.264-0.001c-4.346,0.005-5.686,1.368-5.686,5.755c0,22.264,0,44.527,0,66.792c0,0.754,0,1.509,0,2.315
		c-5.631,0-10.999,0-16.518,0c0-0.975,0-1.813,0-2.652c0-27.798,0.002-55.595-0.001-83.392c-0.001-4.004-1.427-5.445-5.359-5.446
		c-7.486-0.002-14.973-0.002-22.459-0.001c-4.357,0.001-5.662,1.318-5.662,5.729c-0.001,27.797-0.001,55.595-0.001,83.392
		c0,0.764,0,1.526,0,2.389c-5.586,0-10.958,0-16.518,0c0-0.884,0-1.652,0-2.42c0-13.932,0.002-27.863,0-41.793
		c-0.001-4.252-1.378-5.66-5.58-5.667c-7.421-0.011-14.842-0.01-22.264,0c-4.253,0.005-5.637,1.389-5.637,5.605
		c-0.003,13.996-0.002,27.993-0.002,41.989c0,0.747,0,1.495,0,2.356c-3.257,0.116-6.58-0.607-8.258,2.943c0,1.823,0,3.646,0,5.47
		c66.666,0,133.332,0,200,0c0-1.823,0-3.646,0-5.47C198.305,190.892,194.838,191.784,191.74,191.56z M33.113,191.393
		c-5.433,0-10.79,0-16.261,0c0-13.78,0-27.464,0-41.339c5.487,0,10.801,0,16.261,0C33.113,163.836,33.113,177.563,33.113,191.393z
		 M83.133,191.369c-5.41,0-10.774,0-16.266,0c0-27.608,0-55.176,0-82.873c5.396,0,10.768,0,16.266,0
		C83.133,136.123,83.133,163.683,83.133,191.369z M133.166,191.372c-5.447,0-10.807,0-16.297,0c0-22.056,0-44.072,0-66.234
		c5.379,0,10.791,0,16.297,0C133.166,147.221,133.166,169.233,133.166,191.372z M183.117,191.39c-5.441,0-10.803,0-16.271,0
		c0-38.786,0-77.467,0-116.333c5.5,0,10.816,0,16.271,0C183.117,113.845,183.117,152.568,183.117,191.39z"/>
	<path fill-rule="evenodd" clip-rule="evenodd" fill="#FFFFFF" d="M28.453,107.951c10.492-2.219,15.976-13.068,11.784-22.969
		c-0.479-1.133-0.326-1.693,0.628-2.405c2.241-1.671,4.387-3.472,6.574-5.215c5.846-4.658,11.693-9.313,17.502-13.939
		c9.3,5.504,17.198,4.112,23.922-4.043c0.341-0.412,1.335-0.61,1.903-0.458c4.702,1.255,9.376,2.613,14.056,3.948
		c1.221,0.349,2.434,0.727,3.596,1.074c-0.637,8.085,2.785,14.562,9.195,17.675c6.326,3.071,13.703,1.97,18.84-2.816
		c5.498-5.12,6.527-11.936,3.08-20.658c0.375-0.398,0.764-0.829,1.174-1.239c8.143-8.147,16.311-16.272,24.41-24.465
		c1.035-1.047,1.779-1.171,3.137-0.563c8.158,3.653,17.6,0.247,21.621-7.68c4.027-7.94,1.201-17.523-6.596-21.962
		c-1.717-0.978-3.689-1.502-5.547-2.235c-1.822,0-3.645,0-5.467,0c-0.289,0.128-0.566,0.305-0.867,0.379
		c-8.936,2.188-14.293,10.162-12.766,19.214c0.328,1.938,1.143,3.795,1.66,5.454c-9.035,9.037-18.002,18.005-27.039,27.041
		c-0.084-0.036-0.32-0.129-0.551-0.235c-7.277-3.381-14.121-2.234-19.83,3.44c-0.822,0.817-1.508,0.721-2.414,0.458
		c-5.17-1.501-10.309-3.144-15.541-4.388c-2.408-0.573-3.229-1.613-3.562-4.034c-1.271-9.242-9.887-15.245-19.327-13.729
		c-8.748,1.404-14.937,10.049-13.477,18.881c0.248,1.508,0.682,2.985,1.025,4.455c-8.268,6.593-16.469,13.109-24.629,19.675
		c-0.854,0.687-1.434,0.519-2.402,0.232c-2.644-0.78-5.386-1.755-8.08-1.731c-6.705,0.058-11.664,3.458-14.521,9.467
		c-2.94,6.188-2.164,12.222,2.128,17.552C16.275,107.351,21.947,109.329,28.453,107.951z M175.07,8.397
		c4.646,0.051,8.215,3.713,8.178,8.393c-0.037,4.487-3.744,8.188-8.225,8.207c-4.52,0.02-8.283-3.779-8.273-8.353
		C166.758,11.992,170.436,8.349,175.07,8.397z M125.008,58.398c4.629,0.007,8.26,3.677,8.24,8.331
		c-0.02,4.577-3.828,8.345-8.359,8.268c-4.563-0.078-8.186-3.853-8.139-8.481C116.795,61.981,120.449,58.392,125.008,58.398z
		 M75.053,41.75c4.553,0.016,8.172,3.618,8.196,8.157c0.024,4.66-3.583,8.328-8.203,8.342c-4.653,0.015-8.299-3.614-8.297-8.257
		C66.751,45.343,70.388,41.733,75.053,41.75z M25.089,83.398c4.64,0.061,8.204,3.736,8.159,8.414
		c-0.043,4.481-3.771,8.181-8.246,8.185c-4.618,0.004-8.324-3.844-8.25-8.565C16.822,86.919,20.539,83.339,25.089,83.398z"/>
</g>
</svg>
