<?xml version="1.0" encoding="utf-8"?>
<!-- Generator: Adobe Illustrator 16.0.0, SVG Export Plug-In . SVG Version: 6.00 Build 0)  -->
<!DOCTYPE svg PUBLIC "-//W3C//DTD SVG 1.0//EN" "http://www.w3.org/TR/2001/REC-SVG-20010904/DTD/svg10.dtd">
<svg version="1.0" id="Layer_1" xmlns="http://www.w3.org/2000/svg" xmlns:xlink="http://www.w3.org/1999/xlink" x="0px" y="0px"
	 width="200px" height="200px" viewBox="0 0 200 200" enable-background="new 0 0 200 200" xml:space="preserve">
<rect x="59.16" y="60.972" fill="none" width="80" height="80.001"/>
<g>
	<path fill-rule="evenodd" clip-rule="evenodd" fill="none" stroke="#FFFFFF" stroke-width="7.915" stroke-miterlimit="10" d="
		M192.699,145.478c-1.068-1.536-2.461-2.997-4.021-4.015c-9.307-6.096-18.559-12.303-28.13-17.955
		c-4.939-2.919-10.441-4.924-15.81-7.045c-3.212-1.273-6.388-0.426-9.126,1.653c-1.356,1.031-2.663,2.175-3.804,3.438
		c-2.738,3.035-5.463,6.089-7.999,9.289c-1.168,1.467-2.182,1.588-3.835,0.951c-23.899-9.189-40.856-25.547-50.635-49.198
		c-2.405-5.817-2.683-3.756,1.986-7.989c2.929-2.657,5.985-5.179,8.838-7.913c3.763-3.612,5.044-7.925,3.068-12.946
		c-0.889-2.262-1.701-4.563-2.744-6.756c-5.187-10.927-11.808-21.001-18.577-30.979c-1.404-2.072-2.743-4.224-4.408-6.073
		c-3.924-4.372-10.046-7.488-16.547-2.149c-3.713,3.046-7.423,6.15-10.751,9.598c-8.903,9.219-16.895,19.185-23.25,30.377
		c-1.229,2.162-2.077,4.403-1.676,6.957c0.32,2.014,0.557,4.047,0.949,6.047c2.55,13.042,7.509,25.188,13.934,36.749
		c12.529,22.55,28.943,41.92,48.498,58.668c16.223,13.899,33.879,25.495,54.021,32.974c7.736,2.871,15.671,4.972,24.816,5.812
		c1.073-0.408,3.005-0.879,4.68-1.814c11.239-6.273,21.214-14.261,30.409-23.194c3.715-3.608,7.01-7.68,10.271-11.722
		C196.235,154.055,195.596,149.629,192.699,145.478z"/>
	<path fill-rule="evenodd" clip-rule="evenodd" fill="none" stroke="#FFFFFF" stroke-width="7.915" stroke-miterlimit="10" d="
		M107.078,23.963c3.806,0.217,7.645,0.434,11.383,1.124c22.354,4.138,38.885,16.412,49.719,36.305
		c5.454,10.015,7.814,20.888,7.996,32.261c0.05,3.137,2.379,5.797,5.316,6.201c3.236,0.449,6.323-1.488,7.101-4.626
		c0.297-1.193,0.207-2.479,0.294-3.726c0.105-0.021,0.209-0.044,0.315-0.062c-0.795-5.329-1.29-10.724-2.436-15.975
		c-8.08-37.014-41.626-64.058-79.437-64.194c-4.261-0.015-7.09,2.44-7.14,6.191C100.141,21.271,102.878,23.724,107.078,23.963z"/>
	<path fill-rule="evenodd" clip-rule="evenodd" fill="none" stroke="#FFFFFF" stroke-width="7.915" stroke-miterlimit="10" d="
		M107.049,55.632c3.2,0.226,6.462,0.548,9.533,1.411c16.601,4.661,27.471,18.907,27.925,36.298c0.101,3.873,2.738,6.576,6.396,6.549
		c3.627-0.024,6.401-2.828,6.205-6.685c-0.18-3.603-0.457-7.246-1.205-10.763c-4.72-22.196-25.35-39.261-47.567-39.516
		c-0.397,0-0.791,0-1.185,0c-4.087-0.002-6.905,2.494-6.96,6.171C100.137,52.914,102.864,55.338,107.049,55.632z"/>
</g>
<rect x="0.16" y="-0.027" fill-rule="evenodd" clip-rule="evenodd" fill="none" width="200" height="199.999"/>
</svg>
