<?xml version="1.0" encoding="utf-8"?>
<!-- Generator: Adobe Illustrator 16.0.0, SVG Export Plug-In . SVG Version: 6.00 Build 0)  -->
<!DOCTYPE svg PUBLIC "-//W3C//DTD SVG 1.0//EN" "http://www.w3.org/TR/2001/REC-SVG-20010904/DTD/svg10.dtd">
<svg version="1.0" id="Layer_1" xmlns="http://www.w3.org/2000/svg" xmlns:xlink="http://www.w3.org/1999/xlink" x="0px" y="0px"
	 width="200px" height="200px" viewBox="0 0 200 200" enable-background="new 0 0 200 200" xml:space="preserve">
<rect y="0.001" fill-rule="evenodd" clip-rule="evenodd" fill="none" width="200" height="199.999"/>
<g>
	<path fill-rule="evenodd" clip-rule="evenodd" fill="#FFFFFF" d="M81.075,133.121c12.377-1.526,24.754-3.05,37.134-4.559
		c10.123-1.233,20.25-2.435,30.373-3.668c10.121-1.234,20.24-2.491,30.36-3.74c3.288-0.406,6.575-0.813,9.861-1.233
		c5.699-0.729,9.345-3.854,10.928-9.384c0.048-0.168,0.222-0.299,0.337-0.448c0-23.437,0-46.875,0-70.313
		c-0.959-1.539-2.349-1.979-4.132-1.954c-5.837,0.082-11.676,0.03-17.761,0.03c0-0.831,0-1.521,0-2.212
		c0-10.399-0.033-20.8,0.031-31.198c0.011-1.786-0.399-3.18-1.967-4.119c-25.781,0-51.563,0-77.344,0
		c-1.4,1.059-1.898,2.449-1.868,4.208c0.078,4.744,0.026,9.49,0.026,14.554c-0.772,0-1.452,0-2.133,0
		c-9.43,0-18.86-0.003-28.29,0.002c-2.986,0.002-3.999,0.994-4.006,3.94c-0.013,4.864-0.003,9.727-0.003,14.706
		c-5.209,0-10.251,0-15.499,0c-1.226-4.769-2.46-9.585-3.701-14.398c-0.761-2.95-1.446-5.924-2.318-8.842
		C39.097,7.778,33.283,3.486,26.27,3.46c-5.398-0.02-10.796-0.007-16.194-0.003C5.064,3.46,2.261,5.383,0.422,10.054
		c-0.064,0.163-0.233,0.285-0.354,0.426c0,1.433,0,2.865,0,4.297c0.118,0.145,0.283,0.271,0.347,0.437
		c1.783,4.606,4.601,6.589,9.455,6.607c3.775,0.014,7.562,0.187,11.32-0.065c2.333-0.155,3.025,0.71,3.562,2.825
		c10.599,41.754,21.265,83.492,31.956,125.223c3.033,11.84,12.559,19.233,24.75,19.241c36.25,0.025,72.5,0.011,108.75-0.002
		c0.901-0.001,1.818-0.092,2.702-0.27c3.765-0.759,5.712-3.486,7.159-6.73c0-1.433,0-2.864,0-4.297
		c-0.163-0.337-0.349-0.666-0.485-1.014c-1.487-3.793-4.596-6.033-8.687-6.072c-5.855-0.057-11.711-0.019-17.567-0.019
		c-30.126-0.001-60.25,0-90.376-0.001c-5.646,0-7.345-1.329-8.733-6.799c-0.75-2.955-1.517-5.905-2.271-8.859
		c-0.031-0.121-0.004-0.259-0.004-0.693C74.96,133.901,78.016,133.498,81.075,133.121z M68.703,25.048c15.701,0,31.284,0,47.012,0
		c0,4.248,0,8.426,0,12.704c-15.677,0-31.268,0-47.012,0C68.703,33.42,68.703,29.283,68.703,25.048z M47.138,61.812
		c1.626,6.482,3.284,12.958,4.941,19.434c5.565,21.755,11.127,43.509,16.708,65.259c1.683,6.559,6.204,10.036,13.026,10.037
		c35.609,0.007,71.218,0.003,106.827,0.004c0.521,0,1.042-0.005,1.563,0c2.431,0.023,4.018,1.338,3.991,3.304
		c-0.024,1.891-1.552,3.208-3.856,3.318c-0.324,0.016-0.651,0.005-0.977,0.005c-35.739,0-71.478,0.009-107.217-0.006
		c-10.248-0.004-17.292-5.451-19.865-15.329c-1.635-6.28-3.202-12.579-4.809-18.868c-9.35-36.597-18.702-73.194-28.058-109.79
		c-0.696-2.725-1.356-3.214-4.225-3.217c-5.013-0.004-10.025,0.005-15.038-0.004c-2.57-0.004-4.214-1.313-4.21-3.316
		c0.004-2.001,1.652-3.328,4.219-3.336c5.208-0.016,10.416-0.03,15.624,0.003c5.117,0.032,8.607,2.757,9.892,7.722
		c2.715,10.492,5.398,20.993,8.106,31.486c0.16,0.621,0.323,1.286,0.671,1.806c0.836,1.251,2.25,1.695,3.409,0.979
		c0.875-0.54,1.683-1.841,1.761-2.861c0.109-1.419-0.493-2.891-0.86-4.683c0.988,0,1.795,0,2.603,0c34.307,0,68.613,0,102.921-0.002
		c0.78,0,1.564,0.018,2.342-0.041c1.692-0.129,2.583-1.153,2.751-2.761c0.156-1.507-1.063-2.859-2.673-3.067
		c-0.577-0.075-1.17-0.033-1.756-0.033c-10.221-0.001-20.44-0.001-30.661-0.001c-0.708,0-1.416,0-2.418,0c0-2.104,0-4.09,0-6.077
		c-0.001-2.93,0.014-5.859-0.006-8.788c-0.019-2.851-1.055-3.892-3.872-3.898c-4.872-0.011-9.745-0.003-14.763-0.003
		c0-4.316,0-8.5,0-12.797c22.973,0,45.914,0,69.016,0c0,10.564,0,20.904,0,31.563c-0.927,0-1.803-0.012-2.679,0.003
		c-2.276,0.04-3.527,1.123-3.503,3.015c0.022,1.851,1.157,2.866,3.408,2.874c7.485,0.027,14.973,0.012,22.458,0.014
		c0.697,0,1.395,0,2.287,0c0,0.922,0,1.62,0,2.319c0,19.985,0.001,39.971-0.001,59.955c0,5.294-1.699,7.41-6.886,8.076
		c-11.474,1.475-22.963,2.822-34.444,4.238c-11.159,1.376-22.314,2.787-33.475,4.154c-11.16,1.366-22.327,2.692-33.489,4.046
		c-5.151,0.625-10.301,1.272-15.619,1.931c-1.146-4.418-2.281-8.732-3.382-13.056c-4.6-18.051-9.19-36.104-13.786-54.155
		c-0.096-0.377-0.206-0.753-0.338-1.119c-0.625-1.721-2.032-2.494-3.663-2.027C47.575,58.567,46.706,60.086,47.138,61.812z"/>
	<path fill-rule="evenodd" clip-rule="evenodd" fill="#FFFFFF" d="M62.323,175.704c-6.169,0.039-11.125,4.454-12.117,10.794
		c-0.865,5.528,2.805,11.302,8.4,13.223c0.544,0.187,1.079,0.401,1.618,0.604c1.563,0,3.125,0,4.688,0
		c0.524-0.221,1.04-0.467,1.574-0.656c5.895-2.096,9.243-7.883,8.135-14.077C73.601,179.881,68.356,175.665,62.323,175.704z
		 M62.442,194.463c-3.494-0.035-6.451-3.078-6.379-6.563c0.071-3.469,2.93-6.308,6.382-6.336c3.557-0.028,6.426,2.846,6.426,6.437
		C68.87,191.582,65.97,194.498,62.442,194.463z"/>
	<path fill-rule="evenodd" clip-rule="evenodd" fill="#FFFFFF" d="M188.181,175.708c-5.349-0.089-9.907,2.826-11.861,7.585
		c-1.961,4.779-0.859,10.305,3.104,13.697c1.665,1.426,3.853,2.241,5.802,3.334c1.692,0,3.386,0,5.078,0
		c2.122-1.271,4.557-2.223,6.271-3.906c1.57-1.541,2.36-3.876,3.494-5.86c0-1.692,0-3.385,0-5.078
		c-0.252-0.575-0.528-1.142-0.748-1.729C197.525,178.967,193.134,175.79,188.181,175.708z M187.782,194.464
		c-3.459,0.028-6.452-2.943-6.474-6.428c-0.022-3.515,2.88-6.451,6.396-6.473c3.49-0.021,6.473,2.912,6.502,6.396
		C194.236,191.398,191.236,194.436,187.782,194.464z"/>
	<path fill-rule="evenodd" clip-rule="evenodd" fill="#FFFFFF" d="M78.272,109.771c0,0.649-0.041,1.318,0.1,1.941
		c0.357,1.594,1.418,2.535,3.047,2.46c1.521-0.07,2.513-0.982,2.75-2.553c0.078-0.512,0.102-1.036,0.102-1.555
		c0.005-16.392,0.006-32.783-0.005-49.176c-0.001-0.709,0.114-1.607-0.255-2.085c-0.658-0.853-1.604-1.944-2.504-2.018
		c-0.904-0.075-2.083,0.805-2.792,1.584c-0.469,0.516-0.428,1.593-0.431,2.42c-0.028,8.195-0.017,16.392-0.017,24.588
		C78.268,93.51,78.266,101.641,78.272,109.771z"/>
	<path fill-rule="evenodd" clip-rule="evenodd" fill="#FFFFFF" d="M97.112,109.075c0.246,1.685,1.486,2.86,2.998,2.766
		c1.639-0.102,2.605-1.05,2.897-2.659c0.069-0.38,0.071-0.777,0.071-1.166c0.003-15.87,0.004-31.741-0.006-47.611
		c0-0.513-0.066-1.042-0.201-1.535c-0.391-1.433-1.409-2.222-2.848-2.198c-1.437,0.023-2.453,0.837-2.782,2.283
		c-0.156,0.687-0.178,1.414-0.18,2.123c-0.012,7.676-0.007,15.351-0.007,23.025c0,7.74,0,15.48,0.002,23.221
		C97.057,107.908,97.029,108.501,97.112,109.075z"/>
	<path fill-rule="evenodd" clip-rule="evenodd" fill="#FFFFFF" d="M115.966,106.939c0.145,1.648,1.237,2.62,2.854,2.651
		c1.637,0.032,2.63-0.992,2.967-2.571c0.12-0.563,0.079-1.165,0.079-1.748c0.004-14.765,0.006-29.529-0.005-44.294
		c-0.001-0.707-0.019-1.44-0.2-2.116c-0.38-1.423-1.414-2.231-2.856-2.189c-1.524,0.045-2.546,0.928-2.817,2.479
		c-0.121,0.698-0.12,1.424-0.121,2.137c-0.008,7.284-0.005,14.569-0.005,21.854c0,6.244-0.005,12.488,0.004,18.731
		C115.867,103.562,115.818,105.26,115.966,106.939z"/>
	<path fill-rule="evenodd" clip-rule="evenodd" fill="#FFFFFF" d="M134.787,104.749c0.188,1.51,1.196,2.332,2.594,2.485
		c1.436,0.157,2.531-0.582,2.998-1.977c0.219-0.657,0.252-1.399,0.254-2.103c0.018-7.023,0.012-14.046,0.012-21.07
		c0-6.957,0-13.916-0.002-20.874c0-3.054-1.009-4.58-3.012-4.571c-1.986,0.009-2.939,1.496-2.939,4.609
		c-0.002,13.786-0.002,27.573,0.003,41.359C134.694,103.322,134.698,104.042,134.787,104.749z"/>
	<path fill-rule="evenodd" clip-rule="evenodd" fill="#FFFFFF" d="M153.563,101.176c0.019,1.09,0.583,2.431,1.36,3.156
		c0.547,0.511,2.244,0.592,2.785,0.123c0.852-0.737,1.624-2.096,1.633-3.197c0.106-13.654,0.07-27.309,0.066-40.964
		c0-0.452,0.004-0.922-0.107-1.354c-0.422-1.635-2.076-2.643-3.586-2.181c-1.697,0.518-2.229,1.773-2.221,3.452
		c0.027,6.827,0.011,13.655,0.011,20.482C153.504,87.521,153.445,94.351,153.563,101.176z"/>
	<path fill-rule="evenodd" clip-rule="evenodd" fill="#FFFFFF" d="M174.297,102.583c2.067,0.71,3.861-0.809,3.87-3.278
		c0.024-6.563,0.008-13.128,0.008-19.692c0-6.239,0.002-12.479,0-18.718c-0.001-2.781-0.972-4.206-2.889-4.258
		c-1.929-0.051-2.978,1.396-2.984,4.136c-0.006,2.47-0.001,4.94-0.001,7.41c0,10.269,0.017,20.537-0.017,30.806
		C172.279,100.627,172.612,102.004,174.297,102.583z"/>
</g>
</svg>
