<?xml version="1.0" encoding="utf-8"?>
<!-- Generator: Adobe Illustrator 16.0.0, SVG Export Plug-In . SVG Version: 6.00 Build 0)  -->
<!DOCTYPE svg PUBLIC "-//W3C//DTD SVG 1.0//EN" "http://www.w3.org/TR/2001/REC-SVG-20010904/DTD/svg10.dtd">
<svg version="1.0" id="Layer_1" xmlns="http://www.w3.org/2000/svg" xmlns:xlink="http://www.w3.org/1999/xlink" x="0px" y="0px"
	 width="200px" height="200px" viewBox="0 0 200 200" enable-background="new 0 0 200 200" xml:space="preserve">
<rect x="60" y="60" fill="none" width="80" height="80"/>
<g>
	<path fill-rule="evenodd" clip-rule="evenodd" fill="#FFFFFF" d="M-0.001,129.267c0.385-2.821,0.722-5.653,1.161-8.466
		c3.398-21.839,12.993-40.554,28.694-56.063c14.291-14.118,31.343-23.283,51.124-26.918c29.677-5.457,56.714,0.963,80.545,19.5
		c19.643,15.279,31.709,35.438,36.616,59.854c1.573,7.818,2.232,19.979,1.654,31.055c-13.797,0-27.602,0-41.521,0
		c0-2.65,0-5.281,0-8.157c11.038,0,21.992,0,33.16,0c0.699-22.987-5.887-43.274-20.041-61.372
		c-5.7,5.731-11.233,11.292-16.684,16.771c-2.054-2.068-3.958-3.986-5.902-5.948c5.577-5.55,11.241-11.187,17.136-17.055
		c-17.093-17.22-37.468-26.542-61.694-28.069c0,6.972,0,13.708,0,20.616c-2.868,0-5.556,0-8.502,0c0-6.761,0-13.546,0-20.612
		C71.479,45.896,51.133,55.21,34.119,72.255c5.849,5.765,11.572,11.407,17.185,16.943c-2.227,2.215-4.142,4.115-6.166,6.132
		c-5.354-5.375-10.894-10.938-16.425-16.491c-11.906,11.007-22.104,41.843-20.19,61.136c10.965,0,21.97,0,33.078,0
		c0,2.943,0,5.572,0,8.418c-13.927,0-27.765,0-41.602,0C-0.001,142.016-0.001,135.642-0.001,129.267z"/>
	<path fill-rule="evenodd" clip-rule="evenodd" fill="#FFFFFF" d="M147.775,96.344c-0.342,0.876-0.494,1.357-0.708,1.808
		c-8.523,17.854-17.047,35.715-25.583,53.564c-3.749,7.84-9.924,12.262-18.588,13.252c-12.59,1.438-24.504-9.898-23.747-22.575
		c0.521-8.735,4.574-15.319,12.37-19.128C110.059,114.219,128.727,105.442,147.775,96.344z M129.885,114.574
		c-0.105-0.092-0.214-0.179-0.316-0.271c-4.444,2.118-8.89,4.226-13.325,6.355c-7.251,3.478-14.616,6.741-21.707,10.515
		c-8.67,4.617-9.467,16.51-1.763,22.586c6.922,5.461,16.788,3.068,20.844-5.176c3.893-7.916,7.62-15.91,11.421-23.867
		C126.651,121.335,128.269,117.955,129.885,114.574z"/>
</g>
</svg>
