<?xml version="1.0" encoding="utf-8"?>
<!-- Generator: Adobe Illustrator 16.0.0, SVG Export Plug-In . SVG Version: 6.00 Build 0)  -->
<!DOCTYPE svg PUBLIC "-//W3C//DTD SVG 1.0//EN" "http://www.w3.org/TR/2001/REC-SVG-20010904/DTD/svg10.dtd">
<svg version="1.0" id="Layer_1" xmlns="http://www.w3.org/2000/svg" xmlns:xlink="http://www.w3.org/1999/xlink" x="0px" y="0px"
	 width="200px" height="200px" viewBox="0 0 200 200" enable-background="new 0 0 200 200" xml:space="preserve">
<rect y="-0.014" fill-rule="evenodd" clip-rule="evenodd" fill="none" width="200" height="199.999"/>
<path fill-rule="evenodd" clip-rule="evenodd" fill="#FFFFFF" d="M99.979,194.459c-4.788,4.115-10.17,5.563-16.231,5.526
	c-20.528-0.126-41.057-0.041-61.585-0.051c-12.96-0.006-22.138-9.209-22.144-22.203c-0.008-20.9-0.009-41.8,0-62.7
	c0.005-12.992,9.184-22.186,22.148-22.199c7.206-0.007,14.413-0.001,21.786-0.001c-1.886-6.95-0.998-13.877-1.048-20.744
	c-0.123-16.66-0.048-33.321-0.037-49.982C42.877,9.252,52.082,0.001,64.88-0.005c23.429-0.012,46.858-0.013,70.288,0
	c12.682,0.007,21.932,9.262,21.941,21.951c0.014,21.049,0.031,42.099-0.031,63.147c-0.008,2.496-0.504,4.992-0.801,7.737
	c0.549,0,1.256,0,1.963,0c6.918,0.001,13.834-0.041,20.75,0.013c11.389,0.088,20.918,9.538,20.949,20.909
	c0.061,21.793,0.066,43.586-0.004,65.379c-0.035,11.225-9.594,20.749-20.844,20.782c-21.719,0.064-43.438,0.029-65.154,0.015
	C108.66,199.925,104.118,197.915,99.979,194.459z M78.574,14.258c-4.575,0-8.94-0.012-13.306,0.003
	c-5.264,0.019-8.129,2.876-8.131,8.152c-0.011,20.744-0.01,41.487,0,62.231c0.002,5.25,2.901,8.179,8.114,8.182
	c23.123,0.012,46.245,0.01,69.368,0.001c5.387-0.002,8.219-2.866,8.225-8.296c0.012-9.665,0.004-19.331,0.004-28.997
	c0-11.152,0.014-22.305-0.01-33.458c-0.008-4.031-2.137-7.24-5.824-7.537c-5.133-0.413-10.322-0.104-15.609-0.104
	c0,7.193,0.027,14.248-0.008,21.303c-0.037,7.922-6.236,14.162-14.111,14.219c-4.832,0.035-9.665,0.028-14.498,0.002
	c-6.649-0.037-12.223-4.392-13.773-10.832c-0.324-1.353-0.413-2.788-0.421-4.186C78.552,28.123,78.574,21.302,78.574,14.258z
	 M28.583,107.098c-2.22,0-4.077-0.004-5.934,0.001c-5.571,0.016-8.362,2.795-8.363,8.369c-0.006,20.595-0.005,41.188,0,61.783
	c0.001,5.56,2.823,8.415,8.329,8.417c20.668,0.007,41.337,0.009,62.006-0.001c5.393-0.002,8.227-2.86,8.233-8.286
	c0.012-9.07,0.003-18.141,0.003-27.211c0-11.747,0.015-23.494-0.009-35.241c-0.007-4.038-2.125-7.045-5.814-7.572
	c-2.73-0.39-5.563-0.076-8.477-0.076c0,4.651,0.011,9.178-0.002,13.704c-0.023,8.6-6.127,14.662-14.779,14.677
	c-6.766,0.012-13.531,0.01-20.297,0.001c-8.899-0.012-14.884-6.045-14.895-15.008C28.579,116.213,28.583,111.771,28.583,107.098z
	 M121.424,107.098c-2.264,0-4.191-0.008-6.119,0.002c-5.283,0.024-8.174,2.864-8.178,8.106c-0.01,20.817-0.012,41.635,0.002,62.452
	c0.004,5.081,2.949,8.004,8.063,8.007c20.818,0.013,41.635,0.014,62.453,0c5.121-0.003,8.027-2.911,8.045-8.022
	c0.023-6.691,0.006-13.383,0.006-20.074c0-14.2,0.012-28.4-0.008-42.601c-0.006-4.127-2.223-7.175-5.99-7.672
	c-2.672-0.353-5.428-0.068-8.303-0.068c0,4.821,0.023,9.492-0.004,14.164c-0.047,8.031-6.25,14.232-14.291,14.266
	c-7.063,0.029-14.127,0.022-21.189,0.002c-8.32-0.024-14.457-6.185-14.484-14.52C121.41,116.545,121.424,111.951,121.424,107.098z
	 M106.971,35.608c0-7.224,0-14.238,0-21.239c-4.751,0-9.332,0-14.001,0c0,7.123,0,14.136,0,21.239
	C97.68,35.608,102.261,35.608,106.971,35.608z M42.938,121.289c7.209,0,14.169,0,21.224,0c0-4.741,0-9.375,0-14.044
	c-7.142,0-14.156,0-21.224,0C42.938,111.974,42.938,116.555,42.938,121.289z M156.988,121.355c0-4.834,0-9.468,0-14.098
	c-7.154,0-14.168,0-21.119,0c0,4.797,0,9.432,0,14.098C142.957,121.355,149.865,121.355,156.988,121.355z"/>
</svg>
