<?xml version="1.0" encoding="utf-8"?>
<!-- Generator: Adobe Illustrator 16.0.0, SVG Export Plug-In . SVG Version: 6.00 Build 0)  -->
<!DOCTYPE svg PUBLIC "-//W3C//DTD SVG 1.0//EN" "http://www.w3.org/TR/2001/REC-SVG-20010904/DTD/svg10.dtd">
<svg version="1.0" id="Layer_1" xmlns="http://www.w3.org/2000/svg" xmlns:xlink="http://www.w3.org/1999/xlink" x="0px" y="0px"
	 width="200px" height="200px" viewBox="0 0 200 200" enable-background="new 0 0 200 200" xml:space="preserve">
<rect y="0.001" fill-rule="evenodd" clip-rule="evenodd" fill="none" width="200" height="199.999"/>
<g>
	<path fill-rule="evenodd" clip-rule="evenodd" fill="#FFFFFF" d="M199.981,63.14c-0.006-6.28-3.056-10.691-8.643-13.48
		c-0.671-0.336-1.355-1.174-1.525-1.898c-1.621-6.888-2.989-13.836-4.713-20.696c-1.773-7.055-8.881-11.375-15.932-9.854
		c-13.327,2.872-26.638,5.815-39.952,8.746c-28.151,6.197-56.305,12.386-84.45,18.618c-10.018,2.218-19.966,4.891-30.39,3.949
		c-0.193-0.018-0.39,0.016-0.585,0.024c-6.015,0.27-11.074,4.07-13.043,9.789C0.521,58.997,0.251,59.642,0,60.293
		c0,22.267,0,44.533,0,66.798c0.794,0.725,1.475,1.691,2.404,2.128c2.731,1.282,5.395-0.752,5.396-4.032
		c0.01-20.244,0.004-40.489,0.006-60.733c0-5.654,2.43-8.096,8.055-8.096c56.111-0.001,112.223-0.001,168.334,0
		c5.506,0,8,2.479,8,7.957c0.003,30.074,0.002,60.148,0.002,90.221c0,0.697,0,1.395,0,2.283c-1.026,0-1.854,0-2.683,0
		c-61.384,0-122.768,0.009-184.152-0.034c-2.374-0.002-4.173,0.639-5.362,2.728c0,3.906,0,7.813,0,11.719
		c0.713,1.653,1.223,3.436,2.176,4.936c3.128,4.925,7.741,6.933,13.548,6.928c56.182-0.052,112.364-0.031,168.546-0.032
		c0.586,0,1.173-0.002,1.757-0.032c8.058-0.409,13.961-6.566,13.964-14.623C200,133.319,200.01,98.229,199.981,63.14z M65.27,48.39
		c-0.024-0.067-0.049-0.135-0.073-0.201c2.748-0.636,5.491-1.295,8.245-1.902c28.944-6.378,57.89-12.749,86.836-19.118
		c3.422-0.753,6.847-1.491,10.274-2.216c2.727-0.576,5.865,0.665,6.562,3.254c1.779,6.613,3.169,13.331,4.756,20.184
		C142.777,48.39,104.023,48.39,65.27,48.39z M191.783,170.516c-0.646,2.738-3.191,4.545-6.049,4.65
		c-0.716,0.027-1.433,0.013-2.148,0.013c-55.658,0.001-111.318-0.069-166.977,0.087c-7.2,0.021-9.646-4.2-8.61-10.439
		c61.328,0,122.676,0,184.339,0C192.161,166.822,192.206,168.725,191.783,170.516z"/>
	<path fill-rule="evenodd" clip-rule="evenodd" fill="#FFFFFF" d="M5.831,147.539c1.625-0.942,2.401-2.975,1.79-4.685
		c-0.639-1.784-2.609-3.043-4.501-2.429c-1.165,0.379-2.088,1.502-3.119,2.291c0,0.911,0,1.823,0,2.734
		c0.266,0.353,0.52,0.715,0.799,1.056C2.128,148.133,4.11,148.536,5.831,147.539z"/>
	<path fill-rule="evenodd" clip-rule="evenodd" fill="#FFFFFF" d="M177.972,73.184c-0.014-3.683-1.412-5.055-5.082-5.057
		c-11.254-0.003-22.507-0.001-33.76-0.001c-11.448,0-22.896-0.006-34.345,0.004c-3.282,0.002-4.742,1.476-4.749,4.777
		c-0.013,5.984-0.011,11.969-0.001,17.953c0.006,3.394,1.48,4.9,4.865,4.902c22.701,0.01,45.402,0.009,68.104,0
		c3.479-0.001,4.95-1.48,4.966-5.016C177.996,84.892,177.993,79.039,177.972,73.184z M169.883,87.679c-20.596,0-41.118,0-61.884,0
		c0-3.906,0-7.653,0-11.56c20.618,0,41.188,0,61.884,0C169.883,79.955,169.883,83.751,169.883,87.679z"/>
	<path fill-rule="evenodd" clip-rule="evenodd" fill="#FFFFFF" d="M22.257,103.355c-1.748,3.174,0.012,6.111,3.643,6.144
		c3.253,0.03,6.509,0.055,9.761-0.019c1.127-0.025,1.754,0.345,2.297,1.334c1.592,2.905,3.256,5.773,4.968,8.609
		c1.812,3,5.212,2.982,7.07-0.01c0.924-1.49,1.946-2.956,2.613-4.563c1.76-4.239,4.325-6.859,8.529-5.345
		c2.424,0,4.051,0.011,5.678-0.002c3.877-0.03,5.625-2.968,3.738-6.343c-1.554-2.779-3.134-5.547-4.798-8.262
		c-0.633-1.032-0.599-1.824,0.019-2.84c1.688-2.775,3.32-5.589,4.879-8.439c1.734-3.173-0.045-6.1-3.675-6.126
		c-3.254-0.023-6.509-0.058-9.761,0.022c-1.143,0.028-1.739-0.387-2.272-1.356c-1.564-2.847-3.199-5.657-4.868-8.444
		c-1.93-3.221-5.355-3.204-7.275,0.029c-1.692,2.849-3.268,5.77-5.022,8.578c-0.357,0.57-1.272,1.09-1.948,1.114
		c-3.25,0.114-6.506,0.04-9.76,0.055c-3.888,0.017-5.624,2.942-3.726,6.335c1.586,2.834,3.314,5.593,4.827,8.465
		c0.338,0.644,0.329,1.773-0.012,2.419C25.619,97.641,23.855,100.453,22.257,103.355z M35.566,90.957
		c-1.074-1.757-2.055-3.572-3.252-5.67c2.333,0,4.38-0.086,6.417,0.023c2.156,0.115,3.574-0.804,4.571-2.644
		c0.947-1.747,1.982-3.447,3.148-5.462c1.024,1.755,2.006,3.194,2.741,4.751c1.168,2.471,2.917,3.646,5.718,3.363
		c1.735-0.175,3.502-0.032,5.681-0.032c-1.221,2.136-2.254,3.989-3.334,5.815c-0.951,1.608-0.949,3.171,0.002,4.779
		c1.082,1.828,2.115,3.684,3.341,5.827c-2.346,0-4.397,0.088-6.437-0.024c-2.157-0.119-3.568,0.787-4.559,2.642
		c-0.936,1.756-1.985,3.451-3.142,5.442c-1.132-1.93-2.18-3.543-3.052-5.247c-1.033-2.021-2.522-2.986-4.837-2.839
		c-1.978,0.126-3.969,0.026-6.258,0.026c1.181-2.068,2.16-3.878,3.23-5.632C36.596,94.348,36.629,92.696,35.566,90.957z"/>
	<path fill-rule="evenodd" clip-rule="evenodd" fill="#FFFFFF" d="M102.774,135.333c-2.195,0.192-3.706,1.882-3.646,4.042
		c0.058,2.081,1.549,3.598,3.713,3.744c0.647,0.044,1.3,0.029,1.949,0.029c11.121,0.002,22.241,0.002,33.361,0.002
		c9.04,0,18.079,0.001,27.118-0.002c2.731,0,5.465,0.044,8.193-0.04c2.19-0.068,3.831-1.829,3.81-3.896
		c-0.021-1.966-1.637-3.683-3.682-3.873c-0.58-0.055-1.169-0.023-1.755-0.023c-22.436-0.001-44.871,0-67.307,0
		C103.944,135.315,103.355,135.282,102.774,135.333z"/>
	<path fill-rule="evenodd" clip-rule="evenodd" fill="#FFFFFF" d="M124.371,125.542c3.642-0.001,7.283,0.023,10.925-0.009
		c2.567-0.023,4.157-1.546,4.156-3.882c0-2.32-1.618-3.9-4.156-3.91c-7.153-0.029-14.307-0.024-21.46-0.003
		c-2.466,0.007-4.263,1.634-4.331,3.814c-0.069,2.253,1.758,3.964,4.332,3.983C117.348,125.563,120.859,125.543,124.371,125.542z"/>
	<path fill-rule="evenodd" clip-rule="evenodd" fill="#FFFFFF" d="M76.075,117.738c-2.559,0.009-4.19,1.54-4.222,3.842
		c-0.034,2.423,1.57,3.937,4.271,3.957c3.511,0.025,7.022,0.006,10.533,0.005c3.641,0,7.283,0.024,10.923-0.009
		c2.466-0.022,4.204-1.684,4.189-3.91c-0.014-2.218-1.765-3.874-4.239-3.883C90.379,117.714,83.227,117.715,76.075,117.738z"/>
	<path fill-rule="evenodd" clip-rule="evenodd" fill="#FFFFFF" d="M173.032,117.74c-7.154-0.027-14.309-0.025-21.464-0.002
		c-2.524,0.008-4.232,1.579-4.279,3.823c-0.05,2.377,1.621,3.953,4.294,3.975c3.512,0.027,7.024,0.007,10.536,0.006
		c3.643,0,7.285,0.024,10.928-0.009c2.468-0.022,4.23-1.686,4.226-3.891C177.269,119.452,175.479,117.749,173.032,117.74z"/>
</g>
</svg>
