<?xml version="1.0" encoding="utf-8"?>
<!-- Generator: Adobe Illustrator 16.0.0, SVG Export Plug-In . SVG Version: 6.00 Build 0)  -->
<!DOCTYPE svg PUBLIC "-//W3C//DTD SVG 1.0//EN" "http://www.w3.org/TR/2001/REC-SVG-20010904/DTD/svg10.dtd">
<svg version="1.0" id="Layer_1" xmlns="http://www.w3.org/2000/svg" xmlns:xlink="http://www.w3.org/1999/xlink" x="0px" y="0px"
	 width="200px" height="200px" viewBox="0 0 200 200" enable-background="new 0 0 200 200" xml:space="preserve">
<rect y="0.001" fill-rule="evenodd" clip-rule="evenodd" fill="none" width="200" height="199.999"/>
<g>
	<path fill-rule="evenodd" clip-rule="evenodd" fill="#FFFFFF" d="M38.29,200.001c-0.893-0.342-1.789-0.674-2.678-1.025
		c-5.684-2.247-9.392-7.464-9.421-13.557c-0.06-12.295-0.069-24.592-0.018-36.888c0.043-10.237-1.172-20.352-2.509-30.478
		c-0.764-5.788-1.238-11.649-1.316-17.484c-0.188-14.051-0.073-28.104-0.064-42.157c0.006-8.597,5.25-15.286,13.625-17.44
		c0.374-0.097,0.73-0.256,1.24-0.438c0-4.53-0.031-9.075,0.009-13.619c0.039-4.548-0.265-9.149,0.326-13.629
		C38.379,6.505,42.63,2.299,49.182,0.409c0.291-0.083,0.552-0.271,0.827-0.408c30.599,0,61.197,0,91.796,0
		c0.521,0.214,1.031,0.464,1.565,0.636c6.328,2.039,10.448,7.572,10.507,14.203c0.037,4.279,0.007,8.56,0.007,13.065
		c3.631,0,7.062-0.022,10.491,0.009c2.21,0.02,4.438-0.044,6.624,0.217c3.846,0.459,6.697,3.754,6.722,7.644
		c0.043,6.834,0.058,13.67-0.003,20.505c-0.066,7.705-6.644,14.3-14.361,14.392c-6.049,0.072-12.099,0.015-18.45,0.015
		c0,0.776,0,1.459,0,2.142c0,7.682-0.083,15.364,0.021,23.044c0.137,10.188-1.229,20.233-2.451,30.308
		c-0.711,5.867-1.14,11.78-1.412,17.686c-0.23,5.002-0.031,10.022-0.067,15.035c-0.015,1.952-1.208,3.189-2.923,3.197
		c-1.723,0.009-2.892-1.214-2.92-3.179c-0.198-13.412,0.163-26.771,2.202-40.086c1.069-6.982,1.45-14.112,1.583-21.187
		c0.244-12.949,0.093-25.907,0.066-38.862c-0.012-5.68-3.009-10.019-7.983-11.728c-0.234-0.081-0.487-0.107-1.004-0.216
		c0,2.247,0.01,4.365-0.002,6.482c-0.028,5.294-3.045,8.483-8.291,8.49c-25.453,0.037-50.906,0.038-76.359-0.001
		c-5.177-0.008-8.193-3.179-8.214-8.34c-0.009-2.144-0.002-4.286-0.002-6.438c-3.805,0.296-7.688,4.021-8.614,8.264
		c-0.261,1.196-0.39,2.445-0.392,3.672c-0.027,12.759-0.324,25.527,0.085,38.273c0.302,9.402,1.556,18.773,2.351,28.161
		c0.511,6.022,1.277,12.045,1.371,18.076c0.21,13.537,0.069,27.079,0.076,40.62c0.004,6.36,3.686,10.043,10.066,10.045
		c27.667,0.006,55.334,0.007,83,0c6.327-0.002,10.028-3.734,10.048-10.1c0.01-3.516-0.02-7.03,0.012-10.546
		c0.019-2.117,1.171-3.352,2.982-3.31c1.705,0.041,2.851,1.29,2.863,3.261c0.027,4.101,0.063,8.203-0.015,12.304
		c-0.114,6.014-4.315,11.533-10.136,13.484c-0.655,0.22-1.289,0.506-1.934,0.762C98.706,200.001,68.498,200.001,38.29,200.001z
		 M127.106,5.853c-0.991,0-1.51,0-2.028,0c-23.756,0-47.512-0.005-71.268,0.004c-6.637,0.002-10.727,4.053-10.742,10.689
		c-0.028,12.106-0.012,24.212-0.005,36.317c0.001,2.658,0.388,3.035,3.047,3.035c24.928,0.003,49.854,0.003,74.782,0.001
		c2.854-0.001,3.126-0.263,3.127-3.117c0.006-11.52,0.037-23.039-0.015-34.559C123.986,13.953,124.147,9.769,127.106,5.853z
		 M150.896,64.742c-2.435-3.417-2.987-6.987-2.945-10.78c0.09-8.064,0.028-16.131,0.028-24.197
		c-0.001-4.878,0.062-9.758-0.02-14.635c-0.088-5.343-4.039-9.321-9.054-9.271c-5.04,0.05-8.86,4.056-8.88,9.392
		c-0.028,7.936,0.003,15.872-0.021,23.808c-0.003,0.996,0.095,1.636,1.287,1.967c8.769,2.437,13.602,8.896,13.613,18.043
		c0.003,1.865,0.001,3.729,0.001,5.675C146.935,64.742,148.73,64.742,150.896,64.742z M153.886,33.928
		c0,7.418-0.021,14.561,0.007,21.703c0.02,4.993,3.678,8.903,8.513,9.176c4.664,0.265,9.182-3.464,9.378-8.319
		c0.271-6.751,0.109-13.52,0.081-20.281c-0.006-1.321-0.719-2.259-2.152-2.267C164.521,33.91,159.331,33.928,153.886,33.928z"/>
	<path fill-rule="evenodd" clip-rule="evenodd" fill="#FFFFFF" d="M123.015,107.702c0-10.268,0-20.4,0-30.678
		c-26.254,0-52.442,0-78.926,0c0,2.549,0.122,5.133-0.058,7.695c-0.075,1.062-0.529,2.362-1.274,3.055
		c-1.628,1.513-4.372,0.369-4.495-1.916c-0.181-3.368-0.216-6.776,0.106-10.127c0.237-2.455,2.047-4.003,4.457-4.603
		c0.932-0.232,1.935-0.244,2.905-0.245c25.252-0.012,50.504-0.012,75.756-0.008c5.267,0.002,7.486,2.215,7.489,7.451
		c0.006,9.437,0.011,18.874-0.002,28.311c-0.006,4.763-2.283,7.069-7.031,7.07c-25.576,0.012-51.154,0.012-76.731,0.001
		c-4.744-0.002-7.05-2.318-7.089-7.052c-0.018-2.147-0.019-4.295,0-6.442c0.022-2.573,1.101-4.024,2.953-4.029
		c1.863-0.005,3,1.491,3.012,3.999c0.012,2.463,0.003,4.926,0.003,7.518C70.426,107.702,96.617,107.702,123.015,107.702z"/>
	<path fill-rule="evenodd" clip-rule="evenodd" fill="#FFFFFF" d="M83.611,120.717c2.468,0.001,4.937-0.028,7.405,0.009
		c3.379,0.05,5.796,2.303,5.94,5.678c0.118,2.723,0.105,5.458,0.018,8.183c-0.11,3.409-2.342,5.808-5.757,5.907
		c-5.063,0.147-10.134,0.135-15.198,0.011c-3.469-0.085-5.769-2.496-5.917-6.007c-0.11-2.594-0.11-5.199-0.001-7.793
		c0.154-3.684,2.607-5.955,6.298-5.984C78.804,120.701,81.207,120.717,83.611,120.717z M76.196,134.397c5.048,0,9.885,0,14.754,0
		c0-2.647,0-5.146,0-7.718c-4.961,0-9.801,0-14.754,0C76.196,129.278,76.196,131.775,76.196,134.397z"/>
	<path fill-rule="evenodd" clip-rule="evenodd" fill="#FFFFFF" d="M115.084,120.717c2.277,0,4.556-0.025,6.832,0.006
		c4.12,0.056,6.744,3.302,5.889,7.3c-0.543,2.538-1.116,5.07-1.753,7.586c-0.797,3.146-2.902,4.86-6.181,4.921
		c-3.968,0.074-7.939,0.095-11.905-0.01c-3.68-0.096-5.987-2.571-6.025-6.262c-0.027-2.537-0.039-5.075,0.008-7.612
		c0.064-3.459,2.47-5.838,5.913-5.927c0.066-0.002,0.131-0.002,0.195-0.002C110.399,120.717,112.742,120.717,115.084,120.717z
		 M107.937,126.671c0,2.734,0,5.239,0,7.87c3.823,0,7.515,0.021,11.205-0.029c0.403-0.006,1.074-0.347,1.159-0.657
		c0.638-2.342,1.16-4.714,1.743-7.184C117.182,126.671,112.603,126.671,107.937,126.671z"/>
	<path fill-rule="evenodd" clip-rule="evenodd" fill="#FFFFFF" d="M52.352,120.72c2.344,0,4.687-0.041,7.029,0.01
		c3.308,0.071,5.771,2.526,5.837,5.823c0.052,2.602,0.033,5.206,0.007,7.81c-0.035,3.456-2.29,6.003-5.761,6.13
		c-4.224,0.154-8.462,0.139-12.687-0.008c-2.964-0.103-4.932-1.899-5.664-4.787c-0.654-2.578-1.259-5.17-1.834-7.767
		c-0.828-3.736,1.81-7.106,5.654-7.199C47.405,120.673,49.879,120.721,52.352,120.72z M45.104,126.656
		c0.317,1.362,0.599,2.608,0.897,3.852c0.973,4.039,0.976,4.038,5.184,4.038c2.693,0,5.386,0,8.049,0c0-2.841,0-5.337,0-7.89
		C54.498,126.656,49.905,126.656,45.104,126.656z"/>
	<path fill-rule="evenodd" clip-rule="evenodd" fill="#FFFFFF" d="M83.716,169.133c-2.271,0-4.542,0.021-6.812-0.006
		c-2.049-0.023-3.399-1.237-3.37-2.965c0.027-1.659,1.336-2.854,3.261-2.864c4.542-0.025,9.083-0.029,13.624,0.002
		c1.918,0.014,3.192,1.256,3.162,2.947c-0.03,1.681-1.312,2.849-3.248,2.878C88.128,169.157,85.921,169.132,83.716,169.133z"/>
	<path fill-rule="evenodd" clip-rule="evenodd" fill="#FFFFFF" d="M54.105,155.961c-2.278-0.001-4.558,0.051-6.834-0.017
		c-2.042-0.061-3.157-1.171-3.147-2.947c0.01-1.75,1.195-2.921,3.182-2.94c4.491-0.044,8.983-0.04,13.475-0.002
		c1.969,0.017,3.221,1.183,3.27,2.877c0.053,1.786-1.177,2.962-3.304,3.019C58.534,156.009,56.319,155.963,54.105,155.961z"/>
	<path fill-rule="evenodd" clip-rule="evenodd" fill="#FFFFFF" d="M54.125,176.457c2.214-0.001,4.428-0.039,6.64,0.011
		c2.034,0.047,3.239,1.134,3.284,2.834c0.048,1.782-1.228,3.044-3.289,3.063c-4.491,0.044-8.983,0.049-13.475-0.003
		c-1.972-0.022-3.16-1.227-3.161-2.97c-0.001-1.78,1.113-2.867,3.166-2.922C49.567,176.41,51.847,176.457,54.125,176.457z"/>
	<path fill-rule="evenodd" clip-rule="evenodd" fill="#FFFFFF" d="M113.177,150.042c2.148,0,4.297-0.024,6.445,0.007
		c2.123,0.031,3.392,1.143,3.42,2.923c0.028,1.789-1.192,2.954-3.341,2.979c-4.426,0.049-8.854,0.049-13.279-0.001
		c-2.18-0.025-3.334-1.149-3.302-2.993c0.031-1.806,1.26-2.878,3.416-2.907C108.75,150.019,110.963,150.042,113.177,150.042z"/>
	<path fill-rule="evenodd" clip-rule="evenodd" fill="#FFFFFF" d="M113.003,182.381c-2.084,0-4.167,0.017-6.25-0.004
		c-2.31-0.022-3.588-1.06-3.633-2.902c-0.047-1.917,1.139-2.994,3.477-3.013c4.361-0.033,8.724-0.037,13.085,0.005
		c2.16,0.021,3.378,1.151,3.359,2.949c-0.018,1.784-1.282,2.918-3.398,2.955C117.43,182.41,115.216,182.38,113.003,182.381z"/>
	<path fill-rule="evenodd" clip-rule="evenodd" fill="#FFFFFF" d="M83.657,150.042c2.141,0,4.281-0.021,6.421,0.006
		c2.075,0.025,3.431,1.162,3.497,2.869c0.069,1.757-1.191,3.006-3.293,3.031c-4.476,0.054-8.952,0.052-13.427-0.001
		c-2.058-0.024-3.387-1.322-3.318-3.024c0.068-1.701,1.436-2.849,3.504-2.875C79.246,150.021,81.451,150.042,83.657,150.042z"/>
	<path fill-rule="evenodd" clip-rule="evenodd" fill="#FFFFFF" d="M83.472,182.381c-2.14,0-4.28,0.026-6.42-0.008
		c-2.141-0.034-3.575-1.317-3.513-3.072c0.06-1.69,1.389-2.82,3.503-2.837c4.345-0.035,8.69-0.036,13.036-0.001
		c2.242,0.019,3.565,1.214,3.5,3.021c-0.062,1.702-1.422,2.858-3.49,2.889C87.883,182.406,85.677,182.381,83.472,182.381z"/>
	<path fill-rule="evenodd" clip-rule="evenodd" fill="#FFFFFF" d="M54.084,169.133c-2.279,0-4.557,0.029-6.834-0.009
		c-1.967-0.034-3.147-1.189-3.128-2.957c0.019-1.755,1.206-2.858,3.206-2.869c4.491-0.025,8.981-0.024,13.472,0
		c1.975,0.01,3.221,1.143,3.252,2.849c0.031,1.786-1.247,2.955-3.33,2.98C58.509,169.154,56.296,169.133,54.084,169.133z"/>
	<path fill-rule="evenodd" clip-rule="evenodd" fill="#FFFFFF" d="M112.964,169.132c-2.213,0.001-4.426,0.025-6.638-0.006
		c-1.995-0.03-3.188-1.131-3.207-2.881c-0.021-1.781,1.146-2.933,3.126-2.946c4.556-0.03,9.111-0.03,13.666,0.001
		c1.932,0.014,3.163,1.234,3.131,2.963c-0.032,1.646-1.23,2.82-3.05,2.856C117.649,169.167,115.307,169.131,112.964,169.132z"/>
	<path fill-rule="evenodd" clip-rule="evenodd" fill="#FFFFFF" d="M83.662,17.929c9.105,0,18.211-0.011,27.317,0.009
		c2.009,0.005,3.253,1.112,3.317,2.805c0.065,1.722-1.299,2.985-3.316,3.062c-0.455,0.019-0.91,0.005-1.366,0.005
		c-5.073,0-10.146,0-15.22,0c-12.423,0-24.846,0.001-37.269-0.004c-0.649,0-1.328,0.069-1.941-0.091
		c-1.486-0.39-2.404-1.435-2.32-2.967c0.086-1.584,0.991-2.655,2.7-2.791c0.582-0.046,1.17-0.027,1.755-0.027
		C66.101,17.927,74.881,17.927,83.662,17.929z"/>
	<path fill-rule="evenodd" clip-rule="evenodd" fill="#FFFFFF" d="M83.604,41.741c-8.846,0-17.69,0.01-26.536-0.015
		c-0.827-0.002-1.924,0.069-2.42-0.397c-0.807-0.76-1.757-2-1.649-2.92c0.108-0.915,1.362-1.799,2.279-2.472
		c0.439-0.322,1.26-0.158,1.908-0.158c17.561-0.006,35.121-0.005,52.683-0.005c0.325,0,0.65-0.008,0.975,0.007
		c2.137,0.102,3.431,1.198,3.454,2.921c0.023,1.763-1.398,3.024-3.571,3.029C101.686,41.753,92.646,41.741,83.604,41.741z"/>
</g>
</svg>
