<?xml version="1.0" encoding="UTF-8"?>
<!DOCTYPE svg PUBLIC "-//W3C//DTD SVG 1.1//EN" "http://www.w3.org/Graphics/SVG/1.1/DTD/svg11.dtd">
<!-- Creator: CorelDRAW -->
<svg xmlns="http://www.w3.org/2000/svg" xml:space="preserve" width="12.7mm" height="12.7mm" version="1.1" style="shape-rendering:geometricPrecision; text-rendering:geometricPrecision; image-rendering:optimizeQuality; fill-rule:evenodd; clip-rule:evenodd"
viewBox="0 0 63.41 63.41"
 xmlns:xlink="http://www.w3.org/1999/xlink"
 xmlns:xodm="http://www.corel.com/coreldraw/odm/2003">
 <defs>
  <style type="text/css">
   <![CDATA[
    .fil0 {fill:none}
    .fil1 {fill:#FEFEFE}
    .fil2 {fill:#2D6B91}
   ]]>
  </style>
 </defs>
 <g id="Layer_x0020_1">
  <metadata id="CorelCorpID_0Corel-Layer"/>
  <rect class="fil0" width="63.41" height="63.41"/>
  <g id="_2049425650752">
   <path class="fil1" d="M12.87 10.52l5.57 0 22.39 0 0 0.03 7.33 0 0 9.73 4.52 0 0 9.73 4.52 0 0 9.73 4.52 0 0 13.13 -20.9 0 0 0.04 -27.96 0 0 -0.14 -2.62 0 0 -29.2 -8.56 0 0 -5.72c1.81,0 3.32,-0.15 4.53,-0.45 1.22,-0.3 2.21,-0.75 2.99,-1.37 0.78,-0.61 1.36,-1.38 1.76,-2.29 0.4,-0.91 0.66,-1.98 0.79,-3.21l1.11 0z"/>
   <g>
    <rect class="fil2" x="18.51" y="14" width="26.22" height="6.21"/>
    <rect class="fil2" x="23.03" y="23.73" width="26.22" height="6.21"/>
    <rect class="fil2" x="27.56" y="33.46" width="26.22" height="6.21"/>
    <rect class="fil2" x="32.08" y="43.18" width="26.22" height="6.21"/>
   </g>
  </g>
 </g>
</svg>
