<?xml version="1.0" encoding="UTF-8"?>
<!DOCTYPE svg PUBLIC "-//W3C//DTD SVG 1.1//EN" "http://www.w3.org/Graphics/SVG/1.1/DTD/svg11.dtd">
<!-- Creator: CorelDRAW -->
<svg xmlns="http://www.w3.org/2000/svg" xml:space="preserve" width="12.7mm" height="12.7mm" version="1.1" style="shape-rendering:geometricPrecision; text-rendering:geometricPrecision; image-rendering:optimizeQuality; fill-rule:evenodd; clip-rule:evenodd"
viewBox="0 0 72.59 72.59"
 xmlns:xlink="http://www.w3.org/1999/xlink"
 xmlns:xodm="http://www.corel.com/coreldraw/odm/2003">
 <defs>
  <style type="text/css">
   <![CDATA[
    .fil0 {fill:none}
    .fil1 {fill:#FEFEFE}
    .fil2 {fill:#2D6B91}
   ]]>
  </style>
 </defs>
 <g id="Layer_x0020_1">
  <metadata id="CorelCorpID_0Corel-Layer"/>
  <g id="_2049116432800">
   <rect class="fil0" width="72.59" height="72.59"/>
   <g>
    <path class="fil1" d="M61.02 34.47l4.82 0 0 10.25 4.82 0 0 13.84 -22.24 0 0 0.04 -17.15 0 0 0.04 -29.33 0c0,-2 0.16,-3.87 0.49,-5.6 0.32,-1.74 0.95,-3.45 1.88,-5.15 0.93,-1.69 2.24,-3.41 3.93,-5.15 1.69,-1.74 3.91,-3.61 6.68,-5.6 1.56,-1.09 2.84,-2.06 3.86,-2.93 1.02,-0.87 1.83,-1.69 2.43,-2.48 0.61,-0.78 1.04,-1.56 1.3,-2.35 0.26,-0.78 0.39,-1.63 0.39,-2.54 0,-1.09 -0.15,-2 -0.45,-2.74 -0.3,-0.74 -0.72,-1.32 -1.26,-1.76 -0.54,-0.43 -1.18,-0.74 -1.91,-0.91 -0.74,-0.17 -1.51,-0.26 -2.34,-0.26 -1.95,0 -3.48,0.55 -4.61,1.66 -1.12,1.11 -1.69,3.12 -1.69,6.03l-8.11 0c0,-4.69 1.22,-8.35 3.67,-10.98 2.44,-2.63 5.89,-3.94 10.35,-3.94 0.48,0 0.94,0.01 1.4,0.04l-0.02 -0.03 30.49 0 0 0.03 7.8 0 0 10.25 4.82 0 0 10.25z"/>
    <g>
     <rect class="fil2" x="24.65" y="17.62" width="27.9" height="6.54"/>
     <rect class="fil2" x="29.47" y="27.87" width="27.9" height="6.54"/>
     <rect class="fil2" x="34.28" y="38.12" width="27.9" height="6.54"/>
     <rect class="fil2" x="39.1" y="48.37" width="27.9" height="6.54"/>
    </g>
   </g>
  </g>
 </g>
</svg>
