<?xml version="1.0" encoding="utf-8"?>
<!-- Generator: Adobe Illustrator 16.0.0, SVG Export Plug-In . SVG Version: 6.00 Build 0)  -->
<!DOCTYPE svg PUBLIC "-//W3C//DTD SVG 1.1//EN" "http://www.w3.org/Graphics/SVG/1.1/DTD/svg11.dtd">
<svg version="1.1" id="Layer_1" xmlns="http://www.w3.org/2000/svg" xmlns:xlink="http://www.w3.org/1999/xlink" x="0px" y="0px"
	 width="300px" height="208.14px" viewBox="201.346 154.364 300 208.14" enable-background="new 201.346 154.364 300 208.14"
	 xml:space="preserve">
<rect x="4" y="-129" fill="none" width="694" height="694"/>
<rect x="4" y="-129" fill="none" width="694" height="694"/>
<g>
	
		<linearGradient id="SVGID_1_" gradientUnits="userSpaceOnUse" x1="372.8506" y1="308.7051" x2="372.8506" y2="144.5557" gradientTransform="matrix(1 0 0 -1 -20.96 453.3398)">
		<stop  offset="0" style="stop-color:#FFFFFF"/>
		<stop  offset="1" style="stop-color:#B8EBF4"/>
	</linearGradient>
	<path fill="url(#SVGID_1_)" d="M256.133,341.136c-20.126-14.559-73.809-52.838-45.958-82.294
		c6.356-6.723,19.425-6.49,26.333-12.821c8.687-7.963,4.298-20.45,0.976-30.867c-4.045-12.688-5.627-26.47-0.068-38.749
		c5.559-12.281,19.691-22.493,35.377-22.024c9.233,0.277,17.721,4.019,26.139,7.206c13.681,5.182,28.494,9.133,43.479,8.282
		c19.507-1.108,37.214-10.185,56.573-12.472c24.896-2.941,50.58,6.046,68.25,21.01c17.671,14.965,27.872,35.293,32.04,56.037
		c4.186,20.818,2.55,42.661-6.645,62.322c-9.196,19.66-26.223,36.985-48.505,46.897L256.133,341.136z"/>
	<g opacity="0.6">
		<g>
			<g>
				<defs>
					<rect id="SVGID_2_" x="220.37" y="339.972" width="251.282" height="22.532"/>
				</defs>
				<clipPath id="SVGID_3_">
					<use xlink:href="#SVGID_2_"  overflow="visible"/>
				</clipPath>
				<path clip-path="url(#SVGID_3_)" fill="#B2C8CC" d="M244.947,341.464c-7.616-0.113-25.289,1.856-24.555,4.934
					c0.695,2.903,13.1,4.19,17.87,4.445c20.989,1.121,38.635,2.078,59.316,2.63c2.525,0.067,3.539,2.403,1.544,3.562
					c-1.721,0.999-3.297,2.792-1.295,3.457c9.71,3.227,54.303,1.855,76.938,0.806c27.416-1.272,91.688-4.489,96.548-13.074
					c1.617-2.855-2.869-4.979-6.635-5.787c-8.914-1.915-18.283-2.726-27.597-2.391L244.947,341.464z"/>
			</g>
		</g>
	</g>
	<g>
		<g>
			<rect x="349.975" y="193.044" fill="#32539E" width="3.054" height="105.023"/>
		</g>
		<g>
			<rect x="301.297" y="193.044" fill="#32539E" width="3.054" height="105.023"/>
		</g>
		<g>
			<rect x="273.549" y="193.044" fill="#32539E" width="3.054" height="105.023"/>
		</g>
		<g>
			<rect x="398.653" y="193.044" fill="#32539E" width="3.056" height="105.023"/>
		</g>
		<g>
			<rect x="427.426" y="193.044" fill="#32539E" width="3.056" height="105.023"/>
		</g>
		<g>
			<g>
				<path fill="#3169AF" d="M277.284,198.669v12.907h6.107v-12.907c0-0.959-0.709-1.76-1.663-1.99v-5.258h-2.786v5.258
					C277.989,196.909,277.284,197.71,277.284,198.669z"/>
			</g>
			<g>
				<rect x="278.943" y="190.732" fill="#FCDDD2" width="2.789" height="3.361"/>
			</g>
			<g>
				<rect x="278.943" y="190.291" fill="#3169AF" width="2.789" height="0.771"/>
			</g>
			<g>
				<rect x="278.803" y="190.519" fill="#3169AF" width="3.067" height="0.432"/>
			</g>
			<g>
				<rect x="277.284" y="200.768" fill="#FB6D75" width="6.107" height="7.199"/>
			</g>
			<g>
				<path fill="#FEAF51" d="M281.775,197.325c0.095-0.059,0.576,0.443,0.813,1.113c0.291,0.816,0.15,1.692,0.033,1.706
					c-0.076,0.008-0.113-0.341-0.456-1.463C281.859,197.679,281.707,197.367,281.775,197.325z"/>
			</g>
		</g>
		<g>
			<g>
				<path fill="#3169AF" d="M284.807,198.669v12.907h6.107v-12.907c0-0.959-0.709-1.76-1.663-1.99v-5.258h-2.787v5.258
					C285.512,196.909,284.807,197.71,284.807,198.669z"/>
			</g>
			<g>
				<rect x="286.466" y="190.732" fill="#FCDDD2" width="2.788" height="3.361"/>
			</g>
			<g>
				<rect x="286.466" y="190.291" fill="#3169AF" width="2.788" height="0.771"/>
			</g>
			<g>
				<rect x="286.326" y="190.519" fill="#3169AF" width="3.067" height="0.432"/>
			</g>
			<g>
				<rect x="284.807" y="200.768" fill="#FB6D75" width="6.107" height="7.199"/>
			</g>
			<g>
				<path fill="#FEAF51" d="M289.297,197.325c0.095-0.059,0.576,0.443,0.813,1.113c0.291,0.816,0.151,1.692,0.033,1.706
					c-0.076,0.008-0.113-0.341-0.456-1.463C289.382,197.679,289.23,197.367,289.297,197.325z"/>
			</g>
		</g>
		<g>
			<g>
				<path fill="#3169AF" d="M293.052,198.669v12.907h6.106v-12.907c0-0.959-0.709-1.76-1.663-1.99v-5.258h-2.786v5.258
					C293.755,196.909,293.052,197.71,293.052,198.669z"/>
			</g>
			<g>
				<rect x="294.71" y="190.732" fill="#FCDDD2" width="2.788" height="3.361"/>
			</g>
			<g>
				<rect x="294.71" y="190.291" fill="#3169AF" width="2.788" height="0.771"/>
			</g>
			<g>
				<rect x="294.571" y="190.519" fill="#3169AF" width="3.066" height="0.432"/>
			</g>
			<g>
				<rect x="293.052" y="200.768" fill="#FB6D75" width="6.106" height="7.199"/>
			</g>
			<g>
				<path fill="#FEAF51" d="M297.542,197.325c0.095-0.059,0.576,0.443,0.814,1.113c0.291,0.816,0.15,1.692,0.033,1.706
					c-0.075,0.008-0.113-0.341-0.456-1.463C297.626,197.679,297.474,197.367,297.542,197.325z"/>
			</g>
		</g>
		<g>
			<g>
				<path fill="#3169AF" d="M308.151,201.09c-0.464,1.111-0.939,2.643-1.044,4.489c-0.146,2.583,0.496,4.674,1.044,5.998
					c2.035,0,4.07,0,6.106,0c0.535-1.393,1.121-3.509,0.967-6.091c-0.106-1.775-0.531-3.269-0.967-4.396
					c-0.005-0.144-0.035-0.61-0.474-1.03c-0.296-0.284-0.712-0.493-1.189-0.586V195.2h-2.786v4.273
					C308.855,199.66,308.151,200.311,308.151,201.09z"/>
			</g>
			<g>
				<rect x="309.81" y="194.641" fill="#030303" width="2.788" height="2.732"/>
			</g>
			<g>
				<rect x="309.81" y="194.283" fill="#3169AF" width="2.788" height="0.625"/>
			</g>
			<g>
				<rect x="309.67" y="194.468" fill="#3169AF" width="3.066" height="0.35"/>
			</g>
			<g>
				<rect x="308.151" y="203.658" fill="#030303" width="6.106" height="4.397"/>
			</g>
			<g>
				<path fill="#FEAF51" d="M312.641,199.998c0.095-0.048,0.577,0.36,0.815,0.904c0.291,0.663,0.15,1.375,0.033,1.386
					c-0.075,0.007-0.113-0.276-0.456-1.188C312.725,200.285,312.574,200.031,312.641,199.998z"/>
			</g>
		</g>
		<g>
			<g>
				<rect x="409.438" y="204.232" fill="#3169AF" width="0.745" height="6.619"/>
			</g>
			<g>
				<path fill="#3169AF" d="M411.573,210.853h-3.527c-0.348,0-0.629,0.281-0.629,0.629v0.305h4.786v-0.305
					C412.203,211.134,411.921,210.853,411.573,210.853z"/>
			</g>
			<g>
				<polygon fill="#3169AF" points="414.179,201.564 405.44,201.564 409.316,204.232 410.302,204.232 				"/>
			</g>
		</g>
		<g>
			<g>
				<rect x="419.62" y="204.232" fill="#3169AF" width="0.745" height="6.619"/>
			</g>
			<g>
				<path fill="#3169AF" d="M421.756,210.853h-3.526c-0.349,0-0.63,0.281-0.63,0.629v0.305h4.787v-0.305
					C422.387,211.134,422.104,210.853,421.756,210.853z"/>
			</g>
			<g>
				<polygon fill="#3169AF" points="424.362,201.564 415.623,201.564 419.5,204.232 420.486,204.232 				"/>
			</g>
		</g>
		<g>
			<g>
				<rect x="333.114" y="204.573" fill="#3169AF" width="0.596" height="6.62"/>
			</g>
			<g>
				<path fill="#3169AF" d="M334.695,211.193h-2.566c-0.348,0-0.629,0.282-0.629,0.63v0.303h3.825v-0.303
					C335.326,211.476,335.043,211.193,334.695,211.193z"/>
			</g>
			<g>
				<path fill="#3169AF" d="M336.905,201.188h-6.984c-0.084,1.316,0.403,2.546,1.242,3.128c0.821,0.571,1.659,0.301,1.856,0.229
					c0.263,0,0.525,0,0.788,0c0.058,0.025,1.307,0.525,2.313-0.567C337.123,202.887,336.916,201.266,336.905,201.188z"/>
			</g>
		</g>
		<g>
			<g>
				<rect x="394.429" y="203.878" fill="#3169AF" width="1.003" height="6.972"/>
			</g>
			<g>
				<polygon fill="#3169AF" points="395.432,210.85 395.427,210.85 395.432,210.847 				"/>
			</g>
			<g>
				<path fill="#3169AF" d="M395.432,210.257v0.59c-0.001,0.001-0.003,0.002-0.005,0.003h-0.998v-0.587
					C394.763,210.358,395.098,210.378,395.432,210.257z"/>
			</g>
			<g>
				<path fill="#3169AF" d="M395.432,203.878v0.879c-0.349,0.188-0.68,0.308-1.003,0.366v-1.245H395.432z"/>
			</g>
			<g>
				<path fill="#3169AF" d="M393.934,204.262h1.993c0.878,0,1.588-0.71,1.588-1.588v-6.425h-5.169v6.425
					C392.346,203.551,393.057,204.262,393.934,204.262z"/>
			</g>
			<g>
				<path fill="#3169AF" d="M392.617,211.733h4.626v-0.42c0-0.29-0.235-0.525-0.525-0.525h-3.574c-0.291,0-0.526,0.235-0.526,0.525
					V211.733z"/>
			</g>
			<g>
				<path fill="#FEAF51" d="M396.457,197.391c0.066-0.006,0.203,0.684,0.227,1.392c0.037,1.09-0.2,2.069-0.276,2.061
					c-0.041-0.006-0.035-0.533-0.026-1.588C396.395,198.015,396.401,197.395,396.457,197.391z"/>
			</g>
		</g>
		<g>
			<g>
				<rect x="387.232" y="203.878" fill="#3169AF" width="1.004" height="6.972"/>
			</g>
			<g>
				<polygon fill="#3169AF" points="388.236,210.85 388.231,210.85 388.236,210.847 				"/>
			</g>
			<g>
				<path fill="#3169AF" d="M388.236,210.257v0.59c-0.001,0.001-0.003,0.002-0.005,0.003h-0.999v-0.587
					C387.567,210.358,387.902,210.378,388.236,210.257z"/>
			</g>
			<g>
				<path fill="#3169AF" d="M388.236,203.878v0.879c-0.349,0.188-0.68,0.308-1.004,0.366v-1.245H388.236z"/>
			</g>
			<g>
				<path fill="#3169AF" d="M386.738,204.262h1.993c0.877,0,1.588-0.71,1.588-1.588v-6.425h-5.17v6.425
					C385.149,203.551,385.861,204.262,386.738,204.262z"/>
			</g>
			<g>
				<path fill="#3169AF" d="M385.423,211.733h4.625v-0.42c0-0.29-0.235-0.525-0.526-0.525h-3.573c-0.291,0-0.525,0.235-0.525,0.525
					V211.733L385.423,211.733z"/>
			</g>
			<g>
				<path fill="#FEAF51" d="M389.262,197.391c0.065-0.006,0.203,0.684,0.227,1.392c0.037,1.09-0.199,2.069-0.276,2.061
					c-0.041-0.006-0.036-0.533-0.025-1.588C389.198,198.015,389.206,197.395,389.262,197.391z"/>
			</g>
		</g>
		<g>
			<g>
				<rect x="380.037" y="203.878" fill="#3169AF" width="1.004" height="6.972"/>
			</g>
			<g>
				<path fill="#3169AF" d="M381.041,210.85h-0.006c0.003,0,0.005-0.002,0.006-0.002V210.85z"/>
			</g>
			<g>
				<path fill="#3169AF" d="M381.041,210.257v0.59c-0.001,0.001-0.003,0.002-0.006,0.003h-0.998v-0.587
					C380.371,210.358,380.706,210.378,381.041,210.257z"/>
			</g>
			<g>
				<path fill="#3169AF" d="M381.041,203.878v0.879c-0.349,0.188-0.68,0.308-1.004,0.366v-1.245H381.041z"/>
			</g>
			<g>
				<path fill="#3169AF" d="M379.543,204.262h1.993c0.877,0,1.588-0.71,1.588-1.588v-6.425h-5.17v6.425
					C377.954,203.551,378.666,204.262,379.543,204.262z"/>
			</g>
			<g>
				<path fill="#3169AF" d="M378.227,211.733h4.625v-0.42c0-0.29-0.235-0.525-0.525-0.525h-3.573c-0.291,0-0.526,0.235-0.526,0.525
					V211.733L378.227,211.733z"/>
			</g>
			<g>
				<path fill="#FEAF51" d="M382.066,197.391c0.066-0.006,0.202,0.684,0.227,1.392c0.036,1.09-0.199,2.069-0.276,2.061
					c-0.041-0.006-0.036-0.533-0.026-1.588C382.002,198.015,382.01,197.395,382.066,197.391z"/>
			</g>
		</g>
		<g>
			<g>
				<rect x="363.803" y="193.527" fill="#203C75" width="2.621" height="6.969"/>
			</g>
			<g>
				<rect x="363.803" y="193.527" fill="#030303" width="2.621" height="2.056"/>
			</g>
			<g>
				<path fill="#203C75" d="M369.177,199.747h-8.125c-1.221,0-2.21,0.99-2.21,2.211v8.66c0,0.558,0.451,1.01,1.008,1.01h10.528
					c0.557,0,1.009-0.452,1.009-1.01v-8.66C371.386,200.737,370.396,199.747,369.177,199.747z"/>
			</g>
			<g>
				<path fill="#FEAF51" d="M358.841,204.614h4.962c0,0-0.078-1.86,1.312-1.994c1.389-0.135,1.31,1.994,1.31,1.994l4.962-0.022
					v3.221h-12.545V204.614L358.841,204.614z"/>
			</g>
		</g>
		<g>
			<g>
				<path fill="#3169AF" d="M347.818,205.405c-0.015,0.292-0.03,0.614-0.053,0.959c-0.12,1.454-0.419,3.321-1.14,5.435h-6.034
					c-0.637-1.319-1.319-3.171-1.514-5.412c-0.045-0.427-0.06-0.877-0.06-1.334c0,0,0.008-1.162,0.292-2.526
					c0.255-1.237,0.742-2.653,1.672-3.523c0.247-0.232,0.539-0.33,0.539-0.33c0.121-0.037,0.256-0.053,0.39-0.053h3.403
					c0.24,0.053,0.584,0.157,0.929,0.382c1.05,0.69,1.439,2.031,1.56,3.479C347.887,203.455,347.849,204.49,347.818,205.405z"/>
			</g>
			<g>
				<rect x="342.37" y="194.938" fill="#3169AF" width="2.483" height="5.333"/>
			</g>
			<g>
				<path fill="#FCDDD2" d="M347.818,205.405c-0.015,0.292-0.03,0.614-0.053,0.959c-0.997,0.495-2.496,1.026-4.37,1.026
					c-1.836,0-3.321-0.509-4.318-1.004c-0.045-0.427-0.06-0.877-0.06-1.334c0,0,0.008-1.162,0.292-2.526
					c1.747,0.742,2.654,0.652,3.141,0.284c0.51-0.382,0.6-1.117,1.101-1.162c0.57-0.045,0.803,0.863,1.537,1.237
					c0.48,0.247,1.281,0.322,2.714-0.405C347.887,203.455,347.849,204.49,347.818,205.405z"/>
			</g>
		</g>
		<g>
			<rect x="266.939" y="211.978" fill="#32539E" width="169.127" height="3.055"/>
		</g>
		<g>
			<g>
				<path fill="#FB6D75" d="M339.007,250.635c0,0,3.443,6.256,5.726,6.311c2.283,0.054,16.852-14.099,16.852-14.099l3.775,0.089
					l0.997-4.984c0,0-1.463-1.265-2.085-1.016c-0.62,0.249-3.556,1.761-4.291,3.149l-13.13,9.019l-1.686-3.043L339.007,250.635z"/>
			</g>
			<g>
				<path fill="#FB6D75" d="M300.461,244.41c0,0-4.586,5.86-4.699,6.454c-0.111,0.594,1.678,3.838,4.699,1.937
					c3.02-1.902,5.593-5.481,5.593-5.481L300.461,244.41z"/>
			</g>
			<g>
				<path fill="#FCDDD2" d="M329.027,228.08c0,0,8.796,3.579,9.131,3.915c0.336,0.335,1.455,40.381,1.455,40.381l-29.756,1.273
					c0,0,1.454-41.87,2.126-42.545c0.67-0.675,8.297-3.024,8.297-3.024H329.027z"/>
			</g>
			<g>
				<path fill="#FCDDD2" d="M338.158,231.995c2.326,2.93,3.873,5.55,4.892,7.509c1.155,2.219,3.196,6.79,3.196,6.79l0,0
					c-2.173,2.157-4.348,4.314-6.522,6.472c-2.404-1.76-4.808-3.519-7.212-5.278C334.395,242.323,336.277,237.159,338.158,231.995z"
					/>
			</g>
			<g>
				<path fill="#FCDDD2" d="M311.983,231.104c-0.996,0.537-2.482,1.419-4.115,2.728c-5.474,4.386-8.973,10.691-8.973,10.691l0,0
					l7.942,5.481l4.1-3.469L311.983,231.104z"/>
			</g>
			<g>
				<path fill="#030303" d="M310.267,262.597c0,0,7.449-10.843,5.368-33.004l2.467-0.821v12.864l13.855,0.314v-12.667l1.984,0.826
					c0,0-0.092,31.667,5.388,32.487l0.284,12.925l-29.756,0.492L310.267,262.597z"/>
			</g>
			<g>
				<path fill="#FB6D75" d="M321.268,219.69c-0.33,2.796-0.659,5.593-0.987,8.39c0.729,1.901,2.587,3.121,4.566,3.02
					c1.816-0.093,3.428-1.282,4.089-3.02c-0.281-2.797-0.563-5.594-0.844-8.39H321.268z"/>
			</g>
			<g>
				<path fill="#FB6D75" d="M301.532,249.91c0,0,1.119,2.384-1.901,3.614c-3.02,1.23-18.905,4.475-18.905,4.475
					s-2.796,0.782-5.593-1.119c0,0-3.58,0.543-5.48,1.278c-1.903,0.735-0.494-0.91-0.494-0.91s4.073-2.058,4.519-2.186
					s6.514,0.382,6.514,0.382l13.599-6.114C293.791,249.33,299.81,246.075,301.532,249.91z"/>
			</g>
			<g>
				<g>
					<path fill="#030303" d="M330.654,207.691c0.012-0.172,0.019-0.357-0.077-0.502c-0.08-0.122-0.219-0.189-0.354-0.243
						c-0.753-0.294-1.583-0.296-2.391-0.286c-3.566,0.043-7.171,0.237-10.588,1.257c-0.358,0.107-0.729,0.233-0.982,0.508
						c-0.412,0.447-0.384,1.132-0.332,1.737c0.064,0.728,0.128,1.456,0.191,2.183c0.073,0.83,0.148,1.671,0.435,2.452
						c0.287,0.782,0.816,1.512,1.575,1.855c0.744,0.338,1.601,0.269,2.415,0.197c1.21-0.104,2.422-0.199,3.633-0.281
						c1.223-0.084,2.446-0.155,3.669-0.215c0.607-0.03,1.222-0.027,1.827-0.082c0.434-0.04,0.445-0.402,0.469-0.763
						c0.08-1.227,0.16-2.452,0.24-3.678c0.08-1.227,0.16-2.453,0.24-3.679C330.634,207.998,330.644,207.846,330.654,207.691z"/>
				</g>
				<g>
					<circle fill="#FB6D75" cx="324.359" cy="215.165" r="6.553"/>
				</g>
				<g>
					<path fill="#030303" d="M329.14,215.06c-0.015-0.071-0.041-0.134-0.076-0.186c-0.033-0.058-0.073-0.097-0.118-0.12
						c-0.043-0.036-0.09-0.053-0.141-0.049c-0.033,0.007-0.065,0.014-0.097,0.02c-0.062,0.028-0.116,0.077-0.161,0.149
						c-0.019,0.039-0.039,0.078-0.058,0.117c-0.032,0.09-0.049,0.188-0.05,0.292v0.085c-0.001,0.08,0.008,0.154,0.032,0.224
						c0.014,0.071,0.04,0.134,0.075,0.186c0.032,0.057,0.072,0.097,0.117,0.119c0.044,0.037,0.09,0.054,0.141,0.051
						c0.033-0.008,0.065-0.014,0.097-0.021c0.062-0.027,0.115-0.076,0.161-0.148c0.019-0.039,0.039-0.079,0.057-0.117
						c0.033-0.09,0.049-0.187,0.05-0.292v-0.085C329.173,215.203,329.162,215.13,329.14,215.06z"/>
				</g>
				<g>
					<path fill="#030303" d="M324.284,215.004c-0.47,0-0.471,1.156,0,1.156C324.753,216.16,324.755,215.004,324.284,215.004z"/>
				</g>
				<g>
					<path fill="#030303" d="M325.152,213.426l0.086,0.808l-2.89,0.641c-0.057-0.291-0.114-0.581-0.171-0.872
						C323.169,213.81,324.161,213.618,325.152,213.426z"/>
				</g>
				<g>
					<path fill="#030303" d="M330.215,213.479l-0.123,0.802l-2.958-0.124c0.02-0.295,0.041-0.591,0.06-0.887
						C328.201,213.34,329.209,213.409,330.215,213.479z"/>
				</g>
				<g>
					<circle fill="#FB6D75" cx="317.444" cy="215.346" r="2.188"/>
				</g>
				<g>
					<path fill="#030303" d="M316.879,216.14c-0.043,0-0.088-0.016-0.124-0.047c-0.077-0.068-0.086-0.187-0.017-0.265l0.511-0.582
						c-0.257-0.072-0.509-0.169-0.749-0.287c-0.094-0.045-0.132-0.157-0.086-0.251c0.044-0.092,0.157-0.131,0.25-0.085
						c0.309,0.15,0.635,0.262,0.969,0.331c0.065,0.015,0.119,0.062,0.14,0.125c0.021,0.063,0.007,0.133-0.038,0.182l-0.715,0.813
						C316.982,216.118,316.932,216.14,316.879,216.14z"/>
				</g>
				<g>
					<path fill="#030303" d="M318.663,214.865c0.158-0.212,0.314-0.424,0.472-0.636c-0.083-0.377-0.242-1.345,0.24-2.363
						c0.125-0.262,0.706-1.489,1.783-1.66c0.382-0.061,0.721,0.044,1.401,0.252c0.736,0.226,1.139,0.456,1.487,0.608
						c1.22,0.536,2.999,0.651,4.363-0.123c0.301-0.171,0.736-0.473,1.161-1.008c-0.617-0.821-1.314-1.661-2.286-1.998
						c-0.522-0.181-1.087-0.2-1.64-0.2c-0.823,0.002-1.646,0.042-2.465,0.122c-1.296,0.127-2.624,0.369-3.718,1.076
						c-0.698,0.452-1.277,1.12-1.571,1.902c-0.145,0.386-0.215,0.801-0.187,1.214c0.007,0.094,0.008,0.208,0.053,0.293
						c0.043,0.082,0.073,0.099,0.087,0.188c0.039,0.239,0.117,0.474,0.191,0.706C318.211,213.794,318.421,214.336,318.663,214.865z"
						/>
				</g>
				<g>
					<path fill="#030303" d="M318.2,219.264c-0.04,0.183-0.083,0.374-0.036,0.556c0.029,0.113,0.111,0.306,0.372,0.508
						c1.693,1.311,4.467,2.381,4.467,2.381c2.705,0.597,3.865,1.035,3.932,0.901c0.109-0.219,0.458-0.698,0.2-0.977
						c0.865,0.223,1.172,0.128,2.036,0.351c-0.127-0.366-0.09-0.768-0.218-1.135c0.103,0.063,0.281,0,1.027-0.379
						c0.536-0.272,0.416-0.849,0.579-1.431c0.14-0.496,0.322-1.461-0.012-2.73c-0.2,0.331-1.751,2.779-4.658,3.099
						c-3.22,0.354-5.711-2.171-6.124-3.278c-0.09-0.245-0.141-0.415-0.141-0.415c-0.141-0.758-0.281-1.516-0.421-2.271
						c-0.037-0.197-0.308-0.837-0.553-0.457c-0.099,0.154-0.039,0.388-0.032,0.56c0.009,0.218,0.013,0.436,0.014,0.653
						c0.004,0.88-0.055,1.762-0.176,2.634C318.391,218.313,318.306,218.79,318.2,219.264z"/>
				</g>
				<g>
					<path fill="#030303" d="M326.51,217.912c-0.135,0-0.313-0.059-0.4-0.191c-0.057-0.086-0.065-0.188-0.02-0.282
						c0.042-0.094,0.155-0.135,0.248-0.091c0.071,0.033,0.111,0.104,0.108,0.176c0.02,0.008,0.045,0.014,0.066,0.014
						c0.318-0.012,0.618-0.163,0.783-0.396c0.171-0.241,0.188-0.581,0.041-0.809c-0.148-0.229-0.477-0.333-0.706-0.221
						c-0.093,0.046-0.204,0.009-0.251-0.086c-0.045-0.093-0.007-0.205,0.086-0.251c0.402-0.196,0.936-0.037,1.185,0.354
						c0.23,0.356,0.21,0.861-0.048,1.228c-0.234,0.331-0.637,0.538-1.076,0.554C326.52,217.912,326.514,217.912,326.51,217.912z"/>
				</g>
			</g>
			<g>
				<path fill="#030303" d="M321.406,218.944c0.344,0.226,0.708,0.189,1.402,0.12c1.092-0.109,1.305-0.58,2.483-0.762
					c0.318-0.048,0.86-0.127,1.522,0c1.18,0.229,1.474,0.868,2.123,0.801c0.396-0.041,0.936-0.346,1.501-1.591
					c-0.105,1.406-1.083,2.663-2.339,3.302c-1.257,0.64-2.75,0.711-4.127,0.404c-0.825-0.184-1.626-0.501-2.312-0.997
					c-0.563-0.406-1.041-0.932-1.393-1.529c-0.366-0.621-0.595-1.313-0.82-1.996c-0.09-0.276-0.181-0.553-0.272-0.828
					c-0.045-0.138-0.091-0.275-0.136-0.414c-0.019-0.056-0.087-0.167,0-0.191c0.162-0.045,0.311,0.208,0.389,0.3
					c0.235,0.281,0.389,0.339,0.52,0.47C320.564,216.647,320.538,218.375,321.406,218.944z"/>
			</g>
			<g>
				<path fill="#FFFFFF" d="M324.949,219.217c0.468-0.161,1.41,0.121,1.714,0.108c0.251-0.011,0.634-0.209,0.852-0.071
					c0.041,0.024,0.068,0.063,0.09,0.1c0.126,0.226,0.042,0.473-0.213,0.637c-0.183,0.117-0.413,0.175-0.641,0.202
					c-0.369,0.045-0.748,0.018-1.089-0.08c-0.321-0.091-0.717-0.271-0.893-0.508C324.652,219.446,324.733,219.292,324.949,219.217z"
					/>
			</g>
			<g>
				<g>
					<path fill="#3169AF" d="M368.924,232.526l-2.839-1.4l0.842-1.707c0.112-0.229,0.391-0.323,0.619-0.211l2.011,0.991
						c0.229,0.112,0.322,0.391,0.21,0.619L368.924,232.526z"/>
				</g>
				<g opacity="0.37">
					<path fill="#3169AF" d="M366.803,229.671l-0.718,1.455l2.839,1.399l0.347-0.702
						C368.567,231.004,367.833,230.052,366.803,229.671z"/>
				</g>
				<g>
					<path fill="#3169AF" d="M363.48,245.759l-4.57-2.251c0.482-1.606,0.848-2.896,1.075-3.718c0.907-3.271,1.187-4.644,2.348-6.198
						c0.483-0.647,0.96-1.111,1.271-1.393c1.994,0.982,3.988,1.965,5.982,2.948c-0.072,0.495-0.221,1.3-0.552,2.243
						c-0.526,1.496-1.209,2.472-3.386,5.431C364.717,244.092,363.957,245.118,363.48,245.759z"/>
				</g>
				<g opacity="0.37">
					<path fill="#3169AF" d="M369.587,235.146c-1.994-0.982-3.988-1.965-5.982-2.947c-0.128,0.115-0.288,0.27-0.461,0.446
						c1.757,2.216,3.882,2.709,6.269,3.437C369.497,235.71,369.552,235.391,369.587,235.146z"/>
				</g>
				<g>
					<path fill="#3169AF" d="M367.924,231.022c-0.479-0.238-1.59-0.792-2.605-0.32c-0.238,0.111-0.413,0.251-0.524,0.355
						l-0.964,1.252l5.531,2.726l0.405-1.526c0.015-0.151,0.02-0.376-0.038-0.635C369.486,231.802,368.406,231.263,367.924,231.022z"
						/>
				</g>
				<g opacity="0.37">
					<path fill="#3169AF" d="M364.347,231.638l-0.517,0.672l5.531,2.726l0.277-1.046
						C367.822,233.272,366.282,232.199,364.347,231.638z"/>
				</g>
				<g>
					<path fill="#3169AF" d="M369.564,235.714l-6.46-3.183c-0.168-0.082-0.236-0.284-0.154-0.452l0.144-0.291
						c0.082-0.166,0.283-0.235,0.451-0.153l6.461,3.184c0.168,0.083,0.235,0.284,0.153,0.451l-0.143,0.292
						C369.934,235.729,369.731,235.797,369.564,235.714z"/>
				</g>
				<g opacity="0.3">
					<path fill="#FFFFFF" d="M363.232,233.929c-0.092-0.038-0.651,1.02-1.075,2.055c-0.858,2.102-1.173,4.143-1.044,4.179
						c0.098,0.027,0.502-1.166,1.313-3.551C362.958,235.046,363.322,233.966,363.232,233.929z"/>
				</g>
			</g>
			<g>
				<g>
					<path fill="#FB6D75" d="M364.156,237.575c0.662-0.223,1.355,0.092,2.003,0.221c0.539,0.107,1.147,0.114,1.626,0.436
						c0.323,0.218,0.979,1.098,0.337,1.351c-0.317,0.125-0.937-0.107-1.243-0.182c-0.571-0.137-1.131-0.326-1.705-0.451
						c-0.436-0.095-1.519-0.298-1.361-1.008C363.854,237.748,363.98,237.635,364.156,237.575z"/>
				</g>
				<g>
					<path fill="#FB6D75" d="M364.125,238.924c0.661-0.224,1.354,0.091,2.002,0.219c0.539,0.108,1.147,0.115,1.625,0.437
						c0.323,0.218,0.979,1.098,0.337,1.351c-0.315,0.125-0.937-0.108-1.242-0.182c-0.571-0.138-1.131-0.326-1.705-0.451
						c-0.435-0.095-1.519-0.298-1.361-1.008C363.823,239.096,363.949,238.983,364.125,238.924z"/>
				</g>
				<g>
					<path fill="#FB6D75" d="M363.857,240.237c0.66-0.208,1.354,0.086,2.002,0.208c0.539,0.101,1.147,0.108,1.627,0.41
						c0.322,0.202,0.979,1.024,0.338,1.26c-0.315,0.116-0.936-0.103-1.242-0.172c-0.572-0.129-1.132-0.306-1.705-0.423
						c-0.437-0.089-1.52-0.281-1.363-0.943C363.556,240.396,363.682,240.292,363.857,240.237z"/>
				</g>
				<g>
					<path fill="#FB6D75" d="M364.05,241.625c0.526-0.271,1.135-0.047,1.687,0.012c0.46,0.048,0.966-0.003,1.396,0.25
						c0.291,0.172,0.925,0.925,0.417,1.221c-0.25,0.146-0.789-0.012-1.052-0.051c-0.489-0.072-0.973-0.194-1.464-0.256
						c-0.372-0.046-1.293-0.132-1.234-0.806C363.814,241.813,363.908,241.696,364.05,241.625z"/>
				</g>
			</g>
			<g>
				<path fill="#3169AF" d="M370.408,237.232c-0.068,0-0.136-0.038-0.168-0.104c-0.045-0.093-0.008-0.206,0.086-0.251
					c0.246-0.122,1.074-0.599,1.425-1.618c0.368-1.073-0.045-1.991-0.181-2.247c-0.049-0.092-0.014-0.205,0.077-0.253
					c0.091-0.049,0.206-0.014,0.253,0.077c0.155,0.29,0.622,1.329,0.205,2.545c-0.386,1.124-1.257,1.655-1.614,1.832
					C370.465,237.227,370.437,237.232,370.408,237.232z"/>
			</g>
			<g>
				<path fill="#3169AF" d="M370.683,240.055c-0.074,0-0.144-0.044-0.173-0.116c-0.039-0.097,0.006-0.205,0.103-0.245
					c0.519-0.214,2.273-1.07,3.052-3.128c0.865-2.292-0.171-4.3-0.387-4.678c-0.051-0.091-0.021-0.205,0.069-0.256
					c0.09-0.052,0.204-0.021,0.256,0.069c0.23,0.405,1.336,2.548,0.411,4.998c-0.831,2.198-2.704,3.113-3.261,3.342
					C370.731,240.05,370.707,240.055,370.683,240.055z"/>
			</g>
			<g>
				<path fill="#3169AF" d="M358.717,237.883c-0.076,0-0.148-0.047-0.176-0.123c-0.139-0.373-0.407-1.36,0.082-2.439
					c0.531-1.174,1.584-1.607,1.894-1.711c0.101-0.033,0.205,0.019,0.238,0.116c0.033,0.099-0.02,0.204-0.117,0.237
					c-0.274,0.094-1.203,0.476-1.674,1.512c-0.431,0.953-0.193,1.825-0.073,2.155c0.037,0.097-0.013,0.204-0.11,0.24
					C358.761,237.878,358.738,237.883,358.717,237.883z"/>
			</g>
			<g>
				<path fill="#3169AF" d="M356.58,239.747c-0.07,0-0.139-0.041-0.169-0.11c-0.247-0.548-0.981-2.503-0.079-4.667
					c1.008-2.422,3.281-3.22,3.727-3.354c0.096-0.028,0.204,0.026,0.234,0.125c0.029,0.101-0.025,0.203-0.125,0.233
					c-0.417,0.128-2.548,0.873-3.49,3.14c-0.845,2.026-0.156,3.857,0.074,4.369c0.042,0.095,0.001,0.206-0.095,0.249
					C356.633,239.741,356.605,239.747,356.58,239.747z"/>
			</g>
		</g>
		<g>
			<rect x="272.508" y="257.778" fill="#3169AF" width="157.989" height="85.716"/>
		</g>
		<g>
			<rect x="266.939" y="257.778" fill="#203C75" width="169.127" height="8.793"/>
		</g>
		<g>
			<rect x="266.939" y="257.456" fill="#FEAF51" width="169.127" height="2.782"/>
		</g>
		<g>
			<g>
				<rect x="400.672" y="327.987" fill="#4F83C8" width="10.646" height="3.675"/>
			</g>
			<g>
				<rect x="405.76" y="332.863" fill="#4F83C8" width="10.645" height="3.675"/>
			</g>
			<g>
				<rect x="412.416" y="328.078" fill="#4F83C8" width="10.646" height="3.676"/>
			</g>
		</g>
		<g>
			<g>
				<rect x="405.075" y="284.412" fill="#9DC6F4" width="4.609" height="59.753"/>
			</g>
			<g>
				<path fill="#FEAF51" d="M424.276,289.588h-33.793v-4.346c0-1.452,1.178-2.63,2.63-2.63h28.534c1.452,0,2.629,1.178,2.629,2.63
					V289.588L424.276,289.588z"/>
			</g>
			<g>
				<ellipse fill="#9DC6F4" cx="407.381" cy="346.618" rx="13.415" ry="4.947"/>
			</g>
			<g>
				<rect x="393.884" y="314.289" fill="#9DC6F4" width="26.994" height="2.218"/>
			</g>
		</g>
		<g>
			<g>
				<rect x="376.429" y="246.438" fill="#3169AF" width="1.157" height="10.292"/>
			</g>
			<g>
				<path fill="#3169AF" d="M379.749,256.73h-5.483c-0.54,0-0.979,0.438-0.979,0.979v0.471h7.442v-0.471
					C380.729,257.169,380.29,256.73,379.749,256.73z"/>
			</g>
			<g>
				<path fill="#3169AF" d="M383.801,242.29h-13.587l5.545,3.991c0.315,0.227,0.687,0.347,1.067,0.347h0.361
					c0.382,0,0.754-0.12,1.067-0.347L383.801,242.29z"/>
			</g>
			<g>
				<path fill="#FEAF51" d="M372.612,243.312c0,0,2.983,2.445,4.336,2.447s4.381-2.447,4.381-2.447H372.612z"/>
			</g>
			<g>
				<path fill="#32539E" d="M382.303,242.29h-2.614c0,0,0.714-3.221,3.089-2.672c2.375,0.548,2.426,4.716,1.023,4.841
					c-1.403,0.126-1.589-0.211-1.589-0.211L382.303,242.29z"/>
			</g>
			<g>
				<path fill="#3169AF" d="M382.777,239.618c-2.375-0.549-3.089,2.672-3.089,2.672h0.487c0.014-0.124,0.127-1.033,0.965-1.593
					c0.84-0.561,1.726-0.313,1.844-0.276c0.233,0.138,0.902,0.576,1.183,1.423c0.027,0.078,0.502,1.575-0.352,2.163
					c-0.633,0.437-1.513,0.037-1.592,0l-0.012,0.241c0,0,0.187,0.337,1.59,0.211C385.204,244.334,385.152,240.166,382.777,239.618z"
					/>
			</g>
			<g>
				<path fill="#FEAF51" d="M382.257,242.476c-0.055,0-0.107-0.023-0.144-0.07l-0.005-0.007c-0.09-0.113-0.174-0.222-0.272-0.313
					c-0.053-0.05-0.112-0.096-0.17-0.142c-0.043-0.033-0.083-0.066-0.124-0.1c-0.136-0.114-0.257-0.243-0.362-0.382
					c-0.063-0.083-0.045-0.2,0.037-0.263s0.199-0.047,0.262,0.036c0.09,0.117,0.192,0.226,0.305,0.321
					c0.038,0.031,0.076,0.063,0.114,0.093c0.066,0.052,0.133,0.104,0.194,0.162c0.12,0.111,0.217,0.236,0.313,0.356
					c0.063,0.081,0.051,0.203-0.029,0.266C382.338,242.462,382.297,242.476,382.257,242.476z"/>
			</g>
			<g>
				<path fill="#FEAF51" d="M382.452,242.42c-0.051,0-0.1-0.02-0.136-0.06c-0.071-0.076-0.066-0.194,0.01-0.265l0.918-0.854
					c0.077-0.07,0.194-0.065,0.264,0.01c0.071,0.075,0.066,0.194-0.009,0.265l-0.919,0.854
					C382.544,242.403,382.497,242.42,382.452,242.42z"/>
			</g>
			<g>
				<path fill="#FEAF51" d="M383.707,242.598c-0.002,0-0.002,0-0.003,0l-1.255-0.023c-0.104-0.002-0.186-0.087-0.184-0.19
					c0.002-0.104,0.105-0.173,0.19-0.184l1.255,0.023c0.104,0.002,0.186,0.088,0.184,0.191
					C383.893,242.518,383.809,242.598,383.707,242.598z"/>
			</g>
			<g>
				<path fill="#FEAF51" d="M382.32,242.389c-0.102,0-0.185-0.082-0.188-0.184l-0.024-1.255c-0.002-0.104,0.082-0.189,0.184-0.19
					c0.001,0,0.002,0,0.005,0c0.101,0,0.186,0.081,0.187,0.184l0.025,1.254c0.002,0.104-0.081,0.189-0.185,0.191
					C382.323,242.389,382.323,242.389,382.32,242.389z"/>
			</g>
			<g>
				<path fill="#FEAF51" d="M383.261,243.75c-0.065,0-0.13-0.035-0.164-0.099c-0.212-0.388-0.503-0.744-0.841-1.029
					c-0.079-0.067-0.09-0.186-0.022-0.264c0.066-0.08,0.185-0.09,0.264-0.023c0.378,0.32,0.689,0.702,0.928,1.138
					c0.05,0.091,0.017,0.205-0.074,0.254C383.322,243.742,383.292,243.75,383.261,243.75z"/>
			</g>
		</g>
		<g>
			<g>
				<rect x="277.055" y="269.876" fill="#32539E" width="10.646" height="3.676"/>
			</g>
			<g>
				<rect x="282.143" y="274.752" fill="#4F83C8" width="10.645" height="3.676"/>
			</g>
			<g>
				<rect x="288.8" y="269.968" fill="#4F83C8" width="10.646" height="3.676"/>
			</g>
		</g>
		<g>
			<g>
				<rect x="312.737" y="299.951" fill="#4F83C8" width="10.645" height="3.675"/>
			</g>
			<g>
				<rect x="317.824" y="304.827" fill="#4F83C8" width="10.646" height="3.676"/>
			</g>
			<g>
				<rect x="324.48" y="300.042" fill="#4F83C8" width="10.645" height="3.675"/>
			</g>
		</g>
		<g>
			<g>
				<rect x="341.746" y="275.353" fill="#32539E" width="10.646" height="3.676"/>
			</g>
			<g>
				<rect x="348.403" y="270.568" fill="#4F83C8" width="10.646" height="3.676"/>
			</g>
		</g>
		<path opacity="0.29" fill="#3169AF" enable-background="new    " d="M272.508,266.572c25.975,9.698,40.954,9.755,47.847,9.15
			c1.645-0.145,6.9-0.685,13.065-1.479c14.249-1.834,18.511-3.113,23.487-3.676c19.024-2.152,24.269,8.891,41.648,8.856
			c7.299-0.015,18.317-1.985,31.941-12.422L272.508,266.572z"/>
		<g>
			<g>
				<rect x="333.42" y="284.412" fill="#9DC6F4" width="4.611" height="59.753"/>
			</g>
			<g>
				<path fill="#FEAF51" d="M352.622,289.588h-33.794v-4.346c0-1.452,1.178-2.63,2.63-2.63h28.534c1.453,0,2.63,1.178,2.63,2.63
					V289.588L352.622,289.588z"/>
			</g>
			<g>
				<ellipse fill="#9DC6F4" cx="335.726" cy="346.618" rx="13.417" ry="4.947"/>
			</g>
			<g>
				<rect x="322.229" y="314.289" fill="#9DC6F4" width="26.994" height="2.218"/>
			</g>
		</g>
		<g>
			<g>
				<path fill="#FB6D75" d="M373.023,257.128c-0.563,0.356-4.235,2.668-4.628,3.523s-1.1,2.851-0.766,3.291
					c0.335,0.441,2.255,2.732,2.568,2.627c0.313-0.106,0.493-0.412,0.427-0.625c-0.067-0.212-1.614-2.396-1.614-2.472
					c-0.002-0.074,0.685-2.21,0.828-2.318c0.143-0.108,1.573-0.351,1.817-0.028c0.244,0.32-0.064,1.794-0.162,1.887
					c-0.016,0.016-0.053,0.056-0.097,0.105c-0.237,0.269-0.792,0.96-0.686,1.164c0.128,0.24,0.745,0.635,1.315,0.297
					c0.131-0.078,0.283-0.229,0.439-0.409c0.521-0.603,1.089-1.594,1.107-1.779c0.022-0.242,0.679-2.393,0.679-2.393
					s1.113-0.046,2.806-0.13c-0.499-1.064-0.838-2.254-1.158-3.441C374.302,256.769,373.168,257.034,373.023,257.128z"/>
			</g>
			<g>
				<path fill="#FCDDD2" d="M397.391,252.964c-0.711-4.389-1.421-8.776-2.132-13.165c-2.151,4.682-4.305,9.362-6.457,14.043
					c-1.201,0.231-8.681,1.679-12.902,2.584c0.321,1.188,0.659,2.377,1.158,3.441c5.176-0.258,15.797-0.866,16.801-1.577
					c0.576-0.409,0.903-0.966,1.098-1.5c-0.009-0.004-0.017-0.008-0.025-0.011C395.75,255.508,396.57,254.235,397.391,252.964z"/>
			</g>
			<g>
				<path fill="#FB6D75" d="M412.491,261.228l-8.618,0.196l0.247,5.708c0,0-29.02,12.624-30.167,13.444
					c-1.148,0.818-2.706,1.803-2.952,5.246c-0.246,3.441,17.542,19.509,17.543,19.51l0,0l6.318,6.349c0,0,5.897,5.961,8.371,8.407
					c0.751-4.367-2.783-9.505-5.74-13.126c-0.214,0.21-0.334,0.364-0.334,0.364l-4.188-5.848l0,0l-9.51-13.771
					c0,0,19.266-4.755,21.068-5.246c1.804-0.491,10.575-0.82,12.379-6.229C418.712,270.82,412.491,261.228,412.491,261.228z"/>
			</g>
			<g>
				<path fill="#203C75" d="M392.972,301.479L392.972,301.479l-4.572-6.623c-1.293,2.435-2.315,4.98-2.922,7.638
					c1.822,1.712,3.067,2.838,3.067,2.838l0,0l5.681,5.708c0.237-2.234,0.593-4.468,0.754-6.758L392.972,301.479z"/>
			</g>
			<g>
				<path fill="#030303" d="M395.719,226.714c-0.374-1.39-0.912-1.709-1.44-2.984c-0.145-0.351-1.171-2.926-0.331-5.634
					c0.971-3.127,4.009-5.078,6.663-5.553c1.493-0.269,2.716-0.042,3.47,0.104c1.07,0.208,3.42,0.665,5.129,2.544
					c2.152,2.369,2.089,5.678,2.068,6.728c-0.03,1.556-0.383,2.261-0.237,4.376c0.141,2.045,0.534,2.333,0.367,3.023
					c-0.893,3.654-14.158,4.747-15.558,1.455C395.429,229.779,396.303,228.893,395.719,226.714z"/>
			</g>
			<g>
				<path fill="#FCDDD2" d="M408.252,232.939c0,0,5.805,3.133,6.356,4.055c0.554,0.922,0.646,13.545-0.46,17.229
					c-1.106,3.687,1.621,9.164,1.621,9.164c-2.878,0.621-9.791-1.06-13.975-1.219c-2.015-0.077-2.316-0.058-3.974-0.339
					c-0.606-1.929-1.438-4.736-2.279-8.174c-1.03-4.218-1.546-6.327-1.558-8.142c-0.015-2.09,0.479-6.836,6.158-12.575H408.252
					L408.252,232.939z"/>
			</g>
			<g>
				<path fill="#203C75" d="M395.58,254.584c-0.073-0.29-0.146-0.583-0.22-0.883c-1.033-4.227-1.551-6.349-1.563-8.185
					c-0.006-0.981,0.102-1.945,0.329-2.944l0.367,0.083c-0.223,0.972-0.327,1.907-0.321,2.859c0.013,1.792,0.527,3.899,1.554,8.098
					c0.072,0.298,0.144,0.591,0.218,0.88L395.58,254.584z"/>
			</g>
			<g>
				<path fill="#203C75" d="M401.132,306.082c-1.572-0.858-3.011,0.26-3.639,0.88c2.958,3.622,6.491,8.76,5.741,13.126
					c0.58,0.576,0.973,0.957,1.056,1.021c0.431,0.336,2.153,0.239,2.632-0.623C407.4,319.625,401.132,306.082,401.132,306.082z"/>
			</g>
			<g>
				<path fill="#FB6D75" d="M393.123,284.283c-4.996,6.929-5.126,8.659-7.093,11.038c-0.22,0.266-0.852,1.01-1.212,2.165
					c-0.277,0.888-0.289,1.672-0.26,2.166c-0.952,4.444-1.855,9.03-2.696,13.751c-0.55,3.081-1.053,6.115-1.515,9.1l-1.744,8.786
					c0,0-1.665,8.217-2.313,11.633c4.043-1.809,6.336-7.604,7.697-12.078c-0.296-0.066-0.49-0.08-0.49-0.08l2.516-6.732
					l5.751-14.601c1.207-3.636,2.413-7.271,3.619-10.905c2.554-1.456,5.372-3.273,8.294-5.534c2.296-1.777,4.301-3.553,6.035-5.237
					c-1.9-0.609-4.023-1.418-6.273-2.503c-3.047-1.471-5.579-3.088-7.608-4.578C394.691,282.136,393.774,283.381,393.123,284.283z"
					/>
			</g>
			<g>
				<path fill="#203C75" d="M386.744,333.369c-0.164-1.784-1.895-2.354-2.76-2.53c-1.356,4.476-3.652,10.272-7.695,12.084
					c-0.153,0.803-0.251,1.342-0.259,1.446c-0.038,0.544,1.002,1.921,1.984,1.837C378.997,346.124,386.744,333.369,386.744,333.369z
					"/>
			</g>
			<g>
				<path fill="#FB6D75" d="M400.143,224.831v8.661c0,0,1.566,2.672,4.516,2.304s3.594-2.856,3.594-2.856l-2.119-10.136
					L400.143,224.831z"/>
			</g>
			<g>
				<path fill="#030303" d="M400.143,230.208v-5.377l5.989-2.027l0.38,1.815C405.184,227.613,402.907,229.092,400.143,230.208z"/>
			</g>
			<g>
				<ellipse fill="#FB6D75" cx="400.74" cy="221.315" rx="5.959" ry="6.639"/>
			</g>
			<g>
				<path fill="#030303" d="M396.685,221.589c0.015-0.072,0.04-0.136,0.076-0.188c0.034-0.059,0.073-0.099,0.119-0.122
					c0.044-0.037,0.093-0.053,0.143-0.051c0.033,0.007,0.064,0.015,0.099,0.021c0.063,0.027,0.117,0.078,0.163,0.151
					c0.02,0.039,0.039,0.078,0.058,0.118c0.034,0.091,0.05,0.189,0.05,0.295v0.087c0.003,0.082-0.007,0.156-0.03,0.226
					c-0.015,0.073-0.041,0.137-0.077,0.189c-0.033,0.057-0.073,0.097-0.119,0.12c-0.044,0.037-0.091,0.054-0.142,0.052
					c-0.033-0.008-0.065-0.015-0.099-0.021c-0.063-0.027-0.118-0.078-0.164-0.15c-0.019-0.04-0.038-0.079-0.058-0.118
					c-0.033-0.092-0.05-0.19-0.05-0.297v-0.086C396.651,221.734,396.662,221.659,396.685,221.589z"/>
			</g>
			<g>
				<path fill="#030303" d="M401.376,221.208c0.477,0,0.477,1.172,0,1.172C400.9,222.38,400.899,221.208,401.376,221.208z"/>
			</g>
			<g>
				<path fill="#030303" d="M400.568,219.902l-0.154,0.545l2.854,0.791c0.081-0.193,0.163-0.388,0.244-0.58
					C402.53,220.405,401.549,220.153,400.568,219.902z"/>
			</g>
			<g>
				<path fill="#030303" d="M395.35,220.295l0.189,0.539l2.966-0.436c-0.044-0.202-0.088-0.403-0.132-0.604
					C397.365,219.961,396.357,220.128,395.35,220.295z"/>
			</g>
			<g>
				<circle fill="#FB6D75" cx="407.066" cy="221.499" r="2.217"/>
			</g>
			<g>
				<path fill="#030303" d="M407.638,222.3c-0.051,0-0.104-0.021-0.14-0.063l-0.725-0.824c-0.045-0.05-0.06-0.119-0.038-0.183
					c0.021-0.063,0.075-0.111,0.14-0.125c0.34-0.071,0.672-0.185,0.982-0.336c0.091-0.046,0.204-0.008,0.25,0.086
					c0.045,0.093,0.007,0.204-0.086,0.25c-0.246,0.12-0.5,0.218-0.764,0.291l0.521,0.593c0.067,0.078,0.061,0.196-0.017,0.265
					C407.726,222.285,407.683,222.3,407.638,222.3z"/>
			</g>
			<g>
				<path fill="#030303" d="M399.185,223.963c-0.23,0-0.445-0.091-0.597-0.254c-0.303-0.328-0.293-0.892,0.023-1.232
					c0.066-0.07,0.143-0.13,0.219-0.189c0.056-0.043,0.113-0.086,0.163-0.137c0.068-0.069,0.121-0.175,0.092-0.241
					c-0.043-0.094-0.002-0.206,0.093-0.248c0.091-0.043,0.205-0.002,0.248,0.093c0.092,0.202,0.027,0.462-0.165,0.658
					c-0.063,0.063-0.132,0.118-0.202,0.172c-0.06,0.046-0.121,0.093-0.173,0.148c-0.184,0.198-0.193,0.535-0.021,0.722
					c0.083,0.092,0.215,0.145,0.345,0.133c0.137-0.007,0.257-0.067,0.334-0.166c0.063-0.083,0.179-0.098,0.262-0.037
					c0.082,0.063,0.099,0.18,0.037,0.263c-0.143,0.188-0.366,0.303-0.613,0.315C399.213,223.962,399.199,223.963,399.185,223.963z"
					/>
			</g>
			<g>
				<path fill="#030303" d="M414.279,283.758c-1.367,1.239-1.827,1.608-3.961,3.468c-3.898,3.4-6.822,6.355-8.672,8.308
					c-3.484-1.696-7.491-3.959-11.688-6.979c-4.795-3.449-8.6-6.994-11.524-10.102c4.864-2.925,8.938-4.864,11.849-6.124
					c3.59-1.555,7.451-2.303,7.11-4.909c-0.151-1.153,0.428-5.59,0.428-5.59c4.07,0.426,8.604,0.578,13.512,0.229
					c1.233-0.088,2.434-0.204,3.601-0.343c0.584,0.347,6.018,5.625,6.834,11.095C422.617,278.446,415.664,282.504,414.279,283.758z"
					/>
			</g>
			<g>
				<path opacity="0.4" fill="#FBB59F" enable-background="new    " d="M397.4,267.615c0.082,1.669-1.628,2.553-3.842,3.424
					c3.993-0.366,7.988-0.538,11.618-1.99C402.825,267.638,400.165,267.759,397.4,267.615z"/>
			</g>
			<g>
				<path fill="#203C75" d="M380.839,288.125c-0.677,0-1.354-0.061-1.865-0.24l0.126-0.354c1.391,0.495,4.3-0.002,4.331-0.008
					l0.063,0.369C383.414,287.906,382.131,288.125,380.839,288.125z"/>
			</g>
			<g>
				<path fill="#203C75" d="M381.945,332.897l-0.286-0.241c0.104-0.122,0.156-0.3,0.136-0.453c-0.009-0.067-0.037-0.161-0.123-0.221
					c-0.082-0.057-0.205-0.063-0.293-0.013c-0.09,0.049-0.149,0.155-0.145,0.256l-0.375,0.016c-0.009-0.242,0.126-0.482,0.337-0.6
					c0.213-0.117,0.488-0.105,0.687,0.031c0.156,0.108,0.257,0.278,0.284,0.481C382.201,332.411,382.116,332.696,381.945,332.897z"
					/>
			</g>
			<g>
				<path fill="#203C75" d="M384.946,301.661c-0.142,0-0.284-0.029-0.42-0.097l0.165-0.336c0.313,0.154,0.702-0.022,0.911-0.266
					c0.262-0.304,0.354-0.734,0.405-1.073l0.37,0.055c-0.058,0.391-0.167,0.887-0.491,1.263
					C385.664,301.465,385.309,301.661,384.946,301.661z"/>
			</g>
			<g>
				<path fill="#203C75" d="M372.251,287.043c-0.305,0-0.597-0.088-0.833-0.253l0.215-0.307c0.232,0.162,0.543,0.22,0.851,0.162
					c0.311-0.06,0.576-0.229,0.732-0.467l0.313,0.206c-0.211,0.321-0.565,0.55-0.975,0.628
					C372.453,287.032,372.352,287.043,372.251,287.043z"/>
			</g>
			<g>
				<g>
					<path fill="#FB6D75" d="M414.954,251.534l1.94,3.746l-15.391,4.061c0,0-4.66-0.982-5.051-0.689
						c-0.393,0.293-1.451,2.571-1.451,2.571l2.832,4.196c0,0,3.237-1.894,3.833-2.608c0.597-0.714,9.707-1.118,9.707-1.118
						s12.353-1.037,13.183-2.359c0.83-1.321-3.239-10.726-3.239-10.726L414.954,251.534z"/>
				</g>
				<g>
					<g>
						<path fill="#FB6D75" d="M394.05,262.099c0.104-0.15,2.534-2.582,2.636-1.646c0.035,0.31-0.325,0.81-0.481,1.056
							c-0.234,0.365-0.521,0.699-0.845,0.989c-0.25,0.224-1.016,0.834-1.386,0.579C393.653,262.854,393.804,262.455,394.05,262.099z
							"/>
					</g>
					<g>
						<path fill="#FB6D75" d="M394.634,263.356c0.115-0.162,2.814-2.765,2.939-1.752c0.041,0.335-0.356,0.873-0.531,1.137
							c-0.259,0.392-0.574,0.751-0.936,1.061c-0.279,0.237-1.131,0.891-1.548,0.61C394.196,264.17,394.36,263.739,394.634,263.356z"
							/>
					</g>
					<g>
						<path fill="#FB6D75" d="M395.49,264.365c0.115-0.161,2.814-2.766,2.939-1.752c0.042,0.335-0.356,0.872-0.53,1.136
							c-0.261,0.394-0.575,0.751-0.938,1.061c-0.277,0.237-1.13,0.891-1.548,0.611C395.053,265.178,395.216,264.748,395.49,264.365z
							"/>
					</g>
					<g>
						<path fill="#FB6D75" d="M396.645,265.06c0.093-0.134,2.286-2.287,2.383-1.454c0.031,0.276-0.292,0.72-0.434,0.938
							c-0.211,0.324-0.468,0.62-0.76,0.877c-0.227,0.197-0.918,0.737-1.255,0.51C396.288,265.73,396.422,265.376,396.645,265.06z"/>
					</g>
				</g>
				<g>
					<path fill="#FCDDD2" d="M405.386,258.316c0.354,1.231,0.708,2.462,1.063,3.691c2.166,0.14,5.232,0.243,8.907,0.051
						c5.231-0.275,7.873-0.442,9.08-1.914c2.078-2.533,0.236-7.173-1.383-11.253c-1.233-3.105-3.475-7.58-7.69-12.242
						c-2.876-2.18-4.757-2.956-5.645-2.327c-1.77,1.252,0.413,8.087,6.55,20.505C412.64,255.99,409.012,257.153,405.386,258.316z"/>
				</g>
			</g>
			<g>
				<path fill="#203C75" d="M414.319,251.231c-0.196-0.376-4.834-9.227-5.222-11.398c-0.404-2.268,2.464-4.085,2.586-4.161
					l0.198,0.318c-0.027,0.018-2.773,1.76-2.415,3.776c0.377,2.115,5.136,11.2,5.185,11.291L414.319,251.231z"/>
			</g>
			<g>
				
					<rect x="409.459" y="252.466" transform="matrix(-0.3037 -0.9528 0.9528 -0.3037 289.2706 725.2779)" fill="#203C75" width="0.376" height="8.951"/>
			</g>
			<g>
				<path fill="#203C75" d="M404.226,238.083c-0.012,0-0.024-0.001-0.036-0.001c-1.197-0.049-1.851-1.309-2.107-1.952
					c-0.369,0.489-0.831,0.782-1.377,0.873c-1.486,0.241-3.042-1.092-3.107-1.149l0.246-0.282c0.015,0.013,1.499,1.282,2.801,1.063
					c0.542-0.091,0.987-0.432,1.327-1.015l0.22-0.38l0.121,0.422c0.006,0.021,0.589,1.994,1.892,2.047c0.01,0,0.019,0,0.027,0
					c1.158,0,4.506-2.807,5.708-3.897l0.251,0.278C409.737,234.5,405.747,238.082,404.226,238.083z"/>
			</g>
			<g>
				<path fill="#203C75" d="M401.858,240.732c-0.379,0-0.688-0.308-0.688-0.687c0-0.378,0.309-0.687,0.688-0.687
					s0.687,0.309,0.687,0.687C402.545,240.425,402.237,240.732,401.858,240.732z M401.858,239.734c-0.173,0-0.313,0.141-0.313,0.312
					c0,0.173,0.141,0.313,0.313,0.313c0.172,0,0.312-0.14,0.312-0.313C402.17,239.875,402.03,239.734,401.858,239.734z"/>
			</g>
			<g>
				<path fill="#203C75" d="M401.615,245.435c-0.378,0-0.686-0.309-0.686-0.687c0-0.379,0.308-0.688,0.686-0.688
					c0.379,0,0.688,0.309,0.688,0.688S401.994,245.435,401.615,245.435z M401.615,244.436c-0.172,0-0.313,0.14-0.313,0.313
					c0,0.172,0.141,0.313,0.313,0.313s0.313-0.141,0.313-0.313C401.929,244.575,401.787,244.436,401.615,244.436z"/>
			</g>
			<g>
				<path fill="#203C75" d="M401.615,250.521c-0.378,0-0.686-0.309-0.686-0.687c0-0.38,0.308-0.688,0.686-0.688
					c0.379,0,0.688,0.309,0.688,0.688C402.303,250.212,401.994,250.521,401.615,250.521z M401.615,249.521
					c-0.172,0-0.313,0.141-0.313,0.313c0,0.172,0.141,0.312,0.313,0.312s0.313-0.14,0.313-0.312
					C401.929,249.661,401.787,249.521,401.615,249.521z"/>
			</g>
			<g>
				<path fill="#030303" d="M396.238,217.185c0.611,0.359,1.322,0.5,2.007,0.687c1.905,0.518,3.681,1.42,5.495,2.198
					c0.669,0.287,1.457,0.554,2.096,0.206c0.37-0.201,0.611-0.573,0.837-0.93c0.308-0.487,0.614-0.975,0.922-1.462
					c0.107-0.171,0.22-0.353,0.229-0.554c0.01-0.173-0.057-0.342-0.139-0.494c-0.39-0.722-1.124-1.183-1.86-1.544
					c-1.699-0.839-3.576-1.322-5.471-1.41c-1.325-0.062-2.774,0.12-3.725,1.048c-0.304,0.295-0.539,0.652-0.772,1.006
					c-0.101,0.155-0.202,0.309-0.304,0.463c-0.053,0.08-0.256,0.29-0.149,0.38c0.046,0.037,0.155,0.04,0.213,0.061
					c0.071,0.026,0.141,0.06,0.208,0.096C395.968,217.011,396.1,217.102,396.238,217.185z"/>
			</g>
			<g>
				<path fill="#FFFFFF" d="M398.003,225.461c0.026-0.131,0.271-0.114,1.625-0.349c1.122-0.194,1.353-0.274,1.429-0.154
					c0.149,0.233-0.373,1.056-1.123,1.268C399,226.49,397.945,225.747,398.003,225.461z"/>
			</g>
			<path fill="#203C75" d="M384.309,300.823c-0.113-0.023-0.038-2.349,1.144-4.71c0.735-1.472,1.705-2.567,1.793-2.512
				c0.094,0.061-0.891,1.438-1.823,3.767C384.567,299.503,384.396,300.843,384.309,300.823z"/>
		</g>
	</g>
	<g>
		<g>
			<path fill="#3169AF" d="M260.531,284.618c-0.343-3.178-1.659-6.091-3.107-8.806c-2.28-4.276-4.949-8.268-7.946-11.886
				c-0.423-0.511-0.902-1.044-1.507-1.119c-0.893-0.109-1.629,0.822-2.037,1.762c-1.593,3.67-0.556,8.086,0.507,12.011
				c0.597,2.202,1.194,4.405,1.791,6.608c0.891,3.289,1.852,6.715,3.941,9.143c1.402,1.628,3.63,2.775,5.58,1.796
				c1.43-0.72,1.863-2.838,2.316-4.4C260.549,288.075,260.719,286.35,260.531,284.618z"/>
		</g>
		<g>
			<path fill="#3169AF" d="M269.662,296.77c0.793-3.155,1.427-6.366,1.895-9.61c0.066-0.457,0.127-0.941-0.023-1.37
				c-0.262-0.747-1.094-1.026-1.76-0.813c-0.665,0.213-1.196,0.787-1.69,1.35c-3.641,4.144-7.021,9.178-7.482,15.104
				c-0.042,0.548-0.057,1.116,0.096,1.636c0.309,1.048,1.192,1.647,1.998,2.096c0.901,0.501,1.576,0.771,2.344-0.04
				c0.684-0.723,1.456-1.244,2.062-2.08c0.609-0.84,1.085-1.805,1.48-2.803C269.023,299.12,269.365,297.95,269.662,296.77z"/>
		</g>
		<g>
			<path fill="#3169AF" d="M246.695,297.965c-0.861-0.42-1.652-0.526-2.165,0.033c-1.728,1.884,2.471,8.078,3.411,9.659
				c1.842,3.098,6.511,8.892,10.28,7.666c3.667-1.192-5.917-12.784-7.291-14.005C250.188,300.657,248.315,298.756,246.695,297.965z"
				/>
		</g>
		<g>
			<g>
				<path fill="#030303" d="M260.967,319.494l0.253-0.023c-0.014-0.248-0.781-2.536-2.475-4.492
					c-1.701-1.966-3.044-3.315-3.058-3.329l-0.165,0.228c0.013,0.014,1.35,1.356,3.043,3.313
					C260.243,317.126,260.946,319.32,260.967,319.494z"/>
			</g>
		</g>
		<g>
			<g>
				<path fill="#030303" d="M260.387,312.554l0.252-0.041l-0.126,0.021l0.127-0.013c-0.011-0.261,0.392-4.829,1.794-7.497
					c1.435-2.729,2.436-4.984,2.445-5.007l-0.225-0.138c-0.011,0.022-1.007,2.271-2.437,4.988
					C260.735,307.691,260.366,312.369,260.387,312.554z"/>
			</g>
		</g>
		<g>
			<g>
				<path fill="#030303" d="M260.503,336.774c2.546-19.555-0.39-39.655-8.492-58.13l-0.427,0.13
					c8.077,18.42,11.005,38.463,8.465,57.959L260.503,336.774z"/>
			</g>
		</g>
		<g>
			<path fill="#FEAF51" d="M257.007,344.636h11.25c1.46,0,2.643-1.184,2.643-2.644v-16.759h-16.537v16.759
				C254.363,343.452,255.546,344.636,257.007,344.636z"/>
		</g>
		<g>
			<path fill="#030303" d="M270.9,325.233v3.686c-5.352,0.621-11.509-0.804-16.537,1.023v-4.709H270.9z"/>
		</g>
		<g>
			<rect x="253.161" y="323.202" fill="#FEAF51" width="19.063" height="4.205"/>
		</g>
	</g>
	<g>
		<g>
			<path fill="#13457C" d="M440.387,319.791c-0.902-2.175-3.047-4.097-5.607-4.149c-0.791-0.018-1.607,0.14-2.363-0.075
				c-0.5-0.143-0.93-0.438-1.32-0.754c-2.563-2.077-3.834-5.389-3.25-8.461c0.262-1.372,1.204-2.911,2.739-2.933
				c1.067-0.016,1.977,0.753,2.453,1.619s0.634,1.845,0.96,2.767c0.463,1.306,1.271,2.51,2.339,3.48
				c0.899,0.816,1.971,1.466,2.851,2.299c3.033,2.877,3.23,7.279,3.248,11.259c0.003,0.413-0.051,1.729-0.848,1.513
				c-0.687-0.185-0.415-1.441-0.417-1.892C441.161,322.884,441.005,321.279,440.387,319.791z"/>
		</g>
		<g>
			<path fill="#3169AF" d="M441.098,318.604c-0.51-0.802-1.181-1.513-1.667-2.324c-1.441-2.408-1.083-5.336-0.686-8.053
				c0.392-2.682,0.784-5.365,1.176-8.048c0.185-1.263,0.372-2.537,0.848-3.735c0.088-0.221,0.191-0.447,0.392-0.598
				c0.532-0.397,1.34-0.015,1.797,0.454c1.545,1.587,1.627,3.952,1.2,6.033c-0.426,2.081-1.274,4.11-1.297,6.228
				c-0.031,3.01,1.598,5.799,2.506,8.694c0.554,1.766,0.842,3.601,0.854,5.438c0.004,0.544-0.019,1.098-0.209,1.615
				c-0.11,0.3-0.279,0.583-0.494,0.832c-0.193,0.227-0.472,0.531-0.782,0.623c-0.622,0.183-1.025-0.798-1.217-1.173
				c-0.637-1.237-0.966-2.579-1.43-3.873C441.826,319.989,441.521,319.27,441.098,318.604z"/>
		</g>
		<g>
			<path fill="#3169AF" d="M446.261,320.48c-1.02-1.154-2.353-2.291-2.386-3.771c-0.017-0.793,0.357-1.545,0.725-2.265
				c0.892-1.751,1.783-3.501,2.676-5.251c0.463-0.911,0.93-1.829,1.177-2.808c0.233-0.924,0.264-1.882,0.225-2.829
				c-0.096-2.282-0.598-4.553-1.48-6.692c-0.136-0.328-0.282-0.659-0.313-1.008c-0.039-0.432,0.101-0.859,0.253-1.27
				c0.404-1.079,0.942-2.158,1.875-2.922s2.339-1.143,3.481-0.669c0.97,0.402,1.557,1.307,1.984,2.192
				c1.025,2.128,1.493,4.53,0.939,6.796c-0.295,1.211-0.869,2.348-1.438,3.475c-0.625,1.233-1.248,2.467-1.871,3.7
				c-0.607,1.198-1.219,2.412-1.48,3.709c-0.425,2.115,0.107,4.292-0.053,6.437c-0.121,1.63-0.639,3.204-1.041,4.789
				c-0.102,0.399-0.196,0.799-0.275,1.203c-0.04,0.203-0.077,0.407-0.108,0.612c-0.026,0.164-0.011,0.382-0.099,0.531
				c-0.111,0.191-0.171,0.036-0.242-0.097c-0.1-0.183-0.199-0.364-0.3-0.546c-0.199-0.358-0.404-0.715-0.618-1.065
				C447.411,321.947,446.881,321.183,446.261,320.48z"/>
		</g>
		<g>
			<path fill="#3169AF" d="M449.683,322.161c-0.5-0.731-0.981-1.478-1.313-2.284c-0.918-2.234-0.555-4.867,0.94-6.829
				c0.514-0.674,1.146-1.267,1.783-1.848c2.888-2.63,6.036-5.226,7.553-8.675c0.213-0.484,0.401-0.997,0.789-1.381
				c0.391-0.385,1.054-0.602,1.554-0.342c0.369,0.191,0.548,0.58,0.688,0.943c0.642,1.648,1.033,3.491,0.339,5.12
				c-0.991,2.333-3.862,3.539-5.357,5.641c-0.677,0.951-1.047,2.056-1.311,3.162c-0.255,1.07-0.416,2.158-0.483,3.251
				c-0.08,1.291-0.029,2.6-0.342,3.861c-0.231,0.934-0.69,1.857-1.451,2.535c-0.151,0.135-0.359,0.354-0.595,0.334
				c-0.232-0.02-0.392-0.248-0.516-0.402c-0.378-0.471-0.744-0.95-1.102-1.434C450.456,323.271,450.063,322.72,449.683,322.161z"/>
		</g>
		<g opacity="0.34">
			<path fill="#3169AF" d="M441.098,318.604c-0.51-0.802-1.181-1.513-1.667-2.324c-1.441-2.408-1.083-5.336-0.686-8.053
				c0.392-2.682,0.784-5.365,1.176-8.048c0.185-1.263,0.372-2.537,0.848-3.735c0.088-0.221,0.191-0.447,0.392-0.598
				c0.532-0.397,1.34-0.015,1.797,0.454c1.545,1.587,1.627,3.952,1.2,6.033c-0.426,2.081-1.274,4.11-1.297,6.228
				c-0.031,3.01,1.598,5.799,2.506,8.694c0.554,1.766,0.842,3.601,0.854,5.438c0.004,0.544-0.019,1.098-0.209,1.615
				c-0.11,0.3-0.279,0.583-0.494,0.832c-0.193,0.227-0.472,0.531-0.782,0.623c-0.622,0.183-1.025-0.798-1.217-1.173
				c-0.637-1.237-0.966-2.579-1.43-3.873C441.826,319.989,441.521,319.27,441.098,318.604z"/>
		</g>
		<g opacity="0.34">
			<path fill="#3169AF" d="M449.683,322.161c-0.5-0.731-0.981-1.478-1.313-2.284c-0.918-2.234-0.555-4.867,0.94-6.829
				c0.514-0.674,1.146-1.267,1.783-1.848c2.888-2.63,6.036-5.226,7.553-8.675c0.213-0.484,0.401-0.997,0.789-1.381
				c0.391-0.385,1.054-0.602,1.554-0.342c0.369,0.191,0.548,0.58,0.688,0.943c0.642,1.648,1.033,3.491,0.339,5.12
				c-0.991,2.333-3.862,3.539-5.357,5.641c-0.677,0.951-1.047,2.056-1.311,3.162c-0.255,1.07-0.416,2.158-0.483,3.251
				c-0.08,1.291-0.029,2.6-0.342,3.861c-0.231,0.934-0.69,1.857-1.451,2.535c-0.151,0.135-0.359,0.354-0.595,0.334
				c-0.232-0.02-0.392-0.248-0.516-0.402c-0.378-0.471-0.744-0.95-1.102-1.434C450.456,323.271,450.063,322.72,449.683,322.161z"/>
		</g>
		<g>
			<path fill="#3169AF" d="M459.732,310.466c0.755-0.497,1.571-0.961,2.489-1.106c1.304-0.208,2.688,0.291,3.575,1.183
				c0.888,0.891,1.294,2.132,1.216,3.331c-0.061,0.904-0.583,1.951-1.578,2.045c-0.831,0.078-1.528-0.555-2.337-0.748
				c-0.874-0.21-1.784,0.104-2.622,0.414c-0.807,0.3-1.614,0.599-2.422,0.897c-0.593,0.22-1.194,0.443-1.7,0.8
				c-0.49,0.345-0.869,0.799-1.226,1.258c-1.219,1.572-2.231,3.274-3.013,5.061c-0.196,0.448-0.367,0.905-0.546,1.359
				c-0.081,0.203-0.249,0.761-0.563,0.454c-0.538-0.524-0.2-1.5-0.08-2.108c0.324-1.629,0.872-3.221,1.619-4.731
				c0.749-1.516,1.698-2.95,2.823-4.261c1.118-1.303,2.411-2.482,3.849-3.495C459.387,310.698,459.56,310.581,459.732,310.466z"/>
		</g>
		<g>
			<polygon fill="#203C75" points="455.243,343.125 439.973,343.125 437.523,319.344 457.692,319.344 			"/>
		</g>
		<g>
			<path fill="#030303" d="M457.364,323.267l0.328-3.923h-20.169l0.262,3.114C444.498,322.72,451.161,321.874,457.364,323.267z"/>
		</g>
		<g>
			<rect x="436.539" y="317.731" fill="#203C75" width="22.141" height="3.82"/>
		</g>
	</g>
</g>
</svg>
