<?xml version="1.0" encoding="utf-8"?>
<!-- Generator: Adobe Illustrator 16.0.0, SVG Export Plug-In . SVG Version: 6.00 Build 0)  -->
<!DOCTYPE svg PUBLIC "-//W3C//DTD SVG 1.0//EN" "http://www.w3.org/TR/2001/REC-SVG-20010904/DTD/svg10.dtd">
<svg version="1.0" id="Layer_1" xmlns="http://www.w3.org/2000/svg" xmlns:xlink="http://www.w3.org/1999/xlink" x="0px" y="0px"
	 width="702.691px" height="500px" viewBox="0 0 702.691 500" enable-background="new 0 0 702.691 500" xml:space="preserve">
<rect x="4" y="-129" fill="none" width="694" height="694"/>
<rect x="4" y="-129" fill="none" width="694" height="694"/>
<linearGradient id="SVGID_1_" gradientUnits="userSpaceOnUse" x1="351.8901" y1="-17" x2="351.8901" y2="359.3403">
	<stop  offset="0" style="stop-color:#FFFFFF"/>
	<stop  offset="1" style="stop-color:#B8EBF4"/>
</linearGradient>
<path fill="url(#SVGID_1_)" d="M132.347,433.514C86.204,400.136-36.875,312.373,26.978,244.839
	c14.574-15.414,44.536-14.882,60.373-29.397c19.917-18.255,9.855-46.886,2.239-70.769c-9.274-29.088-12.903-60.686-0.158-88.84
	c12.745-28.156,45.146-51.568,81.109-50.493c21.168,0.635,40.63,9.213,59.928,16.521c31.367,11.879,65.329,20.939,99.683,18.988
	c44.724-2.542,85.32-23.35,129.706-28.593c57.08-6.745,115.965,13.861,156.477,48.169c40.513,34.308,63.9,80.915,73.458,128.474
	c9.596,47.732,5.845,97.81-15.235,142.886c-21.084,45.075-60.121,84.798-111.207,107.522L132.347,433.514z"/>
<g opacity="0.6">
	<g>
		<defs>
			<rect id="SVGID_8_" x="50.354" y="430.845" width="576.113" height="51.659"/>
		</defs>
		<clipPath id="SVGID_2_">
			<use xlink:href="#SVGID_8_"  overflow="visible"/>
		</clipPath>
		<path clip-path="url(#SVGID_2_)" fill="#B2C8CC" d="M106.702,434.267c-17.462-0.261-57.981,4.255-56.296,11.309
			c1.592,6.657,30.034,9.609,40.97,10.193c48.122,2.569,88.579,4.763,135.993,6.03c5.79,0.154,8.113,5.51,3.541,8.164
			c-3.946,2.292-7.559,6.401-2.968,7.927c22.261,7.396,124.5,4.254,176.394,1.847c62.855-2.918,210.212-10.293,221.354-29.975
			c3.707-6.547-6.578-11.414-15.211-13.27c-20.438-4.388-41.917-6.247-63.27-5.479L106.702,434.267z"/>
	</g>
</g>
<g>
	<g>
		<rect x="347.498" y="93.984" fill="#32539E" width="7.002" height="240.787"/>
	</g>
	<g>
		<rect x="235.894" y="93.984" fill="#32539E" width="7.002" height="240.787"/>
	</g>
	<g>
		<rect x="172.276" y="93.984" fill="#32539E" width="7.002" height="240.787"/>
	</g>
	<g>
		<rect x="459.103" y="93.984" fill="#32539E" width="7.004" height="240.787"/>
	</g>
	<g>
		<rect x="525.068" y="93.984" fill="#32539E" width="7.006" height="240.787"/>
	</g>
	<g>
		<g>
			<path fill="#3169AF" d="M180.841,106.88v29.593h14.001V106.88c0-2.199-1.627-4.034-3.813-4.562V90.262h-6.388v12.056
				C182.456,102.846,180.841,104.681,180.841,106.88z"/>
		</g>
		<g>
			<rect x="184.643" y="88.683" fill="#FCDDD2" width="6.393" height="7.708"/>
		</g>
		<g>
			<rect x="184.643" y="87.673" fill="#3169AF" width="6.393" height="1.768"/>
		</g>
		<g>
			<rect x="184.323" y="88.193" fill="#3169AF" width="7.032" height="0.99"/>
		</g>
		<g>
			<rect x="180.841" y="111.692" fill="#FB6D75" width="14.001" height="16.505"/>
		</g>
		<g>
			<path fill="#FEAF51" d="M191.136,103.8c0.217-0.135,1.32,1.017,1.865,2.552c0.667,1.872,0.344,3.881,0.076,3.911
				c-0.173,0.019-0.259-0.781-1.045-3.353C191.329,104.609,190.981,103.896,191.136,103.8z"/>
		</g>
	</g>
	<g>
		<g>
			<path fill="#3169AF" d="M198.087,106.88v29.593h14.002V106.88c0-2.199-1.627-4.034-3.812-4.562V90.262h-6.39v12.056
				C199.703,102.846,198.087,104.681,198.087,106.88z"/>
		</g>
		<g>
			<rect x="201.892" y="88.683" fill="#FCDDD2" width="6.391" height="7.708"/>
		</g>
		<g>
			<rect x="201.892" y="87.673" fill="#3169AF" width="6.391" height="1.768"/>
		</g>
		<g>
			<rect x="201.57" y="88.193" fill="#3169AF" width="7.032" height="0.99"/>
		</g>
		<g>
			<rect x="198.087" y="111.692" fill="#FB6D75" width="14.002" height="16.505"/>
		</g>
		<g>
			<path fill="#FEAF51" d="M208.383,103.8c0.217-0.135,1.32,1.017,1.865,2.552c0.667,1.872,0.347,3.881,0.076,3.911
				c-0.173,0.019-0.258-0.781-1.044-3.353C208.576,104.609,208.229,103.896,208.383,103.8z"/>
		</g>
	</g>
	<g>
		<g>
			<path fill="#3169AF" d="M216.99,106.88v29.593h14.001V106.88c0-2.199-1.626-4.034-3.813-4.562V90.262h-6.388v12.056
				C218.604,102.846,216.99,104.681,216.99,106.88z"/>
		</g>
		<g>
			<rect x="220.794" y="88.683" fill="#FCDDD2" width="6.392" height="7.708"/>
		</g>
		<g>
			<rect x="220.794" y="87.673" fill="#3169AF" width="6.392" height="1.768"/>
		</g>
		<g>
			<rect x="220.474" y="88.193" fill="#3169AF" width="7.031" height="0.99"/>
		</g>
		<g>
			<rect x="216.99" y="111.692" fill="#FB6D75" width="14.001" height="16.505"/>
		</g>
		<g>
			<path fill="#FEAF51" d="M227.285,103.8c0.219-0.135,1.322,1.017,1.867,2.552c0.667,1.872,0.344,3.881,0.075,3.911
				c-0.173,0.019-0.259-0.781-1.045-3.353C227.478,104.609,227.13,103.896,227.285,103.8z"/>
		</g>
	</g>
	<g>
		<g>
			<path fill="#3169AF" d="M251.609,112.43c-1.063,2.549-2.153,6.059-2.394,10.294c-0.335,5.92,1.136,10.715,2.394,13.75
				c4.667,0,9.333,0,14,0c1.227-3.193,2.569-8.044,2.216-13.963c-0.244-4.071-1.217-7.495-2.216-10.081
				c-0.012-0.329-0.08-1.399-1.086-2.362c-0.68-0.65-1.633-1.13-2.727-1.344v-9.796h-6.388v9.796
				C253.223,109.152,251.609,110.644,251.609,112.43z"/>
		</g>
		<g>
			<rect x="255.412" y="97.644" fill="#030303" width="6.391" height="6.264"/>
		</g>
		<g>
			<rect x="255.412" y="96.825" fill="#3169AF" width="6.391" height="1.434"/>
		</g>
		<g>
			<rect x="255.092" y="97.248" fill="#3169AF" width="7.03" height="0.803"/>
		</g>
		<g>
			<rect x="251.609" y="118.318" fill="#030303" width="14" height="10.084"/>
		</g>
		<g>
			<path fill="#FEAF51" d="M261.902,109.927c0.218-0.11,1.323,0.827,1.868,2.074c0.666,1.521,0.345,3.153,0.075,3.177
				c-0.172,0.015-0.259-0.634-1.045-2.723C262.095,110.586,261.75,110.004,261.902,109.927z"/>
		</g>
	</g>
	<g>
		<g>
			<rect x="483.828" y="119.636" fill="#3169AF" width="1.707" height="15.176"/>
		</g>
		<g>
			<path fill="#3169AF" d="M488.725,134.813h-8.088c-0.797,0-1.442,0.646-1.442,1.443v0.697h10.974v-0.697
				C490.168,135.459,489.522,134.813,488.725,134.813z"/>
		</g>
		<g>
			<polygon fill="#3169AF" points="494.698,113.519 474.663,113.519 483.551,119.636 485.81,119.636 			"/>
		</g>
	</g>
	<g>
		<g>
			<rect x="507.174" y="119.636" fill="#3169AF" width="1.707" height="15.176"/>
		</g>
		<g>
			<path fill="#3169AF" d="M512.069,134.813h-8.084c-0.798,0-1.444,0.646-1.444,1.443v0.697h10.975v-0.697
				C513.516,135.459,512.867,134.813,512.069,134.813z"/>
		</g>
		<g>
			<polygon fill="#3169AF" points="518.046,113.519 498.009,113.519 506.898,119.636 509.158,119.636 			"/>
		</g>
	</g>
	<g>
		<g>
			<rect x="308.842" y="120.418" fill="#3169AF" width="1.366" height="15.176"/>
		</g>
		<g>
			<path fill="#3169AF" d="M312.467,135.594h-5.883c-0.797,0-1.444,0.647-1.444,1.445v0.694h8.771v-0.694
				C313.912,136.241,313.265,135.594,312.467,135.594z"/>
		</g>
		<g>
			<path fill="#3169AF" d="M317.532,112.657h-16.013c-0.192,3.018,0.924,5.836,2.848,7.172c1.883,1.308,3.804,0.688,4.256,0.524
				c0.603,0,1.205,0,1.806,0c0.133,0.057,2.996,1.204,5.303-1.302C318.033,116.551,317.558,112.833,317.532,112.657z"/>
		</g>
	</g>
	<g>
		<g>
			<rect x="449.418" y="118.822" fill="#3169AF" width="2.299" height="15.985"/>
		</g>
		<g>
			<polygon fill="#3169AF" points="451.717,134.807 451.706,134.807 451.717,134.801 			"/>
		</g>
		<g>
			<path fill="#3169AF" d="M451.717,133.447v1.354c-0.003,0.001-0.007,0.004-0.011,0.005h-2.288v-1.345
				C450.184,133.681,450.951,133.725,451.717,133.447z"/>
		</g>
		<g>
			<path fill="#3169AF" d="M451.717,118.822v2.017c-0.8,0.428-1.559,0.703-2.299,0.839v-2.856H451.717z"/>
		</g>
		<g>
			<path fill="#3169AF" d="M448.282,119.703h4.57c2.012,0,3.64-1.629,3.64-3.641v-14.73h-11.85v14.73
				C444.643,118.073,446.271,119.703,448.282,119.703z"/>
		</g>
		<g>
			<path fill="#3169AF" d="M445.265,136.834h10.604v-0.963c0-0.666-0.538-1.206-1.204-1.206h-8.195c-0.666,0-1.205,0.54-1.205,1.206
				V136.834z"/>
		</g>
		<g>
			<path fill="#FEAF51" d="M454.068,103.948c0.152-0.012,0.465,1.569,0.52,3.192c0.083,2.499-0.459,4.744-0.634,4.724
				c-0.095-0.013-0.082-1.222-0.061-3.64C453.924,105.381,453.939,103.958,454.068,103.948z"/>
		</g>
	</g>
	<g>
		<g>
			<rect x="432.918" y="118.822" fill="#3169AF" width="2.303" height="15.985"/>
		</g>
		<g>
			<polygon fill="#3169AF" points="435.221,134.807 435.208,134.807 435.221,134.801 			"/>
		</g>
		<g>
			<path fill="#3169AF" d="M435.221,133.447v1.354c-0.003,0.001-0.008,0.004-0.013,0.005h-2.29v-1.345
				C433.687,133.681,434.455,133.725,435.221,133.447z"/>
		</g>
		<g>
			<path fill="#3169AF" d="M435.221,118.822v2.017c-0.8,0.428-1.559,0.703-2.303,0.839v-2.856H435.221z"/>
		</g>
		<g>
			<path fill="#3169AF" d="M431.786,119.703h4.569c2.011,0,3.641-1.629,3.641-3.641v-14.73h-11.854v14.73
				C428.143,118.073,429.774,119.703,431.786,119.703z"/>
		</g>
		<g>
			<path fill="#3169AF" d="M428.769,136.834h10.604v-0.963c0-0.666-0.54-1.206-1.206-1.206h-8.193c-0.667,0-1.205,0.54-1.205,1.206
				V136.834z"/>
		</g>
		<g>
			<path fill="#FEAF51" d="M437.571,103.948c0.151-0.012,0.465,1.569,0.519,3.192c0.085,2.499-0.456,4.744-0.634,4.724
				c-0.093-0.013-0.082-1.222-0.059-3.64C437.425,105.381,437.442,103.958,437.571,103.948z"/>
		</g>
	</g>
	<g>
		<g>
			<rect x="416.422" y="118.822" fill="#3169AF" width="2.301" height="15.985"/>
		</g>
		<g>
			<path fill="#3169AF" d="M418.723,134.807h-0.012c0.006-0.001,0.009-0.004,0.012-0.005V134.807z"/>
		</g>
		<g>
			<path fill="#3169AF" d="M418.723,133.447v1.354c-0.003,0.001-0.006,0.004-0.012,0.005h-2.289v-1.345
				C417.188,133.681,417.955,133.725,418.723,133.447z"/>
		</g>
		<g>
			<path fill="#3169AF" d="M418.723,118.822v2.017c-0.799,0.428-1.559,0.703-2.301,0.839v-2.856H418.723z"/>
		</g>
		<g>
			<path fill="#3169AF" d="M415.289,119.703h4.568c2.011,0,3.641-1.629,3.641-3.641v-14.73h-11.852v14.73
				C411.646,118.073,413.277,119.703,415.289,119.703z"/>
		</g>
		<g>
			<path fill="#3169AF" d="M412.271,136.834h10.604v-0.963c0-0.666-0.541-1.206-1.205-1.206h-8.194c-0.665,0-1.204,0.54-1.204,1.206
				V136.834z"/>
		</g>
		<g>
			<path fill="#FEAF51" d="M421.075,103.948c0.151-0.012,0.463,1.569,0.518,3.192c0.084,2.499-0.457,4.744-0.634,4.724
				c-0.093-0.013-0.082-1.222-0.059-3.64C420.927,105.381,420.944,103.958,421.075,103.948z"/>
		</g>
	</g>
	<g>
		<g>
			<rect x="379.202" y="95.092" fill="#203C75" width="6.009" height="15.978"/>
		</g>
		<g>
			<rect x="379.202" y="95.092" fill="#030303" width="6.009" height="4.712"/>
		</g>
		<g>
			<path fill="#203C75" d="M391.521,109.352h-18.627c-2.798,0-5.068,2.27-5.068,5.068v19.857c0,1.278,1.036,2.314,2.313,2.314
				h24.137c1.277,0,2.313-1.036,2.313-2.314V114.42C396.587,111.622,394.319,109.352,391.521,109.352z"/>
		</g>
		<g>
			<path fill="#FEAF51" d="M367.825,120.511h11.377c0,0-0.181-4.265,3.005-4.572c3.185-0.308,3.004,4.572,3.004,4.572l11.376-0.051
				v7.384h-28.762V120.511z"/>
		</g>
	</g>
	<g>
		<g>
			<path fill="#3169AF" d="M342.554,122.324c-0.034,0.669-0.069,1.408-0.121,2.199c-0.275,3.334-0.961,7.614-2.614,12.459h-13.833
				c-1.461-3.023-3.025-7.269-3.471-12.408c-0.103-0.979-0.138-2.01-0.138-3.059c0,0,0.018-2.664,0.671-5.792
				c0.584-2.836,1.701-6.083,3.833-8.078c0.567-0.532,1.236-0.755,1.236-0.755c0.276-0.087,0.586-0.122,0.895-0.122h7.802
				c0.55,0.122,1.341,0.361,2.131,0.876c2.408,1.583,3.299,4.658,3.576,7.974C342.71,117.854,342.623,120.226,342.554,122.324z"/>
		</g>
		<g>
			<rect x="330.063" y="98.327" fill="#3169AF" width="5.693" height="12.226"/>
		</g>
		<g>
			<path fill="#FCDDD2" d="M342.554,122.324c-0.034,0.669-0.069,1.408-0.121,2.199c-2.285,1.135-5.723,2.354-10.019,2.354
				c-4.211,0-7.614-1.168-9.9-2.303c-0.103-0.979-0.138-2.01-0.138-3.059c0,0,0.018-2.664,0.671-5.792
				c4.005,1.702,6.084,1.497,7.201,0.653c1.169-0.875,1.376-2.561,2.525-2.664c1.307-0.103,1.841,1.978,3.524,2.836
				c1.101,0.567,2.938,0.738,6.222-0.929C342.71,117.854,342.623,120.226,342.554,122.324z"/>
		</g>
	</g>
	<g>
		<rect x="157.122" y="137.393" fill="#32539E" width="387.757" height="7.003"/>
	</g>
	<g>
		<g>
			<path fill="#FB6D75" d="M322.351,226.023c0,0,7.894,14.342,13.129,14.467c5.233,0.123,38.636-32.323,38.636-32.323l8.656,0.204
				l2.286-11.428c0,0-3.354-2.9-4.78-2.329c-1.422,0.57-8.153,4.036-9.838,7.22l-30.103,20.677l-3.865-6.976L322.351,226.023z"/>
		</g>
		<g>
			<path fill="#FB6D75" d="M233.979,211.752c0,0-10.515,13.434-10.773,14.796c-0.254,1.361,3.847,8.799,10.773,4.44
				c6.924-4.361,12.823-12.568,12.823-12.568L233.979,211.752z"/>
		</g>
		<g>
			<path fill="#FCDDD2" d="M299.471,174.31c0,0,20.167,8.206,20.935,8.976c0.771,0.769,3.336,92.582,3.336,92.582l-68.221,2.92
				c0,0,3.334-95.996,4.874-97.544c1.537-1.547,19.022-6.934,19.022-6.934H299.471z"/>
		</g>
		<g>
			<path fill="#FCDDD2" d="M320.406,183.286c5.333,6.717,8.879,12.725,11.216,17.216c2.647,5.088,7.328,15.567,7.328,15.567l0,0
				c-4.983,4.946-9.968,9.892-14.953,14.838c-5.512-4.034-11.023-8.066-16.536-12.101
				C311.777,206.966,316.093,195.126,320.406,183.286z"/>
		</g>
		<g>
			<path fill="#FCDDD2" d="M260.395,181.243c-2.283,1.232-5.692,3.252-9.434,6.252c-12.549,10.057-20.573,24.513-20.573,24.513l0,0
				l18.21,12.567l9.399-7.953L260.395,181.243z"/>
		</g>
		<g>
			<path fill="#030303" d="M256.459,253.447c0,0,17.078-24.86,12.308-75.667l5.656-1.885v29.494l31.765,0.721V177.07l4.549,1.894
				c0,0-0.21,72.603,12.352,74.483l0.652,29.633l-68.221,1.127L256.459,253.447z"/>
		</g>
		<g>
			<path fill="#FB6D75" d="M281.682,155.075c-0.757,6.412-1.51,12.823-2.264,19.235c1.673,4.361,5.933,7.157,10.47,6.925
				c4.163-0.214,7.859-2.94,9.374-6.925c-0.645-6.412-1.291-12.823-1.936-19.235H281.682z"/>
		</g>
		<g>
			<path fill="#FB6D75" d="M236.433,224.36c0,0,2.564,5.465-4.359,8.286c-6.923,2.822-43.342,10.26-43.342,10.26
				s-6.411,1.794-12.823-2.565c0,0-8.207,1.245-12.565,2.931c-4.362,1.685-1.133-2.088-1.133-2.088s9.339-4.718,10.361-5.011
				c1.022-0.292,14.935,0.875,14.935,0.875l31.178-14.017C218.685,223.03,232.486,215.569,236.433,224.36z"/>
		</g>
		<g>
			<g>
				<path fill="#030303" d="M303.201,127.567c0.027-0.394,0.043-0.821-0.176-1.152c-0.183-0.279-0.501-0.435-0.811-0.557
					c-1.727-0.675-3.63-0.679-5.481-0.656c-8.176,0.099-16.44,0.543-24.274,2.882c-0.821,0.245-1.673,0.534-2.253,1.164
					c-0.945,1.025-0.881,2.594-0.761,3.982c0.147,1.669,0.293,3.338,0.438,5.004c0.167,1.903,0.34,3.831,0.996,5.623
					c0.658,1.792,1.871,3.465,3.61,4.254c1.706,0.775,3.671,0.615,5.538,0.452c2.775-0.238,5.553-0.457,8.329-0.646
					c2.803-0.191,5.608-0.355,8.412-0.492c1.391-0.069,2.803-0.061,4.188-0.187c0.995-0.092,1.021-0.923,1.075-1.75
					c0.183-2.811,0.367-5.621,0.55-8.432c0.183-2.812,0.368-5.623,0.551-8.434C303.155,128.27,303.177,127.919,303.201,127.567z"/>
			</g>
			<g>
				<circle fill="#FB6D75" cx="288.768" cy="144.7" r="15.024"/>
			</g>
			<g>
				<path fill="#030303" d="M299.729,144.46c-0.034-0.164-0.093-0.308-0.175-0.427c-0.074-0.131-0.166-0.221-0.269-0.274
					c-0.1-0.084-0.208-0.122-0.323-0.113c-0.076,0.015-0.148,0.031-0.222,0.046c-0.142,0.064-0.266,0.176-0.369,0.342
					c-0.044,0.089-0.089,0.179-0.133,0.268c-0.073,0.207-0.113,0.43-0.114,0.669v0.195c-0.003,0.183,0.019,0.354,0.073,0.513
					c0.032,0.164,0.092,0.306,0.173,0.426c0.074,0.129,0.166,0.221,0.268,0.273c0.101,0.084,0.206,0.122,0.323,0.115
					c0.075-0.016,0.149-0.031,0.223-0.048c0.142-0.062,0.264-0.175,0.369-0.341c0.043-0.089,0.089-0.18,0.131-0.269
					c0.076-0.206,0.112-0.428,0.115-0.669v-0.195C299.805,144.787,299.781,144.619,299.729,144.46z"/>
			</g>
			<g>
				<path fill="#030303" d="M288.597,144.332c-1.078,0-1.079,2.651,0,2.651C289.673,146.983,289.676,144.332,288.597,144.332z"/>
			</g>
			<g>
				<path fill="#030303" d="M290.587,140.714l0.198,1.851l-6.626,1.469c-0.13-0.667-0.26-1.334-0.391-2.001
					C286.041,141.594,288.314,141.154,290.587,140.714z"/>
			</g>
			<g>
				<path fill="#030303" d="M302.196,140.836l-0.283,1.839l-6.78-0.285c0.045-0.677,0.092-1.355,0.137-2.032
					C297.578,140.517,299.888,140.676,302.196,140.836z"/>
			</g>
			<g>
				<circle fill="#FB6D75" cx="272.914" cy="145.115" r="5.016"/>
			</g>
			<g>
				<path fill="#030303" d="M271.62,146.934c-0.099,0-0.202-0.035-0.283-0.107c-0.177-0.156-0.198-0.427-0.038-0.606l1.171-1.334
					c-0.59-0.167-1.167-0.388-1.718-0.659c-0.214-0.103-0.302-0.36-0.198-0.575c0.102-0.211,0.361-0.301,0.572-0.196
					c0.708,0.345,1.456,0.6,2.223,0.761c0.149,0.032,0.271,0.14,0.32,0.285c0.048,0.145,0.017,0.305-0.087,0.418l-1.639,1.865
					C271.857,146.886,271.741,146.934,271.62,146.934z"/>
			</g>
			<g>
				<path fill="#030303" d="M275.709,144.012c0.361-0.485,0.72-0.97,1.082-1.456c-0.192-0.865-0.554-3.084,0.55-5.419
					c0.285-0.599,1.619-3.413,4.088-3.805c0.875-0.139,1.654,0.101,3.212,0.576c1.688,0.518,2.612,1.046,3.409,1.396
					c2.796,1.228,6.876,1.493,10.003-0.282c0.69-0.391,1.688-1.084,2.662-2.31c-1.415-1.884-3.014-3.81-5.241-4.582
					c-1.198-0.415-2.492-0.458-3.76-0.458c-1.887,0.003-3.773,0.096-5.652,0.279c-2.971,0.291-6.015,0.846-8.523,2.467
					c-1.6,1.036-2.929,2.569-3.603,4.362c-0.331,0.885-0.492,1.835-0.427,2.782c0.015,0.217,0.018,0.477,0.122,0.672
					c0.099,0.188,0.167,0.226,0.2,0.433c0.089,0.549,0.269,1.085,0.438,1.618C274.673,141.556,275.155,142.8,275.709,144.012z"/>
			</g>
			<g>
				<path fill="#030303" d="M274.649,154.097c-0.092,0.42-0.191,0.859-0.084,1.275c0.068,0.26,0.255,0.701,0.854,1.164
					c3.882,3.004,10.242,5.459,10.242,5.459c6.201,1.368,8.861,2.373,9.014,2.065c0.249-0.5,1.051-1.6,0.458-2.238
					c1.982,0.511,2.686,0.293,4.668,0.804c-0.292-0.839-0.207-1.761-0.499-2.601c0.235,0.144,0.644,0,2.354-0.869
					c1.228-0.625,0.952-1.947,1.327-3.281c0.32-1.137,0.737-3.348-0.027-6.259c-0.46,0.758-4.016,6.372-10.679,7.104
					c-7.382,0.81-13.095-4.977-14.039-7.516c-0.207-0.563-0.323-0.953-0.323-0.953c-0.322-1.737-0.644-3.473-0.965-5.208
					c-0.084-0.451-0.705-1.917-1.268-1.047c-0.227,0.353-0.088,0.89-0.072,1.282c0.02,0.5,0.03,0.999,0.031,1.498
					c0.01,2.019-0.125,4.039-0.403,6.04C275.085,151.917,274.89,153.012,274.649,154.097z"/>
			</g>
			<g>
				<path fill="#030303" d="M293.699,150.998c-0.309,0-0.716-0.133-0.916-0.437c-0.13-0.198-0.149-0.434-0.046-0.649
					c0.097-0.214,0.355-0.309,0.569-0.208c0.162,0.076,0.255,0.238,0.247,0.405c0.046,0.016,0.103,0.031,0.151,0.029
					c0.729-0.025,1.416-0.372,1.795-0.906c0.391-0.553,0.429-1.331,0.093-1.853c-0.34-0.526-1.093-0.764-1.618-0.506
					c-0.214,0.104-0.467,0.019-0.576-0.198c-0.103-0.211-0.016-0.469,0.197-0.574c0.923-0.451,2.146-0.086,2.718,0.812
					c0.528,0.816,0.482,1.974-0.111,2.814c-0.538,0.759-1.462,1.235-2.467,1.269C293.722,150.998,293.709,150.998,293.699,150.998z"
					/>
			</g>
		</g>
		<g>
			<path fill="#030303" d="M281.999,153.365c0.789,0.518,1.624,0.435,3.214,0.276c2.503-0.252,2.992-1.33,5.693-1.746
				c0.729-0.111,1.972-0.292,3.489,0c2.704,0.523,3.379,1.99,4.866,1.836c0.907-0.094,2.145-0.794,3.443-3.647
				c-0.242,3.223-2.482,6.105-5.364,7.57c-2.881,1.465-6.306,1.628-9.461,0.926c-1.892-0.422-3.73-1.149-5.301-2.285
				c-1.289-0.933-2.385-2.137-3.192-3.508c-0.84-1.423-1.363-3.008-1.88-4.576c-0.208-0.633-0.416-1.266-0.625-1.898
				c-0.104-0.316-0.208-0.631-0.313-0.949c-0.042-0.128-0.199-0.384-0.001-0.439c0.372-0.103,0.713,0.476,0.892,0.688
				c0.539,0.643,0.891,0.775,1.193,1.076C280.068,148.1,280.008,152.06,281.999,153.365z"/>
		</g>
		<g>
			<path fill="#FFFFFF" d="M290.121,153.991c1.073-0.371,3.233,0.277,3.931,0.247c0.576-0.023,1.452-0.479,1.953-0.164
				c0.093,0.058,0.156,0.144,0.207,0.23c0.289,0.517,0.096,1.083-0.49,1.46c-0.418,0.268-0.946,0.399-1.468,0.462
				c-0.847,0.104-1.714,0.04-2.498-0.183c-0.735-0.208-1.643-0.621-2.047-1.165C289.44,154.517,289.627,154.162,290.121,153.991z"/>
		</g>
		<g>
			<g>
				<path fill="#3169AF" d="M390.944,184.504l-6.51-3.209l1.93-3.914c0.257-0.527,0.895-0.742,1.418-0.483l4.61,2.272
					c0.525,0.258,0.739,0.895,0.482,1.419L390.944,184.504z"/>
			</g>
			<g opacity="0.37">
				<path fill="#3169AF" d="M386.078,177.959l-1.644,3.335l6.51,3.209l0.793-1.61C390.124,181.014,388.441,178.832,386.078,177.959z
					"/>
			</g>
			<g>
				<path fill="#3169AF" d="M378.462,214.843l-10.478-5.162c1.107-3.683,1.943-6.64,2.464-8.523c2.082-7.5,2.722-10.645,5.384-14.21
					c1.107-1.484,2.199-2.549,2.914-3.193c4.572,2.253,9.145,4.506,13.716,6.759c-0.165,1.135-0.505,2.981-1.265,5.143
					c-1.207,3.431-2.772,5.666-7.761,12.452C381.296,211.021,379.555,213.375,378.462,214.843z"/>
			</g>
			<g opacity="0.37">
				<path fill="#3169AF" d="M392.462,190.513c-4.571-2.252-9.144-4.506-13.716-6.759c-0.294,0.265-0.661,0.619-1.057,1.024
					c4.028,5.081,8.902,6.211,14.372,7.878C392.256,191.804,392.381,191.071,392.462,190.513z"/>
			</g>
			<g>
				<path fill="#3169AF" d="M388.649,181.057c-1.097-0.547-3.644-1.815-5.973-0.735c-0.547,0.255-0.948,0.577-1.204,0.816
					l-2.208,2.871l12.682,6.249l0.929-3.501c0.033-0.346,0.044-0.861-0.089-1.455C392.233,182.843,389.756,181.607,388.649,181.057z
					"/>
			</g>
			<g opacity="0.37">
				<path fill="#3169AF" d="M380.448,182.468l-1.184,1.541l12.682,6.249l0.636-2.4C388.417,186.215,384.887,183.756,380.448,182.468
					z"/>
			</g>
			<g>
				<path fill="#3169AF" d="M392.412,191.813l-14.813-7.297c-0.383-0.188-0.541-0.652-0.352-1.036l0.328-0.667
					c0.188-0.382,0.65-0.54,1.034-0.352l14.815,7.3c0.384,0.188,0.539,0.651,0.351,1.034l-0.328,0.669
					C393.257,191.846,392.794,192.003,392.412,191.813z"/>
			</g>
			<g opacity="0.3">
				<path fill="#FFFFFF" d="M377.893,187.72c-0.21-0.087-1.492,2.337-2.465,4.711c-1.968,4.818-2.688,9.498-2.392,9.58
					c0.223,0.062,1.15-2.673,3.009-8.14C377.264,190.282,378.099,187.806,377.893,187.72z"/>
			</g>
		</g>
		<g>
			<g>
				<path fill="#FB6D75" d="M380.011,196.081c1.519-0.511,3.108,0.209,4.593,0.505c1.236,0.246,2.63,0.262,3.727,1
					c0.741,0.499,2.246,2.516,0.772,3.095c-0.726,0.288-2.147-0.246-2.849-0.416c-1.31-0.313-2.593-0.748-3.908-1.035
					c-1-0.216-3.482-0.683-3.122-2.311C379.32,196.477,379.61,196.218,380.011,196.081z"/>
			</g>
			<g>
				<path fill="#FB6D75" d="M379.939,199.172c1.516-0.512,3.107,0.208,4.59,0.503c1.236,0.247,2.632,0.262,3.726,1
					c0.741,0.499,2.245,2.516,0.772,3.096c-0.723,0.286-2.146-0.248-2.848-0.417c-1.31-0.314-2.592-0.747-3.908-1.034
					c-0.998-0.216-3.481-0.682-3.121-2.31C379.248,199.567,379.538,199.308,379.939,199.172z"/>
			</g>
			<g>
				<path fill="#FB6D75" d="M379.327,202.183c1.514-0.476,3.105,0.198,4.589,0.477c1.237,0.232,2.631,0.248,3.73,0.94
					c0.74,0.465,2.246,2.35,0.776,2.889c-0.725,0.266-2.147-0.235-2.848-0.394c-1.312-0.295-2.596-0.701-3.911-0.97
					c-1.001-0.204-3.483-0.644-3.125-2.162C378.634,202.55,378.924,202.308,379.327,202.183z"/>
			</g>
			<g>
				<path fill="#FB6D75" d="M379.767,205.364c1.207-0.621,2.603-0.105,3.867,0.028c1.056,0.111,2.216-0.006,3.201,0.574
					c0.668,0.393,2.122,2.119,0.958,2.798c-0.575,0.333-1.81-0.026-2.413-0.116c-1.121-0.167-2.23-0.446-3.354-0.586
					c-0.854-0.106-2.966-0.302-2.832-1.847C379.229,205.797,379.444,205.529,379.767,205.364z"/>
			</g>
		</g>
		<g>
			<path fill="#3169AF" d="M394.345,195.294c-0.156,0-0.31-0.087-0.384-0.238c-0.104-0.212-0.017-0.471,0.195-0.575
				c0.564-0.279,2.465-1.371,3.268-3.709c0.844-2.461-0.104-4.566-0.415-5.153c-0.111-0.209-0.031-0.469,0.179-0.58
				c0.206-0.111,0.47-0.031,0.58,0.178c0.354,0.666,1.425,3.047,0.469,5.834c-0.885,2.578-2.882,3.796-3.701,4.2
				C394.474,195.281,394.41,195.294,394.345,195.294z"/>
		</g>
		<g>
			<path fill="#3169AF" d="M394.975,201.764c-0.17,0-0.329-0.099-0.396-0.266c-0.091-0.221,0.014-0.47,0.233-0.562
				c1.191-0.489,5.213-2.454,6.998-7.17c1.984-5.255-0.392-9.858-0.887-10.726c-0.117-0.208-0.047-0.469,0.159-0.587
				c0.206-0.117,0.469-0.047,0.587,0.16c0.529,0.93,3.064,5.842,0.942,11.459c-1.905,5.04-6.2,7.138-7.474,7.661
				C395.086,201.754,395.031,201.764,394.975,201.764z"/>
		</g>
		<g>
			<path fill="#3169AF" d="M367.54,196.785c-0.175,0-0.339-0.107-0.403-0.281c-0.317-0.856-0.934-3.118,0.188-5.593
				c1.219-2.691,3.633-3.685,4.343-3.924c0.228-0.075,0.469,0.044,0.545,0.268c0.076,0.225-0.045,0.468-0.268,0.544
				c-0.631,0.214-2.76,1.089-3.837,3.465c-0.989,2.186-0.445,4.184-0.168,4.941c0.084,0.223-0.03,0.47-0.254,0.552
				C367.64,196.775,367.59,196.785,367.54,196.785z"/>
		</g>
		<g>
			<path fill="#3169AF" d="M362.643,201.059c-0.163,0-0.32-0.093-0.389-0.252c-0.567-1.256-2.25-5.738-0.182-10.701
				c2.312-5.553,7.523-7.38,8.545-7.691c0.22-0.065,0.467,0.061,0.537,0.288c0.067,0.229-0.059,0.466-0.287,0.535
				c-0.956,0.292-5.841,2.001-8.002,7.199c-1.936,4.644-0.358,8.842,0.17,10.017c0.097,0.216,0.003,0.471-0.216,0.569
				C362.763,201.047,362.7,201.059,362.643,201.059z"/>
		</g>
	</g>
	<g>
		<rect x="169.889" y="242.401" fill="#3169AF" width="362.222" height="196.52"/>
	</g>
	<g>
		<rect x="157.122" y="242.401" fill="#203C75" width="387.757" height="20.16"/>
	</g>
	<g>
		<rect x="157.122" y="241.661" fill="#FEAF51" width="387.757" height="6.38"/>
	</g>
	<g>
		<g>
			<rect x="463.73" y="403.367" fill="#4F83C8" width="24.407" height="8.426"/>
		</g>
		<g>
			<rect x="475.396" y="414.548" fill="#4F83C8" width="24.404" height="8.425"/>
		</g>
		<g>
			<rect x="490.657" y="403.576" fill="#4F83C8" width="24.406" height="8.427"/>
		</g>
	</g>
	<g>
		<g>
			<rect x="473.826" y="303.463" fill="#9DC6F4" width="10.569" height="136.996"/>
		</g>
		<g>
			<path fill="#FEAF51" d="M517.85,315.329h-77.479v-9.964c0-3.328,2.7-6.029,6.03-6.029h65.42c3.329,0,6.028,2.701,6.028,6.029
				V315.329z"/>
		</g>
		<g>
			<ellipse fill="#9DC6F4" cx="479.111" cy="446.082" rx="30.759" ry="11.342"/>
		</g>
		<g>
			<rect x="448.167" y="371.961" fill="#9DC6F4" width="61.89" height="5.086"/>
		</g>
	</g>
	<g>
		<g>
			<rect x="408.148" y="216.402" fill="#3169AF" width="2.654" height="23.595"/>
		</g>
		<g>
			<path fill="#3169AF" d="M415.762,239.997h-12.572c-1.24,0-2.246,1.006-2.246,2.245v1.081h17.064v-1.081
				C418.008,241.003,417.002,239.997,415.762,239.997z"/>
		</g>
		<g>
			<path fill="#3169AF" d="M425.051,206.891H393.9l12.714,9.15c0.721,0.518,1.573,0.795,2.447,0.795h0.828
				c0.874,0,1.727-0.277,2.446-0.795L425.051,206.891z"/>
		</g>
		<g>
			<path fill="#FEAF51" d="M399.398,209.233c0,0,6.84,5.606,9.941,5.61c3.102,0.005,10.045-5.61,10.045-5.61H399.398z"/>
		</g>
		<g>
			<path fill="#32539E" d="M421.615,206.891h-5.992c0,0,1.635-7.384,7.08-6.126c5.446,1.256,5.564,10.81,2.348,11.098
				c-3.217,0.288-3.644-0.483-3.644-0.483L421.615,206.891z"/>
		</g>
		<g>
			<path fill="#3169AF" d="M422.703,200.765c-5.445-1.258-7.08,6.126-7.08,6.126h1.117c0.032-0.285,0.29-2.37,2.212-3.652
				c1.925-1.285,3.955-0.717,4.227-0.635c0.535,0.316,2.068,1.323,2.712,3.262c0.062,0.179,1.151,3.612-0.807,4.961
				c-1.451,1-3.469,0.084-3.649,0l-0.027,0.553c0,0,0.427,0.771,3.644,0.483C428.268,211.575,428.149,202.021,422.703,200.765z"/>
		</g>
		<g>
			<path fill="#FEAF51" d="M421.51,207.316c-0.124,0-0.245-0.055-0.329-0.162l-0.011-0.015c-0.206-0.261-0.398-0.509-0.624-0.718
				c-0.122-0.115-0.257-0.22-0.391-0.326c-0.096-0.076-0.19-0.151-0.283-0.229c-0.311-0.261-0.589-0.557-0.83-0.875
				c-0.143-0.189-0.105-0.459,0.084-0.602c0.188-0.143,0.458-0.107,0.601,0.083c0.204,0.269,0.44,0.517,0.697,0.736
				c0.087,0.073,0.176,0.143,0.264,0.213c0.151,0.12,0.304,0.24,0.444,0.372c0.275,0.256,0.498,0.541,0.716,0.817
				c0.145,0.187,0.117,0.465-0.067,0.61C421.697,207.284,421.603,207.316,421.51,207.316z"/>
		</g>
		<g>
			<path fill="#FEAF51" d="M421.959,207.188c-0.117,0-0.229-0.046-0.313-0.136c-0.163-0.175-0.152-0.446,0.023-0.607l2.104-1.959
				c0.178-0.163,0.447-0.15,0.607,0.021c0.163,0.174,0.151,0.446-0.022,0.607l-2.107,1.96
				C422.169,207.151,422.062,207.188,421.959,207.188z"/>
		</g>
		<g>
			<path fill="#FEAF51" d="M424.835,207.596c-0.003,0-0.004,0-0.007,0l-2.877-0.054c-0.237-0.005-0.426-0.2-0.421-0.437
				c0.005-0.239,0.242-0.397,0.437-0.421l2.878,0.055c0.236,0.004,0.426,0.201,0.421,0.438
				C425.261,207.412,425.068,207.596,424.835,207.596z"/>
		</g>
		<g>
			<path fill="#FEAF51" d="M421.656,207.115c-0.232,0-0.423-0.186-0.429-0.42l-0.056-2.877c-0.005-0.237,0.187-0.433,0.421-0.437
				c0.003,0,0.005,0,0.01,0c0.232,0,0.425,0.187,0.428,0.421l0.058,2.875c0.004,0.239-0.186,0.434-0.422,0.438
				C421.662,207.115,421.662,207.115,421.656,207.115z"/>
		</g>
		<g>
			<path fill="#FEAF51" d="M423.812,210.238c-0.15,0-0.297-0.082-0.376-0.226c-0.487-0.89-1.154-1.707-1.928-2.361
				c-0.182-0.155-0.205-0.425-0.051-0.605c0.152-0.183,0.424-0.204,0.604-0.052c0.867,0.734,1.582,1.61,2.128,2.607
				c0.113,0.209,0.037,0.47-0.17,0.583C423.954,210.22,423.884,210.238,423.812,210.238z"/>
		</g>
	</g>
	<g>
		<g>
			<rect x="180.315" y="270.137" fill="#32539E" width="24.408" height="8.428"/>
		</g>
		<g>
			<rect x="191.979" y="281.316" fill="#4F83C8" width="24.406" height="8.427"/>
		</g>
		<g>
			<rect x="207.242" y="270.347" fill="#4F83C8" width="24.407" height="8.427"/>
		</g>
	</g>
	<g>
		<g>
			<rect x="262.122" y="339.09" fill="#4F83C8" width="24.406" height="8.425"/>
		</g>
		<g>
			<rect x="273.785" y="350.269" fill="#4F83C8" width="24.408" height="8.427"/>
		</g>
		<g>
			<rect x="289.047" y="339.299" fill="#4F83C8" width="24.406" height="8.425"/>
		</g>
	</g>
	<g>
		<g>
			<rect x="328.632" y="282.693" fill="#32539E" width="24.406" height="8.427"/>
		</g>
		<g>
			<rect x="343.895" y="271.725" fill="#4F83C8" width="24.406" height="8.425"/>
		</g>
	</g>
	<path opacity="0.29" fill="#3169AF" d="M169.889,262.562c59.552,22.235,93.895,22.366,109.699,20.978
		c3.771-0.331,15.819-1.57,29.955-3.39c32.668-4.205,42.439-7.136,53.849-8.425c43.616-4.935,55.64,20.383,95.486,20.305
		c16.734-0.034,41.998-4.553,73.233-28.481L169.889,262.562z"/>
	<g>
		<g>
			<rect x="309.543" y="303.463" fill="#9DC6F4" width="10.571" height="136.996"/>
		</g>
		<g>
			<path fill="#FEAF51" d="M353.567,315.329h-77.479v-9.964c0-3.328,2.701-6.029,6.029-6.029h65.42c3.332,0,6.029,2.701,6.029,6.029
				V315.329z"/>
		</g>
		<g>
			<ellipse fill="#9DC6F4" cx="314.829" cy="446.082" rx="30.761" ry="11.342"/>
		</g>
		<g>
			<rect x="283.885" y="371.961" fill="#9DC6F4" width="61.888" height="5.086"/>
		</g>
	</g>
	<g>
		<g>
			<path fill="#FB6D75" d="M400.342,240.908c-1.289,0.819-9.711,6.118-10.612,8.079c-0.9,1.96-2.521,6.536-1.755,7.546
				c0.768,1.011,5.169,6.264,5.888,6.021c0.717-0.244,1.131-0.945,0.979-1.433c-0.155-0.485-3.702-5.494-3.702-5.665
				c-0.003-0.172,1.572-5.068,1.9-5.315c0.327-0.25,3.606-0.805,4.166-0.066c0.559,0.735-0.147,4.112-0.372,4.326
				c-0.035,0.034-0.119,0.126-0.22,0.241c-0.543,0.617-1.816,2.202-1.572,2.668c0.293,0.554,1.709,1.457,3.014,0.682
				c0.302-0.179,0.65-0.523,1.008-0.937c1.194-1.383,2.498-3.654,2.54-4.081c0.052-0.554,1.557-5.485,1.557-5.485
				s2.551-0.106,6.432-0.298c-1.145-2.439-1.92-5.166-2.656-7.889C403.272,240.086,400.674,240.695,400.342,240.908z"/>
		</g>
		<g>
			<path fill="#FCDDD2" d="M456.207,231.361c-1.629-10.061-3.258-20.121-4.886-30.182c-4.934,10.733-9.871,21.464-14.805,32.195
				c-2.753,0.532-19.902,3.849-29.581,5.925c0.736,2.724,1.512,5.45,2.656,7.889c11.865-0.589,36.217-1.985,38.519-3.615
				c1.322-0.937,2.07-2.214,2.517-3.439c-0.021-0.009-0.038-0.017-0.059-0.024C452.446,237.195,454.327,234.278,456.207,231.361z"/>
		</g>
		<g>
			<path fill="#FB6D75" d="M490.828,250.309l-19.758,0.449l0.566,13.087c0,0-66.533,28.943-69.164,30.823
				c-2.632,1.878-6.203,4.135-6.767,12.027s40.219,44.729,40.221,44.731l0,0l14.486,14.555c0,0,13.52,13.667,19.192,19.275
				c1.72-10.011-6.38-21.79-13.162-30.094c-0.489,0.483-0.765,0.835-0.765,0.835l-9.602-13.405l0,0l-21.804-31.575
				c0,0,44.17-10.901,48.304-12.028c4.135-1.126,24.245-1.879,28.38-14.282C505.092,272.302,490.828,250.309,490.828,250.309z"/>
		</g>
		<g>
			<path fill="#203C75" d="M446.077,342.593L446.077,342.593l-10.484-15.185c-2.964,5.582-5.309,11.419-6.698,17.511
				c4.178,3.927,7.032,6.507,7.032,6.508l0,0l13.024,13.087c0.544-5.123,1.359-10.244,1.729-15.494L446.077,342.593z"/>
		</g>
		<g>
			<path fill="#030303" d="M452.374,171.178c-0.856-3.185-2.091-3.917-3.301-6.841c-0.333-0.804-2.685-6.708-0.759-12.916
				c2.225-7.17,9.19-11.644,15.276-12.733c3.423-0.615,6.227-0.096,7.954,0.24c2.454,0.478,7.842,1.525,11.76,5.833
				c4.935,5.432,4.789,13.018,4.741,15.424c-0.067,3.566-0.876,5.183-0.542,10.033c0.322,4.688,1.225,5.348,0.84,6.931
				c-2.045,8.38-32.459,10.885-35.669,3.338C451.709,178.206,453.715,176.174,452.374,171.178z"/>
		</g>
		<g>
			<path fill="#FCDDD2" d="M481.109,185.452c0,0,13.309,7.183,14.575,9.295c1.268,2.114,1.479,31.055-1.055,39.504
				c-2.536,8.452,3.716,21.01,3.716,21.01c-6.598,1.422-22.447-2.429-32.039-2.795c-4.619-0.176-5.311-0.132-9.112-0.777
				c-1.388-4.421-3.295-10.858-5.225-18.74c-2.362-9.67-3.544-14.505-3.571-18.666c-0.034-4.791,1.099-15.672,14.119-28.832H481.109
				z"/>
		</g>
		<g>
			<path fill="#203C75" d="M452.057,235.077c-0.168-0.665-0.333-1.338-0.503-2.024c-2.369-9.691-3.557-14.556-3.586-18.765
				c-0.014-2.251,0.233-4.461,0.756-6.751l0.84,0.191c-0.51,2.227-0.75,4.372-0.736,6.556c0.028,4.108,1.209,8.939,3.563,18.565
				c0.165,0.683,0.33,1.355,0.5,2.017L452.057,235.077z"/>
		</g>
		<g>
			<path fill="#203C75" d="M464.786,353.146c-3.606-1.967-6.904,0.596-8.343,2.018c6.782,8.304,14.882,20.083,13.162,30.094
				c1.332,1.319,2.232,2.194,2.421,2.341c0.987,0.769,4.938,0.549,6.035-1.428C479.158,384.196,464.786,353.146,464.786,353.146z"/>
		</g>
		<g>
			<path fill="#FB6D75" d="M446.425,303.168c-11.456,15.886-11.753,19.853-16.262,25.306c-0.505,0.609-1.953,2.316-2.78,4.965
				c-0.635,2.036-0.661,3.833-0.595,4.964c-2.184,10.192-4.255,20.704-6.183,31.529c-1.26,7.063-2.412,14.019-3.471,20.863
				l-3.999,20.143c0,0-3.817,18.838-5.305,26.669c9.27-4.146,14.526-17.433,17.648-27.691c-0.679-0.151-1.124-0.184-1.124-0.184
				l5.768-15.435l13.185-33.475c2.767-8.335,5.532-16.669,8.298-25.002c5.854-3.339,12.317-7.505,19.016-12.688
				c5.263-4.073,9.859-8.146,13.836-12.007c-4.357-1.396-9.224-3.251-14.383-5.739c-6.985-3.371-12.791-7.078-17.443-10.495
				C450.02,298.243,447.918,301.099,446.425,303.168z"/>
		</g>
		<g>
			<path fill="#203C75" d="M431.8,415.706c-0.377-4.09-4.344-5.398-6.328-5.8c-3.11,10.261-8.374,23.551-17.644,27.705
				c-0.352,1.84-0.574,3.077-0.593,3.316c-0.086,1.246,2.297,4.403,4.549,4.212C414.036,444.95,431.8,415.706,431.8,415.706z"/>
		</g>
		<g>
			<path fill="#FB6D75" d="M462.518,166.862v19.858c0,0,3.591,6.126,10.351,5.28c6.762-0.844,8.241-6.548,8.241-6.548l-4.86-23.239
				L462.518,166.862z"/>
		</g>
		<g>
			<path fill="#030303" d="M462.518,179.19v-12.328l13.731-4.649l0.871,4.164C474.075,173.241,468.855,176.631,462.518,179.19z"/>
		</g>
		<g>
			<ellipse fill="#FB6D75" cx="463.888" cy="158.801" rx="13.662" ry="15.221"/>
		</g>
		<g>
			<path fill="#030303" d="M454.589,159.429c0.034-0.166,0.093-0.311,0.176-0.431c0.077-0.133,0.167-0.225,0.272-0.279
				c0.101-0.084,0.212-0.122,0.327-0.116c0.075,0.015,0.148,0.033,0.227,0.048c0.142,0.063,0.267,0.179,0.374,0.347
				c0.043,0.09,0.088,0.179,0.132,0.271c0.077,0.209,0.114,0.436,0.114,0.678v0.198c0.005,0.187-0.017,0.359-0.071,0.518
				c-0.033,0.168-0.094,0.312-0.175,0.434c-0.077,0.13-0.168,0.222-0.274,0.276c-0.1,0.084-0.208,0.123-0.326,0.117
				c-0.074-0.017-0.149-0.033-0.224-0.049c-0.145-0.063-0.271-0.179-0.376-0.344c-0.044-0.092-0.089-0.182-0.132-0.271
				c-0.077-0.211-0.116-0.437-0.116-0.68v-0.198C454.513,159.762,454.537,159.589,454.589,159.429z"/>
		</g>
		<g>
			<path fill="#030303" d="M465.346,158.556c1.092,0,1.092,2.686,0,2.686S464.252,158.556,465.346,158.556z"/>
		</g>
		<g>
			<path fill="#030303" d="M463.493,155.561l-0.354,1.25l6.544,1.814c0.185-0.443,0.373-0.888,0.559-1.33
				C467.991,156.715,465.741,156.138,463.493,155.561z"/>
		</g>
		<g>
			<path fill="#030303" d="M451.528,156.463l0.436,1.234l6.798-0.998c-0.1-0.464-0.201-0.924-0.301-1.385
				C456.15,155.696,453.839,156.079,451.528,156.463z"/>
		</g>
		<g>
			<circle fill="#FB6D75" cx="478.392" cy="159.223" r="5.082"/>
		</g>
		<g>
			<path fill="#030303" d="M479.702,161.059c-0.118,0-0.238-0.05-0.321-0.145l-1.661-1.891c-0.103-0.115-0.136-0.273-0.087-0.419
				c0.047-0.146,0.172-0.255,0.32-0.285c0.779-0.164,1.539-0.424,2.251-0.772c0.209-0.104,0.47-0.017,0.574,0.197
				c0.104,0.213,0.016,0.469-0.197,0.575c-0.563,0.274-1.146,0.499-1.75,0.667l1.194,1.358c0.156,0.179,0.139,0.451-0.037,0.607
				C479.903,161.024,479.804,161.059,479.702,161.059z"/>
		</g>
		<g>
			<path fill="#030303" d="M460.321,164.871c-0.529,0-1.021-0.208-1.368-0.582c-0.693-0.752-0.671-2.045,0.053-2.825
				c0.152-0.162,0.327-0.298,0.503-0.434c0.128-0.1,0.259-0.197,0.373-0.314c0.156-0.16,0.278-0.401,0.21-0.553
				c-0.098-0.215-0.004-0.472,0.214-0.569c0.208-0.098,0.469-0.005,0.568,0.212c0.21,0.465,0.063,1.059-0.378,1.51
				c-0.144,0.146-0.302,0.271-0.463,0.395c-0.137,0.105-0.278,0.211-0.398,0.339c-0.421,0.455-0.444,1.228-0.049,1.655
				c0.191,0.21,0.492,0.332,0.792,0.305c0.312-0.016,0.588-0.154,0.764-0.382c0.143-0.189,0.411-0.223,0.6-0.084
				c0.189,0.144,0.228,0.412,0.085,0.602c-0.327,0.431-0.84,0.694-1.406,0.723C460.387,164.87,460.354,164.871,460.321,164.871z"/>
		</g>
		<g>
			<path fill="#030303" d="M494.928,301.963c-3.133,2.841-4.188,3.687-9.081,7.951c-8.939,7.796-15.642,14.57-19.881,19.047
				c-7.989-3.889-17.176-9.078-26.796-16c-10.994-7.907-19.718-16.036-26.423-23.16c11.153-6.705,20.494-11.153,27.165-14.041
				c8.231-3.564,17.085-5.279,16.303-11.255c-0.348-2.644,0.979-12.815,0.979-12.815c9.332,0.976,19.728,1.326,30.979,0.523
				c2.828-0.202,5.58-0.467,8.256-0.786c1.339,0.795,13.797,12.896,15.667,25.437C514.045,289.785,498.103,299.089,494.928,301.963z
				"/>
		</g>
		<g>
			<path opacity="0.4" fill="#FBB59F" d="M456.229,264.953c0.19,3.826-3.731,5.853-8.806,7.85
				c9.154-0.839,18.314-1.235,26.636-4.563C468.667,265.004,462.568,265.283,456.229,264.953z"/>
		</g>
		<g>
			<path fill="#203C75" d="M418.261,311.976c-1.552,0-3.107-0.138-4.278-0.551l0.289-0.813c3.188,1.136,9.858-0.004,9.93-0.017
				l0.147,0.846C424.163,311.475,421.222,311.976,418.261,311.976z"/>
		</g>
		<g>
			<path fill="#203C75" d="M420.796,414.626l-0.655-0.554c0.236-0.28,0.358-0.687,0.311-1.038c-0.02-0.155-0.085-0.371-0.283-0.506
				c-0.189-0.131-0.469-0.144-0.672-0.03c-0.205,0.112-0.341,0.355-0.33,0.587l-0.86,0.036c-0.021-0.555,0.289-1.107,0.773-1.375
				c0.487-0.269,1.119-0.241,1.574,0.072c0.357,0.247,0.587,0.637,0.652,1.103C421.383,413.51,421.188,414.163,420.796,414.626z"/>
		</g>
		<g>
			<path fill="#203C75" d="M427.676,343.01c-0.323,0-0.651-0.067-0.962-0.221l0.378-0.771c0.719,0.354,1.61-0.051,2.089-0.609
				c0.601-0.696,0.811-1.683,0.929-2.461l0.85,0.125c-0.134,0.896-0.385,2.033-1.126,2.896
				C429.323,342.561,428.507,343.01,427.676,343.01z"/>
		</g>
		<g>
			<path fill="#203C75" d="M398.57,309.495c-0.698,0-1.369-0.202-1.91-0.581l0.493-0.703c0.533,0.372,1.246,0.505,1.951,0.372
				c0.711-0.137,1.321-0.525,1.679-1.069l0.717,0.472c-0.482,0.736-1.295,1.261-2.233,1.44
				C399.033,309.471,398.801,309.495,398.57,309.495z"/>
		</g>
		<g>
			<g>
				<path fill="#FB6D75" d="M496.476,228.083l4.448,8.59l-35.286,9.309c0,0-10.684-2.251-11.58-1.58
					c-0.899,0.671-3.326,5.895-3.326,5.895l6.492,9.621c0,0,7.421-4.342,8.788-5.981c1.369-1.636,22.257-2.563,22.257-2.563
					s28.319-2.379,30.223-5.41c1.903-3.029-7.427-24.591-7.427-24.591L496.476,228.083z"/>
			</g>
			<g>
				<g>
					<path fill="#FB6D75" d="M448.548,252.304c0.237-0.344,5.809-5.919,6.044-3.773c0.079,0.709-0.745,1.856-1.105,2.419
						c-0.538,0.839-1.192,1.604-1.935,2.268c-0.575,0.513-2.329,1.912-3.179,1.329C447.64,254.038,447.984,253.123,448.548,252.304z
						"/>
				</g>
				<g>
					<path fill="#FB6D75" d="M449.887,255.189c0.264-0.37,6.454-6.338,6.74-4.016c0.094,0.767-0.818,2-1.218,2.604
						c-0.593,0.899-1.317,1.723-2.145,2.432c-0.64,0.546-2.592,2.043-3.55,1.401C448.885,257.054,449.261,256.067,449.887,255.189z"
						/>
				</g>
				<g>
					<path fill="#FB6D75" d="M451.852,257.501c0.263-0.368,6.451-6.339,6.739-4.016c0.095,0.768-0.818,2-1.217,2.604
						c-0.597,0.901-1.318,1.721-2.148,2.43c-0.637,0.546-2.591,2.043-3.55,1.404C450.847,259.365,451.223,258.379,451.852,257.501z"
						/>
				</g>
				<g>
					<path fill="#FB6D75" d="M454.497,259.093c0.213-0.306,5.242-5.244,5.464-3.334c0.072,0.634-0.671,1.65-0.995,2.149
						c-0.484,0.745-1.071,1.424-1.742,2.011c-0.52,0.453-2.105,1.692-2.876,1.169C453.68,260.633,453.987,259.818,454.497,259.093z"
						/>
				</g>
			</g>
			<g>
				<path fill="#FCDDD2" d="M474.538,243.633c0.813,2.823,1.623,5.645,2.437,8.465c4.965,0.32,11.996,0.557,20.42,0.116
					c11.996-0.631,18.051-1.014,20.82-4.389c4.762-5.807,0.541-16.445-3.172-25.799c-2.827-7.121-7.965-17.38-17.632-28.068
					c-6.593-4.998-10.906-6.777-12.941-5.336c-4.057,2.871,0.948,18.542,15.017,47.012
					C491.17,238.301,482.853,240.967,474.538,243.633z"/>
			</g>
		</g>
		<g>
			<path fill="#203C75" d="M495.021,227.39c-0.452-0.861-11.083-21.154-11.972-26.134c-0.927-5.198,5.648-9.364,5.928-9.539
				l0.455,0.729c-0.063,0.041-6.359,4.035-5.536,8.658c0.863,4.851,11.774,25.678,11.886,25.888L495.021,227.39z"/>
		</g>
		<g>
			
				<rect x="483.878" y="230.241" transform="matrix(0.3041 0.9526 -0.9526 0.3041 566.1321 -294.0076)" fill="#203C75" width="0.861" height="20.522"/>
		</g>
		<g>
			<path fill="#203C75" d="M471.879,197.244c-0.026,0-0.057-0.001-0.084-0.001c-2.743-0.112-4.242-3.002-4.832-4.476
				c-0.845,1.121-1.903,1.793-3.155,2.002c-3.409,0.553-6.976-2.504-7.124-2.635l0.563-0.647c0.034,0.029,3.436,2.938,6.42,2.434
				c1.243-0.207,2.266-0.989,3.043-2.326l0.505-0.871l0.278,0.969c0.013,0.046,1.349,4.571,4.336,4.692
				c0.023,0.001,0.043,0.001,0.063,0.001c2.656,0,10.33-6.435,13.086-8.936l0.577,0.638
				C484.516,189.03,475.366,197.242,471.879,197.244z"/>
		</g>
		<g>
			<path fill="#203C75" d="M466.45,203.32c-0.868,0-1.576-0.706-1.576-1.575c0-0.867,0.708-1.574,1.576-1.574
				c0.87,0,1.575,0.707,1.575,1.574C468.025,202.614,467.32,203.32,466.45,203.32z M466.45,201.031
				c-0.396,0-0.717,0.321-0.717,0.713c0,0.396,0.321,0.718,0.717,0.718s0.715-0.321,0.715-0.718
				C467.165,201.353,466.846,201.031,466.45,201.031z"/>
		</g>
		<g>
			<path fill="#203C75" d="M465.894,214.1c-0.867,0-1.573-0.707-1.573-1.575c0-0.869,0.706-1.575,1.573-1.575
				c0.868,0,1.575,0.707,1.575,1.575C467.469,213.394,466.762,214.1,465.894,214.1z M465.894,211.809
				c-0.394,0-0.716,0.321-0.716,0.716s0.322,0.716,0.716,0.716s0.718-0.321,0.718-0.716S466.287,211.809,465.894,211.809z"/>
		</g>
		<g>
			<path fill="#203C75" d="M465.894,225.76c-0.867,0-1.573-0.707-1.573-1.575c0-0.869,0.706-1.575,1.573-1.575
				c0.868,0,1.575,0.707,1.575,1.575C467.469,225.053,466.762,225.76,465.894,225.76z M465.894,223.468
				c-0.394,0-0.716,0.322-0.716,0.717s0.322,0.716,0.716,0.716s0.718-0.321,0.718-0.716S466.287,223.468,465.894,223.468z"/>
		</g>
		<g>
			<path fill="#030303" d="M453.566,149.33c1.402,0.825,3.032,1.148,4.6,1.574c4.37,1.187,8.439,3.255,12.601,5.041
				c1.532,0.658,3.338,1.27,4.804,0.473c0.849-0.462,1.401-1.315,1.918-2.133c0.705-1.117,1.409-2.234,2.114-3.351
				c0.247-0.393,0.503-0.808,0.527-1.27c0.021-0.397-0.131-0.782-0.319-1.132c-0.893-1.654-2.578-2.711-4.264-3.541
				c-3.898-1.923-8.199-3.031-12.543-3.232c-3.04-0.141-6.361,0.275-8.54,2.402c-0.696,0.677-1.236,1.496-1.771,2.307
				c-0.231,0.354-0.464,0.708-0.697,1.061c-0.121,0.183-0.587,0.665-0.343,0.87c0.106,0.086,0.357,0.092,0.489,0.139
				c0.164,0.06,0.322,0.137,0.476,0.219C452.945,148.932,453.248,149.141,453.566,149.33z"/>
		</g>
		<g>
			<path fill="#FFFFFF" d="M457.612,168.305c0.061-0.298,0.621-0.26,3.725-0.797c2.572-0.447,3.102-0.631,3.276-0.355
				c0.342,0.534-0.854,2.42-2.574,2.906C459.897,170.665,457.48,168.963,457.612,168.305z"/>
		</g>
		<path fill="#203C75" d="M426.215,341.09c-0.261-0.054-0.087-5.385,2.621-10.8c1.686-3.373,3.91-5.886,4.11-5.759
			c0.217,0.14-2.041,3.296-4.178,8.636C426.809,338.062,426.414,341.133,426.215,341.09z"/>
	</g>
</g>
<g>
	<g>
		<path fill="#3169AF" d="M142.431,303.935c-0.786-7.284-3.803-13.965-7.124-20.189c-5.229-9.805-11.347-18.955-18.218-27.25
			c-0.97-1.171-2.069-2.392-3.454-2.564c-2.048-0.252-3.735,1.884-4.67,4.037c-3.653,8.415-1.275,18.539,1.162,27.537
			c1.369,5.051,2.738,10.101,4.107,15.152c2.041,7.54,4.245,15.395,9.036,20.96c3.215,3.734,8.323,6.364,12.792,4.118
			c3.28-1.649,4.272-6.506,5.311-10.09C142.471,311.862,142.862,307.906,142.431,303.935z"/>
	</g>
	<g>
		<path fill="#3169AF" d="M163.364,331.796c1.819-7.235,3.271-14.597,4.344-22.034c0.152-1.049,0.292-2.159-0.053-3.142
			c-0.6-1.714-2.508-2.353-4.034-1.864c-1.525,0.488-2.742,1.804-3.875,3.094c-8.347,9.499-16.098,21.042-17.153,34.629
			c-0.098,1.257-0.131,2.56,0.219,3.751c0.707,2.401,2.734,3.777,4.581,4.805c2.066,1.148,3.613,1.767,5.373-0.093
			c1.567-1.656,3.338-2.852,4.726-4.768c1.397-1.927,2.488-4.138,3.394-6.426C161.901,337.185,162.683,334.502,163.364,331.796z"/>
	</g>
	<g>
		<path fill="#3169AF" d="M110.708,334.536c-1.974-0.964-3.788-1.208-4.964,0.076c-3.962,4.32,5.665,18.52,7.821,22.145
			c4.224,7.101,14.927,20.387,23.569,17.575c8.407-2.733-13.566-29.309-16.716-32.108
			C118.716,340.708,114.424,336.35,110.708,334.536z"/>
	</g>
	<g>
		<g>
			<path fill="#030303" d="M143.431,383.896l0.58-0.054c-0.031-0.57-1.791-5.816-5.674-10.3c-3.899-4.506-6.979-7.601-7.01-7.632
				l-0.378,0.521c0.031,0.031,3.095,3.111,6.978,7.596C141.771,378.466,143.383,383.496,143.431,383.896z"/>
		</g>
	</g>
	<g>
		<g>
			<path fill="#030303" d="M142.101,367.982l0.578-0.092l-0.288,0.046l0.29-0.03c-0.024-0.597,0.9-11.071,4.115-17.188
				c3.289-6.254,5.584-11.428,5.606-11.479l-0.515-0.316c-0.025,0.052-2.31,5.206-5.587,11.438
				C142.898,356.835,142.052,367.56,142.101,367.982z"/>
		</g>
	</g>
	<g>
		<g>
			<path fill="#030303" d="M142.366,423.514c5.837-44.832-0.895-90.917-19.47-133.275l-0.978,0.298
				c18.518,42.233,25.23,88.185,19.407,132.883L142.366,423.514z"/>
		</g>
	</g>
	<g>
		<path fill="#FEAF51" d="M134.35,441.537h25.793c3.347,0,6.06-2.713,6.06-6.06v-38.423h-37.915v38.423
			C128.288,438.824,131.002,441.537,134.35,441.537z"/>
	</g>
	<g>
		<path fill="#030303" d="M166.203,397.055v8.449c-12.271,1.423-26.386-1.842-37.915,2.346v-10.795H166.203z"/>
	</g>
	<g>
		<rect x="125.533" y="392.397" fill="#FEAF51" width="43.707" height="9.641"/>
	</g>
</g>
<g>
	<g>
		<path fill="#13457C" d="M554.784,384.575c-2.068-4.985-6.985-9.391-12.855-9.513c-1.814-0.039-3.686,0.322-5.419-0.172
			c-1.146-0.326-2.132-1.002-3.027-1.729c-5.876-4.762-8.79-12.353-7.45-19.397c0.6-3.146,2.759-6.674,6.279-6.725
			c2.447-0.034,4.533,1.727,5.624,3.714c1.092,1.986,1.455,4.229,2.202,6.342c1.06,2.993,2.913,5.754,5.362,7.979
			c2.061,1.873,4.519,3.361,6.535,5.271c6.955,6.595,7.406,16.689,7.448,25.813c0.005,0.947-0.118,3.963-1.945,3.469
			c-1.573-0.423-0.95-3.305-0.956-4.338C556.56,391.667,556.201,387.989,554.784,384.575z"/>
	</g>
	<g>
		<path fill="#3169AF" d="M556.414,381.856c-1.168-1.837-2.707-3.467-3.821-5.33c-3.304-5.521-2.483-12.233-1.573-18.461
			c0.898-6.149,1.798-12.301,2.697-18.452c0.423-2.895,0.853-5.816,1.943-8.563c0.201-0.506,0.44-1.026,0.898-1.37
			c1.219-0.911,3.072-0.034,4.12,1.04c3.542,3.638,3.729,9.06,2.752,13.833c-0.977,4.771-2.923,9.424-2.973,14.277
			c-0.072,6.901,3.663,13.295,5.744,19.934c1.269,4.048,1.931,8.255,1.959,12.465c0.009,1.248-0.042,2.519-0.479,3.704
			c-0.252,0.688-0.64,1.336-1.133,1.909c-0.443,0.518-1.08,1.218-1.793,1.427c-1.427,0.42-2.351-1.83-2.79-2.688
			c-1.46-2.838-2.213-5.914-3.279-8.88C558.085,385.03,557.384,383.38,556.414,381.856z"/>
	</g>
	<g>
		<path fill="#3169AF" d="M568.252,386.157c-2.338-2.647-5.395-5.253-5.469-8.645c-0.038-1.818,0.82-3.542,1.661-5.193
			c2.044-4.012,4.088-8.025,6.134-12.038c1.062-2.088,2.133-4.193,2.698-6.437c0.535-2.118,0.606-4.314,0.516-6.487
			c-0.22-5.232-1.371-10.436-3.395-15.342c-0.311-0.752-0.646-1.512-0.717-2.312c-0.088-0.989,0.232-1.97,0.582-2.909
			c0.927-2.475,2.16-4.948,4.298-6.7c2.138-1.751,5.362-2.619,7.981-1.533c2.225,0.921,3.569,2.995,4.55,5.027
			c2.351,4.877,3.424,10.385,2.154,15.581c-0.677,2.774-1.992,5.382-3.299,7.966c-1.431,2.827-2.86,5.655-4.29,8.483
			c-1.391,2.747-2.793,5.53-3.392,8.504c-0.976,4.848,0.245,9.839-0.121,14.756c-0.278,3.737-1.465,7.347-2.388,10.979
			c-0.232,0.916-0.45,1.833-0.632,2.759c-0.092,0.467-0.176,0.934-0.247,1.403c-0.06,0.377-0.026,0.875-0.226,1.219
			c-0.257,0.44-0.392,0.082-0.556-0.222c-0.228-0.417-0.456-0.835-0.688-1.25c-0.457-0.823-0.927-1.639-1.418-2.444
			C570.889,389.52,569.675,387.767,568.252,386.157z"/>
	</g>
	<g>
		<path fill="#3169AF" d="M576.098,390.011c-1.146-1.678-2.25-3.389-3.01-5.238c-2.104-5.123-1.272-11.159,2.156-15.657
			c1.179-1.545,2.629-2.903,4.09-4.235c6.62-6.031,13.839-11.982,17.314-19.89c0.489-1.11,0.92-2.285,1.811-3.165
			c0.895-0.882,2.414-1.381,3.561-0.784c0.846,0.439,1.255,1.329,1.58,2.163c1.47,3.778,2.367,8.003,0.776,11.738
			c-2.274,5.35-8.855,8.116-12.283,12.932c-1.552,2.181-2.401,4.714-3.005,7.25c-0.584,2.454-0.954,4.948-1.108,7.453
			c-0.184,2.96-0.068,5.962-0.785,8.855c-0.53,2.139-1.582,4.257-3.325,5.81c-0.348,0.31-0.826,0.812-1.364,0.767
			c-0.534-0.044-0.898-0.569-1.183-0.922c-0.866-1.079-1.705-2.178-2.526-3.286C577.871,392.553,576.97,391.29,576.098,390.011z"/>
	</g>
	<g opacity="0.34">
		<path fill="#3169AF" d="M556.414,381.856c-1.168-1.837-2.707-3.467-3.821-5.33c-3.304-5.521-2.483-12.233-1.573-18.461
			c0.898-6.149,1.798-12.301,2.697-18.452c0.423-2.895,0.853-5.816,1.943-8.563c0.201-0.506,0.44-1.026,0.898-1.37
			c1.219-0.911,3.072-0.034,4.12,1.04c3.542,3.638,3.729,9.06,2.752,13.833c-0.977,4.771-2.923,9.424-2.973,14.277
			c-0.072,6.901,3.663,13.295,5.744,19.934c1.269,4.048,1.931,8.255,1.959,12.465c0.009,1.248-0.042,2.519-0.479,3.704
			c-0.252,0.688-0.64,1.336-1.133,1.909c-0.443,0.518-1.08,1.218-1.793,1.427c-1.427,0.42-2.351-1.83-2.79-2.688
			c-1.46-2.838-2.213-5.914-3.279-8.88C558.085,385.03,557.384,383.38,556.414,381.856z"/>
	</g>
	<g opacity="0.34">
		<path fill="#3169AF" d="M576.098,390.011c-1.146-1.678-2.25-3.389-3.01-5.238c-2.104-5.123-1.272-11.159,2.156-15.657
			c1.179-1.545,2.629-2.903,4.09-4.235c6.62-6.031,13.839-11.982,17.314-19.89c0.489-1.11,0.92-2.285,1.811-3.165
			c0.895-0.882,2.414-1.381,3.561-0.784c0.846,0.439,1.255,1.329,1.58,2.163c1.47,3.778,2.367,8.003,0.776,11.738
			c-2.274,5.35-8.855,8.116-12.283,12.932c-1.552,2.181-2.401,4.714-3.005,7.25c-0.584,2.454-0.954,4.948-1.108,7.453
			c-0.184,2.96-0.068,5.962-0.785,8.855c-0.53,2.139-1.582,4.257-3.325,5.81c-0.348,0.31-0.826,0.812-1.364,0.767
			c-0.534-0.044-0.898-0.569-1.183-0.922c-0.866-1.079-1.705-2.178-2.526-3.286C577.871,392.553,576.97,391.29,576.098,390.011z"/>
	</g>
	<g>
		<path fill="#3169AF" d="M599.14,363.197c1.729-1.14,3.601-2.205,5.707-2.538c2.988-0.475,6.161,0.668,8.196,2.712
			c2.035,2.043,2.966,4.888,2.786,7.637c-0.138,2.074-1.336,4.474-3.616,4.688c-1.906,0.179-3.506-1.27-5.358-1.715
			c-2.004-0.482-4.092,0.24-6.013,0.95c-1.849,0.687-3.701,1.372-5.552,2.056c-1.36,0.504-2.739,1.017-3.898,1.835
			c-1.123,0.79-1.993,1.831-2.811,2.884c-2.794,3.604-5.115,7.508-6.906,11.602c-0.45,1.029-0.841,2.075-1.252,3.116
			c-0.185,0.466-0.571,1.745-1.292,1.042c-1.233-1.201-0.459-3.44-0.183-4.833c0.742-3.735,1.999-7.386,3.712-10.85
			c1.718-3.474,3.893-6.762,6.472-9.766c2.564-2.988,5.528-5.693,8.825-8.014C598.347,363.729,598.742,363.461,599.14,363.197z"/>
	</g>
	<g>
		<polygon fill="#203C75" points="588.846,438.074 553.836,438.074 548.221,383.551 594.462,383.551 		"/>
	</g>
	<g>
		<path fill="#030303" d="M593.709,392.545l0.753-8.994h-46.241l0.598,7.14C564.211,391.29,579.488,389.353,593.709,392.545z"/>
	</g>
	<g>
		<rect x="545.963" y="379.854" fill="#203C75" width="50.762" height="8.759"/>
	</g>
</g>
</svg>
