<?xml version="1.0" encoding="utf-8"?>
<!-- Generator: Adobe Illustrator 16.0.0, SVG Export Plug-In . SVG Version: 6.00 Build 0)  -->
<!DOCTYPE svg PUBLIC "-//W3C//DTD SVG 1.1//EN" "http://www.w3.org/Graphics/SVG/1.1/DTD/svg11.dtd">
<svg version="1.1" id="Layer_1" xmlns="http://www.w3.org/2000/svg" xmlns:xlink="http://www.w3.org/1999/xlink" x="0px" y="0px"
	 width="430.667px" height="248.949px" viewBox="0 0 430.667 248.949" enable-background="new 0 0 430.667 248.949"
	 xml:space="preserve">
<g>
	<g>
		<g>
			<g>
				<g>
					<defs>
						<rect id="SVGID_1_" x="6.738" y="31.108" width="421.447" height="221.854"/>
					</defs>
					<clipPath id="SVGID_2_">
						<use xlink:href="#SVGID_1_"  overflow="visible"/>
					</clipPath>
				</g>
			</g>
		</g>
	</g>
	<g>
		<g>
			<defs>
				
					<rect id="SVGID_3_" x="2.86" y="207.775" transform="matrix(0.9998 0.0191 -0.0191 0.9998 4.3624 -3.9772)" width="415.058" height="37.218"/>
			</defs>
			<clipPath id="SVGID_4_">
				<use xlink:href="#SVGID_3_"  overflow="visible"/>
			</clipPath>
		</g>
	</g>
	<g>
		<g>
			<rect x="267.011" y="89.075" fill="#818489" width="1.689" height="15.02"/>
		</g>
		<g>
			<path fill="#3169AF" d="M271.857,104.095h-8.005c-0.789,0-1.429,0.64-1.429,1.429v0.689h10.861v-0.689
				C273.287,104.734,272.646,104.095,271.857,104.095z"/>
		</g>
		<g>
			<polygon fill="#818489" points="277.77,83.021 257.94,83.021 266.736,89.075 268.972,89.075 			"/>
		</g>
	</g>
	<g>
		<path fill="#942118" d="M158.585,94.686c-0.256-0.086-0.51-0.17-0.763-0.26C158.073,94.514,158.329,94.6,158.585,94.686z"/>
		<path fill="#942118" d="M161.991,95.682c0.059,0.018,0.119,0.033,0.18,0.047c0.01,0.002,0.018,0.004,0.025,0.006
			C162.128,95.717,162.058,95.699,161.991,95.682z"/>
		<path fill="#942118" d="M159.796,95.072c-0.043-0.012-0.082-0.025-0.123-0.037C159.714,95.047,159.753,95.061,159.796,95.072z"/>
	</g>
	<path fill="#352C2C" d="M263.343,206.773c0.176,1.371-0.059,3.574-1.551,3.483c-0.865-0.049-1.658,1.236-2.494,1.545
		c-3.446,1.265-7.246-1.317-10.682-2.596c-0.925-0.347-1.529-0.496-2.474-0.793c0.049-0.949-1.108-8.41,2.763-6.715
		c0.463-0.052,0.949,0.146,1.426,0.231c0.104-0.121,0.201-0.121,0.291,0.021c1.004,0.157,1.994,0.422,3.022,0.313
		c2.271,0.301,4.537,0.588,6.804,0.907c1.264,0.179,2.567,0.108,3.781,0.608C262.166,204.254,263.36,205.693,263.343,206.773z"/>
	<path opacity="0.3" fill="#716A89" enable-background="new    " d="M386.562,218.092c-5.329-0.314-11.98-0.467-20.061-0.395
		c-86.387,0.768-271.304,0.17-271.304,0.17l-0.228,1.641l8.199,0.375l-1.014,6.604l-18.517-0.038l-0.376,1.983l139.016,0.43
		c0,0,0.521-0.521,0.786-1.334c1.815,2.154-3.343,5.843-2.497,5.843c2.938,0,3.922,0,7.033,0c1.547,0,5.365-3.55,8.497-3.502
		c6.315,0.096,15.304-0.328,22.017-0.328c17.889,0,107.273-1.146,109.09-1.207c15.781-0.54,15.18-2.154,20.689-3.97L386.562,218.092
		z"/>
	<path fill="#3D2D2D" d="M265.987,217.83c-0.511-2.666-0.858-5.395-2.319-7.783c-0.467,1.068-5.24,5.672-11.949,2.168
		c-1.028-0.537-4.83-5.248-6.197-5.133c-1.137,0.34-3.555,2.861-5.814,3.676c-3.697,1.334-7.32,4.238-11.422,4.541
		c-5.539,0.41-10.063,1.945-8.437,7.195c0.003,0.328,9.288,0.924,12.717,1.02c4.993,0.142,25.166-2.576,31.454-2.188
		c0.611,0.039,1.212,0.073,1.701-0.396C266.076,219.92,266.183,218.855,265.987,217.83z"/>
	<path fill="#959EAB" d="M265.987,215.004c-0.511-2.668-0.858-5.396-2.319-7.785c-0.467,1.07-5.24,5.672-11.949,2.17
		c-1.028-0.537-4.83-5.248-6.197-5.135c-1.137,0.34-3.555,2.863-5.814,3.678c-3.697,1.332-7.32,4.238-11.422,4.541
		c-5.539,0.41-10.063,1.943-8.437,7.195c0.003,0.326,9.288,0.922,12.717,1.021c4.993,0.137,25.166-2.58,31.454-2.191
		c0.611,0.037,1.212,0.072,1.701-0.395C266.076,217.094,266.183,216.029,265.987,215.004z"/>
	<path fill="#2291AA" d="M330.343,146.424c-1.307-0.729-2.588-1.484-4-2.016c-5.262-1.984-10.889-3.049-15.707-6.158
		c-2.652-1.711-4.248-4.252-5.438-7.092c-0.105-0.008-0.197-0.016-0.291-0.021c0.094-0.039,0.196-0.08,0.305-0.123
		c0.019-0.088,0.031-0.18,0.039-0.27c-1.537-0.236-3.069-0.521-4.615-0.697c-10.596-1.213-21.2-2.285-31.885-2.42
		c-5.515-0.068-6.797,0.625-8.69,5.846c-0.017,0.049-0.028,0.098-0.044,0.146c-1.479,4.028-2.213,8.241-3.066,12.424
		c-0.724,3.556-2.32,6.849-3.096,10.39c-0.988,4.52-1.947,9.047-3.049,13.538c-1.801,7.341-2.782,14.855-4.958,22.119
		c-0.624,2.084-0.874,4.326-1.405,6.472c-0.58,2.344-0.514,2.483,1.74,3.502c0.466,0.213,3.289,1.221,4.281,1.498
		c0.457,0.127,5.123,1.424,5.607,1.51c3.088,0.551,6.079,1.594,9.241,1.729c0.917-0.414,1.222-1.266,1.442-2.137
		c0.74-2.938,1.449-5.834,1.779-8.91c1.092-10.158,6.094-43.01,7.045-44.848c1.148-2.219,0.146-2.367,2.547-1.744
		c7.933,2.066,16.834,3.762,24.824,5.588c8.104,1.855,16.315,2.52,24.6,1.914c3.882-0.285,7.918-1.816,10.029-5.27
		c0.539-0.884,0.866-1.431,1.121-1.859C335.589,149.059,333.057,147.939,330.343,146.424z"/>
	<g>
		<g>
			<g>
				<path fill="#FFFFFF" d="M238.511,109.611c0,0.604-14.801,6.986-14.801,6.986l-49.854-1.953l-30.212-4.027l-2.039-3.557
					c0,0,1.107-0.18,2.838-0.264c10.184-0.492,45.572-2.078,51.77-2.424c7.253-0.404,28-1.293,28-1.293L238.511,109.611z"/>
				<rect x="217.576" y="116.348" fill="#7C7B7B" width="12.268" height="91.936"/>
				<path fill="#8E8C8B" d="M224.937,204.678l-7.361,3.605v-60.236c0,0,0.424,1.162,2.092,1.707c1.67,0.545,2.974,0.242,2.974,0.242
					L224.937,204.678z"/>
				<polygon fill="#7C7B7B" points="217.677,208.623 229.942,205.018 266.389,219.74 263.388,227.25 				"/>
				<polygon fill="#7C7B7B" points="217.585,204.678 229.603,204.678 227.601,233.369 220.567,233.369 218.251,212.996 				"/>
				<polygon fill="#A09D9C" points="218.376,205.879 218.068,204.303 181.131,219.4 181.966,221.488 				"/>
				<polygon fill="#7C7B7B" points="230.185,208.623 217.914,205.018 181.472,219.74 184.473,227.25 				"/>
				<polygon fill="#8E8C8B" points="218.376,205.879 218.251,212.996 220.567,233.369 220.735,226.385 				"/>
				<polygon fill="#A09D9C" points="217.935,204.678 229.957,204.678 228.035,226.385 220.735,226.385 218.233,205.936 				"/>
				<polygon fill="#7C7B7B" points="229.603,204.678 229.886,212.996 227.568,233.369 227.403,226.385 				"/>
				<polygon fill="#A09D9C" points="221.636,204.678 217.576,204.678 217.576,148.047 218.687,151.182 				"/>
				<polygon fill="#7C7B7B" points="224.937,204.678 229.638,211.287 231.638,210.047 232.539,207.232 229.603,204.678 
					228.235,203.061 				"/>
				<path fill="#784639" d="M251.496,141.725c0,2.828-12.438,5.121-27.785,5.121c-15.349,0-27.788-2.293-27.788-5.121
					c0-0.596,0-8.195,0-8.195s15.66,3.072,27.788,3.072c13.731,0,15.397-5.899,27.785-3.072
					C251.496,133.529,251.496,141.051,251.496,141.725z"/>
				
					<linearGradient id="SVGID_5_" gradientUnits="userSpaceOnUse" x1="151.0303" y1="72.4009" x2="336.3076" y2="72.4009" gradientTransform="matrix(1 0 0 -1 -20.96 202.2891)">
					<stop  offset="0" style="stop-color:#BF643C"/>
					<stop  offset="0.1288" style="stop-color:#AE5C39"/>
					<stop  offset="0.4318" style="stop-color:#8C4A34"/>
					<stop  offset="0.6823" style="stop-color:#784030"/>
					<stop  offset="0.8478" style="stop-color:#703C2F"/>
					<stop  offset="0.8939" style="stop-color:#734034"/>
					<stop  offset="0.946" style="stop-color:#7C4D41"/>
					<stop  offset="0.9971" style="stop-color:#8A6156"/>
				</linearGradient>
				<path fill="url(#SVGID_5_)" d="M313.748,130.619c0,3.732-40.313,8.563-90.037,8.563c-49.729,0-90.04-4.828-90.04-8.563
					c0-0.781,0-9.012,0-9.012s50.748,4.057,90.04,4.057c44.494,0,49.899-7.789,90.037-4.057
					C313.748,121.607,313.748,129.732,313.748,130.619z"/>
				<ellipse fill="#FFFFFF" cx="223.708" cy="121.607" rx="90.039" ry="6.76"/>
				<path fill="#FFFFFF" d="M224.212,103.08c49.496,0.02,88.756,3.119,89.535,6.76c1.229,5.738-40.313,6.758-90.037,6.758
					L224.212,103.08z"/>
				<path fill="#A09D9C" d="M358.896,219.447c-0.326-1.557-7.988-38.451-7.988-64.99c0-36.078,8.699-65.074,11.559-74.604
					c0.425-1.412,0.863-2.871,0.925-3.227c-0.021,0.111-0.017,0.201-0.017,0.264h5.428c0,0.717-0.215,1.467-1.133,4.523
					c-2.803,9.342-11.332,37.764-11.332,73.043c0,25.979,7.797,63.502,7.875,63.879L358.896,219.447z"/>
				<polygon fill="#924B33" points="285.74,147.996 350.283,147.996 351.63,159.867 285.74,159.867 				"/>
				<rect x="285.082" y="173.023" fill="#A09D9C" width="68.642" height="5.656"/>
				
					<rect x="281.229" y="149.394" transform="matrix(-0.9926 -0.1212 0.1212 -0.9926 544.4549 401.6572)" fill="#7D8C91" width="6.429" height="69.75"/>
				<path fill="#A09D9C" d="M369.664,228.432l5.396-1.127c-0.08-0.377-7.874-37.908-7.874-63.873
					c0-35.285,9.17-66.875,12.183-77.253c0.996-3.424,1.205-4.174,1.205-4.887l-3.457-3.295c0.271-2.141-1.805,0.01-1.785-0.105
					c-0.063,0.381-0.771,5.086-1.256,6.75c-3.068,10.566-12.402,42.72-12.402,78.791
					C361.673,189.973,369.339,226.875,369.664,228.432z"/>
				<rect x="298.981" y="156.615" fill="#A09D9C" width="64.457" height="12.229"/>
				<rect x="296.888" y="182" fill="#A09D9C" width="68.643" height="5.658"/>
				
					<rect x="293.046" y="157.3" transform="matrix(-0.9929 -0.1193 0.1193 -0.9929 567.4071 419.4227)" fill="#7D8C91" width="6.432" height="70.843"/>
				<polygon fill="#7D8C91" points="298.814,156.928 285.74,148.008 284.585,159.32 297.485,167.699 				"/>
				<path fill="#595857" d="M362.218,161.822c0.787-0.484,0.611-1.854,0.229-4.254c-0.386-2.402-10.568-7.896-12.951-8.353
					c-2.382-0.455-13.721-2.399-30.093-2.629c-16.37-0.229-32.854,1.942-33.663,3.086c-0.808,1.146-1.125,3.24-0.617,4.231
					c0.508,0.994,10.371,7.277,12.783,8.121C300.318,162.873,361.432,162.307,362.218,161.822z"/>
				<path fill="#698C81" d="M362.218,160.145c0.787-0.483,1.105-1.979,0.722-4.383c-0.383-2.402-11.062-7.766-13.444-8.225
					c-2.382-0.455-13.721-2.398-30.093-2.629c-16.37-0.229-32.854,1.943-33.663,3.088c-0.808,1.143-1.125,3.24-0.617,4.232
					c0.508,0.991,10.371,7.274,12.783,8.121C300.318,161.193,361.432,160.629,362.218,160.145z"/>
				<path fill="#9FC6C3" d="M361.014,151.533c-2.522-1.775-5.599-3.521-7.75-3.908c-2.632-0.473-13.912-2.568-30.286-2.797
					c-16.371-0.23-32.768,1.793-33.572,2.936c-0.152,0.219,2.605,1.068,5.246,2.625c4.09,2.412,6.412,5.348,8.674,5.142
					c36.998-3.412,52.299-1.259,59.902-0.072c0.383,0.058,0.154-1.188-0.542-2.281C362.166,152.367,361.207,151.668,361.014,151.533
					z"/>
				<path fill="#77988F" d="M381.386,81.986c0.604-2.229-0.736-4.521-2.971-5.094l-12.941-3.311
					c-2.238-0.572-4.561,0.785-5.162,3.012l-4.961,18.381c-0.604,2.227,0.766,4.355,2.947,5.105l12.689,4.359
					c2.186,0.752,4.389-0.15,4.988-2.379L381.386,81.986z"/>
				<path fill="#595857" d="M383.093,81.691c0.615-2.287-0.758-4.639-3.051-5.227l-13.281-3.396
					c-2.297-0.588-4.676,0.803-5.295,3.09l-5.094,18.861c-0.617,2.287,0.713,4.787,2.949,5.559l13.086,4.242
					c2.24,0.768,4.516-0.244,5.133-2.529L383.093,81.691z"/>
				<path fill="#698C81" d="M381.914,81.775c0.601-2.229-0.736-4.52-2.975-5.092l-12.941-3.311
					c-2.234-0.572-4.559,0.781-5.158,3.012l-4.963,18.381c-0.604,2.229,0.689,4.664,2.871,5.414l12.69,4.359
					c2.185,0.75,4.46-0.459,5.063-2.689L381.914,81.775z"/>
				<path fill="#9FC6C3" d="M362.511,76.211c-0.567-0.1-3.467-2.229-3.906-2.307c2.798-4.613,20.77,2.266,20.77,2.266
					c2.387,0.842,2.823,2.893,2.658,4.867c-1.264-0.639-3.945-1.582-4.938,0.107c-1.049,1.783-5.244-3.254-6.4-3.357
					C369.542,77.682,367.233,77.051,362.511,76.211z"/>
				<path fill="#698C81" d="M356.48,98.354c-0.232-0.361-0.424-0.744-0.55-1.152l0.741,0.135l2.099,1.189l3.706,1.816
					c0,0,1.538,0,2.029-0.068c0.486-0.07,7.273-1.258,7.345,1.26c0.063,2.211,3.032,1.67,4.467,0.797
					c-0.782,1.912-2.862,2.902-4.879,2.209l-8.688-2.984L356.48,98.354z"/>
				<path fill="#698C81" d="M377.255,80.627c0.551-2.209-0.815-4.443-3.031-4.965l-12.004-3.029
					c-2.215-0.521-4.479,0.861-5.028,3.068l-4.538,18.223c-0.548,2.209,0.773,4.586,2.94,5.283l11.778,4.068
					c2.166,0.695,4.389-0.541,4.938-2.75L377.255,80.627z"/>
				<path fill="#C4BFD1" d="M268.072,102.926c-4.23,1.096-4.82,1.678-5.281,2.973c-0.461,1.297,23.865,6.793,36.023,7.67
					s12.404,4.652,12.404,4.652s2.338-4.697,2.434-6.541c0.096-1.84,1.279-2.848-2.286-3.287
					C307.802,107.949,268.072,102.926,268.072,102.926z"/>
				<path fill="#3D2D2D" d="M280.306,223.037c-0.51-2.668-0.862-5.396-2.32-7.783c-0.468,1.068-5.24,5.67-11.949,2.168
					c-1.027-0.537-4.832-5.248-6.195-5.135c-1.139,0.342-3.555,2.863-5.815,3.678c-3.698,1.334-7.321,4.238-11.423,4.543
					c-5.538,0.408-10.063,1.941-8.436,7.193c0.002,0.326,9.287,0.926,12.715,1.021c4.996,0.137,25.166-2.58,31.455-2.191
					c0.611,0.039,1.211,0.074,1.703-0.393C280.394,225.127,280.501,224.063,280.306,223.037z"/>
				<path fill="#895637" d="M292.865,222.357c0.008-1.234,0.016-2.469,0.026-3.703C293.341,219.893,293.115,221.123,292.865,222.357
					z"/>
				<path fill="#2F3743" d="M314.421,127.412c0.043,0.035,0.082,0.072,0.131,0.104c0.523,0.334,0.885,0.68,1.119,1.039
					C315.066,128.211,314.667,127.834,314.421,127.412z M314.843,132.02c0.268-0.699,0.592-1.346,1.08-1.908
					c-0.123,0.496-0.409,1.015-0.83,1.554C315.009,131.777,314.98,131.943,314.843,132.02z"/>
				<path fill="#605757" d="M277.768,212.648c0.174,1.371-0.056,3.574-1.552,3.485c-0.863-0.051-1.658,1.236-2.493,1.546
					c-3.446,1.264-7.245-1.32-10.681-2.599c-0.924-0.349-1.529-0.496-2.476-0.793c0.05-0.949-1.106-8.41,2.765-6.715
					c0.461-0.052,0.949,0.146,1.424,0.231c0.104-0.121,0.203-0.121,0.291,0.019c1.004,0.159,1.994,0.426,3.025,0.313
					c2.268,0.303,4.535,0.59,6.803,0.908c1.264,0.178,2.568,0.109,3.781,0.609C276.589,210.131,277.785,211.568,277.768,212.648z"/>
				<path fill="#B4BBC9" d="M280.306,220.211c-0.51-2.668-0.862-5.396-2.32-7.785c-0.468,1.068-5.24,5.67-11.949,2.168
					c-1.027-0.535-4.832-5.248-6.195-5.133c-1.139,0.34-3.555,2.861-5.815,3.676c-3.698,1.334-7.321,4.238-11.423,4.543
					c-5.538,0.408-10.063,1.945-8.436,7.193c0.002,0.33,9.287,0.926,12.715,1.021c4.996,0.139,25.166-2.578,31.455-2.191
					c0.611,0.041,1.211,0.074,1.703-0.393C280.394,222.299,280.501,221.234,280.306,220.211z"/>
				<path fill="#3FC0D1" d="M265.444,203.467c-0.057,0.646-0.348,3.512-0.405,4.301c0.946,0.729,1.979,0.789,3.069,0.398
					c0.69-0.469,0.877-1.189,0.981-1.953c0.148-1.096,0.304-2.191,0.553-3.27c0.438-1.914,0.85-3.822,0.341-5.801
					c-0.177-0.693-0.067-1.431,0.259-2.063c0.885-1.711,1.01-3.533,1.01-5.416c0.004-1.552,0.207-3.104,0.4-4.646
					c1.087-8.627,2.756-17.16,4.18-25.731c0.309-1.849,0.953-3.582,1.905-5.209c1.515-2.58,1.115-6.556-0.846-8.955
					c0.448-1,1.594-1.063,2.36-1.642c2.158-0.143,4.322,0.021,6.444,0.242c7.251,0.756,14.464,1.828,21.696,2.756
					c4.488,0.574,8.938,1.584,13.496,1.531c0.033-0.061,0.068-0.125,0.111-0.199c0.172-0.283,1.08-0.381,1.229-0.678
					c0.987-0.576-0.132-1.566-0.483-2.275c-0.547-1.094-1.373-1.973-2.357-2.703c-3.495-2.586-6.629-5.522-8.946-9.252
					c-1.012-1.631-0.987-1.799,0.509-2.567c0.01-0.092,0.014-0.183,0.014-0.272c-1.555-0.082-3.107-0.22-4.662-0.242
					c-10.663-0.17-21.321-0.201-31.967,0.709c-5.494,0.473-6.705,1.289-8.078,6.668c-0.014,0.051-0.02,0.102-0.029,0.15
					c-1.08,4.151-1.398,8.416-1.836,12.663c-0.375,3.607-1.641,7.041-2.066,10.642c-0.539,4.594-1.055,9.192-1.711,13.772
					c-1.07,7.479-1.314,15.058-2.77,22.496c-0.416,2.136-0.446,4.394-0.764,6.578c-0.352,2.39-0.271,2.522,2.071,3.313
					c0.483,0.168,3.394,0.896,4.408,1.072c0.467,0.082,0.985,0.215,1.323-0.318c0.16-0.715,0.271-1.436,0.359-2.157
					C265.311,204.76,265.376,204.111,265.444,203.467L265.444,203.467z"/>
				<path fill="#152231" d="M276.841,142.893c-0.104,0.293-0.211,0.588-0.318,0.883c-1.445-1.868-1.742-4.155-2.271-6.399
					c1.025,1.621,2.471,2.892,3.49,4.483C278.435,142.943,276.849,142.281,276.841,142.893z"/>
				<path fill="#2291AA" d="M337.468,143.213c-1.369-0.598-2.721-1.223-4.176-1.613c-5.433-1.463-11.138-1.969-16.235-4.594
					c-2.808-1.443-4.644-3.816-6.104-6.525c-2.101,0.047-2.175,0.154-1.244,1.986c0.248,0.488,0.578,0.932,0.861,1.4
					c2.258,3.707,5.535,6.387,8.926,8.979c1.266,0.969,2.307,2.199,2.356,3.955c0,0.002,0,0.002,0.001,0.002
					c-0.373,0.904-10.617-0.285-15.38-0.908c-3.662-0.479-7.32-0.994-10.983-1.459c-2.725-0.348-5.492-0.469-8.175-1.01
					c-2.38-0.482-4.839,0.256-7.153-0.684c-0.563-0.229-0.658,0.242-0.824,0.59c-1.162,0.223-2.414,0.326-2.514,1.953
					c0.096,0.285,0.18,0.572,0.285,0.85c1.109,2.959,2.043,5.836-0.209,8.805c-1.044,1.381-1.307,3.215-1.594,4.961
					c-0.924,5.609-1.885,11.211-2.857,16.812c-0.779,4.476-1.451,8.968-1.63,13.509c-0.065,1.676-0.142,3.276-0.983,4.793
					c-0.402,0.729-0.549,1.573-0.283,2.454c0.371,1.214,0.391,2.455,0.029,3.687c-0.67,2.293-0.529,4.76-1.509,6.986
					c0.226,0.551,0.714,0.661,1.22,0.702c3.123,0.246,6.203,0.992,9.365,0.814c0.871-0.5,1.094-1.377,1.227-2.265
					c0.449-2.998,0.873-5.951,0.898-9.043c0.094-10.219,1.857-43.399,2.625-45.322c0.926-2.319-0.084-2.37,2.361-1.983
					c8.098,1.279,17.125,2.097,25.256,3.133c8.248,1.056,16.482,0.912,24.667-0.502c3.836-0.663,7.706-2.582,9.466-6.225
					c0.448-0.933,0.725-1.511,0.934-1.961C342.949,145.32,340.317,144.455,337.468,143.213z"/>
				<path fill="#FFFFFF" d="M141.604,107.061c14.115-2.348,45.568-3.98,82.104-3.98c0.168,0,0.334,0,0.502,0L141.604,107.061z"/>
				<path fill="#C4BFD1" d="M317.772,136.232c0,12.444-188.121,11.539-188.121,1.354c0-0.782,4.02-27.748,4.02-27.748
					s50.748,6.758,90.04,6.758c36.68,0,59.393-5.477,84.014-4.42c5.304,0.229,6.193-1.51,6.023-2.338
					C313.748,109.84,317.772,135.346,317.772,136.232z"/>
				<path fill="#FFFFFF" d="M223.71,116.598c-49.729,0-90.04-3.025-90.04-6.758c0-0.992,2.838-1.93,7.934-2.779l15.033,5.123
					L223.71,116.598z"/>
				<path fill="#C4BFD1" d="M150.981,118.852c-1.449,0.092-3.217,0.322-5.559,0.662c-1.384,0.184-2.66,0.371-3.818,0.563l0,0
					c-5.096,0.85-7.934,1.789-7.934,2.779c0,0.619,1.119,1.221,3.203,1.793c0.297,0.061,0.553,0.125,0.753,0.193
					c0.134,0.033,0.271,0.064,0.409,0.098c2.018,0.352,9.337,0.544,18.076,0.5l1.027-0.008c16.496-0.117,11.021-1.846,6.867-0.733
					v-0.002c0,0.002,0,0.002,0,0.002c-0.313,0.129-0.645,0.396-0.939,0.366c-1.432-0.153-2.855-0.384-4.281-0.589
					c-0.789-0.213-1.488-0.645-2.363-0.689c-0.99-0.051-1.436-0.908-1.785-1.75c0,0-0.894-0.869-1.234-1.158
					C153.063,120.586,150.981,118.852,150.981,118.852z"/>
				<path fill="#FFFFFF" d="M292.994,114.156c-16.517,1.492-41.425,2.441-69.283,2.441l0.158-4.268c0,0,39.651-0.369,63.991-0.205
					C288.814,112.131,298.348,113.674,292.994,114.156z"/>
				<polygon fill="#A09D9C" points="295.232,228.252 288.848,227.484 296.253,164.135 302.64,164.898 				"/>
				<polygon opacity="0.6" fill="#7D8C91" enable-background="new    " points="290.64,227.699 288.848,227.484 296.253,164.135 
					298.177,162.086 				"/>
				<path fill="#77988F" d="M340.757,152.809c-1.742,0.281-3.498,0.303-5.258,0.295c-0.748-0.004-1.494-0.014-2.229,0.179
					c-0.168,0.045-0.349,0.061-0.522,0.051c-1.765-0.101-3.509,0.19-5.25,0.353c-1.539,0.139-3.07,0.139-4.604,0.233
					c-1.267,0.078-2.53,0.246-3.791,0.414c-0.913,0.123-1.834,0.106-2.754,0.256c-1.292,0.209-2.617,0.238-3.929,0.367
					c-1.959,0.19-3.936,0.308-5.855,0.795c-0.29,0.074-0.609,0.08-0.816,0.353c0.08,0.229,0.276,0.162,0.426,0.162
					c2.506,0,5.014,0.024,7.517-0.029c1.271-0.027,2.541-0.16,3.8-0.332c0.7-0.096,1.398-0.121,2.098-0.172
					c1.529-0.119,3.057-0.271,4.586-0.416c0.129-0.01,0.259-0.056,0.389-0.063c1.621-0.106,3.24-0.209,4.857-0.317
					c0.527-0.035,1.051-0.088,1.576-0.138c0.172-0.019,0.346-0.08,0.52-0.073c2.99,0.08,5.97-0.521,8.947-0.259
					c3.604,0.316,7.201,0.142,10.804,0.218c0.569,0.012,1.142,0.01,1.7,0.157c0.17,0.043,0.35,0.072,0.521,0.072
					c1.626,0.01,3.244,0.088,4.86,0.274c0.739,0.086,1.491,0.041,2.229,0.213c0.293,0.07,0.608,0.048,0.918,0.06
					c0.762,0.024,1.481-0.082,1.445-1.123c-0.034-1.039-2.063-2.83-2.5-3.196c-0.234-0.201,5.59,3.127,4.366,8.368
					c-1.163,2.955-3.788,2.089-5.304,2.07c-8.002-0.099-15.994,0.394-23.994,0.319c-9.146-0.078-18.295-0.049-27.442,0
					c-2.554,0.015-5.089-0.225-7.632-0.325c-1.329-0.058-2.403-0.83-3.495-1.459c-2.706-1.56-5.342-3.226-7.926-4.979
					c-1.05-0.713-1.874-1.574-2.433-2.703c-0.088-0.356,0.031-0.656,0.271-0.916c0.663-0.139,1.313-0.016,1.963,0.09
					c3.731,0.593,7.476,1.086,11.229,1.521c2.27,0.263,4.537,0.531,6.805,0.813c0.529,0.063,1.047,0.045,1.572-0.017
					c3.102-0.35,6.197-0.713,9.302-1.022c2.446-0.248,4.907-0.295,7.366-0.308c3.473-0.012,6.945-0.01,10.418-0.004
					c1.318,0,2.637,0.025,3.953,0.047C339.899,152.643,340.343,152.611,340.757,152.809z"/>
				<path fill="#9FC6C3" d="M342.923,152.383c-0.616,0.266-21.674,0.455-29.176,2.818c0,0,23.857-0.771,31.596-1.27
					c3.388-0.218,6.025-0.142,2.154-0.888C343.626,152.295,342.923,152.383,342.923,152.383z"/>
				<g>
					<g id="vE9IKK_2_">
						<g>
							<path fill="#FEAD78" d="M268.027,88.803c0.453-0.498,0.963-0.516,1.51,0.033c1.244,1.252,2.614,2.322,4.213,3.09
								c0.285,0.135,0.506,0.367,0.705,0.607c0.672,0.814,1.364,1.619,1.994,2.469c0.469,0.629,0.75,1.383,1.24,2.004
								c0.292,0.373,0.588,0.742,1.018,0.973c-0.002,0.053-0.004,0.107-0.008,0.162c-0.119,0.383-0.466,0.463-0.781,0.57
								c-0.992,0.34-1.777,0.947-2.277,1.869c-0.475,0.871-0.689,1.824-0.801,2.807c-0.111,1.021-0.045,2.031,0.201,3.031
								c0.071,0.293,0.106,0.59,0.066,0.891c-0.029,0.246-0.146,0.334-0.404,0.34c-2.229,0.045-4.373-0.367-6.442-1.188
								c-0.443-0.178-0.888-0.33-1.367-0.385c-0.886-0.1-1.497-0.701-2.074-1.285c-0.657-0.664-1.222-1.422-1.735-2.205
								c-0.387-0.592-0.396-1.238-0.125-1.871c0.117-0.27,0.086-0.416-0.14-0.582c-0.75-0.551-0.879-1.361-0.882-2.213
								c0-0.357,0.225-0.639,0.402-0.922c0.16-0.254,0.176-0.469-0.021-0.703c-0.141-0.168-0.234-0.365-0.344-0.555
								c-0.576-0.996-0.28-1.939,0.175-2.869c0.089-0.18,0.278-0.256,0.454-0.33c1.229-0.525,2.51-0.885,3.814-1.16
								c0.158-0.035,0.32-0.07,0.479,0.012c0.16,0.113,0.189,0.291,0.229,0.463c0.082,0.357,0.188,0.713,0.238,1.072
								c0.057,0.424,0.264,0.645,0.678,0.748c0.515,0.127,1.029,0.254,1.535,0.408c0.404,0.094,0.803,0.207,1.209,0.398
								c-0.373-0.832-1.192-1.166-1.731-1.775c-0.384-0.441-0.722-0.914-0.958-1.451c-0.292-0.668-0.491-1.35-0.287-2.084
								C267.848,89.029,267.873,88.877,268.027,88.803z"/>
							<path fill="#BA6831" d="M269.597,94.184c-0.157-0.488-0.314-0.979-0.473-1.469c0.67,0.545,1.465,0.963,1.826,1.902
								C270.466,94.465,270.031,94.322,269.597,94.184z"/>
						</g>
						<path opacity="0.5" fill="#EA8F46" enable-background="new    " d="M263.478,103.143c0.41,0.58,0.843,1.146,1.341,1.648
							c0.577,0.584,1.188,1.186,2.074,1.285c0.479,0.055,0.924,0.207,1.366,0.385c2.07,0.82,4.214,1.232,6.443,1.188
							c0.258-0.006,0.375-0.094,0.404-0.34c0.04-0.301,0.005-0.598-0.066-0.891c-0.105-0.428-0.172-0.857-0.211-1.289
							c-0.225,0.099-0.438,0.189-0.677,0.297C270.556,107.072,264.962,104.847,263.478,103.143z"/>
					</g>
					<g>
						<path fill="#EC8F46" d="M336.787,49.482c1.231,3.395,1.537,7.021,0.211,13.363c-1.33,6.342,11.397-3.205,11.397-3.205
							s-2.636-9.266-1.965-14.877C347.101,39.152,336.787,49.482,336.787,49.482z"/>
						<path fill="#3E211E" d="M357.814,17.42c0.893,2.961,0.646,5.977,0.441,8.99c-0.037,0.535-0.408,0.906-0.717,1.305
							c-1.106,1.441-1.896,3.055-2.242,4.828c-0.316,1.65-1.078,3.006-2.246,4.168c-1.104,1.102-2.207,2.203-3.34,3.277
							c-0.971,0.92-2.006,1.801-2.099,3.264c-0.034,0.512-0.474,0.281-0.655,0.484c-0.324,0.074-0.515-0.133-0.705-0.334
							c-1.08-1.689-1.883-3.521-2.746-5.322c-0.395-0.826-0.289-1.568,0.283-2.283c0.371-0.459,0.808-0.865,1.121-1.369
							c0.5-0.686,0.717-1.475,0.875-2.293c0.562-2.873-1.252-4.607-4.15-3.955c-0.768,0.174-1.459,0.537-2.141,0.926
							c-0.984,0.559-1.113,0.469-1.154-0.697c-0.004-0.184-0.004-0.367,0.007-0.551c0.161-2.334-0.188-4.479-2.224-5.998
							c-1.438-1.973-1.699-2.113,0.479-4.586c1.679-1.904,3.736-3.225,6.264-3.811c2.106-0.488,4.152-1.223,6.346-1.266
							c0.892-0.018,1.785,0.016,2.543,0.488C353.942,14.043,356.156,15.379,357.814,17.42z"/>
						<path fill="#FFAF78" d="M336.343,21.736c2.955,1.766,2.32,4.646,2.291,7.465c1.644-1.08,3.299-1.912,5.328-1.285
							c1.881,0.58,2.641,1.643,2.332,3.586c-0.178,1.125-0.279,2.289-1.168,3.158c-1.375,1.406-3.076,1.904-4.978,1.834
							c0.918,0.369,1.442,1.07,1.118,2.08c-0.549,1.695-0.816,3.496-1.887,5.006c-0.918,1.303-1.996,2.379-3.504,3.008
							c-1.441,0.602-2.465,0.506-3.879,1.17c-1.694,0.795-6.654,0.111-7.035-0.361c0.08-1.18,1.084,0.443,1.693-0.367
							c0.482-0.635,1.576-1.123,1.34-1.883c-0.207-0.658-1.367-0.465-2.1-0.658c-0.615-0.164-1.246-0.271-1.875-0.375
							c-0.857-0.141-1.42-0.516-1.35-1.484c-0.133-0.219-0.264-0.436-0.396-0.654c0.791-0.447,1.596,0.123,2.395-0.074
							c-0.799,0.082-1.605-0.539-2.398,0.068c-0.418-0.863-0.471-1.703,0.193-2.482c1.765,0.064,3.457,0.887,5.266,0.512
							c0.486-0.104,0.979-0.172,1.504,0.057c0.023-0.523-0.195-0.795-0.546-0.572c-1.546,0.996-3.088,0.416-4.625,0.055
							c-0.533-0.125-1.036-0.361-1.601-0.264c-0.148-0.91-0.109-2.752-0.635-3.584c0.491-0.363,1.049,0.777,1.52,0.922
							c0.506,0.156,0.994,0.135,1.503-0.082c-0.937,0.053-1.737-0.33-2.53-0.723c-0.271-0.135-0.563-1.438-0.338-1.877
							c1.07-0.119,1.912,0.873,2.295-0.457c0.309-1.059,1.553-1.012,2.439,0.029c1.224,1.436,2.505,2.822,3.772,4.219
							c0.181,0.199,0.31,0.463,0.728,0.52c0.529-1.322,1.162-2.627,1.888-3.893c0.651-1.131,1.386-2.143,2.378-3.006
							c1.234-1.072,1.047-2.623,1.225-4.125c-1.734,0.939-3.356,2.053-5.412,1.336c-0.28-0.695,0.16-1.219,0.424-1.783
							c0.425-0.861,0.882-1.701,1.775-2.174c0.041-0.543-0.443-0.609-0.746-0.842c-0.238-0.182-0.584-0.342-0.24-0.725
							c0.468-0.244,0.632-0.643,0.57-1.143c-0.188-1.592,0.16-3.1,0.764-4.553c0.41-0.99,0.08-1.508-0.944-1.586
							c-1.829-0.137-3.604-0.119-4.748,1.703c-0.181,0.285-0.41,0.645-0.877,0.457c0.144-0.811,0.45-1.602,0.688-2.121
							c0.269-0.365-0.367-0.041-0.105-0.412c0.884-1.641,2.262-2.098,4.021-1.727c1.709,0.359,3.313-0.379,4.972-0.551
							c1.116,0.332,0.491,0.895,0.103,1.285c-0.994,1.004-1.673,2.176-2.156,3.488c-0.61,1.637-0.592,1.789,0.711,2.971
							C335.81,21.117,336.152,21.355,336.343,21.736z"/>
						<path fill="#3E211E" d="M336.343,21.736c-0.834-0.688-2.393-1.199-2.365-2.08c0.047-1.635,0.779-3.273,1.893-4.611
							c0.383-0.457,0.83-0.857,1.238-1.291c0.293-0.309-0.02-0.342-0.21-0.426c0.306-0.783,1.089-0.547,1.651-0.779
							c0.535-0.021,1.033-0.225,1.311-0.289c-0.49,0.174-1.256,0.244-2.002,0.41c-3.466,0.982-6.795,0.465-10.047-0.918
							c-0.313-0.199-0.12-0.584-0.297-0.834c-0.004-0.004-0.008-0.01-0.01-0.016c-0.277-0.557,7.42-3.131,9.17-3.826
							c4.451-1.762,22.182,8.828,21.515,11.285c-1.622-0.865-3.319-3.102-4.737-4.219c-1.975-1.553-4.029-1.889-6.311-1.357
							c-2.664,0.621-5.43,1.002-7.786,2.551c-1.228,0.811-2.253,1.852-3.198,2.982c-0.793,0.943-1.26,1.826-0.053,2.797
							C336.255,21.234,336.268,21.525,336.343,21.736z"/>
						<path fill="#FFB888" d="M331.357,28.578c1.837-0.127,3.564-0.49,5.018-1.777c0.512-0.453,1.01-0.203,0.848,0.572
							c-0.37,1.76-0.447,3.541-2.074,4.91c-1.754,1.477-2.684,3.633-3.396,5.822c-0.11,0.34-0.058,0.818-0.479,0.92
							c-0.464,0.111-0.535-0.41-0.75-0.674c-1.358-1.666-2.953-3.127-4.25-4.854c-0.592-0.785-1.665-0.623-1.79,0.254
							c-0.25,1.73-1.171,0.668-2.509,0.264c-1.046,0.521-1.765,0.564-2.655,0.305c-0.553-0.855-0.311-2.174,0.256-2.787
							c1.422-1.549,2.758-1.969,4.137-3.557c1.463-1.68,2.293-3.629,2.293-5.879c0-1.525,0.865-2.775,1.267-4.172
							c1.403-2.352,3.503-2.967,6.08-2.473c1.046,0.201,0.747,0.545,0.946,1.703c2.752,15.967-6.055,4.82-6.836,6.053
							c0.935,1.871,1.166,3.779,0.482,5.73C328.958,28.773,330.089,28.006,331.357,28.578z"/>
						<path fill="#EC8F46" d="M334.63,46.816c2.205-1.063,4.1-2.27,5.065-4.559c0.526-1.256,0.923-2.576,1.271-3.896
							c0.308-1.164-0.465-1.551-1.457-1.637c-0.254-0.023-0.596,0.139-0.592-0.307c0.004-0.289,0.246-0.381,0.49-0.336
							c2.127,0.393,3.947-0.406,5.719-1.422c-2.311,1.746-1.338,3.631-0.262,5.549c0.581,1.031,1.082,2.104,1.619,3.158
							c0.325,0.48-0.168,0.926-0.055,1.396c-1.078,1.027-0.777,2.375-0.697,3.584c0.124,1.865,0.434,3.725,0.948,5.531
							c0.212,0.744,0.11,1.301-0.472,1.844c-0.845,0.781-1.351,1.824-1.949,2.813c-0.533-0.299-0.729-0.842-1.076-1.252
							c-0.725-0.363-0.639-1.023-0.635-1.672c0.035-3.957-0.844-7.801-1.411-11.979c-0.953,1.42-1.8,2.545-2.784,3.561
							c-0.469,0.48-0.291,1.002-0.059,1.527c0.545,1.219,0.944,2.49,1.1,3.816c0.057,0.449,0.314,1.158-0.605,1.164
							c-0.832-1.328-1.449-2.76-2.004-4.219c-0.488-1.295-1.209-1.635-2.393-0.938c-1.889,1.111-10.135-1.133-11.936-2.453
							C323.208,45.066,331.544,48.297,334.63,46.816z"/>
						<path fill="#EC8F46" d="M338.791,53.701c0.543-0.234,0.336-0.67,0.285-1.064c-0.188-1.42-0.57-2.797-1.242-4.049
							c-0.369-0.691-0.379-1.107,0.229-1.645c1.263-1.113,2.138-2.559,3.196-4.197c0.613,2.893,0.959,5.545,1.305,8.197
							c0.227,1.721,0.541,3.438,0.279,5.18c-0.07,0.465,0.207,0.779,0.341,1.16c-2.146,0.385-2.154,0.391-3.308-1.535
							C339.482,55.086,339.151,54.385,338.791,53.701z"/>
						<path fill="#FFAF78" d="M322.707,45.535c0.438-0.984-0.146-1.863-0.033-2.906c0.184,0.762,0.713,1.027,1.449,1.141
							c1.264,0.193,2.51,0.465,3.76,0.73c0.337,0.072,0.813-0.02,0.947,0.393c0.127,0.395-0.279,0.621-0.508,0.891
							C327.248,47.064,322.062,46.984,322.707,45.535z"/>
						<path fill="#EC8F46" d="M322.464,39.273c0.287-0.678,0.718-0.482,1.232-0.264c1.191,0.51,2.442,0.738,3.747,0.629
							c0.274-0.025,0.544,0.002,0.778-0.188c0.977-0.797,1.238-0.697,1.57,0.578c0.059,0.227,0.101,0.447-0.142,0.754
							c-0.696-0.643-1.513-0.516-2.411-0.418c-1.646,0.178-3.279-0.059-4.775-0.879C322.441,39.416,322.441,39.346,322.464,39.273z"
							/>
						<path fill="#EC8F46" d="M319.228,33.955c1.029-0.463,1.785,0.166,2.75,0.043c1.161,0.854,2.365,2.422,4.041,1.9
							c-0.783,1.227-1.691,1.416-2.688,1.088c-0.474-0.156-0.301-0.51-0.789-0.6C321.402,36.072,319.369,35.309,319.228,33.955z"/>
						<path fill="#3E211E" d="M327.515,10.918c0.213,0.164,0.213,0.395,0.197,0.631c1.595,0.701,1.609,0.711,0.697,2.17
							c-0.408,0.648-0.416,1.355-0.447,2.068c-0.08,0.451-0.228,1.021-0.504,1.002C326.473,14.844,326.71,12.715,327.515,10.918z"/>
						<path fill="#2C0F0C" d="M346.431,44.764c-0.287-0.477,0.021-0.932,0.055-1.396c0.158,0.125,0.314,0.246,0.473,0.369
							C346.785,44.08,346.605,44.422,346.431,44.764z"/>
						<path fill="#40221F" d="M327.962,15.787c-0.51-0.73-0.543-1.648,0.049-2.143c1.199-1.002,0.568-1.514-0.301-2.098
							c2.545,0.713,5.094,1.355,7.781,1.244c0.924-0.037,1.789-0.346,2.705-0.338c0.346-0.111,0.606-0.111,0.488,0.377
							c-0.643,0.004-1.25,0.121-1.787,0.498c-1.843,0.566-3.708,1.055-5.643,0.6C329.546,13.527,328.774,14.666,327.962,15.787z"/>
						<path fill="#FFAF78" d="M334.066,24.867c-0.589-0.068-1.171-0.141-1.665-0.523c-0.628-0.488-1.981-0.838-3.228-1.01
							c-0.103-0.053-0.209-0.096-0.317-0.125c-0.589-0.117-1.181-0.369-1.771,0c1.008,2.088,1.494,4.176-0.121,6.422
							c1.541-0.633,2.953-0.934,4.398-1.07C332.386,28.42,333.365,29.178,334.066,24.867z"/>
						<path fill="#EC8F46" d="M322.272,41.969c0.071-0.693,0.481-0.764,1.067-0.633c0.699,0.156,1.397,0.359,2.283,0.184
							c-1.092,1.406-2.264,0.529-3.347,0.455L322.272,41.969z"/>
						<path fill="#341510" d="M338.686,12.83c-0.071-0.24-0.267-0.328-0.487-0.377c0.867-0.316,1.76-0.5,2.744-0.264
							C340.19,12.404,339.438,12.615,338.686,12.83z"/>
						<path fill="#FFB888" d="M329.278,24.488c1.031,0.121,1.86,0.617,2.537,1.4c0.537,0.625,0.535,1.627,0.054,1.652
							c-1.121,0.168-2.479-1.113-3.096-2.135C328.941,25.1,329.112,24.793,329.278,24.488z"/>
						<path fill="#4B2C24" d="M328.773,25.406c1.96,0.627,3.736,1.771,3.398,2.553c-0.096-0.002-0.192,0.004-0.289,0.016
							c-0.564,0.094-0.885-0.352-1.299-0.596c-0.604-0.289-1.352-0.326-1.744-0.994C328.464,26.078,328.373,25.758,328.773,25.406z"
							/>
						<path fill="#D5C9C4" d="M329.655,28.232c0.212-0.381,0.601-0.918,1.091-1.17c0.676,0.348,0.76,0.607,1.139,0.912
							C331.421,28.645,330.259,28.393,329.655,28.232z"/>
						<path fill="#423937" d="M328.839,26.385c0.343-0.094,1,0.451,1.634,0.838c-0.021,0.404-0.089,0.791-0.468,1.029
							C328.848,28.279,328.649,27.619,328.839,26.385z"/>
					</g>
					<path fill="#BCB52B" d="M333.223,65.652c2.812-1.607,5.206-2.074,8.183-3.281c0.965-0.393,1.598,0.252,2.355,0.541
						c1.583,0.613,3.172,1.201,4.729,1.879c1.366,0.254,1.827,1.309,2.299,2.445c1.147,2.779,2.256,5.572,3.447,8.332
						c1.021,2.365-0.398,0.729-0.201,0.395c0.705-1.189,0.776-1.607-0.271-2.512c-2.483-2.141-0.929-5.111-3.138-7.535
						c-0.52-0.566-0.986-1.184-1.588-1.676c-0.774-0.617-1.32-1.459-2.069-2.102c-0.683-0.568-1.378-1.117-2.028-1.717
						c-0.242-0.223-0.604-0.486-0.347-0.863c0.206-0.299,0.571-0.162,0.85-0.035c1.222,0.551,2.542,0.916,3.539,1.893
						c0.753,0.738,1.911,0.793,2.527,1.395c-0.675-1.098-1.595-2.283-2.114-3.688c-0.193-0.523-0.882-2.365,0.646-1.17
						c0.924,1.182,1.944,2.301,2.752,3.557c16.115,20.016,6.203,24.313,2.096,23.986c-0.414-0.033-0.709-0.031-0.705,0.479
						c0.029,4.041-1.451,7.953-1.494,11.965c-0.049,4.604-0.709,9.162-0.941,13.75c-0.293,5.785-0.485,11.588-1.313,17.328
						c-0.671,4.662-3.306,16.73-4.622,16.724c-1.22-0.554-0.861-3.679-0.486-5.041c2.058-7.511,3.242-15.154,3.556-22.957
						c0.264-6.635,0.899-13.264,1.179-19.891c0.167-4.004,1.346-7.875,1.116-11.887c0.479-11.574-1.97-23.436-12.943-20.24
						c-2.106,0.768-4.336,1.17-6.364,2.166C331.567,68.039,332.565,65.996,333.223,65.652z"/>
					<path fill="#3E211E" d="M328.462,14.525c-0.76-0.252-1.389-0.961-2.336-0.572c-0.291,0.119-0.469-0.193-0.428-0.514
						c0.17-1.416,0.125-2.885,0.598-4.232c0.563-1.605,1.844-2.594,3.484-3.105c-0.277-0.449-0.77-0.143-0.963-0.592
						c1.616-1.031,3.482-1.537,5.275-1.246c2.408,0.389,4.867,0.703,7.191,1.504c2.57,0.889,4.547,2.736,6.66,4.348
						c1.012,0.773,1.998,1.58,2.998,2.367c0.971,0.766,2.076,1.283,3.143,1.887c2.896,1.646,4.754,4.094,5.315,7.535
						c0.522,3.205-0.54,5.846-2.296,8.346c-1.309,1.863-2.663,3.695-4.01,5.531c-0.37,0.504-0.797,1.016-1.528,0.793
						c-0.726-0.223-0.44-0.912-0.629-1.395c-0.526-1.357,0.341-2.094,0.996-2.951c0.421-0.549,0.786-1.027,0.185-1.707
						c-0.313-0.357-0.131-0.813,0.115-1.188c0.379-0.582,0.756-1.166,1.143-1.742c0.963-1.424,1.424-2.977,1.338-4.703
						c-0.034-0.678-0.176-1.389,0.287-2.018c0.232-0.314,0-0.594-0.188-0.83c-0.708-0.879-1.261-1.939-2.661-1.918
						c-0.551,0.01-0.968-0.447-1.334-0.852c-0.706-0.781-1.514-1.42-2.471-1.867c-0.043-0.064-0.096-0.131-0.165-0.15
						c-0.923-0.266-1.431-1.359-2.302-1.441c-0.824-0.078-1.449,0.9-2.321,1.115c-0.341,0.084-0.679,0.203-1.019,0.094
						c-1.615-0.512-2.815,0.262-3.955,1.242c-0.205,0.176-0.354,0.414-0.556,0.582c-1.731,1.43-2.396,3.055-0.991,5.092
						c0.088,0.125,0.08,0.293,0.014,0.443c-2.66-0.73-4.09-2.623-4.838-5.152c-0.428-1.27,0.066-3.002,1.174-3.934
						c-1.129,0.197-2.161,0.395-3.107,0.975C329.744,14.598,329.144,14.984,328.462,14.525z"/>
					<path fill="#E7ED72" d="M348.927,57.627c-0.17-0.314-0.949-0.234-2.008,0.363c-2.901,1.633-5.693,3.467-8.729,4.854
						c-1.569,0.719-3.101,1.521-4.427,2.6c-2.012,1.631-8.967,11.049-9.29,11.688c-2.214,3.221-4.442,6.43-6.63,9.666
						c-1.26,1.861-2.422,3.779-3.922,5.477c-1.469,1.652-3.381,2.375-5.43,2.463c-5.882,0.248-19.904,2.508-26.361,1.99
						c-1.055-0.285-2.135-0.451-3.246-0.465c-2.049,0.412-3.444,1.568-4.094,3.582c-0.439,1.369-0.547,2.76-0.431,4.195
						c0.078,0.992,0.604,1.908,0.438,2.93c0.369-0.738,0.931-1.297,1.681-0.615c1.013,0.922,2.187,1.199,3.371,1.234
						c1.132,0.207,2.286,0.322,3.409,0.572c7.158,1.592,23.234,0.061,30.224,2.375c1.315,0.436,2.565,0.301,3.806-0.42
						c1.584-0.928,2.818-2.238,4.137-3.465c0.025,0.096,0.02,0.205,0.01,0.32c-0.523,5.105-2.439,9.539-3.053,14.637
						c-0.193,1.637-3.26,14.217-0.91,15.768c2.393,1.578,6.359,2.021,9.056,3.121c4.382,1.789,13.763,4.899,19.046,5.305
						c2.42,0.185,4.854-23.572,5.137-27.566c0.317-4.441,0.789-8.873,1.08-13.316c0.524-8.063,1.896-17.836,3.149-25.811
						C356.235,70.887,352.894,65.018,348.927,57.627z"/>
					<path fill="#FEAD78" d="M322.019,41.572c-0.148-0.703-0.467-1.754-0.529-2.559c-0.104-1.393,0.063-2.533-0.379-3.395
						c0.491-0.439,1.422,0.402,1.969,0.268c1.073-0.264,1.311-0.637,1.002-1.695c-0.392-1.396,0.51-2.297,1.265-3.242
						c0.166-0.209,0.481-0.309,0.729-0.119c0.385,0.295,0.293,0.754,0.312,1.166c-0.084,0.527,0.29,0.859,0.532,1.25
						c2.063,1.379,4.287,0.67,6.468,0.475c0.892-0.08,1.708-0.377,2.382-1.018c0.618-0.586,1.368-0.615,2.15-0.416
						c0.285,0.426,0.287,0.98,0.627,1.381c-0.192,0.723-0.717,1.279,0.043,2.182c0.679,0.805-0.916,3.287-2.023,3.477
						c-0.292,0.051-0.529-0.006-0.675-0.297c-0.213-0.426-0.526-0.498-0.959-0.311c-0.42,0.182-0.735,0.402-0.703,0.926
						c0.026,0.402-0.106,0.791-0.383,1.063c-0.39,0.383-0.574,0.686-0.265,1.264c0.246,0.463,0.047,1.189-0.442,1.281
						c-1.365,0.256-1.61,1.73-2.69,2.246c-0.115,0.113-0.207,0.256-0.516,0.34c0.322-0.066,0.398-0.225,0.505-0.35
						c1.404-0.109,2.882,0.418,4.194-0.531c0.474-0.344,1.056-0.424,1.431,0.145c0.437,0.66-0.012,1.066-0.549,1.395
						c-0.235,0.273-0.485,0.531-0.699,0.824c-1.808,0.691-3.646,1.201-5.612,1c-0.765-0.076-1.533-0.135-2.302-0.123
						c-1.931,0.033-3.551,0.785-5.047-0.402c-0.426-0.676-0.146-2.588-0.042-3.342C321.951,43.447,322.253,42.51,322.019,41.572
						c1.68-0.779,3.467-0.213,5.244-0.471c-0.15-0.547-0.152-0.996-1.049-0.447c-0.926,0.568-2.031,0.201-2.969-0.281
						C322.686,40.086,322.537,41.268,322.019,41.572z"/>
					<path fill="#3E211E" d="M337.054,22.381c-0.188-0.332-0.4-0.654-0.561-0.998c-0.926-1.992-0.767-2.547,0.77-4.127
						c1.072-1.107,2.048-2.287,3.662-2.625c0.332-0.068,0.623-0.279,0.984-0.094c1.305,0.662,2.346-0.033,3.207-0.832
						c0.545-0.508,0.855-0.49,1.276-0.035c0.601,0.643,1.479,0.961,1.954,1.734c-2.715-0.41-5.012,0.664-7.229,2.037
						c-0.414,0.26-0.935,0.434-0.697,1.123c0.055,0.152-0.049,0.375-0.118,0.551c-0.714,1.752-0.201,2.771,1.707,3.354
						c0.668,0.205,1.513,0.336,1.524,1.17c0.014,0.955,0.557,2.119-0.678,2.797c-0.318,0.26-0.619,0.207-0.908-0.051
						C340.583,24.727,338.537,23.898,337.054,22.381z"/>
					<path fill="#BCB824" d="M333.156,66.654c-0.197,0.094-1.275,0.992-1.496,1.035c1.227-3.115,3.713-4.084,5.399-4.934
						c2.271-1.148,4.519-2.322,6.646-3.723c1.235-0.816,2.625-1.309,4.075-1.555c0.771-0.131,1.616-0.275,2.246,0.453
						c-0.907-0.502-1.438-0.346-0.342,1.227c0.983,1.414,1.621,2.84,2.435,4.248c-2.574-1.041-4.64-3.064-7.578-3.896
						c2.297,0.932,6.252,5.438,6.611,6.656C348.63,65.516,344.182,61.139,333.156,66.654z"/>
					<path fill="#FEB787" d="M328.462,14.525c0.662-0.035,1.272-0.217,1.826-0.596c0.944-0.645,2.021-0.803,3.229-0.869
						c-0.774,1.348-1.333,2.672-1.304,4.168c-1.856,1.621-4.033,2.889-5.446,4.994c-0.274,0.408-0.188,0.799-0.037,1.209
						c0.3,0.818,0.283,1.662,0.158,2.504c-0.079,0.545-0.343,1.027-0.954,0.918c-0.589-0.105-0.775-0.584-0.559-1.158
						c0.318-0.84-0.082-1.592-0.295-2.355c-0.213-0.771-0.095-1.389,0.396-2.037c0.719-0.947,1.329-1.975,1.979-2.975
						c0.104-0.158,0.272-0.373,0.232-0.512C327.332,16.566,328.149,15.607,328.462,14.525z"/>
					<path fill="#EA8F46" d="M321.787,46.416c0.433-0.211,0.733,0.035,1.029,0.295c0.661,0.58,1.477,0.926,2.303,1.006
						c3.336,0.318,6.691,0.701,9.899-0.754c0.155-0.303,0.487-0.076,0.692-0.23c0.804-0.205,1.49,0.283,2.244,0.385
						c0.385,0.051,0.545,0.406,0.521,0.791c-0.03,0.502-0.365,0.76-0.803,0.867c-2.129,0.533-4.262,1.178-6.461,1.162
						c-2.84-0.021-5.719-0.008-8.375-1.313C321.892,48.16,321.432,47.488,321.787,46.416z"/>
					<path fill="#FEB787" d="M326.058,32.26c-0.063-0.428,0.311-1.086-0.158-1.238c-0.555-0.182-0.771,0.512-0.961,0.932
						c-0.328,0.719-1.041,1.357-0.62,2.281c-0.813,1.316-2.054,1.486-3.726,0.512c-0.432-0.426-0.914-0.141-1.328-0.586
						c-0.287-0.311-0.313-1.387-0.057-1.752c0.232-0.334,0.688-0.438,0.922-0.238c1.736,1.471,2.312-0.344,3.004-1.174
						c0.867-1.041,1.828-1.965,2.779-2.908c0.211-0.211,0.438-0.492,0.787-0.307c0.334,0.178,0.506,0.451,0.35,0.863
						c-0.067,0.168-0.135,0.477-0.059,0.535c1.301,0.984-0.1,2.297,0.416,3.369c0.022,0.045-0.128,0.172-0.197,0.262
						C326.589,33.119,326.326,32.689,326.058,32.26z"/>
					<path fill="#3E211D" d="M338.652,33.041c-1.143-0.039-0.525-0.293-0.732-0.756c0.021-1.641,1.436-6.768-0.066-9.184
						c-0.413-0.668,2.342,2.02,2.586,3.355c0.473,1.004,1.031,0.709,1.697,0.391c0.207-0.193,0.465-0.172,0.719-0.156
						c0.492,0.08,0.988,0.127,1.471,0.248c0.527,0.133,1.145,0.326,0.977,1.033c-0.088,0.234,0.014,0.457-0.528,0.305
						c-1.45-0.41-2.149,0.031-2.812,0.313c-0.729,0.316-1.213,0.777-1.571,1.547C339.833,31.336,339.541,32.008,338.652,33.041z"/>
					<path fill="#4B2822" d="M327.937,22.547c1.426-0.217,2.684-0.295,3.957,0.053c0.645,0.176,1.17,0.498,1.576,0.971
						c0.295,0.346,1.003,1.115,0.563,1.502c-0.468,0.408-1.273-0.271-1.597-0.611c-0.515-0.555-1.843-0.857-2.587-0.965
						C328.943,23.363,328.853,23.02,327.937,22.547z"/>
					<path fill="#EB914A" d="M319.813,33.986c0.276,0.211,1.424,0.736,1.685,0.855c1.11,0.521,1.994,0.109,2.82-0.605
						c0.612,1.068,0.075,1.855-1.404,1.998c-0.49,0.047-1.287-0.92-1.787-0.939C320.408,35.072,319.667,34.18,319.813,33.986z"/>
					<path fill="#3E211E" d="M347.847,43.162c-0.018,0.568-0.225,1.051-0.582,1.473c-0.18,0.207-0.381,0.412-0.68,0.227
						c-0.291-0.184-0.262-0.467-0.092-0.699c0.479-0.654,0.42-1.348,0.241-2.078c-0.104-0.428-0.094-0.92,0.458-0.994
						c0.667-0.09,0.551,0.379,0.516,0.832C347.673,42.33,347.794,42.748,347.847,43.162z"/>
					<path fill="#EB9048" d="M321.542,38.906c0.229-0.146,0.662,0.328,1.049,0.584c0.762,0.504,1.832,0.41,2.742,0.389
						c0.256-0.006,0.983,0.047,1.112-0.277c0.148-0.381-0.016-0.842,0.354-0.471c0,0,0.066,0.691,0.197,0.986
						c0.129,0.293,0.533,0.398,0.547,0.729c0.004,0.072-0.269,0.246-0.348,0.213c-1.705-0.705-3.434-0.213-5.15-0.127
						c-0.073,0.004-0.148-0.041-0.223-0.066C321.421,40.381,321.382,39.012,321.542,38.906z"/>
					<path fill="#CCCC58" d="M338.63,86.891c-1.476,1.486-9.862,11.648-15.887,19.061c-2.984,3.676-13.56,3.336-24.066,2.186
						c-10.51-1.148-18.024,1.24-20.945,0.809c-2.918-0.434-4.07-1.563-3.387-6.807c0.688-5.244,3.595-5.924,4.539-5.877
						c0.085,0.004-1.432,0.402-1.93,1.303c-1.174,2.127-1.984,6.027-0.849,6.76c3.708,2.387,16.825,0.174,29.828,1.303
						c1.084,0.092,10.097-0.436,15.733-4.645c1.261-0.943,12.838-15.074,13.647-15.029S338.63,86.891,338.63,86.891z"/>
					<path opacity="0.5" fill="#818489" enable-background="new    " d="M269.125,92.715c-0.025-0.189-0.186-0.293-0.287-0.434
						c-0.754-1.045-1.303-2.143-0.811-3.479c-0.021-0.057-0.039-0.113-0.061-0.17c-0.41,0.344-0.689,0.924-0.641,1.721
						c0.059,1.01,0.299,2.453,0.299,2.453l-0.369,0.15c0.025,0.111,0.055,0.221,0.078,0.334c0.051,0.232,0.16,0.346,0.383,0.402
						c0.631,0.154,1.255,0.324,1.88,0.49C269.593,93.643,269.447,93.15,269.125,92.715z"/>
					<path fill="#FFAF78" d="M339.998,31.789c0.014-0.033,0.024-0.068,0.037-0.102c0.547-1.563,0.5-1.877,1.059-2.547
						c0.572-0.684,2.658-2.082,4.311-0.523c1.652,1.561-0.451,4.955-0.727,5.203L339.998,31.789z"/>
					<path fill="#FEAD78" d="M321.964,43.555c-0.184,1.115-0.607,3.178-0.188,4.09s1.699,0.086,4.967,0.225
						c3.266,0.139,5.441,0.254,6.396-0.854c0.95-1.109-6.388-4.139-7.147-4.416C325.23,42.32,321.964,43.555,321.964,43.555z"/>
				</g>
			</g>
		</g>
		<path fill="#2CA6DB" d="M316.886,130.02l-0.413-0.002c-0.019,0.074-0.577,1.838-11.662,3.666
			c-21.653,3.574-66.31,4.617-100.964,4.064c-19.469-0.313-37.287-1.119-50.174-2.273c-20.65-1.85-22.608-4.033-22.764-4.276
			c0.012,0.02,0.043,0.09,0.043,0.188h-0.453c-0.126,0.889-0.246,1.715-0.352,2.457c1.43,0.818,3.76,1.51,7.188,2.168
			c4.938,0.947,12.034,1.775,21.083,2.467c16.824,1.281,40.109,2.019,63.885,2.019c25.211,0,48.526-0.791,65.653-2.229
			c18.681-1.568,26.35-3.531,29.34-5.504C317.177,131.947,317.039,131.02,316.886,130.02z"/>
	</g>
	<path fill="#BCB52B" d="M338.269,90.389c-0.406-0.898-0.991-0.965-1.645-0.193c-2.744,3.238-9.684,11.65-10.301,12.178
		c-1.732,1.477-3.068,2.914-4.898,4.277c-7.356,5.426-43.137,0.596-44.75-0.52c-0.869-0.6-1.416-0.354-2.031,0.67
		c-0.082,0.279-0.111,0.555,0.096,0.799c0.561,0.732,1.084,0.801,1.967,1.063c2.729,0.818,5.446,1.143,8.297,0.924
		c1.689-0.131,3.646,0.004,5.354,0.08c6.371,0.281,12.657,1.428,19.014,1.883c3.5,0.252,6.871,0.219,9.836-2.008
		c0.164-0.123,0.342-0.35,0.643-0.15c-0.167,2.023-1.162,4.229-1.165,6.258c-0.513,1.996-0.044,3.828-0.302,5.959
		c-0.192,1.637-3.26,14.217-0.909,15.768c0.469,0.311,1.001,0.574,1.567,0.811c14.463,5.709,22.265,2.927,15.056,1.533
		c-6.515-1.258-13.771-18.283-11.638-26.393c0.574-1.418,11.141-16.23,14.311-19.926c0.643-0.75,1.098-0.75,1.682,0.053
		c0.534,0.734,1.012,1.566,2.141,2.205C339.726,93.688,339.015,92.031,338.269,90.389z"/>
	<path fill="#BCB824" d="M354.179,86.43c0.244-3.969,2.044-15.51-4.271-20.137c-4.344-3.186-11.156-1.725-11.156-1.725
		s8.723-1.678,12.879,6.135C355.561,78.094,354.179,86.43,354.179,86.43z"/>
	<path fill="#BCB824" d="M343.185,59.369c1.998-1.133,5.684-1.891,7.215,0.91c1.535,2.799,2.441,2.832,2.496,2.561
		c0.057-0.271-0.102-1.539-1.581-3.318c-1.483-1.781-1.508-2.574-3.532-2.043C345.755,58.01,343.185,59.369,343.185,59.369z"/>
	<path fill="#BCB52B" d="M351.015,67.904c-0.1-1.012,1.115,0.203,2.115,2.59c1.453,3.465,2.945,9.023,3.418,10.693
		c0.47,1.666,1.172,1.865,3.088,0.502c1.904-1.357,1.587-5.773,1.587-5.773s2.7,8.727,0.351,10.037
		c-2.351,1.307-6.365,3.121-6.365,3.121s-2.609,23.922-3,29.713c-0.389,5.789-4.063,24.992-5.103,26.609
		c-1.041,1.617-6.03,1.358-11.456-0.586c-5.422-1.947-14.75-5.838-14.965-5.629c-0.217,0.213-2.532-0.996-2.532-0.996l0.53-7.104
		c0,0-1.211,6.293,10.895,8.101c8.418,1.258,14.383,1.069,15.685-3.927c1.303-4.996,3.188-9.674,3.62-24.135
		c0.416-13.85,4.972-34.078,2.32-41.164C350.873,69.076,351.112,68.908,351.015,67.904z"/>
	<path fill="#2291AA" d="M257.564,198.813c2.555,1.164,22.96,3.773,22.96,3.773s0.194-2.383-0.122,2.432
		c-0.318,4.816-1.746,4.64-1.746,4.64c-12.384-0.74-19.275-2.406-21.313-3.453c0,0-0.979,0.217-0.85-2.459
		C256.621,201.068,256.894,198.508,257.564,198.813z"/>
	<path fill="#C6CED9" d="M278.436,213.248c-1.293,2.061-4.763,6.004-10.446,3.037c-0.347-0.18-1-0.824-1.771-1.604
		c-0.063-0.029-0.12-0.056-0.184-0.089c-0.55-0.286-1.898-1.774-3.242-3.075c-0.455-0.316-0.854-0.507-1.142-0.482
		c-1.161,0.348-3.633,2.928-5.944,3.76c-3.781,1.363-7.486,4.334-11.679,4.645c-5.01,0.371-9.204,1.644-8.954,5.646
		c2.418,0.324,9.032,0.73,11.809,0.809c4.996,0.14,25.166-2.578,31.455-2.19c0.611,0.041,1.211,0.073,1.701-0.394
		c0.354-1.012,0.463-2.076,0.268-3.1C279.853,217.844,279.523,215.43,278.436,213.248z"/>
	<g>
		<g>
			<g>
				<g>
					<path fill="#A09D9C" d="M98.534,219.165l-5.401-1.131c0.08-0.384,8.003-38.521,8.003-64.91c0-35.848-8.667-64.729-11.516-74.22
						c-0.932-3.106-1.152-3.868-1.152-4.597h5.519c0-0.065,0.001-0.155-0.018-0.269c0.062,0.361,0.507,1.845,0.938,3.279
						c2.905,9.683,11.748,39.147,11.748,75.806C106.654,180.091,98.866,217.583,98.534,219.165z"/>
				</g>
				<polygon fill="#924B33" points="171.855,146.561 106.269,146.561 104.901,158.621 171.855,158.621 				"/>
				<rect x="102.774" y="171.99" fill="#A09D9C" width="69.749" height="5.748"/>
				<g>
					
						<rect x="137.716" y="180.165" transform="matrix(-0.121 -0.9927 0.9927 -0.121 12.0219 377.5107)" fill="#A09D9C" width="70.88" height="6.535"/>
				</g>
				<g>
					<path fill="#A09D9C" d="M86.577,228.294l-5.482-1.147c0.08-0.381,8-38.518,8-64.9c0-35.855-9.318-67.954-12.379-78.502
						c-1.011-3.478-1.225-4.239-1.225-4.965l3.514-3.348c-0.275-2.175,1.832,0.011,1.811-0.106c0.065,0.388,0.787,5.166,1.279,6.857
						c3.117,10.738,12.6,43.414,12.6,80.063C94.694,189.215,86.907,226.712,86.577,228.294z"/>
				</g>
				<rect x="92.903" y="155.318" fill="#A09D9C" width="65.495" height="12.424"/>
				<rect x="90.776" y="181.111" fill="#A09D9C" width="69.75" height="5.748"/>
				<g>
					
						<rect x="125.181" y="188.721" transform="matrix(-0.119 -0.9929 0.9929 -0.119 -10.2722 374.861)" fill="#A09D9C" width="71.983" height="6.534"/>
				</g>
				<polygon fill="#A09D9C" points="158.568,155.635 171.855,146.57 173.028,158.066 159.919,166.58 				"/>
				<path fill="#595857" d="M94.144,160.609c-0.8-0.492-0.623-1.885-0.232-4.324s10.74-8.02,13.16-8.484
					c2.42-0.464,13.939-2.439,30.576-2.673c16.635-0.231,33.388,1.976,34.208,3.138c0.819,1.162,1.141,3.291,0.625,4.301
					c-0.515,1.009-10.536,7.394-12.987,8.25C157.04,161.676,94.94,161.104,94.144,160.609z"/>
				<path fill="#77988F" d="M94.144,158.904c-0.8-0.492-0.623-1.885-0.232-4.326c0.391-2.439,10.74-8.02,13.16-8.482
					c2.42-0.465,13.939-2.441,30.576-2.674c16.635-0.232,33.388,1.975,34.208,3.139c0.819,1.16,1.141,3.291,0.625,4.299
					c-0.515,1.011-10.536,7.396-12.987,8.252C157.04,159.971,94.94,159.396,94.144,158.904z"/>
			</g>
			<path fill="#9FC6C3" d="M94.355,154.427c-2.444,0.372,7.103-7.366,11.976-8.243c2.674-0.481,14.138-2.61,30.774-2.844
				c16.636-0.232,33.294,1.822,34.114,2.984c0.156,0.222-2.648,1.084-5.33,2.666c-4.158,2.451-6.516,5.434-8.813,5.224
				C116.21,150.445,101.392,153.361,94.355,154.427z"/>
			<path fill="#77988F" d="M77.735,79.484c-0.611-2.264,0.747-4.594,3.021-5.175l13.15-3.363c2.272-0.581,4.631,0.796,5.242,3.06
				l5.044,18.678c0.611,2.264-0.777,4.426-2.995,5.188l-12.896,4.43c-2.219,0.763-4.458-0.153-5.07-2.418L77.735,79.484z"/>
			<path fill="#595857" d="M76.002,79.186c-0.626-2.324,0.769-4.713,3.1-5.311l13.496-3.451c2.331-0.597,4.751,0.816,5.38,3.14
				l5.176,19.166c0.627,2.323-0.723,4.865-2.997,5.646l-13.299,4.312c-2.276,0.783-4.587-0.246-5.214-2.57L76.002,79.186z"/>
			<path fill="#77988F" d="M77.201,79.271c-0.61-2.266,0.749-4.593,3.021-5.175l13.152-3.364c2.271-0.58,4.631,0.796,5.242,3.062
				l5.043,18.677c0.611,2.264-0.704,4.74-2.92,5.502l-12.896,4.43c-2.219,0.761-4.532-0.469-5.143-2.732L77.201,79.271z"/>
			<path fill="#9FC6C3" d="M96.915,73.619c0.578-0.102,3.523-2.266,3.971-2.346c-2.843-4.689-21.104,2.302-21.104,2.302
				c-2.426,0.855-2.87,2.94-2.702,4.946c1.283-0.65,4.008-1.607,5.018,0.108c1.065,1.812,5.33-3.306,6.502-3.411
				C89.771,75.111,92.118,74.473,96.915,73.619z"/>
			<path fill="#698C81" d="M81.935,78.104c-0.559-2.245,0.828-4.516,3.079-5.044l12.198-3.077c2.252-0.529,4.552,0.873,5.109,3.117
				l4.61,18.516c0.558,2.244-0.786,4.66-2.989,5.369l-11.965,4.133c-2.203,0.709-4.461-0.549-5.018-2.793L81.935,78.104z"/>
			<path fill="#698C81" d="M103.044,96.115c0.236-0.365,0.43-0.754,0.559-1.169l-0.754,0.138l-2.133,1.207l-3.766,1.848
				c0,0-1.564,0-2.062-0.07c-0.497-0.071-7.393-1.281-7.462,1.278c-0.063,2.248-3.083,1.699-4.541,0.81
				c0.793,1.943,2.908,2.949,4.957,2.246l8.83-3.033L103.044,96.115z"/>
		</g>
		<path opacity="0.6" fill="#7D8C91" enable-background="new    " d="M162.753,177.738h6.426l5.026,41.257l6.487-0.792l-8.053-66.08
			c0.12-0.498,0.113-1.126,0.008-1.762c0.244-1.102-0.088-2.805-0.792-3.803c-0.1-0.14-0.433-0.293-0.964-0.457
			c-2.544-1.185-18.176-2.98-33.786-2.763c-1.247,0.019-2.452,0.05-3.64,0.086c-10.361,4.097-16.929,9.855,5.459,13.868
			c32.498,5.825,18.09,3.372,18.09,3.372l8.438,67.053l3.234-0.456L162.753,177.738z M161.308,165.68l5.93-3.854l1.24,10.164h-6.413
			L161.308,165.68z"/>
	</g>
	<g>
		<g>
			<rect x="233.695" y="77.766" fill="#818489" width="4.329" height="11.512"/>
		</g>
		<g>
			<rect x="233.695" y="77.766" fill="#030303" width="4.329" height="3.396"/>
		</g>
		<g>
			<path fill="#818489" d="M242.57,88.039h-13.42c-2.016,0-3.65,1.635-3.65,3.652v14.307c0,0.92,0.746,1.666,1.666,1.666h17.39
				c0.92,0,1.666-0.746,1.666-1.666V91.691C246.221,89.674,244.587,88.039,242.57,88.039z"/>
		</g>
		<g>
			<path fill="#FEAF51" d="M225.5,96.079h8.195c0,0-0.13-3.072,2.165-3.294c2.295-0.223,2.164,3.294,2.164,3.294l8.196-0.037v5.32
				h-20.723v-5.283H225.5z"/>
		</g>
	</g>
	<g>
		<g>
			<path fill="#030303" d="M211.194,86.692v21.32h10.086v-21.32c0-1.582-1.172-2.904-2.745-3.285V74.72h-4.604v8.687
				C212.356,83.788,211.194,85.11,211.194,86.692z"/>
		</g>
		<g>
			<rect x="213.934" y="73.583" fill="#FCDDD2" width="4.604" height="5.554"/>
		</g>
		<g>
			<rect x="213.934" y="72.855" fill="#030303" width="4.604" height="1.272"/>
		</g>
		<g>
			<rect x="213.704" y="73.229" fill="#030303" width="5.064" height="0.714"/>
		</g>
		<g>
			<rect x="211.194" y="90.159" fill="#FB6D75" width="10.086" height="11.893"/>
		</g>
		<g>
			<path opacity="0.3" fill="#FFFFFF" enable-background="new    " d="M218.61,84.474c0.157-0.097,0.952,0.734,1.347,1.84
				c0.479,1.35,0.248,2.796,0.053,2.816c-0.123,0.014-0.187-0.562-0.752-2.414C218.75,85.058,218.5,84.543,218.61,84.474z"/>
		</g>
	</g>
	<g>
		<g>
			<g>
				<path fill="#FCDDD2" d="M245.53,98.114c0,0-0.288-1.459,0.509-1.435c0.797,0.024,0.647,1.35,0.647,1.35s1.344-0.122,1.37,0.517
					c0.027,0.638-1.37,0.612-1.37,0.612l-0.994-0.294L245.53,98.114z"/>
			</g>
			<g>
				<path fill="#FCDDD2" d="M250.16,101.62c-0.193-0.665-0.119-1.222,0.192-1.384c0.03-0.017,0.122-0.049,0.231-0.046
					c0.797,0.024,0.649,1.351,0.649,1.351c0.056,0.093,0.146,0.203,0.286,0.241c0.232,0.061,0.367-0.144,0.636-0.104
					c0.202,0.028,0.417,0.184,0.448,0.379c0.037,0.223-0.182,0.401-0.242,0.451c-0.385,0.316-0.965,0.177-1.047,0.155
					c-0.357-0.096-0.717-0.191-1.075-0.287C250.212,102.124,250.186,101.872,250.16,101.62z"/>
			</g>
			<g>
				<path fill="#FBB59F" d="M237.277,106.271c-0.061-0.058-0.117-0.111-0.171-0.163c-1.397-1.337-1.772-3.107-0.328-4.559
					c0.917-0.922,2.302-1.367,3.655-1.392c0.548-0.01,1.104,0.042,1.64-0.066c0.435-0.089,0.837-0.28,1.222-0.487
					c0.795-0.427,1.545-0.927,2.235-1.49c0.347,0.382,0.734,0.732,1.156,1.044c-1.14,0.658-2.376,1.439-2.674,2.651
					c-0.312,1.274,0.005,2.464-0.574,3.711c-0.46,0.993-1.229,1.999-2.347,2.427C239.815,108.438,238.181,107.112,237.277,106.271z"
					/>
			</g>
			<g>
				<path fill="#FB6D75" d="M230.955,107.962c-0.16-0.468-0.302-0.958-0.229-1.443c0.129-0.868,0.896-1.527,1.679-2.021
					c2.661-1.674,5.932-2.259,9.116-2.692c0.964-0.132,1.935-0.252,2.908-0.236c1.883,0.031,3.821,0.632,5.084,1.925
					c1.261,1.293,1.68,3.341,0.702,4.83c-0.75,1.142-2.146,1.786-3.528,2.173c-1.22,0.341-2.481,0.528-3.75,0.631
					c-1.271,0.103-2.545,0.122-3.817,0.132c-1.289,0.011-2.576,0.012-3.863,0.078c-0.573,0.03-1.145,0.09-1.717,0.129
					c-0.332,0.023-0.672,0.02-0.933-0.196c-0.379-0.313-0.58-0.849-0.788-1.264c-0.271-0.538-0.512-1.089-0.722-1.65
					C231.048,108.227,231,108.095,230.955,107.962z"/>
			</g>
			<g>
				<path fill="#FBB59F" d="M241.905,109.776c-0.06-0.057-0.116-0.11-0.171-0.162c-1.396-1.337-1.771-3.108-0.326-4.56
					c0.916-0.921,2.301-1.366,3.654-1.391c0.548-0.01,1.104,0.043,1.641-0.066c0.435-0.089,0.834-0.28,1.221-0.487
					c0.795-0.427,1.545-0.928,2.236-1.49c0.346,0.382,0.734,0.731,1.155,1.043c-1.14,0.659-2.377,1.44-2.673,2.651
					c-0.313,1.275,0.003,2.465-0.574,3.712c-0.462,0.993-1.23,1.999-2.347,2.427C244.444,111.942,242.81,110.618,241.905,109.776z"
					/>
			</g>
		</g>
		<g>
			<path fill="#32539E" d="M228.893,107.489c-0.05-0.665,0.399-1.364,1.095-1.548c0.451-0.117,0.952-0.013,1.333,0.239
				c0.382,0.25,0.646,0.636,0.781,1.05c0.122,0.371,0.14,0.784-0.033,1.138c-0.049,0.102-0.112,0.196-0.183,0.285
				c-0.305,0.387-0.743,0.809-1.295,0.644c-0.574-0.174-1.073-0.491-1.396-0.973C229.025,108.073,228.916,107.786,228.893,107.489z"
				/>
		</g>
		<g>
			<path fill="#32539E" d="M249.182,106.558c-0.011-0.25,0.071-0.517,0.274-0.681c0.197-0.159,0.475-0.2,0.734-0.213
				c0.473-0.022,0.994,0.044,1.316,0.365c0.412,0.41,0.311,1.123-0.129,1.51c-0.352,0.31-0.854,0.424-1.33,0.393
				c-0.439-0.03-0.521-0.209-0.646-0.563C249.309,107.104,249.193,106.841,249.182,106.558z"/>
		</g>
		<g>
			<path fill="#32539E" d="M251.931,107.108c-0.012-0.228,0.074-0.47,0.29-0.618c0.208-0.145,0.499-0.182,0.774-0.193
				c0.498-0.021,1.047,0.04,1.387,0.33c0.436,0.373,0.328,1.021-0.135,1.373c-0.369,0.281-0.9,0.385-1.4,0.355
				c-0.465-0.026-0.551-0.189-0.684-0.511C252.064,107.604,251.943,107.365,251.931,107.108z"/>
		</g>
		<g>
			<path fill="#203C75" d="M235.521,107.542c-0.346-0.597-0.368-1.343-0.063-1.957c0.24,0.374,0.563,0.701,0.943,0.958
				c0.055,0.037,0.113,0.072,0.18,0.077c0.172,0.013,0.271-0.168,0.326-0.318c0.189-0.533,0.379-1.066,0.568-1.6
				c0.376,0.188,0.634,0.566,0.654,0.961c0.015,0.225-0.045,0.45-0.012,0.674c0.031,0.223,0.198,0.459,0.441,0.466
				c0.109,0.003,0.215-0.041,0.313-0.087c0.418-0.193,0.812-0.438,1.162-0.724c0.188,0.271,0.266,0.606,0.211,0.925
				c0.348,0.097,0.812,0.049,0.979,0.345c0.163,0.284-0.117,0.609-0.396,0.801c-0.682,0.465-1.504,0.743-2.346,0.812
				c-0.396,0.032-0.826,0.036-1.214-0.058c-0.283-0.069-0.538-0.25-0.789-0.38C236.08,108.228,235.738,107.919,235.521,107.542z"/>
		</g>
		<g>
			<path fill="#FCDDD2" d="M231.673,114.677h19.996c1.565,0,2.836-1.173,2.836-2.62v-4.004h-25.668v4.004
				C228.837,113.504,230.107,114.677,231.673,114.677z"/>
		</g>
		<g>
			<path fill="#3169AF" d="M229.147,109.976c-0.2-0.609-0.31-1.254-0.31-1.923h25.666c0,0.599-0.094,1.176-0.254,1.727
				C245.656,111.514,237.671,109.284,229.147,109.976z"/>
		</g>
		<g>
			<rect x="228.044" y="107.531" fill="#FCDDD2" width="27.369" height="1.809"/>
		</g>
		<g>
			<path fill="#203C75" d="M256.658,107.973c0.146,0.054,0.297,0.11,0.45,0.11c0.146,0,0.279-0.054,0.406-0.105
				c0.516-0.211,1.03-0.423,1.548-0.635c-1.122,0.284-2.467-0.642-3.583-0.343c-0.331,0.088-0.599,0.276-0.854,0.461
				c-0.004-0.359,0.263-0.66,0.565-0.891c0.304-0.229,0.657-0.415,0.913-0.684c0.378-0.395,0.504-0.927,0.62-1.439
				c-0.333,0.259-0.754,0.439-1.214,0.518c-0.449,0.077-0.932,0.058-1.369,0.162s-0.85,0.382-0.848,0.773
				c0.002,0.3,0.242,0.579,0.474,0.828c0.366,0.396,0.756,0.791,1.248,1.076c0.524,0.304,1.218,0.535,1.405,1.034
				c0.158,0.417-0.149,0.835-0.58,1.023c-0.432,0.187-0.954,0.197-1.461,0.204c0.383-0.247,0.338-0.754,0.207-1.176
				c-0.119-0.38-0.352-0.894-0.115-1.243c0.22-0.324,0.808-0.103,1.154-0.007C255.975,107.738,256.319,107.849,256.658,107.973z"/>
		</g>
		<g>
			<path fill="#203C75" d="M233.085,102.943c-0.012-0.076-0.022-0.155-0.074-0.22c-0.051-0.062-0.133-0.103-0.215-0.142
				c-0.324-0.159-0.651-0.318-0.979-0.478c0.585,0.395,0.378,1.212,0.971,1.6c0.176,0.114,0.4,0.175,0.621,0.233
				c-0.258,0.098-0.563,0.069-0.828,0.005c-0.269-0.065-0.521-0.163-0.799-0.198c-0.412-0.051-0.835,0.042-1.24,0.133
				c0.297,0.069,0.568,0.197,0.781,0.369c0.207,0.168,0.357,0.375,0.58,0.53c0.223,0.156,0.563,0.253,0.842,0.146
				c0.213-0.083,0.33-0.26,0.432-0.425c0.158-0.263,0.309-0.533,0.345-0.817c0.04-0.305-0.03-0.658,0.263-0.874
				c0.244-0.179,0.647-0.165,0.928-0.034c0.281,0.129,0.467,0.347,0.644,0.558c-0.308-0.093-0.653,0.063-0.91,0.233
				c-0.231,0.154-0.521,0.391-0.85,0.388c-0.308-0.004-0.349-0.311-0.396-0.483C233.152,103.295,233.111,103.119,233.085,102.943z"
				/>
		</g>
	</g>
</g>
</svg>
